<svg width="350" height="163" viewBox="0 0 350 163" fill="none" xmlns="http://www.w3.org/2000/svg">
<path d="M0.84 40.432V49H2.148V42.88H2.196L4.824 49H5.952L8.58 42.88H8.628V49H9.936V40.432H8.388L5.412 47.296H5.376L2.388 40.432H0.84ZM14.8973 42.628C14.1293 42.628 13.5053 42.76 13.0493 43.048C12.5213 43.36 12.1853 43.864 12.0533 44.536L13.3133 44.644C13.3853 44.296 13.5653 44.044 13.8533 43.876C14.0933 43.732 14.4173 43.66 14.8133 43.66C15.7493 43.66 16.2173 44.092 16.2173 44.956V45.208L14.8253 45.244C13.9133 45.268 13.1933 45.448 12.6893 45.808C12.1373 46.18 11.8613 46.72 11.8613 47.416C11.8613 47.932 12.0533 48.352 12.4493 48.676C12.8093 49 13.3133 49.168 13.9613 49.168C14.5133 49.168 14.9933 49.06 15.4013 48.868C15.7613 48.688 16.0613 48.436 16.3013 48.124V49H17.4773V45.04C17.4773 44.284 17.2853 43.708 16.9133 43.312C16.4813 42.856 15.8093 42.628 14.8973 42.628ZM16.2173 46.132V46.492C16.2173 46.972 16.0133 47.38 15.6293 47.704C15.2453 48.028 14.7893 48.196 14.2493 48.196C13.9253 48.196 13.6613 48.112 13.4693 47.956C13.2653 47.8 13.1693 47.608 13.1693 47.368C13.1693 46.6 13.7453 46.192 14.9093 46.168L16.2173 46.132ZM21.4173 40.792L20.1453 41.32V42.796H18.9933V43.852H20.1453V47.452C20.1453 47.944 20.2533 48.316 20.4933 48.58C20.7333 48.856 21.1293 49 21.6573 49H22.6773V47.944H21.8613C21.7053 47.944 21.5973 47.896 21.5253 47.824C21.4533 47.74 21.4173 47.62 21.4173 47.452V43.852H22.8333V42.796H21.4173V40.792ZM27.2175 42.628C26.2575 42.628 25.5135 42.952 24.9735 43.6C24.4695 44.2 24.2175 44.968 24.2175 45.904C24.2175 46.864 24.4695 47.632 24.9855 48.232C25.5135 48.856 26.2455 49.168 27.1935 49.168C27.9855 49.168 28.6335 48.964 29.1135 48.568C29.5935 48.16 29.9175 47.536 30.0615 46.708H28.8015C28.6815 47.644 28.1535 48.124 27.2055 48.124C26.6535 48.124 26.2455 47.92 25.9695 47.536C25.6695 47.14 25.5255 46.588 25.5255 45.892C25.5255 45.196 25.6695 44.644 25.9815 44.26C26.2815 43.864 26.6895 43.672 27.2175 43.672C27.6495 43.672 27.9975 43.768 28.2615 43.972C28.5255 44.164 28.6935 44.476 28.7775 44.896H30.0375C29.9175 44.128 29.6055 43.552 29.1255 43.168C28.6455 42.808 28.0095 42.628 27.2175 42.628ZM31.7489 40.264V49H33.0209V45.52C33.0209 44.98 33.1529 44.536 33.4289 44.188C33.6929 43.84 34.0409 43.672 34.4729 43.672C34.9529 43.672 35.3249 43.816 35.5649 44.116C35.7809 44.404 35.9009 44.812 35.9009 45.364V49H37.1729V45.148C37.1729 44.332 36.9929 43.708 36.6329 43.288C36.2489 42.844 35.6849 42.628 34.9409 42.628C34.5449 42.628 34.1969 42.7 33.8849 42.868C33.5369 43.036 33.2489 43.312 33.0209 43.672V40.264H31.7489ZM39.3361 40.432V45.736C39.3361 46.852 39.6481 47.704 40.2721 48.304C40.8721 48.88 41.7361 49.168 42.8761 49.168C44.0041 49.168 44.8681 48.868 45.4801 48.292C46.0921 47.704 46.4041 46.852 46.4041 45.736V40.432H45.0961V45.76C45.0961 46.528 44.9161 47.092 44.5681 47.464C44.2081 47.836 43.6441 48.028 42.8761 48.028C42.0961 48.028 41.5321 47.836 41.1721 47.464C40.8121 47.092 40.6441 46.528 40.6441 45.76V40.432H39.3361ZM50.8743 42.628C50.1303 42.628 49.5183 42.784 49.0503 43.108C48.5823 43.42 48.3543 43.864 48.3543 44.428C48.3543 44.956 48.5943 45.376 49.0743 45.676C49.3623 45.868 49.8783 46.048 50.6103 46.216C51.2463 46.36 51.6663 46.48 51.8583 46.576C52.2183 46.744 52.4103 46.984 52.4103 47.284C52.4103 47.836 51.9063 48.124 50.9223 48.124C50.4423 48.124 50.1063 48.04 49.8903 47.884C49.6743 47.716 49.5183 47.416 49.4463 46.996H48.1983C48.3423 48.436 49.2543 49.168 50.9583 49.168C52.7943 49.168 53.7183 48.508 53.7183 47.2C53.7183 46.648 53.4663 46.216 52.9743 45.904C52.6383 45.688 52.1103 45.484 51.4023 45.316C50.7783 45.16 50.3703 45.04 50.1543 44.944C49.8183 44.788 49.6503 44.608 49.6503 44.392C49.6503 44.152 49.7583 43.96 49.9863 43.84C50.1783 43.72 50.4663 43.672 50.8503 43.672C51.2823 43.672 51.6183 43.744 51.8343 43.888C52.0383 44.02 52.1823 44.248 52.2783 44.584H53.5143C53.3703 43.276 52.4823 42.628 50.8743 42.628ZM60.2047 43.288V44.188H56.4847L55.9087 47.164H59.0527C58.3327 47.836 57.0847 48.46 55.3327 49.012L55.9687 50.044C57.9487 49.288 59.3647 48.4 60.2047 47.368V50.248H61.3087V47.164H64.5007C64.5007 47.644 64.4647 47.992 64.4167 48.208C64.3447 48.436 64.1407 48.556 63.8047 48.556C63.3127 48.556 62.7847 48.532 62.2207 48.508L62.4967 49.588C62.9767 49.6 63.4807 49.612 63.9847 49.612C64.7047 49.6 65.1607 49.396 65.3647 48.988C65.5567 48.592 65.6647 47.656 65.6647 46.192H61.3087V45.22H65.2327V42.244H56.2567V43.288H60.2047ZM60.2047 45.22V46.192H57.2527L57.4927 45.22H60.2047ZM61.3087 44.188V43.288H64.0687V44.188H61.3087ZM57.1327 40.924H57.7567C58.0447 41.308 58.3087 41.716 58.5367 42.124L59.5567 41.752C59.4007 41.488 59.2087 41.212 58.9807 40.924H60.6727V39.928H57.6847C57.7567 39.748 57.8407 39.556 57.9247 39.352L56.8207 39.112C56.5087 39.94 55.9807 40.708 55.2487 41.428L56.2447 42.04C56.5687 41.692 56.8687 41.32 57.1327 40.924ZM62.2327 40.876H62.9527C63.2647 41.272 63.5287 41.692 63.7447 42.124L64.7527 41.752C64.5967 41.476 64.3927 41.188 64.1527 40.876H66.0967V39.88H62.7127C62.7727 39.712 62.8327 39.532 62.9047 39.352L61.8127 39.112C61.5367 39.94 61.0807 40.72 60.4447 41.44L61.4287 42.052C61.7287 41.692 61.9927 41.296 62.2327 40.876ZM68.4127 40.432L67.9447 45.232H69.1687C69.3367 44.92 69.5647 44.692 69.8767 44.548C70.1647 44.404 70.4887 44.344 70.8727 44.344C71.4487 44.344 71.8807 44.512 72.1927 44.848C72.5047 45.184 72.6607 45.652 72.6607 46.252C72.6607 46.804 72.4807 47.236 72.1207 47.572C71.7607 47.896 71.3167 48.064 70.7887 48.064C70.3087 48.064 69.9247 47.956 69.6367 47.74C69.3127 47.5 69.1207 47.128 69.0727 46.648H67.7887C67.8487 47.44 68.1847 48.076 68.7967 48.532C69.3487 48.952 70.0087 49.168 70.7767 49.168C71.6287 49.168 72.3607 48.916 72.9727 48.412C73.6207 47.848 73.9567 47.128 73.9567 46.24C73.9567 45.316 73.6927 44.596 73.1887 44.068C72.6847 43.54 72.0247 43.276 71.2207 43.276C70.8367 43.276 70.4767 43.336 70.1647 43.468C69.8167 43.588 69.5167 43.78 69.2527 44.056H69.2167L69.4687 41.584H73.5727V40.432H68.4127ZM76.436 39.22V40.456H75.788V41.512H76.436V46.324H75.656V47.38H81.404V46.324H80.72V41.512H81.344V40.456H80.72V39.244H79.616V40.456H77.54V39.22H76.436ZM77.54 46.324V45.388H79.616V46.324H77.54ZM79.616 41.512V42.46H77.54V41.512H79.616ZM77.54 44.392V43.456H79.616V44.392H77.54ZM79.676 47.524L78.8 48.088C79.304 48.796 79.712 49.444 80.012 50.044L80.696 49.564L81.512 50.32C82.304 49.264 82.784 47.956 82.952 46.384H84.992V48.568C84.992 48.892 84.86 49.06 84.596 49.06C84.224 49.06 83.828 49.036 83.396 49.012L83.708 50.128H84.956C85.736 50.128 86.132 49.744 86.132 48.976V39.544H81.884V45.28C81.872 46.84 81.524 48.136 80.852 49.192C80.564 48.712 80.168 48.148 79.676 47.524ZM77.072 47.548C76.64 48.328 76.136 49 75.56 49.564L76.46 50.212C77.036 49.588 77.552 48.844 77.984 47.992L77.072 47.548ZM83.024 43.492H84.992V45.34H83.024V43.492ZM84.992 42.46H83.024V40.624H84.992V42.46ZM91.316 42.568V43.66H94.64V45.22H92.084V50.236H93.224V49.648H97.316V50.224H98.444V45.22H95.804V43.66H99.152V42.568H95.804V40.816C96.884 40.66 97.832 40.432 98.66 40.144L98.096 39.184C96.32 39.76 94.136 40.048 91.532 40.048L91.892 41.068C92.864 41.068 93.776 41.02 94.64 40.948V42.568H91.316ZM93.224 48.58V46.288H97.316V48.58H93.224ZM89.288 39.28L88.508 40.012C89.384 40.588 90.068 41.128 90.548 41.62L91.328 40.852C90.764 40.324 90.08 39.796 89.288 39.28ZM89.012 42.136L88.208 42.916C89.096 43.552 89.792 44.14 90.284 44.692L91.076 43.9C90.524 43.312 89.828 42.724 89.012 42.136ZM90.176 45.364C89.684 46.804 89.096 48.208 88.412 49.588L89.552 50.092C90.152 48.748 90.716 47.308 91.22 45.772L90.176 45.364ZM101.288 39.904V40.996H105.752V39.904H101.288ZM100.844 43.144V44.248H102.38C101.828 46.264 101.396 47.5 101.072 47.968C101.024 48.004 100.952 48.04 100.832 48.064L101.108 49.144C102.572 48.88 103.928 48.532 105.188 48.1L105.5 48.868L106.484 48.364C105.98 47.152 105.452 46.036 104.9 45.028L103.94 45.496C104.216 46.012 104.492 46.564 104.768 47.152C103.964 47.452 103.16 47.692 102.368 47.86C102.68 47.092 103.052 45.892 103.484 44.248H106.184V43.144H100.844ZM107.816 39.196V41.524H106.292V42.628H107.816V42.736C107.792 45.868 107.048 48.136 105.596 49.552L106.448 50.308C108.08 48.712 108.908 46.192 108.944 42.736V42.628H110.432C110.408 45.82 110.372 47.704 110.3 48.268C110.204 48.844 109.904 49.132 109.376 49.132C109.064 49.132 108.692 49.108 108.26 49.072L108.524 50.08C109.004 50.104 109.34 50.128 109.532 50.128C110.624 50.128 111.236 49.672 111.368 48.76C111.476 47.848 111.536 45.436 111.536 41.524H108.944V39.196H107.816Z" fill="#918AE3"/>
<path d="M6.952 66.66V69.014H21.032V66.66H6.952ZM7.722 62.216V64.526H20.284V62.216H7.722ZM12.386 63.338V66.836C12.386 68.882 11.924 71.698 6.952 73.502C7.568 73.964 8.382 74.866 8.712 75.416C13.948 73.15 15.026 69.674 15.026 66.88V63.338H12.386ZM15.422 68.332L13.2 68.794C14.278 72.116 16.17 74.382 19.426 75.46C19.778 74.778 20.504 73.766 21.076 73.238C18.172 72.49 16.302 70.774 15.422 68.332ZM6.094 66.902H0.946V69.344H3.52V74.998H6.094V66.902ZM6.094 73.854H3.674C2.662 74.646 1.474 75.416 0.484 76.032L1.782 78.782C2.97 77.814 3.96 76.978 4.928 76.12C6.358 77.836 8.184 78.474 10.89 78.584C13.53 78.694 17.974 78.65 20.636 78.518C20.746 77.726 21.186 76.45 21.472 75.834C18.502 76.076 13.508 76.142 10.934 76.032C8.646 75.944 6.974 75.306 6.094 73.854ZM0.99 60.412C2.288 61.402 3.872 62.876 4.532 63.91L6.644 62.172C5.896 61.138 4.268 59.752 2.948 58.828L0.99 60.412ZM16.918 58.3C16.522 59.378 15.73 60.83 15.092 61.798L17.248 62.568C17.952 61.71 18.81 60.412 19.624 59.136L16.918 58.3ZM8.294 59.268C9.064 60.346 9.834 61.798 10.076 62.744L12.474 61.71C12.166 60.742 11.352 59.356 10.538 58.366L8.294 59.268ZM33.022 58.388C32.274 61.446 30.932 64.482 29.26 66.374C29.854 66.77 30.91 67.628 31.372 68.09C33.132 65.912 34.694 62.458 35.618 58.982L33.022 58.388ZM32.406 68.178C31.9 70.62 30.954 73.128 29.722 74.668C30.338 74.998 31.46 75.68 31.966 76.098C33.198 74.316 34.342 71.5 34.958 68.706L32.406 68.178ZM33.506 62.26L32.516 64.702H42.526V62.26H33.506ZM36.036 63.338V76.01C36.036 76.296 35.926 76.362 35.64 76.362C35.332 76.362 34.408 76.384 33.484 76.34C33.858 77.066 34.254 78.232 34.386 79.002C35.794 79.002 36.872 78.892 37.642 78.474C38.434 78.034 38.654 77.308 38.654 76.032V63.338H36.036ZM39.424 68.75C40.502 71.016 41.426 74.052 41.668 76.032L44.198 75.152C43.89 73.15 42.944 70.224 41.8 67.958L39.424 68.75ZM41.822 62.26V62.612C41.668 64.152 41.426 66.11 41.228 67.298L43.494 67.694C43.78 66.374 44.176 64.328 44.44 62.524L42.592 62.194L42.174 62.26H41.822ZM28.314 58.41C27.192 61.556 25.278 64.68 23.276 66.682C23.738 67.32 24.442 68.772 24.684 69.41C27.082 66.902 29.37 62.942 30.8 59.18L28.314 58.41ZM26.18 64.482V78.958H28.71V61.996L28.688 61.974L26.18 64.482ZM47.036 66.99V69.872H67.408V66.99H47.036ZM76.032 59.114V61.49H84.04V59.114H76.032ZM74.734 59.114V61.952C74.734 63.822 74.25 65.692 70.224 66.968C70.664 67.408 71.5 68.596 71.764 69.19C76.362 67.606 77.374 64.68 77.374 62.04V59.114H74.734ZM82.786 59.114V64.306C82.786 66.704 83.424 67.43 85.602 67.43C86.02 67.43 87.252 67.43 87.714 67.43C89.606 67.43 90.266 66.55 90.486 63.184C89.804 63.008 88.682 62.568 88.154 62.15C88.088 64.658 87.978 65.054 87.45 65.054C87.164 65.054 86.284 65.054 86.042 65.054C85.514 65.054 85.448 64.966 85.448 64.262V59.114H82.786ZM70.4 69.828V72.16H90.2V69.828H70.4ZM78.936 67.386V78.958H81.598V67.386H78.936ZM78.166 71.06C76.45 73.238 73.128 75.262 69.96 76.23C70.51 76.758 71.28 77.726 71.676 78.364C74.888 77.11 78.144 74.668 80.08 71.852L78.166 71.06ZM82.368 70.994L80.432 71.83C82.412 74.58 85.69 77 88.924 78.232C89.32 77.572 90.112 76.56 90.706 76.054C87.472 75.086 84.106 73.15 82.368 70.994Z" fill="#918AE3"/>
<path d="M102.014 58.63V75.658C102.014 76.098 101.838 76.252 101.354 76.252C100.892 76.274 99.242 76.296 97.79 76.208C98.208 76.934 98.714 78.188 98.846 78.958C101.002 78.98 102.52 78.892 103.532 78.452C104.544 78.034 104.918 77.308 104.918 75.68V58.63H102.014ZM107.316 64.416C109.054 67.65 110.726 71.808 111.188 74.47L114.07 73.326C113.52 70.576 111.694 66.55 109.89 63.448L107.316 64.416ZM96.25 63.668C95.788 66.55 94.666 70.422 92.884 72.666C93.61 72.952 94.82 73.568 95.458 74.052C97.306 71.61 98.516 67.496 99.264 64.174L96.25 63.668ZM116.952 73.282C116.952 72.798 118.646 71.984 118.646 71.984V71.918C120.934 69.85 123.31 67.012 125.07 64.174L122.76 62.656C121.198 65.604 118.778 68.596 117.964 69.366C117.194 70.136 116.71 70.62 116.072 70.752C116.402 71.456 116.82 72.754 116.952 73.282ZM116.952 73.282C117.59 72.93 118.558 72.71 124.432 71.764C124.344 71.214 124.278 70.158 124.322 69.454L118.008 70.334L116.82 71.148L116.952 73.282ZM116.776 67.914C116.776 67.43 118.382 66.572 118.382 66.572V66.506C119.944 64.592 121.638 61.864 122.782 59.29L120.142 58.212C119.284 60.742 117.766 63.426 117.26 64.108C116.754 64.812 116.38 65.252 115.896 65.384C116.182 66.088 116.622 67.364 116.776 67.914ZM116.776 67.914C117.282 67.672 118.118 67.496 122.276 67.1C122.298 66.528 122.408 65.56 122.584 64.856L117.876 65.208L116.71 65.956L116.776 67.914ZM116.072 75.394L116.534 78.122C118.734 77.594 121.55 76.956 124.19 76.318L123.904 73.832C121.066 74.426 118.074 75.064 116.072 75.394ZM124.784 60.17V62.81H136.202V60.17H124.784ZM124.41 75.02V77.66H136.664V75.02H124.41ZM129.074 61.05V76.516H131.956V61.05H129.074ZM144.672 64.526C143.418 67.166 141.24 69.762 138.952 71.346C139.568 71.764 140.646 72.71 141.108 73.194C143.396 71.346 145.794 68.376 147.312 65.34L144.672 64.526ZM149.732 64.9V75.108C149.732 77.858 150.458 78.672 153.142 78.672C153.692 78.672 156.002 78.672 156.574 78.672C158.928 78.672 159.632 77.594 159.94 74.008C159.236 73.854 158.136 73.414 157.564 72.974C157.432 75.702 157.256 76.23 156.354 76.23C155.826 76.23 153.912 76.23 153.472 76.23C152.504 76.23 152.35 76.098 152.35 75.108V64.9H149.732ZM157.168 66.418C155.562 67.65 153.032 69.058 150.678 70.004C151.03 70.532 151.448 71.412 151.602 71.962C154.11 71.016 156.97 69.784 159.148 68.442L157.168 66.418ZM139.788 60.192V62.722H159.368V60.192H139.788ZM144.694 58.322V64.768H147.29V58.322H144.694ZM151.954 58.322V64.812H154.594V58.322H151.954ZM143.066 69.146V78.98H145.662V66.55V66.528L143.066 69.146Z" fill="#F3ACDB"/>
<path d="M4.308 100.788V101.628H7.056V104.94H3.816V105.792H11.34V104.94H7.932V101.628H10.8V100.788H7.932V98.556H7.056V100.788H4.308ZM2.376 101.316V106.236H3.228V100.332C3.876 99.516 4.44 98.628 4.908 97.68H11.328V96.828H5.292C5.508 96.312 5.688 95.772 5.856 95.22L4.956 95.112C4.788 95.7 4.572 96.276 4.332 96.828H0.84V97.68H3.924C3.084 99.276 1.92 100.692 0.42 101.928L0.96 102.636C1.464 102.216 1.932 101.772 2.376 101.316ZM13.284 95.976V96.732H17.172C17.076 97.044 16.968 97.356 16.86 97.668H13.872V98.424H16.536C16.38 98.748 16.212 99.06 16.032 99.36H12.888V100.128H15.492C14.676 101.148 13.656 101.892 12.42 102.372L12.852 103.092C13.596 102.78 14.292 102.372 14.916 101.868V106.248H15.768V105.732H20.304V106.224H21.156V101.676C21.708 102.192 22.392 102.648 23.232 103.044L23.604 102.276C22.32 101.748 21.372 101.028 20.772 100.128H23.112V99.36H16.992C17.16 99.06 17.316 98.748 17.46 98.424H22.164V97.668H17.76C17.868 97.38 17.976 97.068 18.072 96.732H22.716V95.976H18.276C18.336 95.712 18.396 95.448 18.444 95.184L17.556 95.1L17.376 95.976H13.284ZM20.616 101.124H15.72C15.996 100.824 16.26 100.488 16.512 100.128H19.932C20.112 100.464 20.34 100.8 20.616 101.124ZM15.768 104.964V103.788H20.304V104.964H15.768ZM15.768 103.032V101.88H20.304V103.032H15.768ZM29.556 96.408V97.308H24.852V98.1H28.416C27.72 98.868 26.46 99.552 24.636 100.164L25.104 100.92C27.156 100.128 28.548 99.18 29.292 98.1H29.556V100.14H30.444V98.1H30.708C31.524 99.252 32.952 100.176 34.992 100.884L35.376 100.08C33.624 99.6 32.352 98.94 31.548 98.1H35.148V97.308H30.444V96.348C31.812 96.252 33 96.096 34.032 95.904L33.648 95.232C31.56 95.568 28.944 95.748 25.8 95.76L26.052 96.492C27.3 96.492 28.476 96.456 29.556 96.408ZM25.08 102.996V103.788H29.832V104.88C29.832 105.204 29.652 105.372 29.316 105.372C28.812 105.372 28.344 105.36 27.912 105.348L28.128 106.128H29.616C30.336 106.128 30.708 105.804 30.708 105.156V103.788H34.908V102.996H30.708V102.624C31.5 102.204 32.22 101.772 32.868 101.34V100.584H26.796V101.34H31.716C31.284 101.58 30.66 101.904 29.832 102.288V102.996H25.08ZM38.232 103.572C37.992 103.572 37.812 103.632 37.668 103.776C37.524 103.908 37.452 104.088 37.452 104.316C37.452 104.52 37.524 104.7 37.668 104.844C37.812 104.988 37.98 105.06 38.184 105.06C38.304 105.06 38.4 105.036 38.448 105.012C38.448 105.3 38.364 105.564 38.184 105.816C37.992 106.056 37.74 106.236 37.428 106.344V106.932C37.932 106.8 38.352 106.536 38.664 106.152C38.976 105.744 39.132 105.276 39.132 104.748C39.132 104.4 39.048 104.124 38.892 103.908C38.724 103.68 38.496 103.572 38.232 103.572ZM57.768 106.152C58.464 106.152 58.812 105.756 58.812 104.976V95.664H49.188V106.188H50.052V96.504H57.948V104.784C57.948 105.144 57.792 105.324 57.492 105.324L55.932 105.288L56.172 106.152H57.768ZM50.928 97.884V98.688H57.084V97.884H50.928ZM51.6 99.984V103.848H56.412V99.984H51.6ZM55.572 103.08H52.44V100.764H55.572V103.08ZM60.72 99.876V100.572H61.872V104.724L60.756 104.772L60.864 105.516C62.532 105.42 63.936 105.3 65.076 105.168V106.224H65.916V105.06C66.156 105.012 66.396 104.976 66.612 104.94V104.256C66.396 104.292 66.156 104.328 65.916 104.364V100.572H71.304V99.876H60.72ZM62.652 104.688V103.656H65.076V104.472C64.356 104.556 63.54 104.628 62.652 104.688ZM62.652 103.02V102.12H65.076V103.02H62.652ZM62.652 101.472V100.572H65.076V101.472H62.652ZM62.244 95.628V99.084H69.828V95.628H62.244ZM69 98.46H63.072V97.656H69V98.46ZM63.072 97.044V96.276H69V97.044H63.072ZM66.924 102.084C67.164 102.96 67.608 103.74 68.28 104.436C67.764 104.868 67.14 105.228 66.42 105.54L66.864 106.212C67.644 105.876 68.316 105.468 68.868 104.988C69.408 105.432 70.08 105.84 70.872 106.212L71.316 105.492C70.572 105.18 69.948 104.832 69.42 104.436C69.996 103.764 70.404 102.972 70.632 102.048V101.376H66.54V102.084H66.924ZM68.808 103.92C68.256 103.38 67.884 102.768 67.668 102.084H69.852C69.636 102.756 69.288 103.368 68.808 103.92ZM72.72 99.876V100.572H73.872V104.724L72.756 104.772L72.864 105.516C74.532 105.42 75.936 105.3 77.076 105.168V106.224H77.916V105.06C78.156 105.012 78.396 104.976 78.612 104.94V104.256C78.396 104.292 78.156 104.328 77.916 104.364V100.572H83.304V99.876H72.72ZM74.652 104.688V103.656H77.076V104.472C76.356 104.556 75.54 104.628 74.652 104.688ZM74.652 103.02V102.12H77.076V103.02H74.652ZM74.652 101.472V100.572H77.076V101.472H74.652ZM74.244 95.628V99.084H81.828V95.628H74.244ZM81 98.46H75.072V97.656H81V98.46ZM75.072 97.044V96.276H81V97.044H75.072ZM78.924 102.084C79.164 102.96 79.608 103.74 80.28 104.436C79.764 104.868 79.14 105.228 78.42 105.54L78.864 106.212C79.644 105.876 80.316 105.468 80.868 104.988C81.408 105.432 82.08 105.84 82.872 106.212L83.316 105.492C82.572 105.18 81.948 104.832 81.42 104.436C81.996 103.764 82.404 102.972 82.632 102.048V101.376H78.54V102.084H78.924ZM80.808 103.92C80.256 103.38 79.884 102.768 79.668 102.084H81.852C81.636 102.756 81.288 103.368 80.808 103.92ZM91.824 102.876L91.392 103.524C92.568 104.076 93.732 104.844 94.86 105.804L95.316 105.072C94.26 104.208 93.096 103.476 91.824 102.876ZM87.996 102.876C87.108 103.74 85.992 104.436 84.636 104.964L84.996 105.744C86.412 105.144 87.6 104.388 88.536 103.488L87.996 102.876ZM90.048 95.136L89.136 95.28C89.316 95.64 89.484 96.036 89.64 96.468H85.572V97.248H94.452V96.468H90.516C90.372 95.964 90.216 95.52 90.048 95.136ZM84.996 99.36V100.176H89.628V101.556H85.368V102.336H89.628V104.856C89.628 105.24 89.436 105.432 89.052 105.432C88.656 105.432 88.236 105.408 87.804 105.372L87.984 106.2H89.352C90.096 106.2 90.48 105.828 90.48 105.084V102.336H94.632V101.556H90.48V100.176H95.016V99.36H92.364C92.628 98.928 92.88 98.424 93.108 97.872L92.28 97.584C92.052 98.208 91.788 98.796 91.476 99.36H88.644C88.38 98.676 88.104 98.088 87.792 97.608L86.988 97.908C87.288 98.364 87.54 98.856 87.756 99.36H84.996ZM106.98 98.148H104.964C105.228 97.764 105.468 97.332 105.684 96.84L104.856 96.54C104.64 97.104 104.376 97.644 104.064 98.148H102.528C102.396 97.644 102.252 97.188 102.096 96.792L101.256 96.924C101.412 97.284 101.556 97.692 101.688 98.148H99.72C99.588 97.68 99.456 97.26 99.324 96.888L98.472 97.02C98.616 97.368 98.748 97.74 98.868 98.148H97.044V100.128H97.932V98.928H106.092V100.128H106.98V98.148ZM106.332 95.376C103.908 95.7 100.848 95.868 97.164 95.88L97.428 96.684C101.316 96.684 104.424 96.492 106.764 96.132L106.332 95.376ZM100.236 99.228C100.176 99.54 100.116 99.84 100.044 100.152H97.968V100.944H99.828C99.228 102.84 98.196 104.292 96.756 105.324L97.176 106.068C98.292 105.324 99.192 104.304 99.888 102.984C100.512 103.596 101.208 104.124 101.976 104.58C101.124 104.988 100.14 105.276 99.024 105.456L99.408 106.224C100.62 106.008 101.76 105.6 102.816 105.024C103.968 105.588 105.24 105.972 106.656 106.164L107.04 105.384C105.792 105.24 104.652 104.952 103.596 104.544C104.4 103.992 105.084 103.332 105.648 102.576V101.928H100.368C100.488 101.616 100.596 101.28 100.704 100.944H106.068V100.152H100.92C100.98 99.888 101.04 99.624 101.088 99.336L100.236 99.228ZM100.536 102.672H104.616C104.1 103.212 103.476 103.704 102.744 104.16C101.94 103.752 101.208 103.248 100.536 102.672ZM112.848 97.272H110.916C111.156 96.672 111.336 96.012 111.48 95.304L110.616 95.184C110.508 95.904 110.34 96.6 110.1 97.272H108.984V105.804H109.824V104.772H112.008V105.456H112.848V97.272ZM109.824 103.968V101.34H112.008V103.968H109.824ZM109.824 100.56V98.088H112.008V100.56H109.824ZM114.936 100.056L114.24 100.488C115.068 101.472 115.728 102.36 116.22 103.152L116.904 102.672C116.448 101.928 115.8 101.052 114.936 100.056ZM119.052 97.284H115.224C115.44 96.66 115.608 95.988 115.752 95.28L114.9 95.172C114.588 96.876 114.024 98.316 113.184 99.492L113.7 100.176C114.168 99.564 114.564 98.88 114.9 98.124H118.2C118.176 101.58 118.128 103.656 118.056 104.328C117.96 104.94 117.636 105.252 117.072 105.252C116.7 105.252 116.268 105.24 115.764 105.216L115.968 106.008C116.544 106.032 116.952 106.056 117.192 106.056C118.2 106.056 118.752 105.588 118.872 104.676C118.992 103.74 119.052 101.268 119.052 97.284ZM121.992 99.54V106.2H122.856V98.208C123.336 97.368 123.732 96.468 124.044 95.52L123.24 95.136C122.652 97.032 121.704 98.724 120.408 100.188L120.684 101.1C121.152 100.608 121.584 100.092 121.992 99.54ZM129.72 99.972L128.952 100.224C129.54 101.568 130.08 103.128 130.56 104.88L131.316 104.544C130.86 102.912 130.332 101.388 129.72 99.972ZM125.592 97.5H130.14C129.96 98.124 129.732 98.676 129.456 99.18L130.284 99.42C130.584 98.7 130.824 97.968 131.016 97.224V96.66H125.904C126.048 96.24 126.192 95.796 126.312 95.328L125.496 95.16C125.088 96.78 124.428 98.256 123.516 99.588L124.26 100.044C124.764 99.276 125.208 98.436 125.592 97.5ZM127.092 106.116C127.752 106.116 128.088 105.78 128.088 105.108V98.508H127.248V104.892C127.248 105.204 127.092 105.36 126.792 105.36C126.336 105.36 125.844 105.336 125.34 105.3L125.52 106.116H127.092ZM125.292 100.068C124.8 101.82 124.224 103.26 123.576 104.388L124.38 104.676C125.076 103.416 125.64 101.952 126.072 100.284L125.292 100.068ZM134.232 103.572C133.992 103.572 133.812 103.632 133.668 103.776C133.524 103.908 133.452 104.088 133.452 104.316C133.452 104.52 133.524 104.7 133.668 104.844C133.812 104.988 133.98 105.06 134.184 105.06C134.304 105.06 134.4 105.036 134.448 105.012C134.448 105.3 134.364 105.564 134.184 105.816C133.992 106.056 133.74 106.236 133.428 106.344V106.932C133.932 106.8 134.352 106.536 134.664 106.152C134.976 105.744 135.132 105.276 135.132 104.748C135.132 104.4 135.048 104.124 134.892 103.908C134.724 103.68 134.496 103.572 134.232 103.572ZM144.972 95.676V99.468H146.52V104.652C146.256 104.724 145.98 104.784 145.692 104.856V100.476H144.972V105.012L144.444 105.12L144.684 105.948C146.172 105.624 147.468 105.264 148.596 104.88V104.04C148.188 104.184 147.756 104.316 147.312 104.436V102.156H148.548V101.364H147.312V99.468H148.308V95.676H144.972ZM147.492 98.676H145.788V96.456H147.492V98.676ZM150.084 103.788H153.756V104.904H150.084V103.788ZM153.756 105.708V106.224H154.596V101.04H149.244V106.224H150.084V105.708H153.756ZM153.756 103.044H150.084V101.82H153.756V103.044ZM151.56 100.5C152.172 100.5 152.484 100.176 152.484 99.528V97.908C153.048 99.012 153.924 99.984 155.112 100.848L155.604 100.14C154.788 99.66 154.116 99.084 153.564 98.388C154.236 97.908 154.896 97.32 155.532 96.624L154.884 96.132C154.368 96.756 153.792 97.308 153.144 97.8C152.88 97.392 152.664 96.96 152.484 96.504V95.22H151.668V99.312C151.668 99.624 151.536 99.78 151.284 99.78C151.008 99.78 150.72 99.756 150.42 99.72L150.6 100.5H151.56ZM148.704 96.636V97.38H150.276C149.88 98.592 149.16 99.528 148.128 100.188L148.608 100.848C149.856 100.02 150.696 98.82 151.116 97.248V96.636H148.704ZM157.44 95.388L156.852 95.952C157.692 96.624 158.352 97.26 158.832 97.86L159.432 97.26C158.892 96.636 158.232 96.012 157.44 95.388ZM164.508 105.996H167.256L167.46 105.156C167.148 105.18 166.692 105.192 166.116 105.204C165.528 105.204 164.952 105.216 164.388 105.216C163.452 105.216 162.66 105.204 162.024 105.192C161.304 105.168 160.764 105.084 160.392 104.928C160.056 104.76 159.744 104.496 159.456 104.16C159.36 104.052 159.264 103.968 159.168 103.896V99.36H156.648V100.152H158.34V103.836C157.86 104.052 157.308 104.652 156.684 105.636L157.332 106.224C157.98 105.144 158.448 104.604 158.736 104.604C158.88 104.604 159.036 104.7 159.204 104.904C159.576 105.336 159.996 105.624 160.476 105.768C160.956 105.888 161.592 105.96 162.36 105.972C163.128 105.984 163.848 105.996 164.508 105.996ZM166.212 104.508C166.704 104.508 166.956 104.256 166.956 103.752V99.816H161.364V104.508H162.096V102.492H163.056V104.376H163.728V102.492H164.616V104.376H165.288V102.492H166.224V103.596C166.224 103.764 166.14 103.848 165.972 103.848L165.492 103.812L165.684 104.508H166.212ZM162.096 101.796V100.536H163.056V101.796H162.096ZM163.728 100.536H164.616V101.796H163.728V100.536ZM165.288 100.536H166.224V101.796H165.288V100.536ZM166.212 97.032V98.208H161.34V97.032H166.212ZM161.328 98.916H166.98V96.288H164.244C164.124 95.856 163.992 95.484 163.872 95.148L162.972 95.292C163.14 95.592 163.284 95.928 163.404 96.288H160.548V98.628C160.536 100.632 160.2 102.276 159.528 103.548L160.128 104.088C160.884 102.648 161.28 100.92 161.328 98.916ZM1.284 111.976V112.732H5.172C5.076 113.044 4.968 113.356 4.86 113.668H1.872V114.424H4.536C4.38 114.748 4.212 115.06 4.032 115.36H0.888V116.128H3.492C2.676 117.148 1.656 117.892 0.42 118.372L0.852 119.092C1.596 118.78 2.292 118.372 2.916 117.868V122.248H3.768V121.732H8.304V122.224H9.156V117.676C9.708 118.192 10.392 118.648 11.232 119.044L11.604 118.276C10.32 117.748 9.372 117.028 8.772 116.128H11.112V115.36H4.992C5.16 115.06 5.316 114.748 5.46 114.424H10.164V113.668H5.76C5.868 113.38 5.976 113.068 6.072 112.732H10.716V111.976H6.276C6.336 111.712 6.396 111.448 6.444 111.184L5.556 111.1L5.376 111.976H1.284ZM8.616 117.124H3.72C3.996 116.824 4.26 116.488 4.512 116.128H7.932C8.112 116.464 8.34 116.8 8.616 117.124ZM3.768 120.964V119.788H8.304V120.964H3.768ZM3.768 119.032V117.88H8.304V119.032H3.768ZM17.556 111.208V115.66H12.768V116.512H16.032V116.596C16.008 117.832 15.744 118.84 15.264 119.608C14.736 120.352 13.824 120.94 12.504 121.396L12.996 122.164C14.352 121.696 15.336 121.048 15.936 120.208C16.548 119.296 16.872 118.096 16.908 116.596V116.512H18.936V120.712C18.936 121.492 19.296 121.888 20.04 121.888H21.912C22.392 121.888 22.74 121.768 22.956 121.528C23.196 121.264 23.364 120.496 23.448 119.224L22.62 118.96C22.572 119.992 22.476 120.604 22.332 120.82C22.212 120.988 22.02 121.072 21.756 121.072H20.304C19.968 121.072 19.8 120.892 19.8 120.532V116.512H23.244V115.66H18.444V111.208H17.556ZM21.54 111.784C21.144 112.72 20.616 113.68 19.956 114.64L20.736 115.036C21.396 114.112 21.936 113.152 22.344 112.168L21.54 111.784ZM14.496 111.892L13.68 112.276C14.268 113.092 14.832 114.004 15.36 115.036L16.164 114.64C15.636 113.644 15.084 112.732 14.496 111.892ZM34.584 117.844C34.032 118.42 33.444 118.864 32.832 119.152C32.424 118.552 32.148 117.892 31.98 117.172H34.404V112.24H31.692C31.512 111.832 31.32 111.46 31.128 111.148L30.264 111.292C30.468 111.58 30.66 111.892 30.828 112.24H28.464V120.964C28.464 121.144 28.308 121.276 28.008 121.348L28.2 122.128C29.7 121.84 30.948 121.54 31.932 121.228L31.74 120.448C30.924 120.736 30.108 120.976 29.292 121.168V117.172H31.176C31.62 119.296 32.904 120.964 35.028 122.164L35.496 121.432C34.608 120.964 33.876 120.412 33.312 119.764C34.008 119.452 34.62 118.996 35.16 118.42L34.584 117.844ZM25.56 111.376L24.948 111.976C25.896 112.624 26.64 113.224 27.18 113.8L27.792 113.176C27.192 112.576 26.448 111.976 25.56 111.376ZM25.26 114.196L24.648 114.784C25.548 115.432 26.256 116.044 26.76 116.62L27.372 116.008C26.808 115.408 26.1 114.796 25.26 114.196ZM26.952 117.532C26.364 118.948 25.68 120.34 24.9 121.696L25.764 122.068C26.484 120.748 27.132 119.344 27.72 117.844L26.952 117.532ZM29.292 115.096H33.564V116.392H29.292V115.096ZM33.564 114.352H29.292V113.032H33.564V114.352ZM37.404 111.34L36.828 111.892C37.716 112.492 38.412 113.068 38.916 113.608L39.516 113.008C38.94 112.456 38.244 111.892 37.404 111.34ZM37.164 114.292L36.588 114.844C37.428 115.444 38.076 116.008 38.556 116.536L39.156 115.936C38.616 115.384 37.956 114.844 37.164 114.292ZM38.472 117.664C37.992 119.032 37.416 120.364 36.744 121.66L37.536 122.02C38.16 120.748 38.736 119.392 39.24 117.952L38.472 117.664ZM40.572 111.532V114.772H46.2V111.532H40.572ZM45.372 114.124H41.424V113.476H45.372V114.124ZM41.424 112.864V112.18H45.372V112.864H41.424ZM39.852 115.36V117.772H46.908V115.36H39.852ZM46.116 117.112H44.748V116.008H46.116V117.112ZM44.004 117.112H42.756V116.008H44.004V117.112ZM42.012 117.112H40.632V116.008H42.012V117.112ZM40.5 119.152C41.04 119.728 41.724 120.244 42.564 120.688C41.604 121.024 40.524 121.264 39.3 121.42L39.672 122.176C41.136 121.96 42.432 121.612 43.536 121.144C44.52 121.552 45.696 121.888 47.052 122.128L47.544 121.408C46.392 121.228 45.36 120.988 44.448 120.7C45.276 120.244 45.984 119.704 46.572 119.056V118.408H39.852V119.152H40.5ZM43.452 120.34C42.636 120.004 41.964 119.608 41.412 119.152H45.372C44.82 119.608 44.184 120.004 43.452 120.34ZM59.076 113.512L56.496 114.304V111.196H55.656V114.568L53.904 115.108V112.42H53.064V115.372L52.056 115.684V116.524L53.064 116.212V120.784C53.064 121.576 53.46 121.984 54.264 121.984H58.056C58.5 121.984 58.824 121.864 59.028 121.636C59.268 121.372 59.424 120.64 59.508 119.428L58.704 119.176C58.656 120.148 58.56 120.736 58.428 120.928C58.332 121.084 58.152 121.168 57.9 121.168H54.528C54.108 121.168 53.904 120.976 53.904 120.616V115.96L55.656 115.432V119.716H56.496V115.18L58.248 114.652C58.236 116.284 58.2 117.232 58.14 117.484C58.068 117.748 57.864 117.88 57.54 117.88C57.396 117.88 57.228 117.868 57.048 117.856L57.288 118.708H57.36C58.26 118.708 58.776 118.444 58.896 117.94C59.016 117.412 59.076 115.936 59.076 113.512ZM52.212 118.612C51.756 118.828 51.276 119.032 50.796 119.212V115.228H52.044V114.388H50.796V111.292H49.944V114.388H48.576V115.228H49.944V119.5C49.44 119.644 48.936 119.776 48.432 119.884L48.648 120.748C49.92 120.412 51.108 119.98 52.212 119.464V118.612ZM62.232 119.572C61.992 119.572 61.812 119.632 61.668 119.776C61.524 119.908 61.452 120.088 61.452 120.316C61.452 120.52 61.524 120.7 61.668 120.844C61.812 120.988 61.98 121.06 62.184 121.06C62.304 121.06 62.4 121.036 62.448 121.012C62.448 121.3 62.364 121.564 62.184 121.816C61.992 122.056 61.74 122.236 61.428 122.344V122.932C61.932 122.8 62.352 122.536 62.664 122.152C62.976 121.744 63.132 121.276 63.132 120.748C63.132 120.4 63.048 120.124 62.892 119.908C62.724 119.68 62.496 119.572 62.232 119.572ZM73.536 113.824L72.912 114.424C73.776 115.444 74.556 116.44 75.252 117.412C74.604 118.852 73.692 120.1 72.516 121.132L73.104 121.804C74.256 120.796 75.156 119.608 75.828 118.252C76.284 118.948 76.704 119.62 77.064 120.292L77.724 119.62C77.268 118.852 76.776 118.072 76.236 117.304C76.776 115.9 77.088 114.328 77.184 112.576V111.916H72.852V112.744H76.356C76.26 114.064 76.008 115.3 75.624 116.452C74.976 115.576 74.28 114.7 73.536 113.824ZM77.928 111.916V112.744H78.324C78.432 114.604 78.96 116.404 79.908 118.156C79.14 119.284 78.18 120.364 77.028 121.384L77.616 122.104C78.696 121.108 79.62 120.064 80.388 118.972C81.036 120.028 81.876 121.072 82.884 122.104L83.484 121.396C82.428 120.352 81.576 119.284 80.904 118.18C81.948 116.452 82.596 114.628 82.86 112.684V111.916H77.928ZM79.104 112.744H82.044C81.78 114.364 81.24 115.9 80.424 117.34C79.644 115.852 79.2 114.328 79.104 112.744ZM91.644 116.764C92.028 119.02 93.168 120.796 95.052 122.08L95.532 121.324C94.704 120.796 94.032 120.16 93.504 119.416C94.152 119.068 94.728 118.564 95.232 117.904L94.704 117.376C94.2 118.012 93.672 118.48 93.12 118.792C92.784 118.18 92.556 117.508 92.424 116.764H94.536V111.676H89.508V120.952C89.508 121.108 89.412 121.228 89.244 121.3L89.424 121.984C90.66 121.66 91.68 121.324 92.496 120.976L92.304 120.22C91.656 120.508 91.008 120.736 90.348 120.916V116.764H91.644ZM88.428 111.844H84.948V121.66H85.776V120.472H87.588V121.384H88.428V111.844ZM85.776 119.656V117.844H87.588V119.656H85.776ZM85.776 117.064V115.252H87.588V117.064H85.776ZM85.776 114.46V112.66H87.588V114.46H85.776ZM90.348 114.64H93.696V115.996H90.348V114.64ZM93.696 113.872H90.348V112.468H93.696V113.872ZM98.208 115.012C97.872 116.524 97.32 117.904 96.552 119.152L97.32 119.644C98.064 118.396 98.652 116.92 99.06 115.192L98.208 115.012ZM105.528 114.976L104.7 115.252C105.384 116.548 106.008 118.048 106.572 119.74L107.4 119.38C106.86 117.82 106.236 116.356 105.528 114.976ZM101.88 111.22L100.932 111.376C101.172 111.784 101.4 112.24 101.604 112.744H96.852V113.584H100.248V115.432C100.224 118.264 99.336 120.328 97.596 121.624L98.232 122.188C100.104 120.772 101.052 118.516 101.1 115.432V113.584H103.008V120.664C103.008 121.108 102.792 121.336 102.36 121.336C101.976 121.336 101.58 121.312 101.172 121.276L101.352 122.104H102.66C103.464 122.104 103.872 121.696 103.872 120.88V113.584H107.172V112.744H102.528C102.312 112.168 102.096 111.664 101.88 111.22ZM108.996 111.676V122.116H109.8V112.444H111.216C111.036 113.392 110.772 114.448 110.436 115.612C110.976 116.548 111.252 117.4 111.252 118.144C111.252 118.408 111.204 118.588 111.132 118.696C111.036 118.792 110.904 118.852 110.724 118.876C110.556 118.876 110.34 118.864 110.088 118.84L110.34 119.644C111.012 119.632 111.48 119.488 111.756 119.212C111.948 119.008 112.044 118.648 112.044 118.144C112.008 117.4 111.732 116.512 111.216 115.492C111.528 114.388 111.792 113.332 112.008 112.324V111.676H108.996ZM112.896 111.892L112.26 112.288C112.716 112.984 113.076 113.632 113.352 114.232L113.988 113.776C113.736 113.248 113.376 112.612 112.896 111.892ZM117.156 121.204C116.736 121.204 116.316 121.192 115.896 121.18C115.452 121.156 115.068 121.072 114.756 120.94C114.396 120.76 114.108 120.52 113.892 120.22C113.868 120.196 113.832 120.16 113.808 120.124V115.228H111.984V115.996H113.004V120.004C112.584 120.196 112.08 120.712 111.48 121.528L111.996 122.176C112.668 121.216 113.124 120.748 113.364 120.748C113.472 120.748 113.604 120.832 113.748 121.012C114.012 121.348 114.336 121.6 114.72 121.756C115.104 121.888 115.56 121.96 116.076 121.972C116.412 121.984 116.76 121.996 117.096 121.996H119.268L119.484 121.18C118.752 121.192 117.972 121.204 117.156 121.204ZM114.276 112.348V113.14H115.74C115.356 114.472 114.768 115.564 113.976 116.416L114.42 116.992C114.732 116.704 115.02 116.356 115.296 115.96V120.496H116.04V118.468H118.176V119.38C118.176 119.632 118.068 119.764 117.864 119.764C117.6 119.764 117.336 119.74 117.048 119.716L117.24 120.46H118.116C118.668 120.436 118.956 120.16 118.956 119.632V114.34H116.148C116.292 113.968 116.436 113.572 116.556 113.14H119.424V112.348H116.772C116.844 112.012 116.916 111.676 116.988 111.316L116.148 111.208C116.088 111.592 116.016 111.964 115.944 112.348H114.276ZM116.04 116.788H118.176V117.772H116.04V116.788ZM118.176 116.092H116.04V115.024H118.176V116.092ZM121.992 115.54V122.2H122.856V114.208C123.336 113.368 123.732 112.468 124.044 111.52L123.24 111.136C122.652 113.032 121.704 114.724 120.408 116.188L120.684 117.1C121.152 116.608 121.584 116.092 121.992 115.54ZM129.72 115.972L128.952 116.224C129.54 117.568 130.08 119.128 130.56 120.88L131.316 120.544C130.86 118.912 130.332 117.388 129.72 115.972ZM125.592 113.5H130.14C129.96 114.124 129.732 114.676 129.456 115.18L130.284 115.42C130.584 114.7 130.824 113.968 131.016 113.224V112.66H125.904C126.048 112.24 126.192 111.796 126.312 111.328L125.496 111.16C125.088 112.78 124.428 114.256 123.516 115.588L124.26 116.044C124.764 115.276 125.208 114.436 125.592 113.5ZM127.092 122.116C127.752 122.116 128.088 121.78 128.088 121.108V114.508H127.248V120.892C127.248 121.204 127.092 121.36 126.792 121.36C126.336 121.36 125.844 121.336 125.34 121.3L125.52 122.116H127.092ZM125.292 116.068C124.8 117.82 124.224 119.26 123.576 120.388L124.38 120.676C125.076 119.416 125.64 117.952 126.072 116.284L125.292 116.068ZM142.284 112.948C141.48 113.656 140.592 114.244 139.62 114.712C139.596 114.1 139.584 113.44 139.584 112.732V111.892H132.444V112.756H138.72C138.72 116.56 139.032 119.056 139.656 120.244C140.268 121.408 141.036 121.996 141.948 122.008C142.224 122.008 142.488 121.876 142.752 121.636C143.1 121.18 143.328 120.424 143.448 119.392L142.62 119.116C142.548 119.932 142.452 120.472 142.332 120.712C142.212 120.952 142.068 121.072 141.9 121.084C141.3 121.06 140.76 120.568 140.304 119.584C140.016 118.996 139.824 117.952 139.716 116.44C140.7 116.908 141.66 117.508 142.596 118.24L143.1 117.484C142.044 116.752 140.904 116.116 139.656 115.588V115.564C140.832 115.048 141.864 114.4 142.776 113.632L142.284 112.948ZM148.704 114.484V116.86H150.78C150.66 117.208 150.528 117.508 150.36 117.772C149.856 118.492 149.016 119.128 147.84 119.656L148.38 120.328C149.64 119.704 150.54 118.972 151.08 118.12C151.224 117.88 151.356 117.592 151.476 117.268V119.128C151.476 119.8 151.788 120.136 152.424 120.136H154.212C154.572 120.136 154.848 120.04 155.016 119.872C155.208 119.668 155.34 119.092 155.412 118.144L154.704 117.904C154.656 118.624 154.584 119.068 154.488 119.212C154.416 119.332 154.272 119.392 154.068 119.392H152.652C152.376 119.392 152.244 119.248 152.244 118.96V116.86H154.404V114.016H152.436C152.748 113.692 153.072 113.296 153.396 112.84V112.252H150.84C151.032 111.976 151.212 111.676 151.404 111.364L150.612 111.184C149.808 112.492 148.788 113.548 147.54 114.352L148.044 114.976C148.26 114.832 148.476 114.664 148.704 114.484ZM150.288 112.948H152.424C152.088 113.356 151.764 113.704 151.428 114.016H149.256C149.616 113.68 149.964 113.332 150.288 112.948ZM153.6 116.14H151.764C151.836 115.708 151.896 115.24 151.944 114.712H153.6V116.14ZM150.972 116.14H149.484V114.712H151.176C151.128 115.228 151.068 115.708 150.972 116.14ZM153.072 117.28L152.616 117.724C153.072 118.108 153.444 118.468 153.708 118.816L154.188 118.324C153.888 117.976 153.516 117.628 153.072 117.28ZM145.512 111.388L144.924 111.952C145.8 112.624 146.484 113.248 146.988 113.836L147.6 113.248C147.036 112.624 146.34 112.012 145.512 111.388ZM152.58 121.984H155.256L155.472 121.12C155.16 121.144 154.716 121.156 154.152 121.168C153.576 121.18 153.012 121.192 152.46 121.192C151.512 121.192 150.72 121.18 150.084 121.168C149.376 121.144 148.836 121.048 148.452 120.88C148.116 120.724 147.804 120.472 147.516 120.124C147.408 120.004 147.312 119.92 147.216 119.848V115.36H144.648V116.152H146.412V119.8C145.92 119.992 145.344 120.604 144.684 121.636L145.332 122.224C146.016 121.12 146.496 120.568 146.784 120.568C146.94 120.568 147.096 120.664 147.264 120.868C147.624 121.3 148.056 121.6 148.536 121.744C149.016 121.876 149.652 121.948 150.432 121.96C151.2 121.972 151.92 121.984 152.58 121.984Z" fill="black" fill-opacity="0.3"/>
<path d="M283.826 55.3445C282.388 52.9746 282.779 50.1713 284.767 49.0129C285.6 48.5384 286.541 48.2828 287.5 48.2701C292.136 48.1755 296.773 48.3823 301.381 48.889C303.609 49.1278 305.819 49.2074 308.091 49.3666C309.178 49.5273 310.276 49.6042 311.375 49.5965C311.943 50.3128 311.694 51.1529 311.686 51.9311C311.613 54.1421 312.016 56.343 312.866 58.3865C313.835 60.4695 315.293 62.2894 317.117 63.6923C317.943 64.3644 318.759 65.0542 319.656 65.6467C322.15 67.3003 323.161 69.6526 323.268 72.5796C323.303 75.4145 323.776 78.2271 324.67 80.9186C325.156 82.2317 325.793 83.484 326.569 84.6504C328.788 88.0992 332.232 89.2753 336.057 89.7263C340.323 90.1258 344.625 89.8843 348.82 89.01C349.012 88.9406 349.218 88.9188 349.421 88.9465C349.623 88.9742 349.816 89.0507 349.982 89.1692V97.5701C344.609 97.6273 339.256 98.2348 334.007 99.3829C330.359 100.267 327.031 99.3829 323.809 97.7116C319.827 95.6562 316.013 93.2907 312.404 90.6371C310.461 89.2311 308.127 89.1073 305.855 89.0188C302.908 88.9039 299.952 89.0188 296.979 88.9569C295.579 88.9603 294.187 88.7485 292.852 88.3291C291.688 87.9558 290.667 87.2344 289.929 86.263C289.191 85.2916 288.77 84.1172 288.725 82.8995C288.751 82.1816 288.944 81.4795 289.289 80.8487C289.634 80.218 290.122 79.6758 290.713 79.265C291.37 78.7432 292.222 78.4691 292.719 77.7439C292.914 78.1861 293.261 78.0711 293.607 78.0446C295.053 77.9385 296.482 78.1773 297.92 78.2126C300.716 78.2922 303.52 78.2126 306.316 78.2126C301.719 77.7882 297.077 78.3541 292.48 77.6732C290.048 77.2383 287.748 76.2586 285.752 74.808C283.489 73.0394 283.462 70.3865 285.583 67.8751C285.814 67.5921 286.063 67.318 286.302 67.0438C286.418 66.9509 286.562 66.9008 286.711 66.9024C289.923 66.9731 293.145 66.7786 296.349 66.9996C299.012 67.1853 301.674 67.0792 304.337 67.15H306.112C299.225 66.8847 292.329 66.9377 285.45 66.5752C283.82 65.698 282.537 64.2949 281.811 62.5958C281.422 61.5763 281.385 60.4564 281.706 59.4135C282.028 58.3707 282.69 57.4646 283.586 56.839C283.871 56.6091 284.261 56.5029 284.314 56.0608C284.563 55.6982 284.944 55.7248 285.308 55.7336C291.805 55.8928 298.302 56.0961 304.834 56.1315C305.091 56.1315 305.34 56.2023 305.721 56.1846C303.76 56.0166 301.958 55.9016 300.148 55.9193C295.231 55.9635 290.332 55.5833 285.415 55.6717C284.865 55.7158 284.314 55.6023 283.826 55.3445V55.3445Z" fill="#F8ABDA"/>
<path d="M349.982 89.134C347.34 89.6239 344.674 89.9722 341.994 90.1775C340.488 90.3248 338.97 90.3041 337.468 90.1155C336.208 89.9298 334.93 89.8945 333.652 89.6292C327.838 88.4442 325.238 84.3234 323.774 79.1325C323.01 76.4265 323.037 73.6321 322.717 70.8819C322.594 69.9371 322.271 69.0289 321.771 68.2167C321.271 67.4046 320.604 66.7066 319.815 66.1686C318.072 64.9362 316.431 63.567 314.907 62.0742C312.727 59.7547 311.465 56.7257 311.357 53.5495C311.277 52.2319 311.357 50.8966 311.357 49.579C311.881 48.3321 311.952 46.9261 312.777 45.7853C314.011 44.0698 315.573 43.2916 317.383 43.6542C318.39 43.8826 319.315 44.3819 320.056 45.0975C320.798 45.8132 321.329 46.7179 321.59 47.7131C321.803 48.6947 321.679 49.694 321.839 50.6667C322.22 53.0455 323.809 54.4604 325.904 55.3624C328.616 56.3909 331.43 57.129 334.3 57.5643C337.078 58.1214 339.873 58.5282 342.66 58.9615C345.083 59.3417 347.524 59.6336 349.964 59.9607L349.982 89.134Z" fill="#FBD3EA"/>
<path d="M215.504 53.0896C217.35 52.3026 219.356 53.7794 220.412 55.3535C221.773 57.4783 222.292 60.0315 221.868 62.5163C221.708 63.6659 222.019 64.8863 221.353 65.9563C220.554 67.0794 220.057 68.3705 219.294 69.4935C217.188 72.7258 214.813 75.7757 212.194 78.6107C211.413 79.5801 210.575 80.5015 209.682 81.3697C211.661 79.3535 213.525 77.24 215.318 75.0558C217.092 72.8453 218.731 70.5301 220.226 68.1228C220.599 67.5392 220.581 66.7168 221.309 66.3542C222.035 65.5443 222.634 64.6289 223.084 63.6394C223.88 62.1272 224.769 60.6653 225.746 59.2621C225.936 59.5783 226.22 59.8276 226.559 59.975C226.898 60.1224 227.275 60.1607 227.637 60.0845C229.412 59.8457 231.098 59.4478 231.799 57.4316C232.158 56.6272 232.595 55.8601 233.104 55.1412C233.557 54.3631 234.045 54.3719 234.515 55.1412C234.947 55.7361 235.288 56.3918 235.527 57.0867C235.529 56.672 235.684 56.2725 235.962 55.9636C236.556 57.4139 236.095 58.8819 235.855 60.2791C235.062 64.6834 233.592 68.9396 231.498 72.8981C231.329 73.2165 231.444 73.6586 231.054 73.862C226.74 76.285 222.179 78.2835 218.114 80.5827C221.903 78.6284 225.915 76.5414 229.98 74.5606C230.379 74.366 230.583 73.9062 231.063 73.8531C231.169 74.4191 231.515 74.2511 231.897 74.1715C233.851 73.8343 235.839 73.7392 237.817 73.8885C240.355 73.977 241.899 75.7279 243.364 77.4258C243.948 77.92 244.433 78.5201 244.793 79.1944C243.018 80.7684 243.133 82.6343 243.905 84.624C244.436 86.194 245.299 87.6323 246.435 88.8421C246.511 88.9142 246.572 89.0015 246.612 89.0986C245.473 89.7139 244.148 89.8943 242.885 89.6062C241.622 89.3181 240.508 88.5811 239.752 87.5334C236.734 83.7308 231.471 85.1457 228.915 88.736C227.916 90.1073 227.244 91.6869 226.949 93.3554C226.654 95.0238 226.743 96.7373 227.211 98.3661C227.671 99.9529 228.731 101.3 230.168 102.125C231.604 102.949 233.306 103.187 234.915 102.788C236.499 102.57 237.953 101.795 239.015 100.603C239.499 99.9092 239.748 99.0787 239.725 98.2335C239.849 95.7486 240.728 93.6527 243.08 92.4412C243.476 92.2213 243.922 92.1059 244.376 92.1059C244.829 92.1059 245.275 92.2213 245.671 92.4412C246.035 95.6159 245.929 99.0116 249.656 100.541C249.789 103.292 248.529 105.511 246.834 107.51C243.905 110.932 240.621 113.974 237.373 117.131C234.125 120.288 231.089 123.144 227.93 126.116C224.332 129.505 220.729 132.878 217.12 136.232C215.176 138.001 213.197 139.769 211.289 141.635C210.667 142.236 210.277 142.148 209.744 141.582C208.999 140.769 208.191 140.008 207.401 139.23C202.502 134.428 197.638 129.564 192.686 124.842C189.242 121.57 185.905 118.192 182.497 114.885C181.998 114.398 181.47 113.94 180.917 113.514C180.225 112.975 180.207 112.48 180.74 111.746C183.651 107.828 186.527 103.875 189.402 99.9313C193.245 94.6874 197.053 89.4169 200.94 84.1907C201.828 83.0146 202.83 81.9534 203.106 80.4501C207.082 74.7551 210.605 68.848 211.661 61.8177C211.677 61.5254 211.798 61.2485 212.002 61.0374C212.205 60.8264 212.478 60.6953 212.771 60.6682C214.927 60.226 215.211 59.8281 215.495 57.5996C215.695 56.1817 215.731 54.7456 215.602 53.3196C215.564 53.2453 215.531 53.1685 215.504 53.0896V53.0896Z" fill="#D4C2EC"/>
<path d="M272.332 57.1042C272.412 57.8561 272.342 58.6162 272.128 59.3415C271.685 59.1823 271.454 59.5626 271.179 59.7748C266.92 62.9262 262.007 65.0868 256.801 66.0976C256.403 66.1688 256.028 66.3357 255.709 66.584C254.566 65.183 253.845 63.4871 253.632 61.6938C253.155 58.8127 253.462 55.8568 254.52 53.1337C254.667 52.7175 254.907 52.3398 255.221 52.0283C256.41 53.1215 257.696 54.1042 259.064 54.9642C262.696 56.9045 266.813 57.7611 270.921 57.4314C271.445 57.4049 271.827 57.007 272.332 57.1042Z" fill="#F56E89"/>
<path d="M203.558 79.1854C203.94 76.5856 204.33 73.9946 204.694 71.3947C205.058 68.7948 205.413 66.0358 205.582 63.3387C205.621 63.166 205.69 63.0015 205.786 62.8523C206.058 62.8811 206.332 62.8059 206.551 62.6418C206.77 62.4777 206.918 62.2369 206.966 61.968C207.42 60.6227 207.551 59.19 207.348 57.7852C208.022 57.4927 208.777 57.4421 209.484 57.6421C210.191 57.842 210.807 58.2802 211.226 58.8818C211.413 59.1117 211.501 59.5892 211.927 59.4477C212.353 59.3062 212.38 58.9348 212.469 58.5634C212.984 56.4853 213.738 54.5221 215.513 53.1338L215.584 53.2045C215.907 55.3023 215.734 57.4462 215.078 59.4654C214.898 59.9208 214.559 60.2968 214.125 60.5255C213.69 60.7542 213.188 60.8204 212.708 60.7123C212.016 60.6238 211.759 60.8449 211.679 61.4639C210.898 67.6541 208.235 73.1102 204.676 78.1596C204.375 78.5222 204.295 79.212 203.558 79.1854Z" fill="#D4C2EC"/>
<path d="M272.333 57.1043C272.19 57.2938 272.009 57.4508 271.801 57.5652C271.593 57.6795 271.362 57.7485 271.126 57.7676C267.262 58.0732 263.384 57.3755 259.872 55.7425C258.361 55.0564 256.987 54.1037 255.816 52.9304C255.576 52.6651 255.257 52.444 255.257 52.0461C255.875 51.2561 256.735 50.6881 257.706 50.4278C261.454 49.1519 265.547 49.3255 269.173 50.9142C271.969 52.0815 272.404 54.4691 272.333 57.1043Z" fill="#F0445F"/>
<path d="M255.7 66.584C255.567 66.1507 255.656 66.0004 256.171 65.912C260.298 65.1566 264.263 63.6999 267.895 61.6054C269.159 60.8528 270.369 60.0136 271.516 59.094C272.013 58.7137 272.093 58.8287 272.12 59.3416C271.863 61.785 270.827 64.0823 269.164 65.8965C267.502 67.7108 265.299 68.9465 262.88 69.4227C262.601 69.4889 262.325 69.5716 262.055 69.6703C261.696 69.7985 261.304 69.7985 260.946 69.6703C259.052 69.3608 257.317 68.4266 256.02 67.0173C255.913 66.8847 255.816 66.7344 255.7 66.584Z" fill="#F04460"/>
<path d="M280.116 73.4463C280.32 73.8177 279.948 73.9592 279.788 74.1272C275.812 78.2481 271.268 81.4846 265.587 82.8907C263.222 83.504 260.751 83.5975 258.345 83.1648C258.043 82.5458 258.54 82.2805 258.922 82.0683C261.971 80.1426 265.185 78.4884 268.525 77.125C271.605 75.8251 274.738 74.7197 277.959 73.7204C278.645 73.4551 279.386 73.361 280.116 73.4463Z" fill="#5A9A7F"/>
<path d="M280.116 73.4462C276.699 74.3302 273.343 75.435 270.069 76.7535C266.183 78.2727 262.445 80.1466 258.904 82.3511C258.753 82.422 258.624 82.5313 258.529 82.6679C258.434 82.8045 258.377 82.9637 258.363 83.1293L257.715 83.1736C257.63 83.1 257.576 82.9977 257.563 82.8865C257.55 82.7754 257.579 82.6634 257.644 82.5722C258.194 81.5818 258.824 80.6444 259.419 79.6717C259.472 79.5744 259.605 79.5833 259.721 79.6186C260.369 79.6186 260.528 79.0262 260.857 78.6725C263.244 76.1345 265.898 73.9768 269.43 73.3666C272.548 72.7682 275.741 72.6637 278.891 73.0571C279.33 73.0563 279.759 73.1923 280.116 73.4462V73.4462Z" fill="#71BA9B"/>
<path d="M259.703 79.6542C259.04 80.8333 258.378 82.0123 257.715 83.1914C255.161 86.7505 251.517 89.3881 247.331 90.708C242.641 92.3173 237.662 92.92 232.722 92.4766H232.5C232.092 92.4236 231.613 92.3882 231.613 91.8399C231.613 91.2916 232.145 91.3358 232.5 91.3624C234.415 91.4906 236.337 91.4906 238.252 91.3624C242.69 91.1703 247.024 89.9597 250.916 87.8252C255.021 85.4688 258.067 81.6375 259.428 77.1162C260.184 74.6937 260.678 72.1976 260.901 69.6704C261.066 69.5627 261.259 69.5054 261.456 69.5054C261.653 69.5054 261.846 69.5627 262.011 69.6704C261.855 73.1101 261.073 76.493 259.703 79.6542V79.6542Z" fill="#5C977F"/>
<path d="M244.979 79.4685C246.052 80.8824 246.972 82.4061 247.721 84.0138C248.156 84.87 248.285 85.8482 248.086 86.7871C247.888 87.726 247.374 88.5694 246.63 89.1782L246.541 89.0986C244.988 87.3775 243.933 85.2686 243.488 82.9969C243.272 82.3283 243.303 81.6046 243.577 80.9572C243.85 80.3098 244.348 79.7816 244.979 79.4685V79.4685Z" fill="#D4C2EC"/>
<path d="M225.977 58.6607C227.131 56.9805 227.859 54.9997 229.403 53.6202C229.923 53.1354 230.559 52.7902 231.249 52.617C231.94 52.4438 232.664 52.4482 233.352 52.6297C233.317 52.7357 233.263 52.8345 233.193 52.9215C232.638 53.6917 232.179 54.5261 231.826 55.4064C231.39 56.2952 230.864 57.1368 230.255 57.9179C230.026 58.2503 229.733 58.5338 229.392 58.7517C229.052 58.9695 228.671 59.1174 228.273 59.1866C227.874 59.2558 227.466 59.245 227.072 59.1546C226.677 59.0643 226.305 58.8964 225.977 58.6607V58.6607Z" fill="#D3C2EC"/>
<path d="M283.826 55.3445C285.471 55.2208 287.124 55.2208 288.769 55.3445C294.37 55.4418 299.979 55.5921 305.579 55.7159C305.801 55.7159 306.023 55.7159 306.245 55.7602C306.467 55.8044 306.68 55.8928 306.671 56.1669C306.67 56.2231 306.657 56.2784 306.634 56.3296C306.611 56.3808 306.578 56.4268 306.536 56.4648C306.495 56.5028 306.446 56.5321 306.393 56.5508C306.34 56.5695 306.283 56.5773 306.227 56.5737C305.641 56.5737 305.047 56.5737 304.452 56.5206L284.323 56.0608C284.185 55.9943 284.067 55.8934 283.98 55.7678C283.893 55.6423 283.84 55.4965 283.826 55.3445V55.3445Z" fill="#46348B"/>
<path d="M203.558 79.1856C207.774 73.4641 210.898 67.2917 211.546 60.0846C213.862 60.8274 214.865 60.2437 215.194 57.8827C215.407 56.3174 215.451 54.7345 215.566 53.1605C216.126 53.1074 216.019 53.5142 216.019 53.8237C216.055 55.407 215.948 56.9904 215.7 58.5547C215.433 60.1465 214.617 60.8628 212.895 61.0043C212.354 61.0485 212.007 61.1015 211.936 61.7559C211.102 67.8046 208.484 73.1192 205.085 78.1067L203.461 80.4766C203.372 80.6004 203.248 80.68 203.097 80.5297L203.558 79.1856Z" fill="#3F378D"/>
<path d="M285.477 66.5663C285.796 66.1861 286.231 66.3364 286.613 66.3452L306.218 66.7609H306.662C306.955 66.7609 307.328 66.7608 307.337 67.1588C307.345 67.5567 306.946 67.6098 306.6 67.6009L294.423 67.318C292.24 67.2649 290.065 67.2384 287.882 67.2118C287.366 67.2361 286.849 67.1702 286.355 67.0173L285.477 66.5663Z" fill="#43318A"/>
<path d="M235.953 55.9901L235.669 58.0241C235.273 57.0681 234.802 56.1454 234.258 55.265C233.947 54.6018 233.574 54.7168 233.37 55.265C232.917 56.4235 231.897 57.2901 231.719 58.5723C231.704 58.7011 231.657 58.8242 231.583 58.9307C231.509 59.0371 231.409 59.1236 231.293 59.1825C229.793 59.943 228.311 60.7566 226.518 60.447C225.817 60.3232 225.791 59.8369 225.737 59.3151C225.737 59.2267 225.782 59.1383 225.799 59.0587C225.955 59.0051 226.12 58.983 226.285 58.9936C226.45 59.0042 226.61 59.0474 226.758 59.1206C227.336 59.3223 227.962 59.3387 228.549 59.1674C229.137 58.9961 229.656 58.6457 230.033 58.1655C230.969 57.0796 231.738 55.8606 232.314 54.5487C232.553 53.8913 232.882 53.2695 233.29 52.7005L233.352 52.6475C234.923 53.2046 235.473 54.5752 235.953 55.9901Z" fill="#D3C2EC"/>
<path d="M292.533 77.6378C293.722 77.2311 294.929 77.5583 296.127 77.5671C299.518 77.6202 302.917 77.7086 306.307 77.7793C306.6 77.7793 306.902 77.7793 307.195 77.8501C307.241 77.8512 307.286 77.8615 307.329 77.8805C307.371 77.8994 307.409 77.9266 307.44 77.9604C307.472 77.9942 307.496 78.0339 307.512 78.0773C307.527 78.1206 307.534 78.1666 307.532 78.2126C307.524 78.3075 307.481 78.3963 307.413 78.4628C307.345 78.5293 307.255 78.5692 307.159 78.5752C306.828 78.593 306.496 78.593 306.165 78.5752C302.003 78.4868 297.831 78.3806 293.66 78.3187C293.11 78.3187 292.861 78.1242 292.772 77.6467L292.666 77.6025L292.533 77.6378Z" fill="#412F89"/>
<path d="M221.291 66.3895C219.773 70.024 217.297 73.0306 214.874 76.1169C213.294 78.0558 211.614 79.9123 209.842 81.6792C209.638 81.8914 209.38 82.3601 209.061 82.0152C208.741 81.6703 209.229 81.4492 209.425 81.2458C213.323 77.3836 216.754 73.0802 219.649 68.4234C220.137 67.6098 220.537 66.7521 221.025 65.912C221.255 65.4787 221.282 65.8236 221.353 66.0004L221.291 66.3895Z" fill="#41398F"/>
<path d="M245.937 92.7153C248.096 94.5803 249.451 97.2029 249.718 100.037C249.088 100.435 248.582 100.09 248.121 99.7367C247.493 99.2197 247.02 98.5405 246.754 97.7736C246.312 96.4601 245.971 95.115 245.733 93.75C245.675 93.5746 245.663 93.3872 245.699 93.2059C245.734 93.0246 245.817 92.8555 245.937 92.7153V92.7153Z" fill="#D3C3ED"/>
<path d="M244.979 79.4685C243.204 81.0868 243.586 82.9526 244.322 84.8893C244.781 86.0437 245.377 87.1392 246.097 88.1524C246.293 88.4442 246.665 88.6564 246.532 89.0985C246.124 89.2489 245.946 88.9571 245.742 88.6918C244.452 87.0287 243.562 85.0924 243.142 83.0322C242.769 81.1752 243.382 79.8576 244.775 79.2739L244.979 79.4685Z" fill="#483E92"/>
<path d="M233.29 52.6827C232.712 54.9938 231.501 57.0998 229.793 58.7667C228.578 59.881 227.184 59.7483 225.8 59.0409L225.977 58.6606C228.87 59.1205 229.58 58.7844 231.089 56.1492C231.604 55.2649 231.977 54.3098 232.474 53.399C232.625 53.0541 232.713 52.5678 233.29 52.6827Z" fill="#473E92"/>
<path d="M245.937 92.7153C246.076 94.5369 246.495 96.3264 247.18 98.0211C247.348 98.5717 247.681 99.0577 248.135 99.4135C248.589 99.7693 249.142 99.9778 249.718 100.011V100.63C249.106 100.634 248.506 100.458 247.994 100.123C247.482 99.7873 247.081 99.3084 246.843 98.7463C246.05 96.9314 245.532 95.0091 245.307 93.0425C245.245 92.6976 245.307 92.45 245.733 92.5296L245.937 92.7153Z" fill="#494094"/>
<path d="M207.339 57.75C207.712 57.75 207.863 57.9003 207.827 58.2806C207.752 59.5618 207.564 60.8341 207.268 62.0831C207.19 62.3307 207.058 62.5581 206.881 62.7491C206.705 62.9401 206.488 63.0902 206.247 63.1885C205.901 63.3565 205.786 63.1885 205.777 62.8524C206.585 61.8178 206.611 60.5532 206.771 59.3152C206.756 58.8439 206.882 58.3788 207.135 57.9799L207.339 57.75Z" fill="#4A4195"/>
<path d="M207.135 57.9976C207.168 59.1679 207.057 60.3379 206.806 61.4817C206.75 61.7717 206.628 62.045 206.449 62.281C206.271 62.517 206.041 62.7093 205.777 62.8435C206.167 61.5878 205.777 60.1906 206.363 58.988C206.549 58.5724 206.691 58.1833 207.135 57.9976Z" fill="#CDC2E9"/>
<path d="M231.054 73.8795C230.773 74.3515 230.355 74.7277 229.856 74.9584C226.004 76.895 222.161 78.8582 218.318 80.8125C218.221 80.8668 218.12 80.9141 218.016 80.954C217.688 81.0424 217.262 81.5199 217.049 81.0866C216.836 80.6533 217.466 80.5826 217.75 80.4322C222.01 78.2451 226.279 76.0667 230.557 73.8972C230.725 73.8088 230.876 73.7027 231.045 73.8972L231.054 73.8795Z" fill="#443A8F"/>
<path d="M257.901 52.3469C258.213 52.2788 258.536 52.285 258.844 52.3649C259.153 52.4449 259.438 52.5962 259.676 52.8067C262.073 54.1871 264.746 55.0235 267.504 55.2563C268.24 55.2961 268.977 55.2032 269.679 54.9821C270.309 54.823 270.566 54.3631 269.892 53.9298C268.335 52.8673 266.534 52.2161 264.655 52.0374C263.883 52.0374 263.076 51.498 262.286 52.1877C262.845 52.8952 263.732 52.8156 264.451 53.072C265.17 53.3285 266.155 53.5496 267.007 53.7883C267.176 53.8325 267.38 53.9121 267.318 54.1509C267.256 54.3896 267.07 54.3896 266.874 54.3454C265.361 54.0648 263.876 53.6505 262.437 53.1074C261.984 52.8952 261.434 52.5857 261.549 51.9755C261.664 51.3653 262.268 51.3653 262.809 51.3299C264.991 51.258 267.155 51.7452 269.093 52.7448C269.551 52.9685 269.968 53.2675 270.327 53.6291C271.152 54.425 270.948 55.1944 269.847 55.4862C268.235 55.9042 266.543 55.9042 264.931 55.4862C262.779 54.9486 260.708 54.1309 258.771 53.0544C258.46 52.8458 258.169 52.609 257.901 52.3469V52.3469Z" fill="#F56888"/>
<path fill-rule="evenodd" clip-rule="evenodd" d="M180.5 112C174.429 116.107 141.5 148 141.5 148C141.5 148 203.5 148 205 148C205 148 205 148 205 148C205.759 148 207.969 145.612 210.592 142.777C213.158 140.006 216.117 136.808 218.5 135C223.319 131.343 186.571 107.893 180.5 112Z" fill="#D5C3ED"/>
</svg>
