<svg width="390" height="126" viewBox="0 0 390 126" fill="none" xmlns="http://www.w3.org/2000/svg">
<path d="M20.84 11.432V20H22.148V13.88H22.196L24.824 20H25.952L28.58 13.88H28.628V20H29.936V11.432H28.388L25.412 18.296H25.376L22.388 11.432H20.84ZM34.8973 13.628C34.1293 13.628 33.5053 13.76 33.0493 14.048C32.5213 14.36 32.1853 14.864 32.0533 15.536L33.3133 15.644C33.3853 15.296 33.5653 15.044 33.8533 14.876C34.0933 14.732 34.4173 14.66 34.8133 14.66C35.7493 14.66 36.2173 15.092 36.2173 15.956V16.208L34.8253 16.244C33.9133 16.268 33.1933 16.448 32.6893 16.808C32.1373 17.18 31.8613 17.72 31.8613 18.416C31.8613 18.932 32.0533 19.352 32.4493 19.676C32.8093 20 33.3133 20.168 33.9613 20.168C34.5133 20.168 34.9933 20.06 35.4013 19.868C35.7613 19.688 36.0613 19.436 36.3013 19.124V20H37.4773V16.04C37.4773 15.284 37.2853 14.708 36.9133 14.312C36.4813 13.856 35.8093 13.628 34.8973 13.628ZM36.2173 17.132V17.492C36.2173 17.972 36.0133 18.38 35.6293 18.704C35.2453 19.028 34.7893 19.196 34.2493 19.196C33.9253 19.196 33.6613 19.112 33.4693 18.956C33.2653 18.8 33.1693 18.608 33.1693 18.368C33.1693 17.6 33.7453 17.192 34.9093 17.168L36.2173 17.132ZM41.4173 11.792L40.1453 12.32V13.796H38.9933V14.852H40.1453V18.452C40.1453 18.944 40.2533 19.316 40.4933 19.58C40.7333 19.856 41.1293 20 41.6573 20H42.6773V18.944H41.8613C41.7053 18.944 41.5973 18.896 41.5253 18.824C41.4533 18.74 41.4173 18.62 41.4173 18.452V14.852H42.8333V13.796H41.4173V11.792ZM47.2175 13.628C46.2575 13.628 45.5135 13.952 44.9735 14.6C44.4695 15.2 44.2175 15.968 44.2175 16.904C44.2175 17.864 44.4695 18.632 44.9855 19.232C45.5135 19.856 46.2455 20.168 47.1935 20.168C47.9855 20.168 48.6335 19.964 49.1135 19.568C49.5935 19.16 49.9175 18.536 50.0615 17.708H48.8015C48.6815 18.644 48.1535 19.124 47.2055 19.124C46.6535 19.124 46.2455 18.92 45.9695 18.536C45.6695 18.14 45.5255 17.588 45.5255 16.892C45.5255 16.196 45.6695 15.644 45.9815 15.26C46.2815 14.864 46.6895 14.672 47.2175 14.672C47.6495 14.672 47.9975 14.768 48.2615 14.972C48.5255 15.164 48.6935 15.476 48.7775 15.896H50.0375C49.9175 15.128 49.6055 14.552 49.1255 14.168C48.6455 13.808 48.0095 13.628 47.2175 13.628ZM51.7489 11.264V20H53.0209V16.52C53.0209 15.98 53.1529 15.536 53.4289 15.188C53.6929 14.84 54.0409 14.672 54.4729 14.672C54.9529 14.672 55.3249 14.816 55.5649 15.116C55.7809 15.404 55.9009 15.812 55.9009 16.364V20H57.1729V16.148C57.1729 15.332 56.9929 14.708 56.6329 14.288C56.2489 13.844 55.6849 13.628 54.9409 13.628C54.5449 13.628 54.1969 13.7 53.8849 13.868C53.5369 14.036 53.2489 14.312 53.0209 14.672V11.264H51.7489ZM59.3361 11.432V16.736C59.3361 17.852 59.6481 18.704 60.2721 19.304C60.8721 19.88 61.7361 20.168 62.8761 20.168C64.0041 20.168 64.8681 19.868 65.4801 19.292C66.0921 18.704 66.4041 17.852 66.4041 16.736V11.432H65.0961V16.76C65.0961 17.528 64.9161 18.092 64.5681 18.464C64.2081 18.836 63.6441 19.028 62.8761 19.028C62.0961 19.028 61.5321 18.836 61.1721 18.464C60.8121 18.092 60.6441 17.528 60.6441 16.76V11.432H59.3361ZM70.8743 13.628C70.1303 13.628 69.5183 13.784 69.0503 14.108C68.5823 14.42 68.3543 14.864 68.3543 15.428C68.3543 15.956 68.5943 16.376 69.0743 16.676C69.3623 16.868 69.8783 17.048 70.6103 17.216C71.2463 17.36 71.6663 17.48 71.8583 17.576C72.2183 17.744 72.4103 17.984 72.4103 18.284C72.4103 18.836 71.9063 19.124 70.9223 19.124C70.4423 19.124 70.1063 19.04 69.8903 18.884C69.6743 18.716 69.5183 18.416 69.4463 17.996H68.1983C68.3423 19.436 69.2543 20.168 70.9583 20.168C72.7943 20.168 73.7183 19.508 73.7183 18.2C73.7183 17.648 73.4663 17.216 72.9743 16.904C72.6383 16.688 72.1103 16.484 71.4023 16.316C70.7783 16.16 70.3703 16.04 70.1543 15.944C69.8183 15.788 69.6503 15.608 69.6503 15.392C69.6503 15.152 69.7583 14.96 69.9863 14.84C70.1783 14.72 70.4663 14.672 70.8503 14.672C71.2823 14.672 71.6183 14.744 71.8343 14.888C72.0383 15.02 72.1823 15.248 72.2783 15.584H73.5143C73.3703 14.276 72.4823 13.628 70.8743 13.628ZM80.2047 14.288V15.188H76.4847L75.9087 18.164H79.0527C78.3327 18.836 77.0847 19.46 75.3327 20.012L75.9687 21.044C77.9487 20.288 79.3647 19.4 80.2047 18.368V21.248H81.3087V18.164H84.5007C84.5007 18.644 84.4647 18.992 84.4167 19.208C84.3447 19.436 84.1407 19.556 83.8047 19.556C83.3127 19.556 82.7847 19.532 82.2207 19.508L82.4967 20.588C82.9767 20.6 83.4807 20.612 83.9847 20.612C84.7047 20.6 85.1607 20.396 85.3647 19.988C85.5567 19.592 85.6647 18.656 85.6647 17.192H81.3087V16.22H85.2327V13.244H76.2567V14.288H80.2047ZM80.2047 16.22V17.192H77.2527L77.4927 16.22H80.2047ZM81.3087 15.188V14.288H84.0687V15.188H81.3087ZM77.1327 11.924H77.7567C78.0447 12.308 78.3087 12.716 78.5367 13.124L79.5567 12.752C79.4007 12.488 79.2087 12.212 78.9807 11.924H80.6727V10.928H77.6847C77.7567 10.748 77.8407 10.556 77.9247 10.352L76.8207 10.112C76.5087 10.94 75.9807 11.708 75.2487 12.428L76.2447 13.04C76.5687 12.692 76.8687 12.32 77.1327 11.924ZM82.2327 11.876H82.9527C83.2647 12.272 83.5287 12.692 83.7447 13.124L84.7527 12.752C84.5967 12.476 84.3927 12.188 84.1527 11.876H86.0967V10.88H82.7127C82.7727 10.712 82.8327 10.532 82.9047 10.352L81.8127 10.112C81.5367 10.94 81.0807 11.72 80.4447 12.44L81.4287 13.052C81.7287 12.692 81.9927 12.296 82.2327 11.876ZM88.4127 11.432L87.9447 16.232H89.1687C89.3367 15.92 89.5647 15.692 89.8767 15.548C90.1647 15.404 90.4887 15.344 90.8727 15.344C91.4487 15.344 91.8807 15.512 92.1927 15.848C92.5047 16.184 92.6607 16.652 92.6607 17.252C92.6607 17.804 92.4807 18.236 92.1207 18.572C91.7607 18.896 91.3167 19.064 90.7887 19.064C90.3087 19.064 89.9247 18.956 89.6367 18.74C89.3127 18.5 89.1207 18.128 89.0727 17.648H87.7887C87.8487 18.44 88.1847 19.076 88.7967 19.532C89.3487 19.952 90.0087 20.168 90.7767 20.168C91.6287 20.168 92.3607 19.916 92.9727 19.412C93.6207 18.848 93.9567 18.128 93.9567 17.24C93.9567 16.316 93.6927 15.596 93.1887 15.068C92.6847 14.54 92.0247 14.276 91.2207 14.276C90.8367 14.276 90.4767 14.336 90.1647 14.468C89.8167 14.588 89.5167 14.78 89.2527 15.056H89.2167L89.4687 12.584H93.5727V11.432H88.4127ZM96.436 10.22V11.456H95.788V12.512H96.436V17.324H95.656V18.38H101.404V17.324H100.72V12.512H101.344V11.456H100.72V10.244H99.616V11.456H97.54V10.22H96.436ZM97.54 17.324V16.388H99.616V17.324H97.54ZM99.616 12.512V13.46H97.54V12.512H99.616ZM97.54 15.392V14.456H99.616V15.392H97.54ZM99.676 18.524L98.8 19.088C99.304 19.796 99.712 20.444 100.012 21.044L100.696 20.564L101.512 21.32C102.304 20.264 102.784 18.956 102.952 17.384H104.992V19.568C104.992 19.892 104.86 20.06 104.596 20.06C104.224 20.06 103.828 20.036 103.396 20.012L103.708 21.128H104.956C105.736 21.128 106.132 20.744 106.132 19.976V10.544H101.884V16.28C101.872 17.84 101.524 19.136 100.852 20.192C100.564 19.712 100.168 19.148 99.676 18.524ZM97.072 18.548C96.64 19.328 96.136 20 95.56 20.564L96.46 21.212C97.036 20.588 97.552 19.844 97.984 18.992L97.072 18.548ZM103.024 14.492H104.992V16.34H103.024V14.492ZM104.992 13.46H103.024V11.624H104.992V13.46ZM111.316 13.568V14.66H114.64V16.22H112.084V21.236H113.224V20.648H117.316V21.224H118.444V16.22H115.804V14.66H119.152V13.568H115.804V11.816C116.884 11.66 117.832 11.432 118.66 11.144L118.096 10.184C116.32 10.76 114.136 11.048 111.532 11.048L111.892 12.068C112.864 12.068 113.776 12.02 114.64 11.948V13.568H111.316ZM113.224 19.58V17.288H117.316V19.58H113.224ZM109.288 10.28L108.508 11.012C109.384 11.588 110.068 12.128 110.548 12.62L111.328 11.852C110.764 11.324 110.08 10.796 109.288 10.28ZM109.012 13.136L108.208 13.916C109.096 14.552 109.792 15.14 110.284 15.692L111.076 14.9C110.524 14.312 109.828 13.724 109.012 13.136ZM110.176 16.364C109.684 17.804 109.096 19.208 108.412 20.588L109.552 21.092C110.152 19.748 110.716 18.308 111.22 16.772L110.176 16.364ZM121.288 10.904V11.996H125.752V10.904H121.288ZM120.844 14.144V15.248H122.38C121.828 17.264 121.396 18.5 121.072 18.968C121.024 19.004 120.952 19.04 120.832 19.064L121.108 20.144C122.572 19.88 123.928 19.532 125.188 19.1L125.5 19.868L126.484 19.364C125.98 18.152 125.452 17.036 124.9 16.028L123.94 16.496C124.216 17.012 124.492 17.564 124.768 18.152C123.964 18.452 123.16 18.692 122.368 18.86C122.68 18.092 123.052 16.892 123.484 15.248H126.184V14.144H120.844ZM127.816 10.196V12.524H126.292V13.628H127.816V13.736C127.792 16.868 127.048 19.136 125.596 20.552L126.448 21.308C128.08 19.712 128.908 17.192 128.944 13.736V13.628H130.432C130.408 16.82 130.372 18.704 130.3 19.268C130.204 19.844 129.904 20.132 129.376 20.132C129.064 20.132 128.692 20.108 128.26 20.072L128.524 21.08C129.004 21.104 129.34 21.128 129.532 21.128C130.624 21.128 131.236 20.672 131.368 19.76C131.476 18.848 131.536 16.436 131.536 12.524H128.944V10.196H127.816Z" fill="#918AE3"/>
<path d="M26.952 37.66V40.014H41.032V37.66H26.952ZM27.722 33.216V35.526H40.284V33.216H27.722ZM32.386 34.338V37.836C32.386 39.882 31.924 42.698 26.952 44.502C27.568 44.964 28.382 45.866 28.712 46.416C33.948 44.15 35.026 40.674 35.026 37.88V34.338H32.386ZM35.422 39.332L33.2 39.794C34.278 43.116 36.17 45.382 39.426 46.46C39.778 45.778 40.504 44.766 41.076 44.238C38.172 43.49 36.302 41.774 35.422 39.332ZM26.094 37.902H20.946V40.344H23.52V45.998H26.094V37.902ZM26.094 44.854H23.674C22.662 45.646 21.474 46.416 20.484 47.032L21.782 49.782C22.97 48.814 23.96 47.978 24.928 47.12C26.358 48.836 28.184 49.474 30.89 49.584C33.53 49.694 37.974 49.65 40.636 49.518C40.746 48.726 41.186 47.45 41.472 46.834C38.502 47.076 33.508 47.142 30.934 47.032C28.646 46.944 26.974 46.306 26.094 44.854ZM20.99 31.412C22.288 32.402 23.872 33.876 24.532 34.91L26.644 33.172C25.896 32.138 24.268 30.752 22.948 29.828L20.99 31.412ZM36.918 29.3C36.522 30.378 35.73 31.83 35.092 32.798L37.248 33.568C37.952 32.71 38.81 31.412 39.624 30.136L36.918 29.3ZM28.294 30.268C29.064 31.346 29.834 32.798 30.076 33.744L32.474 32.71C32.166 31.742 31.352 30.356 30.538 29.366L28.294 30.268ZM53.022 29.388C52.274 32.446 50.932 35.482 49.26 37.374C49.854 37.77 50.91 38.628 51.372 39.09C53.132 36.912 54.694 33.458 55.618 29.982L53.022 29.388ZM52.406 39.178C51.9 41.62 50.954 44.128 49.722 45.668C50.338 45.998 51.46 46.68 51.966 47.098C53.198 45.316 54.342 42.5 54.958 39.706L52.406 39.178ZM53.506 33.26L52.516 35.702H62.526V33.26H53.506ZM56.036 34.338V47.01C56.036 47.296 55.926 47.362 55.64 47.362C55.332 47.362 54.408 47.384 53.484 47.34C53.858 48.066 54.254 49.232 54.386 50.002C55.794 50.002 56.872 49.892 57.642 49.474C58.434 49.034 58.654 48.308 58.654 47.032V34.338H56.036ZM59.424 39.75C60.502 42.016 61.426 45.052 61.668 47.032L64.198 46.152C63.89 44.15 62.944 41.224 61.8 38.958L59.424 39.75ZM61.822 33.26V33.612C61.668 35.152 61.426 37.11 61.228 38.298L63.494 38.694C63.78 37.374 64.176 35.328 64.44 33.524L62.592 33.194L62.174 33.26H61.822ZM48.314 29.41C47.192 32.556 45.278 35.68 43.276 37.682C43.738 38.32 44.442 39.772 44.684 40.41C47.082 37.902 49.37 33.942 50.8 30.18L48.314 29.41ZM46.18 35.482V49.958H48.71V32.996L48.688 32.974L46.18 35.482ZM67.036 37.99V40.872H87.408V37.99H67.036ZM96.032 30.114V32.49H104.04V30.114H96.032ZM94.734 30.114V32.952C94.734 34.822 94.25 36.692 90.224 37.968C90.664 38.408 91.5 39.596 91.764 40.19C96.362 38.606 97.374 35.68 97.374 33.04V30.114H94.734ZM102.786 30.114V35.306C102.786 37.704 103.424 38.43 105.602 38.43C106.02 38.43 107.252 38.43 107.714 38.43C109.606 38.43 110.266 37.55 110.486 34.184C109.804 34.008 108.682 33.568 108.154 33.15C108.088 35.658 107.978 36.054 107.45 36.054C107.164 36.054 106.284 36.054 106.042 36.054C105.514 36.054 105.448 35.966 105.448 35.262V30.114H102.786ZM90.4 40.828V43.16H110.2V40.828H90.4ZM98.936 38.386V49.958H101.598V38.386H98.936ZM98.166 42.06C96.45 44.238 93.128 46.262 89.96 47.23C90.51 47.758 91.28 48.726 91.676 49.364C94.888 48.11 98.144 45.668 100.08 42.852L98.166 42.06ZM102.368 41.994L100.432 42.83C102.412 45.58 105.69 48 108.924 49.232C109.32 48.572 110.112 47.56 110.706 47.054C107.472 46.086 104.106 44.15 102.368 41.994Z" fill="#918AE3"/>
<path d="M122.014 29.63V46.658C122.014 47.098 121.838 47.252 121.354 47.252C120.892 47.274 119.242 47.296 117.79 47.208C118.208 47.934 118.714 49.188 118.846 49.958C121.002 49.98 122.52 49.892 123.532 49.452C124.544 49.034 124.918 48.308 124.918 46.68V29.63H122.014ZM127.316 35.416C129.054 38.65 130.726 42.808 131.188 45.47L134.07 44.326C133.52 41.576 131.694 37.55 129.89 34.448L127.316 35.416ZM116.25 34.668C115.788 37.55 114.666 41.422 112.884 43.666C113.61 43.952 114.82 44.568 115.458 45.052C117.306 42.61 118.516 38.496 119.264 35.174L116.25 34.668ZM136.952 44.282C136.952 43.798 138.646 42.984 138.646 42.984V42.918C140.934 40.85 143.31 38.012 145.07 35.174L142.76 33.656C141.198 36.604 138.778 39.596 137.964 40.366C137.194 41.136 136.71 41.62 136.072 41.752C136.402 42.456 136.82 43.754 136.952 44.282ZM136.952 44.282C137.59 43.93 138.558 43.71 144.432 42.764C144.344 42.214 144.278 41.158 144.322 40.454L138.008 41.334L136.82 42.148L136.952 44.282ZM136.776 38.914C136.776 38.43 138.382 37.572 138.382 37.572V37.506C139.944 35.592 141.638 32.864 142.782 30.29L140.142 29.212C139.284 31.742 137.766 34.426 137.26 35.108C136.754 35.812 136.38 36.252 135.896 36.384C136.182 37.088 136.622 38.364 136.776 38.914ZM136.776 38.914C137.282 38.672 138.118 38.496 142.276 38.1C142.298 37.528 142.408 36.56 142.584 35.856L137.876 36.208L136.71 36.956L136.776 38.914ZM136.072 46.394L136.534 49.122C138.734 48.594 141.55 47.956 144.19 47.318L143.904 44.832C141.066 45.426 138.074 46.064 136.072 46.394ZM144.784 31.17V33.81H156.202V31.17H144.784ZM144.41 46.02V48.66H156.664V46.02H144.41ZM149.074 32.05V47.516H151.956V32.05H149.074ZM164.672 35.526C163.418 38.166 161.24 40.762 158.952 42.346C159.568 42.764 160.646 43.71 161.108 44.194C163.396 42.346 165.794 39.376 167.312 36.34L164.672 35.526ZM169.732 35.9V46.108C169.732 48.858 170.458 49.672 173.142 49.672C173.692 49.672 176.002 49.672 176.574 49.672C178.928 49.672 179.632 48.594 179.94 45.008C179.236 44.854 178.136 44.414 177.564 43.974C177.432 46.702 177.256 47.23 176.354 47.23C175.826 47.23 173.912 47.23 173.472 47.23C172.504 47.23 172.35 47.098 172.35 46.108V35.9H169.732ZM177.168 37.418C175.562 38.65 173.032 40.058 170.678 41.004C171.03 41.532 171.448 42.412 171.602 42.962C174.11 42.016 176.97 40.784 179.148 39.442L177.168 37.418ZM159.788 31.192V33.722H179.368V31.192H159.788ZM164.694 29.322V35.768H167.29V29.322H164.694ZM171.954 29.322V35.812H174.594V29.322H171.954ZM163.066 40.146V49.98H165.662V37.55V37.528L163.066 40.146Z" fill="#F3ACDB"/>
<path d="M24.308 71.788V72.628H27.056V75.94H23.816V76.792H31.34V75.94H27.932V72.628H30.8V71.788H27.932V69.556H27.056V71.788H24.308ZM22.376 72.316V77.236H23.228V71.332C23.876 70.516 24.44 69.628 24.908 68.68H31.328V67.828H25.292C25.508 67.312 25.688 66.772 25.856 66.22L24.956 66.112C24.788 66.7 24.572 67.276 24.332 67.828H20.84V68.68H23.924C23.084 70.276 21.92 71.692 20.42 72.928L20.96 73.636C21.464 73.216 21.932 72.772 22.376 72.316ZM33.284 66.976V67.732H37.172C37.076 68.044 36.968 68.356 36.86 68.668H33.872V69.424H36.536C36.38 69.748 36.212 70.06 36.032 70.36H32.888V71.128H35.492C34.676 72.148 33.656 72.892 32.42 73.372L32.852 74.092C33.596 73.78 34.292 73.372 34.916 72.868V77.248H35.768V76.732H40.304V77.224H41.156V72.676C41.708 73.192 42.392 73.648 43.232 74.044L43.604 73.276C42.32 72.748 41.372 72.028 40.772 71.128H43.112V70.36H36.992C37.16 70.06 37.316 69.748 37.46 69.424H42.164V68.668H37.76C37.868 68.38 37.976 68.068 38.072 67.732H42.716V66.976H38.276C38.336 66.712 38.396 66.448 38.444 66.184L37.556 66.1L37.376 66.976H33.284ZM40.616 72.124H35.72C35.996 71.824 36.26 71.488 36.512 71.128H39.932C40.112 71.464 40.34 71.8 40.616 72.124ZM35.768 75.964V74.788H40.304V75.964H35.768ZM35.768 74.032V72.88H40.304V74.032H35.768ZM49.556 67.408V68.308H44.852V69.1H48.416C47.72 69.868 46.46 70.552 44.636 71.164L45.104 71.92C47.156 71.128 48.548 70.18 49.292 69.1H49.556V71.14H50.444V69.1H50.708C51.524 70.252 52.952 71.176 54.992 71.884L55.376 71.08C53.624 70.6 52.352 69.94 51.548 69.1H55.148V68.308H50.444V67.348C51.812 67.252 53 67.096 54.032 66.904L53.648 66.232C51.56 66.568 48.944 66.748 45.8 66.76L46.052 67.492C47.3 67.492 48.476 67.456 49.556 67.408ZM45.08 73.996V74.788H49.832V75.88C49.832 76.204 49.652 76.372 49.316 76.372C48.812 76.372 48.344 76.36 47.912 76.348L48.128 77.128H49.616C50.336 77.128 50.708 76.804 50.708 76.156V74.788H54.908V73.996H50.708V73.624C51.5 73.204 52.22 72.772 52.868 72.34V71.584H46.796V72.34H51.716C51.284 72.58 50.66 72.904 49.832 73.288V73.996H45.08ZM58.232 74.572C57.992 74.572 57.812 74.632 57.668 74.776C57.524 74.908 57.452 75.088 57.452 75.316C57.452 75.52 57.524 75.7 57.668 75.844C57.812 75.988 57.98 76.06 58.184 76.06C58.304 76.06 58.4 76.036 58.448 76.012C58.448 76.3 58.364 76.564 58.184 76.816C57.992 77.056 57.74 77.236 57.428 77.344V77.932C57.932 77.8 58.352 77.536 58.664 77.152C58.976 76.744 59.132 76.276 59.132 75.748C59.132 75.4 59.048 75.124 58.892 74.908C58.724 74.68 58.496 74.572 58.232 74.572ZM77.768 77.152C78.464 77.152 78.812 76.756 78.812 75.976V66.664H69.188V77.188H70.052V67.504H77.948V75.784C77.948 76.144 77.792 76.324 77.492 76.324L75.932 76.288L76.172 77.152H77.768ZM70.928 68.884V69.688H77.084V68.884H70.928ZM71.6 70.984V74.848H76.412V70.984H71.6ZM75.572 74.08H72.44V71.764H75.572V74.08ZM80.72 70.876V71.572H81.872V75.724L80.756 75.772L80.864 76.516C82.532 76.42 83.936 76.3 85.076 76.168V77.224H85.916V76.06C86.156 76.012 86.396 75.976 86.612 75.94V75.256C86.396 75.292 86.156 75.328 85.916 75.364V71.572H91.304V70.876H80.72ZM82.652 75.688V74.656H85.076V75.472C84.356 75.556 83.54 75.628 82.652 75.688ZM82.652 74.02V73.12H85.076V74.02H82.652ZM82.652 72.472V71.572H85.076V72.472H82.652ZM82.244 66.628V70.084H89.828V66.628H82.244ZM89 69.46H83.072V68.656H89V69.46ZM83.072 68.044V67.276H89V68.044H83.072ZM86.924 73.084C87.164 73.96 87.608 74.74 88.28 75.436C87.764 75.868 87.14 76.228 86.42 76.54L86.864 77.212C87.644 76.876 88.316 76.468 88.868 75.988C89.408 76.432 90.08 76.84 90.872 77.212L91.316 76.492C90.572 76.18 89.948 75.832 89.42 75.436C89.996 74.764 90.404 73.972 90.632 73.048V72.376H86.54V73.084H86.924ZM88.808 74.92C88.256 74.38 87.884 73.768 87.668 73.084H89.852C89.636 73.756 89.288 74.368 88.808 74.92ZM92.72 70.876V71.572H93.872V75.724L92.756 75.772L92.864 76.516C94.532 76.42 95.936 76.3 97.076 76.168V77.224H97.916V76.06C98.156 76.012 98.396 75.976 98.612 75.94V75.256C98.396 75.292 98.156 75.328 97.916 75.364V71.572H103.304V70.876H92.72ZM94.652 75.688V74.656H97.076V75.472C96.356 75.556 95.54 75.628 94.652 75.688ZM94.652 74.02V73.12H97.076V74.02H94.652ZM94.652 72.472V71.572H97.076V72.472H94.652ZM94.244 66.628V70.084H101.828V66.628H94.244ZM101 69.46H95.072V68.656H101V69.46ZM95.072 68.044V67.276H101V68.044H95.072ZM98.924 73.084C99.164 73.96 99.608 74.74 100.28 75.436C99.764 75.868 99.14 76.228 98.42 76.54L98.864 77.212C99.644 76.876 100.316 76.468 100.868 75.988C101.408 76.432 102.08 76.84 102.872 77.212L103.316 76.492C102.572 76.18 101.948 75.832 101.42 75.436C101.996 74.764 102.404 73.972 102.632 73.048V72.376H98.54V73.084H98.924ZM100.808 74.92C100.256 74.38 99.884 73.768 99.668 73.084H101.852C101.636 73.756 101.288 74.368 100.808 74.92ZM111.824 73.876L111.392 74.524C112.568 75.076 113.732 75.844 114.86 76.804L115.316 76.072C114.26 75.208 113.096 74.476 111.824 73.876ZM107.996 73.876C107.108 74.74 105.992 75.436 104.636 75.964L104.996 76.744C106.412 76.144 107.6 75.388 108.536 74.488L107.996 73.876ZM110.048 66.136L109.136 66.28C109.316 66.64 109.484 67.036 109.64 67.468H105.572V68.248H114.452V67.468H110.516C110.372 66.964 110.216 66.52 110.048 66.136ZM104.996 70.36V71.176H109.628V72.556H105.368V73.336H109.628V75.856C109.628 76.24 109.436 76.432 109.052 76.432C108.656 76.432 108.236 76.408 107.804 76.372L107.984 77.2H109.352C110.096 77.2 110.48 76.828 110.48 76.084V73.336H114.632V72.556H110.48V71.176H115.016V70.36H112.364C112.628 69.928 112.88 69.424 113.108 68.872L112.28 68.584C112.052 69.208 111.788 69.796 111.476 70.36H108.644C108.38 69.676 108.104 69.088 107.792 68.608L106.988 68.908C107.288 69.364 107.54 69.856 107.756 70.36H104.996ZM126.98 69.148H124.964C125.228 68.764 125.468 68.332 125.684 67.84L124.856 67.54C124.64 68.104 124.376 68.644 124.064 69.148H122.528C122.396 68.644 122.252 68.188 122.096 67.792L121.256 67.924C121.412 68.284 121.556 68.692 121.688 69.148H119.72C119.588 68.68 119.456 68.26 119.324 67.888L118.472 68.02C118.616 68.368 118.748 68.74 118.868 69.148H117.044V71.128H117.932V69.928H126.092V71.128H126.98V69.148ZM126.332 66.376C123.908 66.7 120.848 66.868 117.164 66.88L117.428 67.684C121.316 67.684 124.424 67.492 126.764 67.132L126.332 66.376ZM120.236 70.228C120.176 70.54 120.116 70.84 120.044 71.152H117.968V71.944H119.828C119.228 73.84 118.196 75.292 116.756 76.324L117.176 77.068C118.292 76.324 119.192 75.304 119.888 73.984C120.512 74.596 121.208 75.124 121.976 75.58C121.124 75.988 120.14 76.276 119.024 76.456L119.408 77.224C120.62 77.008 121.76 76.6 122.816 76.024C123.968 76.588 125.24 76.972 126.656 77.164L127.04 76.384C125.792 76.24 124.652 75.952 123.596 75.544C124.4 74.992 125.084 74.332 125.648 73.576V72.928H120.368C120.488 72.616 120.596 72.28 120.704 71.944H126.068V71.152H120.92C120.98 70.888 121.04 70.624 121.088 70.336L120.236 70.228ZM120.536 73.672H124.616C124.1 74.212 123.476 74.704 122.744 75.16C121.94 74.752 121.208 74.248 120.536 73.672ZM132.848 68.272H130.916C131.156 67.672 131.336 67.012 131.48 66.304L130.616 66.184C130.508 66.904 130.34 67.6 130.1 68.272H128.984V76.804H129.824V75.772H132.008V76.456H132.848V68.272ZM129.824 74.968V72.34H132.008V74.968H129.824ZM129.824 71.56V69.088H132.008V71.56H129.824ZM134.936 71.056L134.24 71.488C135.068 72.472 135.728 73.36 136.22 74.152L136.904 73.672C136.448 72.928 135.8 72.052 134.936 71.056ZM139.052 68.284H135.224C135.44 67.66 135.608 66.988 135.752 66.28L134.9 66.172C134.588 67.876 134.024 69.316 133.184 70.492L133.7 71.176C134.168 70.564 134.564 69.88 134.9 69.124H138.2C138.176 72.58 138.128 74.656 138.056 75.328C137.96 75.94 137.636 76.252 137.072 76.252C136.7 76.252 136.268 76.24 135.764 76.216L135.968 77.008C136.544 77.032 136.952 77.056 137.192 77.056C138.2 77.056 138.752 76.588 138.872 75.676C138.992 74.74 139.052 72.268 139.052 68.284ZM141.992 70.54V77.2H142.856V69.208C143.336 68.368 143.732 67.468 144.044 66.52L143.24 66.136C142.652 68.032 141.704 69.724 140.408 71.188L140.684 72.1C141.152 71.608 141.584 71.092 141.992 70.54ZM149.72 70.972L148.952 71.224C149.54 72.568 150.08 74.128 150.56 75.88L151.316 75.544C150.86 73.912 150.332 72.388 149.72 70.972ZM145.592 68.5H150.14C149.96 69.124 149.732 69.676 149.456 70.18L150.284 70.42C150.584 69.7 150.824 68.968 151.016 68.224V67.66H145.904C146.048 67.24 146.192 66.796 146.312 66.328L145.496 66.16C145.088 67.78 144.428 69.256 143.516 70.588L144.26 71.044C144.764 70.276 145.208 69.436 145.592 68.5ZM147.092 77.116C147.752 77.116 148.088 76.78 148.088 76.108V69.508H147.248V75.892C147.248 76.204 147.092 76.36 146.792 76.36C146.336 76.36 145.844 76.336 145.34 76.3L145.52 77.116H147.092ZM145.292 71.068C144.8 72.82 144.224 74.26 143.576 75.388L144.38 75.676C145.076 74.416 145.64 72.952 146.072 71.284L145.292 71.068ZM154.232 74.572C153.992 74.572 153.812 74.632 153.668 74.776C153.524 74.908 153.452 75.088 153.452 75.316C153.452 75.52 153.524 75.7 153.668 75.844C153.812 75.988 153.98 76.06 154.184 76.06C154.304 76.06 154.4 76.036 154.448 76.012C154.448 76.3 154.364 76.564 154.184 76.816C153.992 77.056 153.74 77.236 153.428 77.344V77.932C153.932 77.8 154.352 77.536 154.664 77.152C154.976 76.744 155.132 76.276 155.132 75.748C155.132 75.4 155.048 75.124 154.892 74.908C154.724 74.68 154.496 74.572 154.232 74.572ZM164.972 66.676V70.468H166.52V75.652C166.256 75.724 165.98 75.784 165.692 75.856V71.476H164.972V76.012L164.444 76.12L164.684 76.948C166.172 76.624 167.468 76.264 168.596 75.88V75.04C168.188 75.184 167.756 75.316 167.312 75.436V73.156H168.548V72.364H167.312V70.468H168.308V66.676H164.972ZM167.492 69.676H165.788V67.456H167.492V69.676ZM170.084 74.788H173.756V75.904H170.084V74.788ZM173.756 76.708V77.224H174.596V72.04H169.244V77.224H170.084V76.708H173.756ZM173.756 74.044H170.084V72.82H173.756V74.044ZM171.56 71.5C172.172 71.5 172.484 71.176 172.484 70.528V68.908C173.048 70.012 173.924 70.984 175.112 71.848L175.604 71.14C174.788 70.66 174.116 70.084 173.564 69.388C174.236 68.908 174.896 68.32 175.532 67.624L174.884 67.132C174.368 67.756 173.792 68.308 173.144 68.8C172.88 68.392 172.664 67.96 172.484 67.504V66.22H171.668V70.312C171.668 70.624 171.536 70.78 171.284 70.78C171.008 70.78 170.72 70.756 170.42 70.72L170.6 71.5H171.56ZM168.704 67.636V68.38H170.276C169.88 69.592 169.16 70.528 168.128 71.188L168.608 71.848C169.856 71.02 170.696 69.82 171.116 68.248V67.636H168.704ZM177.44 66.388L176.852 66.952C177.692 67.624 178.352 68.26 178.832 68.86L179.432 68.26C178.892 67.636 178.232 67.012 177.44 66.388ZM184.508 76.996H187.256L187.46 76.156C187.148 76.18 186.692 76.192 186.116 76.204C185.528 76.204 184.952 76.216 184.388 76.216C183.452 76.216 182.66 76.204 182.024 76.192C181.304 76.168 180.764 76.084 180.392 75.928C180.056 75.76 179.744 75.496 179.456 75.16C179.36 75.052 179.264 74.968 179.168 74.896V70.36H176.648V71.152H178.34V74.836C177.86 75.052 177.308 75.652 176.684 76.636L177.332 77.224C177.98 76.144 178.448 75.604 178.736 75.604C178.88 75.604 179.036 75.7 179.204 75.904C179.576 76.336 179.996 76.624 180.476 76.768C180.956 76.888 181.592 76.96 182.36 76.972C183.128 76.984 183.848 76.996 184.508 76.996ZM186.212 75.508C186.704 75.508 186.956 75.256 186.956 74.752V70.816H181.364V75.508H182.096V73.492H183.056V75.376H183.728V73.492H184.616V75.376H185.288V73.492H186.224V74.596C186.224 74.764 186.14 74.848 185.972 74.848L185.492 74.812L185.684 75.508H186.212ZM182.096 72.796V71.536H183.056V72.796H182.096ZM183.728 71.536H184.616V72.796H183.728V71.536ZM185.288 71.536H186.224V72.796H185.288V71.536ZM186.212 68.032V69.208H181.34V68.032H186.212ZM181.328 69.916H186.98V67.288H184.244C184.124 66.856 183.992 66.484 183.872 66.148L182.972 66.292C183.14 66.592 183.284 66.928 183.404 67.288H180.548V69.628C180.536 71.632 180.2 73.276 179.528 74.548L180.128 75.088C180.884 73.648 181.28 71.92 181.328 69.916ZM21.284 82.976V83.732H25.172C25.076 84.044 24.968 84.356 24.86 84.668H21.872V85.424H24.536C24.38 85.748 24.212 86.06 24.032 86.36H20.888V87.128H23.492C22.676 88.148 21.656 88.892 20.42 89.372L20.852 90.092C21.596 89.78 22.292 89.372 22.916 88.868V93.248H23.768V92.732H28.304V93.224H29.156V88.676C29.708 89.192 30.392 89.648 31.232 90.044L31.604 89.276C30.32 88.748 29.372 88.028 28.772 87.128H31.112V86.36H24.992C25.16 86.06 25.316 85.748 25.46 85.424H30.164V84.668H25.76C25.868 84.38 25.976 84.068 26.072 83.732H30.716V82.976H26.276C26.336 82.712 26.396 82.448 26.444 82.184L25.556 82.1L25.376 82.976H21.284ZM28.616 88.124H23.72C23.996 87.824 24.26 87.488 24.512 87.128H27.932C28.112 87.464 28.34 87.8 28.616 88.124ZM23.768 91.964V90.788H28.304V91.964H23.768ZM23.768 90.032V88.88H28.304V90.032H23.768ZM37.556 82.208V86.66H32.768V87.512H36.032V87.596C36.008 88.832 35.744 89.84 35.264 90.608C34.736 91.352 33.824 91.94 32.504 92.396L32.996 93.164C34.352 92.696 35.336 92.048 35.936 91.208C36.548 90.296 36.872 89.096 36.908 87.596V87.512H38.936V91.712C38.936 92.492 39.296 92.888 40.04 92.888H41.912C42.392 92.888 42.74 92.768 42.956 92.528C43.196 92.264 43.364 91.496 43.448 90.224L42.62 89.96C42.572 90.992 42.476 91.604 42.332 91.82C42.212 91.988 42.02 92.072 41.756 92.072H40.304C39.968 92.072 39.8 91.892 39.8 91.532V87.512H43.244V86.66H38.444V82.208H37.556ZM41.54 82.784C41.144 83.72 40.616 84.68 39.956 85.64L40.736 86.036C41.396 85.112 41.936 84.152 42.344 83.168L41.54 82.784ZM34.496 82.892L33.68 83.276C34.268 84.092 34.832 85.004 35.36 86.036L36.164 85.64C35.636 84.644 35.084 83.732 34.496 82.892ZM54.584 88.844C54.032 89.42 53.444 89.864 52.832 90.152C52.424 89.552 52.148 88.892 51.98 88.172H54.404V83.24H51.692C51.512 82.832 51.32 82.46 51.128 82.148L50.264 82.292C50.468 82.58 50.66 82.892 50.828 83.24H48.464V91.964C48.464 92.144 48.308 92.276 48.008 92.348L48.2 93.128C49.7 92.84 50.948 92.54 51.932 92.228L51.74 91.448C50.924 91.736 50.108 91.976 49.292 92.168V88.172H51.176C51.62 90.296 52.904 91.964 55.028 93.164L55.496 92.432C54.608 91.964 53.876 91.412 53.312 90.764C54.008 90.452 54.62 89.996 55.16 89.42L54.584 88.844ZM45.56 82.376L44.948 82.976C45.896 83.624 46.64 84.224 47.18 84.8L47.792 84.176C47.192 83.576 46.448 82.976 45.56 82.376ZM45.26 85.196L44.648 85.784C45.548 86.432 46.256 87.044 46.76 87.62L47.372 87.008C46.808 86.408 46.1 85.796 45.26 85.196ZM46.952 88.532C46.364 89.948 45.68 91.34 44.9 92.696L45.764 93.068C46.484 91.748 47.132 90.344 47.72 88.844L46.952 88.532ZM49.292 86.096H53.564V87.392H49.292V86.096ZM53.564 85.352H49.292V84.032H53.564V85.352ZM57.404 82.34L56.828 82.892C57.716 83.492 58.412 84.068 58.916 84.608L59.516 84.008C58.94 83.456 58.244 82.892 57.404 82.34ZM57.164 85.292L56.588 85.844C57.428 86.444 58.076 87.008 58.556 87.536L59.156 86.936C58.616 86.384 57.956 85.844 57.164 85.292ZM58.472 88.664C57.992 90.032 57.416 91.364 56.744 92.66L57.536 93.02C58.16 91.748 58.736 90.392 59.24 88.952L58.472 88.664ZM60.572 82.532V85.772H66.2V82.532H60.572ZM65.372 85.124H61.424V84.476H65.372V85.124ZM61.424 83.864V83.18H65.372V83.864H61.424ZM59.852 86.36V88.772H66.908V86.36H59.852ZM66.116 88.112H64.748V87.008H66.116V88.112ZM64.004 88.112H62.756V87.008H64.004V88.112ZM62.012 88.112H60.632V87.008H62.012V88.112ZM60.5 90.152C61.04 90.728 61.724 91.244 62.564 91.688C61.604 92.024 60.524 92.264 59.3 92.42L59.672 93.176C61.136 92.96 62.432 92.612 63.536 92.144C64.52 92.552 65.696 92.888 67.052 93.128L67.544 92.408C66.392 92.228 65.36 91.988 64.448 91.7C65.276 91.244 65.984 90.704 66.572 90.056V89.408H59.852V90.152H60.5ZM63.452 91.34C62.636 91.004 61.964 90.608 61.412 90.152H65.372C64.82 90.608 64.184 91.004 63.452 91.34ZM79.076 84.512L76.496 85.304V82.196H75.656V85.568L73.904 86.108V83.42H73.064V86.372L72.056 86.684V87.524L73.064 87.212V91.784C73.064 92.576 73.46 92.984 74.264 92.984H78.056C78.5 92.984 78.824 92.864 79.028 92.636C79.268 92.372 79.424 91.64 79.508 90.428L78.704 90.176C78.656 91.148 78.56 91.736 78.428 91.928C78.332 92.084 78.152 92.168 77.9 92.168H74.528C74.108 92.168 73.904 91.976 73.904 91.616V86.96L75.656 86.432V90.716H76.496V86.18L78.248 85.652C78.236 87.284 78.2 88.232 78.14 88.484C78.068 88.748 77.864 88.88 77.54 88.88C77.396 88.88 77.228 88.868 77.048 88.856L77.288 89.708H77.36C78.26 89.708 78.776 89.444 78.896 88.94C79.016 88.412 79.076 86.936 79.076 84.512ZM72.212 89.612C71.756 89.828 71.276 90.032 70.796 90.212V86.228H72.044V85.388H70.796V82.292H69.944V85.388H68.576V86.228H69.944V90.5C69.44 90.644 68.936 90.776 68.432 90.884L68.648 91.748C69.92 91.412 71.108 90.98 72.212 90.464V89.612ZM82.232 90.572C81.992 90.572 81.812 90.632 81.668 90.776C81.524 90.908 81.452 91.088 81.452 91.316C81.452 91.52 81.524 91.7 81.668 91.844C81.812 91.988 81.98 92.06 82.184 92.06C82.304 92.06 82.4 92.036 82.448 92.012C82.448 92.3 82.364 92.564 82.184 92.816C81.992 93.056 81.74 93.236 81.428 93.344V93.932C81.932 93.8 82.352 93.536 82.664 93.152C82.976 92.744 83.132 92.276 83.132 91.748C83.132 91.4 83.048 91.124 82.892 90.908C82.724 90.68 82.496 90.572 82.232 90.572ZM93.536 84.824L92.912 85.424C93.776 86.444 94.556 87.44 95.252 88.412C94.604 89.852 93.692 91.1 92.516 92.132L93.104 92.804C94.256 91.796 95.156 90.608 95.828 89.252C96.284 89.948 96.704 90.62 97.064 91.292L97.724 90.62C97.268 89.852 96.776 89.072 96.236 88.304C96.776 86.9 97.088 85.328 97.184 83.576V82.916H92.852V83.744H96.356C96.26 85.064 96.008 86.3 95.624 87.452C94.976 86.576 94.28 85.7 93.536 84.824ZM97.928 82.916V83.744H98.324C98.432 85.604 98.96 87.404 99.908 89.156C99.14 90.284 98.18 91.364 97.028 92.384L97.616 93.104C98.696 92.108 99.62 91.064 100.388 89.972C101.036 91.028 101.876 92.072 102.884 93.104L103.484 92.396C102.428 91.352 101.576 90.284 100.904 89.18C101.948 87.452 102.596 85.628 102.86 83.684V82.916H97.928ZM99.104 83.744H102.044C101.78 85.364 101.24 86.9 100.424 88.34C99.644 86.852 99.2 85.328 99.104 83.744ZM111.644 87.764C112.028 90.02 113.168 91.796 115.052 93.08L115.532 92.324C114.704 91.796 114.032 91.16 113.504 90.416C114.152 90.068 114.728 89.564 115.232 88.904L114.704 88.376C114.2 89.012 113.672 89.48 113.12 89.792C112.784 89.18 112.556 88.508 112.424 87.764H114.536V82.676H109.508V91.952C109.508 92.108 109.412 92.228 109.244 92.3L109.424 92.984C110.66 92.66 111.68 92.324 112.496 91.976L112.304 91.22C111.656 91.508 111.008 91.736 110.348 91.916V87.764H111.644ZM108.428 82.844H104.948V92.66H105.776V91.472H107.588V92.384H108.428V82.844ZM105.776 90.656V88.844H107.588V90.656H105.776ZM105.776 88.064V86.252H107.588V88.064H105.776ZM105.776 85.46V83.66H107.588V85.46H105.776ZM110.348 85.64H113.696V86.996H110.348V85.64ZM113.696 84.872H110.348V83.468H113.696V84.872ZM118.208 86.012C117.872 87.524 117.32 88.904 116.552 90.152L117.32 90.644C118.064 89.396 118.652 87.92 119.06 86.192L118.208 86.012ZM125.528 85.976L124.7 86.252C125.384 87.548 126.008 89.048 126.572 90.74L127.4 90.38C126.86 88.82 126.236 87.356 125.528 85.976ZM121.88 82.22L120.932 82.376C121.172 82.784 121.4 83.24 121.604 83.744H116.852V84.584H120.248V86.432C120.224 89.264 119.336 91.328 117.596 92.624L118.232 93.188C120.104 91.772 121.052 89.516 121.1 86.432V84.584H123.008V91.664C123.008 92.108 122.792 92.336 122.36 92.336C121.976 92.336 121.58 92.312 121.172 92.276L121.352 93.104H122.66C123.464 93.104 123.872 92.696 123.872 91.88V84.584H127.172V83.744H122.528C122.312 83.168 122.096 82.664 121.88 82.22ZM128.996 82.676V93.116H129.8V83.444H131.216C131.036 84.392 130.772 85.448 130.436 86.612C130.976 87.548 131.252 88.4 131.252 89.144C131.252 89.408 131.204 89.588 131.132 89.696C131.036 89.792 130.904 89.852 130.724 89.876C130.556 89.876 130.34 89.864 130.088 89.84L130.34 90.644C131.012 90.632 131.48 90.488 131.756 90.212C131.948 90.008 132.044 89.648 132.044 89.144C132.008 88.4 131.732 87.512 131.216 86.492C131.528 85.388 131.792 84.332 132.008 83.324V82.676H128.996ZM132.896 82.892L132.26 83.288C132.716 83.984 133.076 84.632 133.352 85.232L133.988 84.776C133.736 84.248 133.376 83.612 132.896 82.892ZM137.156 92.204C136.736 92.204 136.316 92.192 135.896 92.18C135.452 92.156 135.068 92.072 134.756 91.94C134.396 91.76 134.108 91.52 133.892 91.22C133.868 91.196 133.832 91.16 133.808 91.124V86.228H131.984V86.996H133.004V91.004C132.584 91.196 132.08 91.712 131.48 92.528L131.996 93.176C132.668 92.216 133.124 91.748 133.364 91.748C133.472 91.748 133.604 91.832 133.748 92.012C134.012 92.348 134.336 92.6 134.72 92.756C135.104 92.888 135.56 92.96 136.076 92.972C136.412 92.984 136.76 92.996 137.096 92.996H139.268L139.484 92.18C138.752 92.192 137.972 92.204 137.156 92.204ZM134.276 83.348V84.14H135.74C135.356 85.472 134.768 86.564 133.976 87.416L134.42 87.992C134.732 87.704 135.02 87.356 135.296 86.96V91.496H136.04V89.468H138.176V90.38C138.176 90.632 138.068 90.764 137.864 90.764C137.6 90.764 137.336 90.74 137.048 90.716L137.24 91.46H138.116C138.668 91.436 138.956 91.16 138.956 90.632V85.34H136.148C136.292 84.968 136.436 84.572 136.556 84.14H139.424V83.348H136.772C136.844 83.012 136.916 82.676 136.988 82.316L136.148 82.208C136.088 82.592 136.016 82.964 135.944 83.348H134.276ZM136.04 87.788H138.176V88.772H136.04V87.788ZM138.176 87.092H136.04V86.024H138.176V87.092ZM141.992 86.54V93.2H142.856V85.208C143.336 84.368 143.732 83.468 144.044 82.52L143.24 82.136C142.652 84.032 141.704 85.724 140.408 87.188L140.684 88.1C141.152 87.608 141.584 87.092 141.992 86.54ZM149.72 86.972L148.952 87.224C149.54 88.568 150.08 90.128 150.56 91.88L151.316 91.544C150.86 89.912 150.332 88.388 149.72 86.972ZM145.592 84.5H150.14C149.96 85.124 149.732 85.676 149.456 86.18L150.284 86.42C150.584 85.7 150.824 84.968 151.016 84.224V83.66H145.904C146.048 83.24 146.192 82.796 146.312 82.328L145.496 82.16C145.088 83.78 144.428 85.256 143.516 86.588L144.26 87.044C144.764 86.276 145.208 85.436 145.592 84.5ZM147.092 93.116C147.752 93.116 148.088 92.78 148.088 92.108V85.508H147.248V91.892C147.248 92.204 147.092 92.36 146.792 92.36C146.336 92.36 145.844 92.336 145.34 92.3L145.52 93.116H147.092ZM145.292 87.068C144.8 88.82 144.224 90.26 143.576 91.388L144.38 91.676C145.076 90.416 145.64 88.952 146.072 87.284L145.292 87.068ZM162.284 83.948C161.48 84.656 160.592 85.244 159.62 85.712C159.596 85.1 159.584 84.44 159.584 83.732V82.892H152.444V83.756H158.72C158.72 87.56 159.032 90.056 159.656 91.244C160.268 92.408 161.036 92.996 161.948 93.008C162.224 93.008 162.488 92.876 162.752 92.636C163.1 92.18 163.328 91.424 163.448 90.392L162.62 90.116C162.548 90.932 162.452 91.472 162.332 91.712C162.212 91.952 162.068 92.072 161.9 92.084C161.3 92.06 160.76 91.568 160.304 90.584C160.016 89.996 159.824 88.952 159.716 87.44C160.7 87.908 161.66 88.508 162.596 89.24L163.1 88.484C162.044 87.752 160.904 87.116 159.656 86.588V86.564C160.832 86.048 161.864 85.4 162.776 84.632L162.284 83.948ZM168.704 85.484V87.86H170.78C170.66 88.208 170.528 88.508 170.36 88.772C169.856 89.492 169.016 90.128 167.84 90.656L168.38 91.328C169.64 90.704 170.54 89.972 171.08 89.12C171.224 88.88 171.356 88.592 171.476 88.268V90.128C171.476 90.8 171.788 91.136 172.424 91.136H174.212C174.572 91.136 174.848 91.04 175.016 90.872C175.208 90.668 175.34 90.092 175.412 89.144L174.704 88.904C174.656 89.624 174.584 90.068 174.488 90.212C174.416 90.332 174.272 90.392 174.068 90.392H172.652C172.376 90.392 172.244 90.248 172.244 89.96V87.86H174.404V85.016H172.436C172.748 84.692 173.072 84.296 173.396 83.84V83.252H170.84C171.032 82.976 171.212 82.676 171.404 82.364L170.612 82.184C169.808 83.492 168.788 84.548 167.54 85.352L168.044 85.976C168.26 85.832 168.476 85.664 168.704 85.484ZM170.288 83.948H172.424C172.088 84.356 171.764 84.704 171.428 85.016H169.256C169.616 84.68 169.964 84.332 170.288 83.948ZM173.6 87.14H171.764C171.836 86.708 171.896 86.24 171.944 85.712H173.6V87.14ZM170.972 87.14H169.484V85.712H171.176C171.128 86.228 171.068 86.708 170.972 87.14ZM173.072 88.28L172.616 88.724C173.072 89.108 173.444 89.468 173.708 89.816L174.188 89.324C173.888 88.976 173.516 88.628 173.072 88.28ZM165.512 82.388L164.924 82.952C165.8 83.624 166.484 84.248 166.988 84.836L167.6 84.248C167.036 83.624 166.34 83.012 165.512 82.388ZM172.58 92.984H175.256L175.472 92.12C175.16 92.144 174.716 92.156 174.152 92.168C173.576 92.18 173.012 92.192 172.46 92.192C171.512 92.192 170.72 92.18 170.084 92.168C169.376 92.144 168.836 92.048 168.452 91.88C168.116 91.724 167.804 91.472 167.516 91.124C167.408 91.004 167.312 90.92 167.216 90.848V86.36H164.648V87.152H166.412V90.8C165.92 90.992 165.344 91.604 164.684 92.636L165.332 93.224C166.016 92.12 166.496 91.568 166.784 91.568C166.94 91.568 167.096 91.664 167.264 91.868C167.624 92.3 168.056 92.6 168.536 92.744C169.016 92.876 169.652 92.948 170.432 92.96C171.2 92.972 171.92 92.984 172.58 92.984Z" fill="black" fill-opacity="0.3"/>
<path d="M315.522 21.537C313.908 18.8629 314.346 15.6999 316.578 14.3928C317.513 13.8575 318.569 13.5691 319.646 13.5546C324.848 13.448 330.052 13.6813 335.225 14.2531C337.725 14.5225 340.205 14.6123 342.755 14.7919C343.975 14.9733 345.208 15.06 346.441 15.0513C347.079 15.8596 346.8 16.8075 346.79 17.6855C346.708 20.1803 347.16 22.6637 348.115 24.9695C349.202 27.3198 350.839 29.3733 352.886 30.9563C353.812 31.7146 354.729 32.4929 355.735 33.1614C358.534 35.0273 359.669 37.6814 359.789 40.9841C359.828 44.1829 360.359 47.3565 361.363 50.3934C361.908 51.875 362.623 53.288 363.495 54.6041C365.985 58.4955 369.85 59.8226 374.143 60.3315C378.931 60.7822 383.76 60.5097 388.467 59.5232C388.683 59.4449 388.914 59.4203 389.142 59.4516C389.369 59.4829 389.585 59.5692 389.772 59.7029V69.182C383.741 69.2466 377.733 69.932 371.842 71.2274C367.748 72.2252 364.012 71.2275 360.397 69.3416C355.927 67.0224 351.647 64.3533 347.597 61.3592C345.415 59.7727 342.795 59.633 340.245 59.5332C336.938 59.4035 333.621 59.5332 330.284 59.4634C328.713 59.4672 327.151 59.2282 325.652 58.755C324.345 58.3338 323.2 57.5198 322.371 56.4237C321.543 55.3276 321.071 54.0025 321.02 52.6285C321.049 51.8184 321.266 51.0263 321.653 50.3146C322.041 49.6028 322.588 48.991 323.252 48.5275C323.989 47.9388 324.945 47.6295 325.503 46.8113C325.722 47.3102 326.11 47.1805 326.499 47.1505C328.123 47.0308 329.726 47.3002 331.34 47.3401C334.478 47.4299 337.625 47.3401 340.763 47.3401C335.603 46.8612 330.394 47.4998 325.234 46.7315C322.505 46.2407 319.923 45.1353 317.683 43.4986C315.143 41.503 315.113 38.5096 317.494 35.6758C317.753 35.3565 318.032 35.0472 318.301 34.7379C318.43 34.633 318.592 34.5765 318.759 34.5783C322.365 34.6581 325.981 34.4386 329.577 34.688C332.565 34.8976 335.554 34.7778 338.542 34.8577H340.534C332.804 34.5583 325.064 34.6182 317.345 34.2091C315.514 33.2194 314.074 31.6361 313.261 29.719C312.823 28.5686 312.782 27.305 313.142 26.1283C313.503 24.9516 314.246 23.9293 315.253 23.2233C315.571 22.9639 316.01 22.8442 316.07 22.3453C316.348 21.9362 316.777 21.9661 317.185 21.9761C324.477 22.1557 331.768 22.3852 339.1 22.4251C339.389 22.4251 339.667 22.5049 340.096 22.4849C337.894 22.2954 335.872 22.1657 333.84 22.1856C328.322 22.2355 322.823 21.8064 317.305 21.9062C316.687 21.956 316.069 21.8279 315.522 21.537V21.537Z" fill="#F8ABDA"/>
<path d="M389.772 59.6626C386.807 60.2153 383.814 60.6084 380.807 60.84C379.116 61.0063 377.412 60.9828 375.727 60.7701C374.312 60.5606 372.878 60.5207 371.444 60.2214C364.919 58.8843 362 54.2346 360.357 48.3775C359.5 45.3242 359.53 42.1712 359.171 39.068C359.032 38.0019 358.671 36.9772 358.109 36.0608C357.548 35.1444 356.8 34.3569 355.914 33.7497C353.958 32.3592 352.116 30.8143 350.406 29.1299C347.959 26.5127 346.543 23.0949 346.421 19.5112C346.332 18.0244 346.421 16.5177 346.421 15.031C347.009 13.6241 347.089 12.0376 348.015 10.7505C349.4 8.81474 351.153 7.93668 353.185 8.34577C354.315 8.60359 355.352 9.1669 356.185 9.97441C357.017 10.7819 357.613 11.8027 357.906 12.9257C358.145 14.0332 358.006 15.1607 358.185 16.2583C358.614 18.9424 360.397 20.5389 362.748 21.5566C365.792 22.7172 368.951 23.55 372.171 24.0411C375.289 24.6698 378.426 25.1288 381.554 25.6177C384.274 26.0467 387.013 26.376 389.752 26.7452L389.772 59.6626Z" fill="#FBD3EA"/>
<path d="M238.841 18.9924C240.913 18.1044 243.164 19.7707 244.349 21.5468C245.877 23.9443 246.459 26.8252 245.983 29.629C245.804 30.9261 246.152 32.3031 245.405 33.5104C244.509 34.7776 243.951 36.2344 243.094 37.5016C240.731 41.1487 238.065 44.59 235.125 47.7889C234.249 48.8827 233.308 49.9224 232.306 50.9021C234.528 48.6271 236.619 46.2423 238.632 43.7778C240.623 41.2835 242.463 38.6712 244.14 35.955C244.558 35.2965 244.539 34.3685 245.355 33.9594C246.171 33.0455 246.843 32.0127 247.348 30.8962C248.241 29.1899 249.239 27.5404 250.336 25.9571C250.549 26.3139 250.868 26.5951 251.248 26.7614C251.629 26.9278 252.052 26.971 252.458 26.885C254.45 26.6156 256.343 26.1666 257.129 23.8916C257.531 22.984 258.022 22.1184 258.594 21.3073C259.102 20.4293 259.65 20.4392 260.178 21.3073C260.663 21.9786 261.045 22.7184 261.313 23.5025C261.316 23.0346 261.489 22.5838 261.801 22.2353C262.469 23.8717 261.951 25.528 261.682 27.1045C260.791 32.0741 259.141 36.8766 256.791 41.3432C256.602 41.7024 256.731 42.2013 256.293 42.4308C251.452 45.1647 246.332 47.4197 241.769 50.014C246.023 47.8089 250.525 45.4541 255.087 43.219C255.536 42.9995 255.765 42.4806 256.303 42.4208C256.422 43.0594 256.811 42.8698 257.239 42.78C259.432 42.3995 261.664 42.2922 263.883 42.4607C266.732 42.5605 268.465 44.5361 270.109 46.4519C270.765 47.0095 271.309 47.6867 271.713 48.4475C269.72 50.2236 269.85 52.3289 270.716 54.574C271.312 56.3454 272.28 57.9684 273.555 59.3335C273.641 59.4147 273.709 59.5133 273.755 59.6228C272.476 60.3171 270.989 60.5207 269.572 60.1956C268.154 59.8705 266.904 59.039 266.055 57.8567C262.668 53.5662 256.761 55.1627 253.892 59.2137C252.771 60.761 252.017 62.5434 251.686 64.4259C251.354 66.3085 251.455 68.2419 251.98 70.0798C252.497 71.8702 253.686 73.3902 255.298 74.3205C256.911 75.2509 258.82 75.5191 260.626 75.0688C262.404 74.8229 264.036 73.9489 265.228 72.6042C265.772 71.8209 266.051 70.8838 266.025 69.9301C266.164 67.1263 267.15 64.7615 269.79 63.3945C270.235 63.1463 270.735 63.0161 271.244 63.0161C271.753 63.0161 272.254 63.1463 272.699 63.3945C273.107 66.9766 272.988 70.8082 277.171 72.5343C277.321 75.6375 275.906 78.142 274.004 80.397C270.716 84.2585 267.031 87.6909 263.385 91.2531C259.739 94.8152 256.333 98.0381 252.786 101.391C248.749 105.216 244.705 109.021 240.654 112.806C238.472 114.801 236.251 116.797 234.109 118.902C233.412 119.581 232.974 119.481 232.376 118.842C231.539 117.924 230.633 117.066 229.746 116.188C224.248 110.77 218.789 105.282 213.231 99.9539C209.366 96.262 205.62 92.4504 201.795 88.7187C201.235 88.1689 200.643 87.6525 200.022 87.1721C199.245 86.5634 199.225 86.0047 199.823 85.1765C203.09 80.7562 206.318 76.296 209.545 71.8459C213.858 65.9289 218.132 59.982 222.495 54.085C223.491 52.758 224.616 51.5606 224.925 49.8643C229.388 43.4385 233.342 36.7732 234.528 28.8407C234.545 28.5108 234.681 28.1983 234.909 27.9602C235.138 27.7221 235.444 27.5742 235.773 27.5436C238.193 27.0447 238.512 26.5957 238.831 24.0812C239.055 22.4813 239.095 20.8609 238.95 19.2519C238.908 19.1681 238.871 19.0814 238.841 18.9924V18.9924Z" fill="#D4C2EC"/>
<path d="M302.622 23.5225C302.711 24.3709 302.633 25.2285 302.393 26.047C301.895 25.8674 301.636 26.2964 301.327 26.5359C296.548 30.0917 291.034 32.5295 285.19 33.6702C284.743 33.7505 284.323 33.9388 283.965 34.2189C282.681 32.6382 281.873 30.7245 281.634 28.7011C281.099 25.4502 281.442 22.115 282.63 19.0424C282.796 18.5728 283.065 18.1466 283.417 17.7952C284.751 19.0286 286.195 20.1375 287.73 21.1078C291.807 23.2971 296.427 24.2636 301.038 23.8917C301.626 23.8618 302.054 23.4128 302.622 23.5225Z" fill="#F56E89"/>
<path d="M225.433 48.4374C225.861 45.5039 226.3 42.5803 226.708 39.6468C227.117 36.7133 227.515 33.6001 227.704 30.5568C227.749 30.3621 227.826 30.1764 227.933 30.008C228.239 30.0406 228.546 29.9557 228.792 29.7705C229.038 29.5853 229.204 29.3136 229.258 29.0102C229.768 27.4923 229.914 25.8757 229.687 24.2906C230.443 23.9606 231.29 23.9035 232.084 24.1291C232.878 24.3547 233.569 24.8491 234.04 25.5279C234.249 25.7874 234.348 26.3262 234.826 26.1665C235.305 26.0069 235.334 25.5878 235.434 25.1687C236.012 22.8239 236.859 20.6088 238.851 19.0422L238.93 19.122C239.293 21.489 239.099 23.9081 238.363 26.1865C238.16 26.7003 237.78 27.1246 237.293 27.3826C236.805 27.6407 236.241 27.7154 235.703 27.5934C234.926 27.4936 234.637 27.743 234.548 28.4415C233.671 35.4261 230.683 41.5825 226.688 47.28C226.35 47.689 226.26 48.4673 225.433 48.4374Z" fill="#D4C2EC"/>
<path d="M302.622 23.5223C302.462 23.7361 302.259 23.9133 302.025 24.0423C301.791 24.1713 301.533 24.2492 301.267 24.2707C296.931 24.6156 292.579 23.8283 288.637 21.9857C286.941 21.2115 285.398 20.1366 284.084 18.8127C283.815 18.5134 283.457 18.2639 283.457 17.8149C284.151 16.9235 285.116 16.2826 286.206 15.989C290.413 14.5493 295.006 14.7451 299.076 16.5377C302.214 17.8548 302.702 20.5489 302.622 23.5223Z" fill="#F0445F"/>
<path d="M283.955 34.219C283.805 33.73 283.905 33.5604 284.483 33.4606C289.115 32.6084 293.566 30.9647 297.641 28.6013C299.06 27.7522 300.418 26.8053 301.706 25.7676C302.263 25.3385 302.353 25.4683 302.383 26.047C302.095 28.8041 300.932 31.3962 299.066 33.4432C297.2 35.4903 294.728 36.8847 292.013 37.4219C291.699 37.4967 291.39 37.5899 291.087 37.7013C290.685 37.846 290.244 37.846 289.842 37.7013C287.716 37.3521 285.769 36.298 284.313 34.7079C284.194 34.5582 284.084 34.3886 283.955 34.219Z" fill="#F04460"/>
<path d="M311.358 41.9619C311.587 42.381 311.169 42.5406 310.99 42.7302C306.527 47.38 301.427 51.0319 295.052 52.6184C292.397 53.3104 289.623 53.416 286.923 52.9277C286.585 52.2293 287.143 51.9299 287.571 51.6905C290.993 49.5176 294.6 47.6512 298.349 46.1128C301.805 44.646 305.322 43.3988 308.938 42.2712C309.707 41.9719 310.538 41.8657 311.358 41.9619Z" fill="#5A9A7F"/>
<path d="M311.358 41.9616C307.522 42.9591 303.756 44.2056 300.082 45.6934C295.72 47.4076 291.525 49.5219 287.551 52.0095C287.382 52.0895 287.236 52.2127 287.13 52.3669C287.023 52.521 286.959 52.7006 286.943 52.8875L286.216 52.9374C286.121 52.8544 286.06 52.739 286.046 52.6136C286.031 52.4882 286.063 52.3618 286.136 52.2589C286.754 51.1414 287.461 50.0837 288.129 48.9861C288.188 48.8764 288.338 48.8863 288.467 48.9263C289.194 48.9263 289.374 48.2578 289.742 47.8586C292.422 44.995 295.4 42.5603 299.365 41.8718C302.864 41.1966 306.448 41.0787 309.983 41.5226C310.476 41.5217 310.957 41.6752 311.358 41.9616V41.9616Z" fill="#71BA9B"/>
<path d="M288.447 48.9665C287.703 50.2969 286.96 51.6273 286.216 52.9577C283.35 56.9736 279.26 59.9497 274.561 61.439C269.298 63.2548 263.71 63.9349 258.165 63.4346H257.916C257.458 63.3747 256.92 63.3348 256.92 62.7161C256.92 62.0975 257.518 62.1474 257.916 62.1773C260.065 62.322 262.222 62.322 264.371 62.1773C269.353 61.9605 274.217 60.5947 278.586 58.1861C283.193 55.5274 286.611 51.2043 288.138 46.1028C288.987 43.3694 289.541 40.5528 289.792 37.7013C289.977 37.5798 290.193 37.5151 290.415 37.5151C290.636 37.5151 290.852 37.5798 291.037 37.7013C290.862 41.5825 289.985 45.3996 288.447 48.9665V48.9665Z" fill="#5C977F"/>
<path d="M271.922 48.7568C273.127 50.3522 274.158 52.0715 275 53.8855C275.488 54.8516 275.632 55.9554 275.41 57.0147C275.187 58.0741 274.61 59.0258 273.775 59.7127L273.675 59.6229C271.932 57.6809 270.748 55.3013 270.248 52.738C270.006 51.9836 270.041 51.1671 270.348 50.4366C270.655 49.7062 271.214 49.1102 271.922 48.7568V48.7568Z" fill="#D4C2EC"/>
<path d="M250.595 25.2786C251.89 23.3827 252.707 21.1477 254.44 19.5911C255.024 19.0441 255.737 18.6547 256.512 18.4592C257.288 18.2637 258.1 18.2687 258.873 18.4736C258.833 18.5931 258.772 18.7046 258.693 18.8028C258.071 19.6718 257.556 20.6133 257.159 21.6066C256.67 22.6094 256.08 23.5591 255.396 24.4404C255.139 24.8155 254.81 25.1353 254.428 25.3812C254.046 25.627 253.619 25.7939 253.172 25.872C252.724 25.9501 252.266 25.9378 251.824 25.8359C251.381 25.734 250.963 25.5445 250.595 25.2786V25.2786Z" fill="#D3C2EC"/>
<path d="M315.522 21.5369C317.369 21.3972 319.224 21.3972 321.07 21.5369C327.356 21.6466 333.651 21.8162 339.937 21.9559C340.186 21.9559 340.435 21.9559 340.684 22.0058C340.933 22.0557 341.172 22.1555 341.162 22.4648C341.161 22.5281 341.147 22.5906 341.121 22.6484C341.095 22.7061 341.057 22.758 341.011 22.8009C340.964 22.8438 340.91 22.8768 340.85 22.8979C340.79 22.9191 340.727 22.9278 340.664 22.9238C340.006 22.9238 339.339 22.9238 338.672 22.8639L316.08 22.3451C315.925 22.27 315.792 22.1561 315.695 22.0145C315.597 21.8729 315.537 21.7083 315.522 21.5369V21.5369Z" fill="#46348B"/>
<path d="M225.433 48.4374C230.165 41.9817 233.671 35.017 234.398 26.885C236.998 27.7231 238.124 27.0646 238.492 24.4004C238.731 22.6343 238.781 20.8483 238.911 19.0722C239.538 19.0123 239.419 19.4713 239.419 19.8206C239.459 21.6071 239.338 23.3937 239.06 25.1588C238.761 26.9548 237.845 27.763 235.912 27.9227C235.305 27.9726 234.916 28.0324 234.837 28.7708C233.9 35.5958 230.962 41.5925 227.147 47.2201L225.324 49.8942C225.224 50.0339 225.085 50.1237 224.915 49.9541L225.433 48.4374Z" fill="#3F378D"/>
<path d="M317.375 34.1988C317.733 33.7697 318.221 33.9393 318.65 33.9493L340.654 34.4183H341.152C341.481 34.4183 341.899 34.4183 341.909 34.8673C341.919 35.3163 341.471 35.3761 341.082 35.3662L327.415 35.0469C324.965 34.987 322.524 34.9571 320.074 34.9271C319.494 34.9545 318.915 34.8802 318.361 34.7076L317.375 34.1988Z" fill="#43318A"/>
<path d="M261.791 22.2653L261.473 24.5603C261.029 23.4816 260.499 22.4406 259.889 21.4472C259.54 20.6988 259.122 20.8285 258.893 21.4472C258.385 22.7543 257.239 23.7321 257.04 25.1789C257.023 25.3243 256.971 25.4632 256.887 25.5833C256.804 25.7034 256.692 25.801 256.562 25.8674C254.878 26.7255 253.215 27.6435 251.203 27.2943C250.416 27.1546 250.386 26.6058 250.326 26.0171C250.326 25.9173 250.376 25.8175 250.396 25.7277C250.571 25.6673 250.756 25.6423 250.941 25.6543C251.126 25.6663 251.306 25.715 251.472 25.7976C252.12 26.0252 252.823 26.0436 253.482 25.8503C254.142 25.657 254.724 25.2618 255.147 24.7199C256.198 23.4946 257.061 22.1192 257.707 20.6389C257.976 19.8972 258.345 19.1955 258.803 18.5535L258.873 18.4937C260.636 19.1223 261.254 20.6689 261.791 22.2653Z" fill="#D3C2EC"/>
<path d="M325.294 46.6915C326.628 46.2326 327.983 46.6018 329.328 46.6117C333.133 46.6716 336.948 46.7714 340.753 46.8512C341.082 46.8512 341.421 46.8512 341.749 46.931C341.801 46.9323 341.853 46.9439 341.9 46.9653C341.947 46.9867 341.99 47.0174 342.025 47.0555C342.06 47.0937 342.088 47.1385 342.105 47.1874C342.123 47.2362 342.131 47.2882 342.128 47.3401C342.119 47.4472 342.071 47.5473 341.995 47.6224C341.918 47.6974 341.817 47.7424 341.71 47.7492C341.338 47.7693 340.966 47.7693 340.594 47.7492C335.922 47.6494 331.24 47.5297 326.559 47.4598C325.941 47.4598 325.662 47.2403 325.563 46.7015L325.443 46.6516L325.294 46.6915Z" fill="#412F89"/>
<path d="M245.335 33.9994C243.632 38.1004 240.853 41.4929 238.133 44.9752C236.36 47.163 234.474 49.2578 232.485 51.2514C232.256 51.4909 231.968 52.0197 231.609 51.6306C231.25 51.2414 231.798 50.9919 232.017 50.7624C236.393 46.4046 240.244 41.5489 243.493 36.2944C244.04 35.3764 244.489 34.4085 245.037 33.4606C245.295 32.9717 245.325 33.3608 245.405 33.5604L245.335 33.9994Z" fill="#41398F"/>
<path d="M272.998 63.7039C275.421 65.8082 276.94 68.7673 277.241 71.9656C276.534 72.4146 275.966 72.0255 275.448 71.6264C274.743 71.043 274.213 70.2767 273.914 69.4113C273.418 67.9292 273.035 66.4115 272.768 64.8713C272.703 64.6735 272.689 64.4619 272.729 64.2574C272.77 64.0528 272.862 63.8621 272.998 63.7039V63.7039Z" fill="#D3C3ED"/>
<path d="M271.922 48.7569C269.93 50.5828 270.358 52.6882 271.185 54.8734C271.7 56.176 272.368 57.4121 273.177 58.5553C273.396 58.8845 273.814 59.124 273.665 59.6229C273.207 59.7925 273.008 59.4632 272.778 59.1639C271.33 57.2875 270.331 55.1026 269.86 52.778C269.441 50.6826 270.129 49.1959 271.693 48.5374L271.922 48.7569Z" fill="#483E92"/>
<path d="M258.803 18.5336C258.153 21.1413 256.795 23.5175 254.878 25.3984C253.514 26.6557 251.95 26.506 250.396 25.7077L250.595 25.2787C253.842 25.7975 254.639 25.4184 256.333 22.4449C256.91 21.4472 257.329 20.3695 257.887 19.3418C258.056 18.9526 258.155 18.4039 258.803 18.5336Z" fill="#473E92"/>
<path d="M272.998 63.7037C273.153 65.7591 273.624 67.7783 274.392 69.6905C274.581 70.3117 274.955 70.8601 275.464 71.2616C275.974 71.663 276.594 71.8983 277.241 71.9356V72.634C276.554 72.6391 275.88 72.4399 275.306 72.0616C274.731 71.6834 274.281 71.1429 274.014 70.5087C273.124 68.4609 272.543 66.2919 272.29 64.0729C272.221 63.6838 272.29 63.4044 272.768 63.4942L272.998 63.7037Z" fill="#494094"/>
<path d="M229.677 24.251C230.095 24.251 230.264 24.4206 230.224 24.8496C230.14 26.2953 229.93 27.7309 229.597 29.1402C229.509 29.4196 229.361 29.6761 229.163 29.8917C228.965 30.1072 228.722 30.2765 228.451 30.3874C228.063 30.577 227.933 30.3874 227.923 30.0083C228.83 28.8408 228.86 27.414 229.039 26.0171C229.022 25.4853 229.164 24.9605 229.447 24.5104L229.677 24.251Z" fill="#4A4195"/>
<path d="M229.447 24.5303C229.484 25.8508 229.361 27.171 229.079 28.4616C229.015 28.7888 228.878 29.0972 228.678 29.3635C228.478 29.6297 228.22 29.8468 227.923 29.9982C228.362 28.5813 227.923 27.0048 228.581 25.6478C228.79 25.1788 228.949 24.7398 229.447 24.5303Z" fill="#CDC2E9"/>
<path d="M256.293 42.4507C255.978 42.9832 255.509 43.4077 254.948 43.668C250.625 45.8532 246.312 48.0683 241.998 50.2734C241.89 50.3347 241.776 50.3881 241.66 50.4331C241.291 50.5328 240.813 51.0716 240.574 50.5827C240.335 50.0938 241.042 50.014 241.361 49.8444C246.142 47.3765 250.934 44.9185 255.735 42.4706C255.924 42.3708 256.094 42.2511 256.283 42.4706L256.293 42.4507Z" fill="#443A8F"/>
<path d="M286.425 18.1543C286.775 18.0775 287.137 18.0845 287.483 18.1747C287.83 18.2649 288.15 18.4357 288.418 18.6732C291.107 20.2307 294.107 21.1744 297.203 21.4371C298.029 21.4821 298.855 21.3773 299.644 21.1278C300.351 20.9482 300.64 20.4293 299.883 19.9404C298.136 18.7415 296.114 18.0068 294.006 17.8051C293.139 17.8051 292.233 17.1964 291.346 17.9747C291.974 18.773 292.97 18.6832 293.777 18.9725C294.583 19.2619 295.689 19.5113 296.645 19.7807C296.835 19.8306 297.064 19.9204 296.994 20.1898C296.924 20.4593 296.715 20.4593 296.496 20.4094C294.798 20.0927 293.131 19.6252 291.515 19.0125C291.007 18.773 290.39 18.4238 290.519 17.7353C290.649 17.0468 291.326 17.0468 291.934 17.0069C294.382 16.9257 296.811 17.4754 298.986 18.6033C299.5 18.8557 299.969 19.1931 300.371 19.6012C301.297 20.4992 301.068 21.3673 299.833 21.6965C298.024 22.1681 296.124 22.1681 294.315 21.6965C291.9 21.0899 289.576 20.1673 287.401 18.9526C287.052 18.7173 286.725 18.45 286.425 18.1543V18.1543Z" fill="#F56888"/>
<rect width="20" height="111" fill="#F3F4FB"/>
</svg>
