<svg width="390" height="118" viewBox="0 0 390 118" fill="none" xmlns="http://www.w3.org/2000/svg">
<path d="M159 118C159 118 204.881 67.6126 213.104 66.0538C221.326 64.4951 251.337 95.3826 246.5 98.5C241.663 101.617 227.5 118 227.5 118H159Z" fill="#D5C3ED"/>
<path d="M20.84 3.432V12H22.148V5.88H22.196L24.824 12H25.952L28.58 5.88H28.628V12H29.936V3.432H28.388L25.412 10.296H25.376L22.388 3.432H20.84ZM34.8973 5.628C34.1293 5.628 33.5053 5.76 33.0493 6.048C32.5213 6.36 32.1853 6.864 32.0533 7.536L33.3133 7.644C33.3853 7.296 33.5653 7.044 33.8533 6.876C34.0933 6.732 34.4173 6.66 34.8133 6.66C35.7493 6.66 36.2173 7.092 36.2173 7.956V8.208L34.8253 8.244C33.9133 8.268 33.1933 8.448 32.6893 8.808C32.1373 9.18 31.8613 9.72 31.8613 10.416C31.8613 10.932 32.0533 11.352 32.4493 11.676C32.8093 12 33.3133 12.168 33.9613 12.168C34.5133 12.168 34.9933 12.06 35.4013 11.868C35.7613 11.688 36.0613 11.436 36.3013 11.124V12H37.4773V8.04C37.4773 7.284 37.2853 6.708 36.9133 6.312C36.4813 5.856 35.8093 5.628 34.8973 5.628ZM36.2173 9.132V9.492C36.2173 9.972 36.0133 10.38 35.6293 10.704C35.2453 11.028 34.7893 11.196 34.2493 11.196C33.9253 11.196 33.6613 11.112 33.4693 10.956C33.2653 10.8 33.1693 10.608 33.1693 10.368C33.1693 9.6 33.7453 9.192 34.9093 9.168L36.2173 9.132ZM41.4173 3.792L40.1453 4.32V5.796H38.9933V6.852H40.1453V10.452C40.1453 10.944 40.2533 11.316 40.4933 11.58C40.7333 11.856 41.1293 12 41.6573 12H42.6773V10.944H41.8613C41.7053 10.944 41.5973 10.896 41.5253 10.824C41.4533 10.74 41.4173 10.62 41.4173 10.452V6.852H42.8333V5.796H41.4173V3.792ZM47.2175 5.628C46.2575 5.628 45.5135 5.952 44.9735 6.6C44.4695 7.2 44.2175 7.968 44.2175 8.904C44.2175 9.864 44.4695 10.632 44.9855 11.232C45.5135 11.856 46.2455 12.168 47.1935 12.168C47.9855 12.168 48.6335 11.964 49.1135 11.568C49.5935 11.16 49.9175 10.536 50.0615 9.708H48.8015C48.6815 10.644 48.1535 11.124 47.2055 11.124C46.6535 11.124 46.2455 10.92 45.9695 10.536C45.6695 10.14 45.5255 9.588 45.5255 8.892C45.5255 8.196 45.6695 7.644 45.9815 7.26C46.2815 6.864 46.6895 6.672 47.2175 6.672C47.6495 6.672 47.9975 6.768 48.2615 6.972C48.5255 7.164 48.6935 7.476 48.7775 7.896H50.0375C49.9175 7.128 49.6055 6.552 49.1255 6.168C48.6455 5.808 48.0095 5.628 47.2175 5.628ZM51.7489 3.264V12H53.0209V8.52C53.0209 7.98 53.1529 7.536 53.4289 7.188C53.6929 6.84 54.0409 6.672 54.4729 6.672C54.9529 6.672 55.3249 6.816 55.5649 7.116C55.7809 7.404 55.9009 7.812 55.9009 8.364V12H57.1729V8.148C57.1729 7.332 56.9929 6.708 56.6329 6.288C56.2489 5.844 55.6849 5.628 54.9409 5.628C54.5449 5.628 54.1969 5.7 53.8849 5.868C53.5369 6.036 53.2489 6.312 53.0209 6.672V3.264H51.7489ZM59.3361 3.432V8.736C59.3361 9.852 59.6481 10.704 60.2721 11.304C60.8721 11.88 61.7361 12.168 62.8761 12.168C64.0041 12.168 64.8681 11.868 65.4801 11.292C66.0921 10.704 66.4041 9.852 66.4041 8.736V3.432H65.0961V8.76C65.0961 9.528 64.9161 10.092 64.5681 10.464C64.2081 10.836 63.6441 11.028 62.8761 11.028C62.0961 11.028 61.5321 10.836 61.1721 10.464C60.8121 10.092 60.6441 9.528 60.6441 8.76V3.432H59.3361ZM70.8743 5.628C70.1303 5.628 69.5183 5.784 69.0503 6.108C68.5823 6.42 68.3543 6.864 68.3543 7.428C68.3543 7.956 68.5943 8.376 69.0743 8.676C69.3623 8.868 69.8783 9.048 70.6103 9.216C71.2463 9.36 71.6663 9.48 71.8583 9.576C72.2183 9.744 72.4103 9.984 72.4103 10.284C72.4103 10.836 71.9063 11.124 70.9223 11.124C70.4423 11.124 70.1063 11.04 69.8903 10.884C69.6743 10.716 69.5183 10.416 69.4463 9.996H68.1983C68.3423 11.436 69.2543 12.168 70.9583 12.168C72.7943 12.168 73.7183 11.508 73.7183 10.2C73.7183 9.648 73.4663 9.216 72.9743 8.904C72.6383 8.688 72.1103 8.484 71.4023 8.316C70.7783 8.16 70.3703 8.04 70.1543 7.944C69.8183 7.788 69.6503 7.608 69.6503 7.392C69.6503 7.152 69.7583 6.96 69.9863 6.84C70.1783 6.72 70.4663 6.672 70.8503 6.672C71.2823 6.672 71.6183 6.744 71.8343 6.888C72.0383 7.02 72.1823 7.248 72.2783 7.584H73.5143C73.3703 6.276 72.4823 5.628 70.8743 5.628ZM80.2047 6.288V7.188H76.4847L75.9087 10.164H79.0527C78.3327 10.836 77.0847 11.46 75.3327 12.012L75.9687 13.044C77.9487 12.288 79.3647 11.4 80.2047 10.368V13.248H81.3087V10.164H84.5007C84.5007 10.644 84.4647 10.992 84.4167 11.208C84.3447 11.436 84.1407 11.556 83.8047 11.556C83.3127 11.556 82.7847 11.532 82.2207 11.508L82.4967 12.588C82.9767 12.6 83.4807 12.612 83.9847 12.612C84.7047 12.6 85.1607 12.396 85.3647 11.988C85.5567 11.592 85.6647 10.656 85.6647 9.192H81.3087V8.22H85.2327V5.244H76.2567V6.288H80.2047ZM80.2047 8.22V9.192H77.2527L77.4927 8.22H80.2047ZM81.3087 7.188V6.288H84.0687V7.188H81.3087ZM77.1327 3.924H77.7567C78.0447 4.308 78.3087 4.716 78.5367 5.124L79.5567 4.752C79.4007 4.488 79.2087 4.212 78.9807 3.924H80.6727V2.928H77.6847C77.7567 2.748 77.8407 2.556 77.9247 2.352L76.8207 2.112C76.5087 2.94 75.9807 3.708 75.2487 4.428L76.2447 5.04C76.5687 4.692 76.8687 4.32 77.1327 3.924ZM82.2327 3.876H82.9527C83.2647 4.272 83.5287 4.692 83.7447 5.124L84.7527 4.752C84.5967 4.476 84.3927 4.188 84.1527 3.876H86.0967V2.88H82.7127C82.7727 2.712 82.8327 2.532 82.9047 2.352L81.8127 2.112C81.5367 2.94 81.0807 3.72 80.4447 4.44L81.4287 5.052C81.7287 4.692 81.9927 4.296 82.2327 3.876ZM88.4127 3.432L87.9447 8.232H89.1687C89.3367 7.92 89.5647 7.692 89.8767 7.548C90.1647 7.404 90.4887 7.344 90.8727 7.344C91.4487 7.344 91.8807 7.512 92.1927 7.848C92.5047 8.184 92.6607 8.652 92.6607 9.252C92.6607 9.804 92.4807 10.236 92.1207 10.572C91.7607 10.896 91.3167 11.064 90.7887 11.064C90.3087 11.064 89.9247 10.956 89.6367 10.74C89.3127 10.5 89.1207 10.128 89.0727 9.648H87.7887C87.8487 10.44 88.1847 11.076 88.7967 11.532C89.3487 11.952 90.0087 12.168 90.7767 12.168C91.6287 12.168 92.3607 11.916 92.9727 11.412C93.6207 10.848 93.9567 10.128 93.9567 9.24C93.9567 8.316 93.6927 7.596 93.1887 7.068C92.6847 6.54 92.0247 6.276 91.2207 6.276C90.8367 6.276 90.4767 6.336 90.1647 6.468C89.8167 6.588 89.5167 6.78 89.2527 7.056H89.2167L89.4687 4.584H93.5727V3.432H88.4127ZM96.436 2.22V3.456H95.788V4.512H96.436V9.324H95.656V10.38H101.404V9.324H100.72V4.512H101.344V3.456H100.72V2.244H99.616V3.456H97.54V2.22H96.436ZM97.54 9.324V8.388H99.616V9.324H97.54ZM99.616 4.512V5.46H97.54V4.512H99.616ZM97.54 7.392V6.456H99.616V7.392H97.54ZM99.676 10.524L98.8 11.088C99.304 11.796 99.712 12.444 100.012 13.044L100.696 12.564L101.512 13.32C102.304 12.264 102.784 10.956 102.952 9.384H104.992V11.568C104.992 11.892 104.86 12.06 104.596 12.06C104.224 12.06 103.828 12.036 103.396 12.012L103.708 13.128H104.956C105.736 13.128 106.132 12.744 106.132 11.976V2.544H101.884V8.28C101.872 9.84 101.524 11.136 100.852 12.192C100.564 11.712 100.168 11.148 99.676 10.524ZM97.072 10.548C96.64 11.328 96.136 12 95.56 12.564L96.46 13.212C97.036 12.588 97.552 11.844 97.984 10.992L97.072 10.548ZM103.024 6.492H104.992V8.34H103.024V6.492ZM104.992 5.46H103.024V3.624H104.992V5.46ZM111.316 5.568V6.66H114.64V8.22H112.084V13.236H113.224V12.648H117.316V13.224H118.444V8.22H115.804V6.66H119.152V5.568H115.804V3.816C116.884 3.66 117.832 3.432 118.66 3.144L118.096 2.184C116.32 2.76 114.136 3.048 111.532 3.048L111.892 4.068C112.864 4.068 113.776 4.02 114.64 3.948V5.568H111.316ZM113.224 11.58V9.288H117.316V11.58H113.224ZM109.288 2.28L108.508 3.012C109.384 3.588 110.068 4.128 110.548 4.62L111.328 3.852C110.764 3.324 110.08 2.796 109.288 2.28ZM109.012 5.136L108.208 5.916C109.096 6.552 109.792 7.14 110.284 7.692L111.076 6.9C110.524 6.312 109.828 5.724 109.012 5.136ZM110.176 8.364C109.684 9.804 109.096 11.208 108.412 12.588L109.552 13.092C110.152 11.748 110.716 10.308 111.22 8.772L110.176 8.364ZM121.288 2.904V3.996H125.752V2.904H121.288ZM120.844 6.144V7.248H122.38C121.828 9.264 121.396 10.5 121.072 10.968C121.024 11.004 120.952 11.04 120.832 11.064L121.108 12.144C122.572 11.88 123.928 11.532 125.188 11.1L125.5 11.868L126.484 11.364C125.98 10.152 125.452 9.036 124.9 8.028L123.94 8.496C124.216 9.012 124.492 9.564 124.768 10.152C123.964 10.452 123.16 10.692 122.368 10.86C122.68 10.092 123.052 8.892 123.484 7.248H126.184V6.144H120.844ZM127.816 2.196V4.524H126.292V5.628H127.816V5.736C127.792 8.868 127.048 11.136 125.596 12.552L126.448 13.308C128.08 11.712 128.908 9.192 128.944 5.736V5.628H130.432C130.408 8.82 130.372 10.704 130.3 11.268C130.204 11.844 129.904 12.132 129.376 12.132C129.064 12.132 128.692 12.108 128.26 12.072L128.524 13.08C129.004 13.104 129.34 13.128 129.532 13.128C130.624 13.128 131.236 12.672 131.368 11.76C131.476 10.848 131.536 8.436 131.536 4.524H128.944V2.196H127.816Z" fill="#918AE3"/>
<path d="M26.952 29.66V32.014H41.032V29.66H26.952ZM27.722 25.216V27.526H40.284V25.216H27.722ZM32.386 26.338V29.836C32.386 31.882 31.924 34.698 26.952 36.502C27.568 36.964 28.382 37.866 28.712 38.416C33.948 36.15 35.026 32.674 35.026 29.88V26.338H32.386ZM35.422 31.332L33.2 31.794C34.278 35.116 36.17 37.382 39.426 38.46C39.778 37.778 40.504 36.766 41.076 36.238C38.172 35.49 36.302 33.774 35.422 31.332ZM26.094 29.902H20.946V32.344H23.52V37.998H26.094V29.902ZM26.094 36.854H23.674C22.662 37.646 21.474 38.416 20.484 39.032L21.782 41.782C22.97 40.814 23.96 39.978 24.928 39.12C26.358 40.836 28.184 41.474 30.89 41.584C33.53 41.694 37.974 41.65 40.636 41.518C40.746 40.726 41.186 39.45 41.472 38.834C38.502 39.076 33.508 39.142 30.934 39.032C28.646 38.944 26.974 38.306 26.094 36.854ZM20.99 23.412C22.288 24.402 23.872 25.876 24.532 26.91L26.644 25.172C25.896 24.138 24.268 22.752 22.948 21.828L20.99 23.412ZM36.918 21.3C36.522 22.378 35.73 23.83 35.092 24.798L37.248 25.568C37.952 24.71 38.81 23.412 39.624 22.136L36.918 21.3ZM28.294 22.268C29.064 23.346 29.834 24.798 30.076 25.744L32.474 24.71C32.166 23.742 31.352 22.356 30.538 21.366L28.294 22.268ZM53.022 21.388C52.274 24.446 50.932 27.482 49.26 29.374C49.854 29.77 50.91 30.628 51.372 31.09C53.132 28.912 54.694 25.458 55.618 21.982L53.022 21.388ZM52.406 31.178C51.9 33.62 50.954 36.128 49.722 37.668C50.338 37.998 51.46 38.68 51.966 39.098C53.198 37.316 54.342 34.5 54.958 31.706L52.406 31.178ZM53.506 25.26L52.516 27.702H62.526V25.26H53.506ZM56.036 26.338V39.01C56.036 39.296 55.926 39.362 55.64 39.362C55.332 39.362 54.408 39.384 53.484 39.34C53.858 40.066 54.254 41.232 54.386 42.002C55.794 42.002 56.872 41.892 57.642 41.474C58.434 41.034 58.654 40.308 58.654 39.032V26.338H56.036ZM59.424 31.75C60.502 34.016 61.426 37.052 61.668 39.032L64.198 38.152C63.89 36.15 62.944 33.224 61.8 30.958L59.424 31.75ZM61.822 25.26V25.612C61.668 27.152 61.426 29.11 61.228 30.298L63.494 30.694C63.78 29.374 64.176 27.328 64.44 25.524L62.592 25.194L62.174 25.26H61.822ZM48.314 21.41C47.192 24.556 45.278 27.68 43.276 29.682C43.738 30.32 44.442 31.772 44.684 32.41C47.082 29.902 49.37 25.942 50.8 22.18L48.314 21.41ZM46.18 27.482V41.958H48.71V24.996L48.688 24.974L46.18 27.482ZM67.036 29.99V32.872H87.408V29.99H67.036ZM96.032 22.114V24.49H104.04V22.114H96.032ZM94.734 22.114V24.952C94.734 26.822 94.25 28.692 90.224 29.968C90.664 30.408 91.5 31.596 91.764 32.19C96.362 30.606 97.374 27.68 97.374 25.04V22.114H94.734ZM102.786 22.114V27.306C102.786 29.704 103.424 30.43 105.602 30.43C106.02 30.43 107.252 30.43 107.714 30.43C109.606 30.43 110.266 29.55 110.486 26.184C109.804 26.008 108.682 25.568 108.154 25.15C108.088 27.658 107.978 28.054 107.45 28.054C107.164 28.054 106.284 28.054 106.042 28.054C105.514 28.054 105.448 27.966 105.448 27.262V22.114H102.786ZM90.4 32.828V35.16H110.2V32.828H90.4ZM98.936 30.386V41.958H101.598V30.386H98.936ZM98.166 34.06C96.45 36.238 93.128 38.262 89.96 39.23C90.51 39.758 91.28 40.726 91.676 41.364C94.888 40.11 98.144 37.668 100.08 34.852L98.166 34.06ZM102.368 33.994L100.432 34.83C102.412 37.58 105.69 40 108.924 41.232C109.32 40.572 110.112 39.56 110.706 39.054C107.472 38.086 104.106 36.15 102.368 33.994Z" fill="#918AE3"/>
<path d="M122.014 21.63V38.658C122.014 39.098 121.838 39.252 121.354 39.252C120.892 39.274 119.242 39.296 117.79 39.208C118.208 39.934 118.714 41.188 118.846 41.958C121.002 41.98 122.52 41.892 123.532 41.452C124.544 41.034 124.918 40.308 124.918 38.68V21.63H122.014ZM127.316 27.416C129.054 30.65 130.726 34.808 131.188 37.47L134.07 36.326C133.52 33.576 131.694 29.55 129.89 26.448L127.316 27.416ZM116.25 26.668C115.788 29.55 114.666 33.422 112.884 35.666C113.61 35.952 114.82 36.568 115.458 37.052C117.306 34.61 118.516 30.496 119.264 27.174L116.25 26.668ZM136.952 36.282C136.952 35.798 138.646 34.984 138.646 34.984V34.918C140.934 32.85 143.31 30.012 145.07 27.174L142.76 25.656C141.198 28.604 138.778 31.596 137.964 32.366C137.194 33.136 136.71 33.62 136.072 33.752C136.402 34.456 136.82 35.754 136.952 36.282ZM136.952 36.282C137.59 35.93 138.558 35.71 144.432 34.764C144.344 34.214 144.278 33.158 144.322 32.454L138.008 33.334L136.82 34.148L136.952 36.282ZM136.776 30.914C136.776 30.43 138.382 29.572 138.382 29.572V29.506C139.944 27.592 141.638 24.864 142.782 22.29L140.142 21.212C139.284 23.742 137.766 26.426 137.26 27.108C136.754 27.812 136.38 28.252 135.896 28.384C136.182 29.088 136.622 30.364 136.776 30.914ZM136.776 30.914C137.282 30.672 138.118 30.496 142.276 30.1C142.298 29.528 142.408 28.56 142.584 27.856L137.876 28.208L136.71 28.956L136.776 30.914ZM136.072 38.394L136.534 41.122C138.734 40.594 141.55 39.956 144.19 39.318L143.904 36.832C141.066 37.426 138.074 38.064 136.072 38.394ZM144.784 23.17V25.81H156.202V23.17H144.784ZM144.41 38.02V40.66H156.664V38.02H144.41ZM149.074 24.05V39.516H151.956V24.05H149.074ZM164.672 27.526C163.418 30.166 161.24 32.762 158.952 34.346C159.568 34.764 160.646 35.71 161.108 36.194C163.396 34.346 165.794 31.376 167.312 28.34L164.672 27.526ZM169.732 27.9V38.108C169.732 40.858 170.458 41.672 173.142 41.672C173.692 41.672 176.002 41.672 176.574 41.672C178.928 41.672 179.632 40.594 179.94 37.008C179.236 36.854 178.136 36.414 177.564 35.974C177.432 38.702 177.256 39.23 176.354 39.23C175.826 39.23 173.912 39.23 173.472 39.23C172.504 39.23 172.35 39.098 172.35 38.108V27.9H169.732ZM177.168 29.418C175.562 30.65 173.032 32.058 170.678 33.004C171.03 33.532 171.448 34.412 171.602 34.962C174.11 34.016 176.97 32.784 179.148 31.442L177.168 29.418ZM159.788 23.192V25.722H179.368V23.192H159.788ZM164.694 21.322V27.768H167.29V21.322H164.694ZM171.954 21.322V27.812H174.594V21.322H171.954ZM163.066 32.146V41.98H165.662V29.55V29.528L163.066 32.146Z" fill="#F3ACDB"/>
<path d="M24.308 63.788V64.628H27.056V67.94H23.816V68.792H31.34V67.94H27.932V64.628H30.8V63.788H27.932V61.556H27.056V63.788H24.308ZM22.376 64.316V69.236H23.228V63.332C23.876 62.516 24.44 61.628 24.908 60.68H31.328V59.828H25.292C25.508 59.312 25.688 58.772 25.856 58.22L24.956 58.112C24.788 58.7 24.572 59.276 24.332 59.828H20.84V60.68H23.924C23.084 62.276 21.92 63.692 20.42 64.928L20.96 65.636C21.464 65.216 21.932 64.772 22.376 64.316ZM33.284 58.976V59.732H37.172C37.076 60.044 36.968 60.356 36.86 60.668H33.872V61.424H36.536C36.38 61.748 36.212 62.06 36.032 62.36H32.888V63.128H35.492C34.676 64.148 33.656 64.892 32.42 65.372L32.852 66.092C33.596 65.78 34.292 65.372 34.916 64.868V69.248H35.768V68.732H40.304V69.224H41.156V64.676C41.708 65.192 42.392 65.648 43.232 66.044L43.604 65.276C42.32 64.748 41.372 64.028 40.772 63.128H43.112V62.36H36.992C37.16 62.06 37.316 61.748 37.46 61.424H42.164V60.668H37.76C37.868 60.38 37.976 60.068 38.072 59.732H42.716V58.976H38.276C38.336 58.712 38.396 58.448 38.444 58.184L37.556 58.1L37.376 58.976H33.284ZM40.616 64.124H35.72C35.996 63.824 36.26 63.488 36.512 63.128H39.932C40.112 63.464 40.34 63.8 40.616 64.124ZM35.768 67.964V66.788H40.304V67.964H35.768ZM35.768 66.032V64.88H40.304V66.032H35.768ZM49.556 59.408V60.308H44.852V61.1H48.416C47.72 61.868 46.46 62.552 44.636 63.164L45.104 63.92C47.156 63.128 48.548 62.18 49.292 61.1H49.556V63.14H50.444V61.1H50.708C51.524 62.252 52.952 63.176 54.992 63.884L55.376 63.08C53.624 62.6 52.352 61.94 51.548 61.1H55.148V60.308H50.444V59.348C51.812 59.252 53 59.096 54.032 58.904L53.648 58.232C51.56 58.568 48.944 58.748 45.8 58.76L46.052 59.492C47.3 59.492 48.476 59.456 49.556 59.408ZM45.08 65.996V66.788H49.832V67.88C49.832 68.204 49.652 68.372 49.316 68.372C48.812 68.372 48.344 68.36 47.912 68.348L48.128 69.128H49.616C50.336 69.128 50.708 68.804 50.708 68.156V66.788H54.908V65.996H50.708V65.624C51.5 65.204 52.22 64.772 52.868 64.34V63.584H46.796V64.34H51.716C51.284 64.58 50.66 64.904 49.832 65.288V65.996H45.08ZM58.232 66.572C57.992 66.572 57.812 66.632 57.668 66.776C57.524 66.908 57.452 67.088 57.452 67.316C57.452 67.52 57.524 67.7 57.668 67.844C57.812 67.988 57.98 68.06 58.184 68.06C58.304 68.06 58.4 68.036 58.448 68.012C58.448 68.3 58.364 68.564 58.184 68.816C57.992 69.056 57.74 69.236 57.428 69.344V69.932C57.932 69.8 58.352 69.536 58.664 69.152C58.976 68.744 59.132 68.276 59.132 67.748C59.132 67.4 59.048 67.124 58.892 66.908C58.724 66.68 58.496 66.572 58.232 66.572ZM77.768 69.152C78.464 69.152 78.812 68.756 78.812 67.976V58.664H69.188V69.188H70.052V59.504H77.948V67.784C77.948 68.144 77.792 68.324 77.492 68.324L75.932 68.288L76.172 69.152H77.768ZM70.928 60.884V61.688H77.084V60.884H70.928ZM71.6 62.984V66.848H76.412V62.984H71.6ZM75.572 66.08H72.44V63.764H75.572V66.08ZM80.72 62.876V63.572H81.872V67.724L80.756 67.772L80.864 68.516C82.532 68.42 83.936 68.3 85.076 68.168V69.224H85.916V68.06C86.156 68.012 86.396 67.976 86.612 67.94V67.256C86.396 67.292 86.156 67.328 85.916 67.364V63.572H91.304V62.876H80.72ZM82.652 67.688V66.656H85.076V67.472C84.356 67.556 83.54 67.628 82.652 67.688ZM82.652 66.02V65.12H85.076V66.02H82.652ZM82.652 64.472V63.572H85.076V64.472H82.652ZM82.244 58.628V62.084H89.828V58.628H82.244ZM89 61.46H83.072V60.656H89V61.46ZM83.072 60.044V59.276H89V60.044H83.072ZM86.924 65.084C87.164 65.96 87.608 66.74 88.28 67.436C87.764 67.868 87.14 68.228 86.42 68.54L86.864 69.212C87.644 68.876 88.316 68.468 88.868 67.988C89.408 68.432 90.08 68.84 90.872 69.212L91.316 68.492C90.572 68.18 89.948 67.832 89.42 67.436C89.996 66.764 90.404 65.972 90.632 65.048V64.376H86.54V65.084H86.924ZM88.808 66.92C88.256 66.38 87.884 65.768 87.668 65.084H89.852C89.636 65.756 89.288 66.368 88.808 66.92ZM92.72 62.876V63.572H93.872V67.724L92.756 67.772L92.864 68.516C94.532 68.42 95.936 68.3 97.076 68.168V69.224H97.916V68.06C98.156 68.012 98.396 67.976 98.612 67.94V67.256C98.396 67.292 98.156 67.328 97.916 67.364V63.572H103.304V62.876H92.72ZM94.652 67.688V66.656H97.076V67.472C96.356 67.556 95.54 67.628 94.652 67.688ZM94.652 66.02V65.12H97.076V66.02H94.652ZM94.652 64.472V63.572H97.076V64.472H94.652ZM94.244 58.628V62.084H101.828V58.628H94.244ZM101 61.46H95.072V60.656H101V61.46ZM95.072 60.044V59.276H101V60.044H95.072ZM98.924 65.084C99.164 65.96 99.608 66.74 100.28 67.436C99.764 67.868 99.14 68.228 98.42 68.54L98.864 69.212C99.644 68.876 100.316 68.468 100.868 67.988C101.408 68.432 102.08 68.84 102.872 69.212L103.316 68.492C102.572 68.18 101.948 67.832 101.42 67.436C101.996 66.764 102.404 65.972 102.632 65.048V64.376H98.54V65.084H98.924ZM100.808 66.92C100.256 66.38 99.884 65.768 99.668 65.084H101.852C101.636 65.756 101.288 66.368 100.808 66.92ZM111.824 65.876L111.392 66.524C112.568 67.076 113.732 67.844 114.86 68.804L115.316 68.072C114.26 67.208 113.096 66.476 111.824 65.876ZM107.996 65.876C107.108 66.74 105.992 67.436 104.636 67.964L104.996 68.744C106.412 68.144 107.6 67.388 108.536 66.488L107.996 65.876ZM110.048 58.136L109.136 58.28C109.316 58.64 109.484 59.036 109.64 59.468H105.572V60.248H114.452V59.468H110.516C110.372 58.964 110.216 58.52 110.048 58.136ZM104.996 62.36V63.176H109.628V64.556H105.368V65.336H109.628V67.856C109.628 68.24 109.436 68.432 109.052 68.432C108.656 68.432 108.236 68.408 107.804 68.372L107.984 69.2H109.352C110.096 69.2 110.48 68.828 110.48 68.084V65.336H114.632V64.556H110.48V63.176H115.016V62.36H112.364C112.628 61.928 112.88 61.424 113.108 60.872L112.28 60.584C112.052 61.208 111.788 61.796 111.476 62.36H108.644C108.38 61.676 108.104 61.088 107.792 60.608L106.988 60.908C107.288 61.364 107.54 61.856 107.756 62.36H104.996ZM126.98 61.148H124.964C125.228 60.764 125.468 60.332 125.684 59.84L124.856 59.54C124.64 60.104 124.376 60.644 124.064 61.148H122.528C122.396 60.644 122.252 60.188 122.096 59.792L121.256 59.924C121.412 60.284 121.556 60.692 121.688 61.148H119.72C119.588 60.68 119.456 60.26 119.324 59.888L118.472 60.02C118.616 60.368 118.748 60.74 118.868 61.148H117.044V63.128H117.932V61.928H126.092V63.128H126.98V61.148ZM126.332 58.376C123.908 58.7 120.848 58.868 117.164 58.88L117.428 59.684C121.316 59.684 124.424 59.492 126.764 59.132L126.332 58.376ZM120.236 62.228C120.176 62.54 120.116 62.84 120.044 63.152H117.968V63.944H119.828C119.228 65.84 118.196 67.292 116.756 68.324L117.176 69.068C118.292 68.324 119.192 67.304 119.888 65.984C120.512 66.596 121.208 67.124 121.976 67.58C121.124 67.988 120.14 68.276 119.024 68.456L119.408 69.224C120.62 69.008 121.76 68.6 122.816 68.024C123.968 68.588 125.24 68.972 126.656 69.164L127.04 68.384C125.792 68.24 124.652 67.952 123.596 67.544C124.4 66.992 125.084 66.332 125.648 65.576V64.928H120.368C120.488 64.616 120.596 64.28 120.704 63.944H126.068V63.152H120.92C120.98 62.888 121.04 62.624 121.088 62.336L120.236 62.228ZM120.536 65.672H124.616C124.1 66.212 123.476 66.704 122.744 67.16C121.94 66.752 121.208 66.248 120.536 65.672ZM132.848 60.272H130.916C131.156 59.672 131.336 59.012 131.48 58.304L130.616 58.184C130.508 58.904 130.34 59.6 130.1 60.272H128.984V68.804H129.824V67.772H132.008V68.456H132.848V60.272ZM129.824 66.968V64.34H132.008V66.968H129.824ZM129.824 63.56V61.088H132.008V63.56H129.824ZM134.936 63.056L134.24 63.488C135.068 64.472 135.728 65.36 136.22 66.152L136.904 65.672C136.448 64.928 135.8 64.052 134.936 63.056ZM139.052 60.284H135.224C135.44 59.66 135.608 58.988 135.752 58.28L134.9 58.172C134.588 59.876 134.024 61.316 133.184 62.492L133.7 63.176C134.168 62.564 134.564 61.88 134.9 61.124H138.2C138.176 64.58 138.128 66.656 138.056 67.328C137.96 67.94 137.636 68.252 137.072 68.252C136.7 68.252 136.268 68.24 135.764 68.216L135.968 69.008C136.544 69.032 136.952 69.056 137.192 69.056C138.2 69.056 138.752 68.588 138.872 67.676C138.992 66.74 139.052 64.268 139.052 60.284ZM141.992 62.54V69.2H142.856V61.208C143.336 60.368 143.732 59.468 144.044 58.52L143.24 58.136C142.652 60.032 141.704 61.724 140.408 63.188L140.684 64.1C141.152 63.608 141.584 63.092 141.992 62.54ZM149.72 62.972L148.952 63.224C149.54 64.568 150.08 66.128 150.56 67.88L151.316 67.544C150.86 65.912 150.332 64.388 149.72 62.972ZM145.592 60.5H150.14C149.96 61.124 149.732 61.676 149.456 62.18L150.284 62.42C150.584 61.7 150.824 60.968 151.016 60.224V59.66H145.904C146.048 59.24 146.192 58.796 146.312 58.328L145.496 58.16C145.088 59.78 144.428 61.256 143.516 62.588L144.26 63.044C144.764 62.276 145.208 61.436 145.592 60.5ZM147.092 69.116C147.752 69.116 148.088 68.78 148.088 68.108V61.508H147.248V67.892C147.248 68.204 147.092 68.36 146.792 68.36C146.336 68.36 145.844 68.336 145.34 68.3L145.52 69.116H147.092ZM145.292 63.068C144.8 64.82 144.224 66.26 143.576 67.388L144.38 67.676C145.076 66.416 145.64 64.952 146.072 63.284L145.292 63.068ZM154.232 66.572C153.992 66.572 153.812 66.632 153.668 66.776C153.524 66.908 153.452 67.088 153.452 67.316C153.452 67.52 153.524 67.7 153.668 67.844C153.812 67.988 153.98 68.06 154.184 68.06C154.304 68.06 154.4 68.036 154.448 68.012C154.448 68.3 154.364 68.564 154.184 68.816C153.992 69.056 153.74 69.236 153.428 69.344V69.932C153.932 69.8 154.352 69.536 154.664 69.152C154.976 68.744 155.132 68.276 155.132 67.748C155.132 67.4 155.048 67.124 154.892 66.908C154.724 66.68 154.496 66.572 154.232 66.572ZM164.972 58.676V62.468H166.52V67.652C166.256 67.724 165.98 67.784 165.692 67.856V63.476H164.972V68.012L164.444 68.12L164.684 68.948C166.172 68.624 167.468 68.264 168.596 67.88V67.04C168.188 67.184 167.756 67.316 167.312 67.436V65.156H168.548V64.364H167.312V62.468H168.308V58.676H164.972ZM167.492 61.676H165.788V59.456H167.492V61.676ZM170.084 66.788H173.756V67.904H170.084V66.788ZM173.756 68.708V69.224H174.596V64.04H169.244V69.224H170.084V68.708H173.756ZM173.756 66.044H170.084V64.82H173.756V66.044ZM171.56 63.5C172.172 63.5 172.484 63.176 172.484 62.528V60.908C173.048 62.012 173.924 62.984 175.112 63.848L175.604 63.14C174.788 62.66 174.116 62.084 173.564 61.388C174.236 60.908 174.896 60.32 175.532 59.624L174.884 59.132C174.368 59.756 173.792 60.308 173.144 60.8C172.88 60.392 172.664 59.96 172.484 59.504V58.22H171.668V62.312C171.668 62.624 171.536 62.78 171.284 62.78C171.008 62.78 170.72 62.756 170.42 62.72L170.6 63.5H171.56ZM168.704 59.636V60.38H170.276C169.88 61.592 169.16 62.528 168.128 63.188L168.608 63.848C169.856 63.02 170.696 61.82 171.116 60.248V59.636H168.704ZM177.44 58.388L176.852 58.952C177.692 59.624 178.352 60.26 178.832 60.86L179.432 60.26C178.892 59.636 178.232 59.012 177.44 58.388ZM184.508 68.996H187.256L187.46 68.156C187.148 68.18 186.692 68.192 186.116 68.204C185.528 68.204 184.952 68.216 184.388 68.216C183.452 68.216 182.66 68.204 182.024 68.192C181.304 68.168 180.764 68.084 180.392 67.928C180.056 67.76 179.744 67.496 179.456 67.16C179.36 67.052 179.264 66.968 179.168 66.896V62.36H176.648V63.152H178.34V66.836C177.86 67.052 177.308 67.652 176.684 68.636L177.332 69.224C177.98 68.144 178.448 67.604 178.736 67.604C178.88 67.604 179.036 67.7 179.204 67.904C179.576 68.336 179.996 68.624 180.476 68.768C180.956 68.888 181.592 68.96 182.36 68.972C183.128 68.984 183.848 68.996 184.508 68.996ZM186.212 67.508C186.704 67.508 186.956 67.256 186.956 66.752V62.816H181.364V67.508H182.096V65.492H183.056V67.376H183.728V65.492H184.616V67.376H185.288V65.492H186.224V66.596C186.224 66.764 186.14 66.848 185.972 66.848L185.492 66.812L185.684 67.508H186.212ZM182.096 64.796V63.536H183.056V64.796H182.096ZM183.728 63.536H184.616V64.796H183.728V63.536ZM185.288 63.536H186.224V64.796H185.288V63.536ZM186.212 60.032V61.208H181.34V60.032H186.212ZM181.328 61.916H186.98V59.288H184.244C184.124 58.856 183.992 58.484 183.872 58.148L182.972 58.292C183.14 58.592 183.284 58.928 183.404 59.288H180.548V61.628C180.536 63.632 180.2 65.276 179.528 66.548L180.128 67.088C180.884 65.648 181.28 63.92 181.328 61.916ZM21.284 74.976V75.732H25.172C25.076 76.044 24.968 76.356 24.86 76.668H21.872V77.424H24.536C24.38 77.748 24.212 78.06 24.032 78.36H20.888V79.128H23.492C22.676 80.148 21.656 80.892 20.42 81.372L20.852 82.092C21.596 81.78 22.292 81.372 22.916 80.868V85.248H23.768V84.732H28.304V85.224H29.156V80.676C29.708 81.192 30.392 81.648 31.232 82.044L31.604 81.276C30.32 80.748 29.372 80.028 28.772 79.128H31.112V78.36H24.992C25.16 78.06 25.316 77.748 25.46 77.424H30.164V76.668H25.76C25.868 76.38 25.976 76.068 26.072 75.732H30.716V74.976H26.276C26.336 74.712 26.396 74.448 26.444 74.184L25.556 74.1L25.376 74.976H21.284ZM28.616 80.124H23.72C23.996 79.824 24.26 79.488 24.512 79.128H27.932C28.112 79.464 28.34 79.8 28.616 80.124ZM23.768 83.964V82.788H28.304V83.964H23.768ZM23.768 82.032V80.88H28.304V82.032H23.768ZM37.556 74.208V78.66H32.768V79.512H36.032V79.596C36.008 80.832 35.744 81.84 35.264 82.608C34.736 83.352 33.824 83.94 32.504 84.396L32.996 85.164C34.352 84.696 35.336 84.048 35.936 83.208C36.548 82.296 36.872 81.096 36.908 79.596V79.512H38.936V83.712C38.936 84.492 39.296 84.888 40.04 84.888H41.912C42.392 84.888 42.74 84.768 42.956 84.528C43.196 84.264 43.364 83.496 43.448 82.224L42.62 81.96C42.572 82.992 42.476 83.604 42.332 83.82C42.212 83.988 42.02 84.072 41.756 84.072H40.304C39.968 84.072 39.8 83.892 39.8 83.532V79.512H43.244V78.66H38.444V74.208H37.556ZM41.54 74.784C41.144 75.72 40.616 76.68 39.956 77.64L40.736 78.036C41.396 77.112 41.936 76.152 42.344 75.168L41.54 74.784ZM34.496 74.892L33.68 75.276C34.268 76.092 34.832 77.004 35.36 78.036L36.164 77.64C35.636 76.644 35.084 75.732 34.496 74.892ZM54.584 80.844C54.032 81.42 53.444 81.864 52.832 82.152C52.424 81.552 52.148 80.892 51.98 80.172H54.404V75.24H51.692C51.512 74.832 51.32 74.46 51.128 74.148L50.264 74.292C50.468 74.58 50.66 74.892 50.828 75.24H48.464V83.964C48.464 84.144 48.308 84.276 48.008 84.348L48.2 85.128C49.7 84.84 50.948 84.54 51.932 84.228L51.74 83.448C50.924 83.736 50.108 83.976 49.292 84.168V80.172H51.176C51.62 82.296 52.904 83.964 55.028 85.164L55.496 84.432C54.608 83.964 53.876 83.412 53.312 82.764C54.008 82.452 54.62 81.996 55.16 81.42L54.584 80.844ZM45.56 74.376L44.948 74.976C45.896 75.624 46.64 76.224 47.18 76.8L47.792 76.176C47.192 75.576 46.448 74.976 45.56 74.376ZM45.26 77.196L44.648 77.784C45.548 78.432 46.256 79.044 46.76 79.62L47.372 79.008C46.808 78.408 46.1 77.796 45.26 77.196ZM46.952 80.532C46.364 81.948 45.68 83.34 44.9 84.696L45.764 85.068C46.484 83.748 47.132 82.344 47.72 80.844L46.952 80.532ZM49.292 78.096H53.564V79.392H49.292V78.096ZM53.564 77.352H49.292V76.032H53.564V77.352ZM57.404 74.34L56.828 74.892C57.716 75.492 58.412 76.068 58.916 76.608L59.516 76.008C58.94 75.456 58.244 74.892 57.404 74.34ZM57.164 77.292L56.588 77.844C57.428 78.444 58.076 79.008 58.556 79.536L59.156 78.936C58.616 78.384 57.956 77.844 57.164 77.292ZM58.472 80.664C57.992 82.032 57.416 83.364 56.744 84.66L57.536 85.02C58.16 83.748 58.736 82.392 59.24 80.952L58.472 80.664ZM60.572 74.532V77.772H66.2V74.532H60.572ZM65.372 77.124H61.424V76.476H65.372V77.124ZM61.424 75.864V75.18H65.372V75.864H61.424ZM59.852 78.36V80.772H66.908V78.36H59.852ZM66.116 80.112H64.748V79.008H66.116V80.112ZM64.004 80.112H62.756V79.008H64.004V80.112ZM62.012 80.112H60.632V79.008H62.012V80.112ZM60.5 82.152C61.04 82.728 61.724 83.244 62.564 83.688C61.604 84.024 60.524 84.264 59.3 84.42L59.672 85.176C61.136 84.96 62.432 84.612 63.536 84.144C64.52 84.552 65.696 84.888 67.052 85.128L67.544 84.408C66.392 84.228 65.36 83.988 64.448 83.7C65.276 83.244 65.984 82.704 66.572 82.056V81.408H59.852V82.152H60.5ZM63.452 83.34C62.636 83.004 61.964 82.608 61.412 82.152H65.372C64.82 82.608 64.184 83.004 63.452 83.34ZM79.076 76.512L76.496 77.304V74.196H75.656V77.568L73.904 78.108V75.42H73.064V78.372L72.056 78.684V79.524L73.064 79.212V83.784C73.064 84.576 73.46 84.984 74.264 84.984H78.056C78.5 84.984 78.824 84.864 79.028 84.636C79.268 84.372 79.424 83.64 79.508 82.428L78.704 82.176C78.656 83.148 78.56 83.736 78.428 83.928C78.332 84.084 78.152 84.168 77.9 84.168H74.528C74.108 84.168 73.904 83.976 73.904 83.616V78.96L75.656 78.432V82.716H76.496V78.18L78.248 77.652C78.236 79.284 78.2 80.232 78.14 80.484C78.068 80.748 77.864 80.88 77.54 80.88C77.396 80.88 77.228 80.868 77.048 80.856L77.288 81.708H77.36C78.26 81.708 78.776 81.444 78.896 80.94C79.016 80.412 79.076 78.936 79.076 76.512ZM72.212 81.612C71.756 81.828 71.276 82.032 70.796 82.212V78.228H72.044V77.388H70.796V74.292H69.944V77.388H68.576V78.228H69.944V82.5C69.44 82.644 68.936 82.776 68.432 82.884L68.648 83.748C69.92 83.412 71.108 82.98 72.212 82.464V81.612ZM82.232 82.572C81.992 82.572 81.812 82.632 81.668 82.776C81.524 82.908 81.452 83.088 81.452 83.316C81.452 83.52 81.524 83.7 81.668 83.844C81.812 83.988 81.98 84.06 82.184 84.06C82.304 84.06 82.4 84.036 82.448 84.012C82.448 84.3 82.364 84.564 82.184 84.816C81.992 85.056 81.74 85.236 81.428 85.344V85.932C81.932 85.8 82.352 85.536 82.664 85.152C82.976 84.744 83.132 84.276 83.132 83.748C83.132 83.4 83.048 83.124 82.892 82.908C82.724 82.68 82.496 82.572 82.232 82.572ZM93.536 76.824L92.912 77.424C93.776 78.444 94.556 79.44 95.252 80.412C94.604 81.852 93.692 83.1 92.516 84.132L93.104 84.804C94.256 83.796 95.156 82.608 95.828 81.252C96.284 81.948 96.704 82.62 97.064 83.292L97.724 82.62C97.268 81.852 96.776 81.072 96.236 80.304C96.776 78.9 97.088 77.328 97.184 75.576V74.916H92.852V75.744H96.356C96.26 77.064 96.008 78.3 95.624 79.452C94.976 78.576 94.28 77.7 93.536 76.824ZM97.928 74.916V75.744H98.324C98.432 77.604 98.96 79.404 99.908 81.156C99.14 82.284 98.18 83.364 97.028 84.384L97.616 85.104C98.696 84.108 99.62 83.064 100.388 81.972C101.036 83.028 101.876 84.072 102.884 85.104L103.484 84.396C102.428 83.352 101.576 82.284 100.904 81.18C101.948 79.452 102.596 77.628 102.86 75.684V74.916H97.928ZM99.104 75.744H102.044C101.78 77.364 101.24 78.9 100.424 80.34C99.644 78.852 99.2 77.328 99.104 75.744ZM111.644 79.764C112.028 82.02 113.168 83.796 115.052 85.08L115.532 84.324C114.704 83.796 114.032 83.16 113.504 82.416C114.152 82.068 114.728 81.564 115.232 80.904L114.704 80.376C114.2 81.012 113.672 81.48 113.12 81.792C112.784 81.18 112.556 80.508 112.424 79.764H114.536V74.676H109.508V83.952C109.508 84.108 109.412 84.228 109.244 84.3L109.424 84.984C110.66 84.66 111.68 84.324 112.496 83.976L112.304 83.22C111.656 83.508 111.008 83.736 110.348 83.916V79.764H111.644ZM108.428 74.844H104.948V84.66H105.776V83.472H107.588V84.384H108.428V74.844ZM105.776 82.656V80.844H107.588V82.656H105.776ZM105.776 80.064V78.252H107.588V80.064H105.776ZM105.776 77.46V75.66H107.588V77.46H105.776ZM110.348 77.64H113.696V78.996H110.348V77.64ZM113.696 76.872H110.348V75.468H113.696V76.872ZM118.208 78.012C117.872 79.524 117.32 80.904 116.552 82.152L117.32 82.644C118.064 81.396 118.652 79.92 119.06 78.192L118.208 78.012ZM125.528 77.976L124.7 78.252C125.384 79.548 126.008 81.048 126.572 82.74L127.4 82.38C126.86 80.82 126.236 79.356 125.528 77.976ZM121.88 74.22L120.932 74.376C121.172 74.784 121.4 75.24 121.604 75.744H116.852V76.584H120.248V78.432C120.224 81.264 119.336 83.328 117.596 84.624L118.232 85.188C120.104 83.772 121.052 81.516 121.1 78.432V76.584H123.008V83.664C123.008 84.108 122.792 84.336 122.36 84.336C121.976 84.336 121.58 84.312 121.172 84.276L121.352 85.104H122.66C123.464 85.104 123.872 84.696 123.872 83.88V76.584H127.172V75.744H122.528C122.312 75.168 122.096 74.664 121.88 74.22ZM128.996 74.676V85.116H129.8V75.444H131.216C131.036 76.392 130.772 77.448 130.436 78.612C130.976 79.548 131.252 80.4 131.252 81.144C131.252 81.408 131.204 81.588 131.132 81.696C131.036 81.792 130.904 81.852 130.724 81.876C130.556 81.876 130.34 81.864 130.088 81.84L130.34 82.644C131.012 82.632 131.48 82.488 131.756 82.212C131.948 82.008 132.044 81.648 132.044 81.144C132.008 80.4 131.732 79.512 131.216 78.492C131.528 77.388 131.792 76.332 132.008 75.324V74.676H128.996ZM132.896 74.892L132.26 75.288C132.716 75.984 133.076 76.632 133.352 77.232L133.988 76.776C133.736 76.248 133.376 75.612 132.896 74.892ZM137.156 84.204C136.736 84.204 136.316 84.192 135.896 84.18C135.452 84.156 135.068 84.072 134.756 83.94C134.396 83.76 134.108 83.52 133.892 83.22C133.868 83.196 133.832 83.16 133.808 83.124V78.228H131.984V78.996H133.004V83.004C132.584 83.196 132.08 83.712 131.48 84.528L131.996 85.176C132.668 84.216 133.124 83.748 133.364 83.748C133.472 83.748 133.604 83.832 133.748 84.012C134.012 84.348 134.336 84.6 134.72 84.756C135.104 84.888 135.56 84.96 136.076 84.972C136.412 84.984 136.76 84.996 137.096 84.996H139.268L139.484 84.18C138.752 84.192 137.972 84.204 137.156 84.204ZM134.276 75.348V76.14H135.74C135.356 77.472 134.768 78.564 133.976 79.416L134.42 79.992C134.732 79.704 135.02 79.356 135.296 78.96V83.496H136.04V81.468H138.176V82.38C138.176 82.632 138.068 82.764 137.864 82.764C137.6 82.764 137.336 82.74 137.048 82.716L137.24 83.46H138.116C138.668 83.436 138.956 83.16 138.956 82.632V77.34H136.148C136.292 76.968 136.436 76.572 136.556 76.14H139.424V75.348H136.772C136.844 75.012 136.916 74.676 136.988 74.316L136.148 74.208C136.088 74.592 136.016 74.964 135.944 75.348H134.276ZM136.04 79.788H138.176V80.772H136.04V79.788ZM138.176 79.092H136.04V78.024H138.176V79.092ZM141.992 78.54V85.2H142.856V77.208C143.336 76.368 143.732 75.468 144.044 74.52L143.24 74.136C142.652 76.032 141.704 77.724 140.408 79.188L140.684 80.1C141.152 79.608 141.584 79.092 141.992 78.54ZM149.72 78.972L148.952 79.224C149.54 80.568 150.08 82.128 150.56 83.88L151.316 83.544C150.86 81.912 150.332 80.388 149.72 78.972ZM145.592 76.5H150.14C149.96 77.124 149.732 77.676 149.456 78.18L150.284 78.42C150.584 77.7 150.824 76.968 151.016 76.224V75.66H145.904C146.048 75.24 146.192 74.796 146.312 74.328L145.496 74.16C145.088 75.78 144.428 77.256 143.516 78.588L144.26 79.044C144.764 78.276 145.208 77.436 145.592 76.5ZM147.092 85.116C147.752 85.116 148.088 84.78 148.088 84.108V77.508H147.248V83.892C147.248 84.204 147.092 84.36 146.792 84.36C146.336 84.36 145.844 84.336 145.34 84.3L145.52 85.116H147.092ZM145.292 79.068C144.8 80.82 144.224 82.26 143.576 83.388L144.38 83.676C145.076 82.416 145.64 80.952 146.072 79.284L145.292 79.068ZM162.284 75.948C161.48 76.656 160.592 77.244 159.62 77.712C159.596 77.1 159.584 76.44 159.584 75.732V74.892H152.444V75.756H158.72C158.72 79.56 159.032 82.056 159.656 83.244C160.268 84.408 161.036 84.996 161.948 85.008C162.224 85.008 162.488 84.876 162.752 84.636C163.1 84.18 163.328 83.424 163.448 82.392L162.62 82.116C162.548 82.932 162.452 83.472 162.332 83.712C162.212 83.952 162.068 84.072 161.9 84.084C161.3 84.06 160.76 83.568 160.304 82.584C160.016 81.996 159.824 80.952 159.716 79.44C160.7 79.908 161.66 80.508 162.596 81.24L163.1 80.484C162.044 79.752 160.904 79.116 159.656 78.588V78.564C160.832 78.048 161.864 77.4 162.776 76.632L162.284 75.948ZM168.704 77.484V79.86H170.78C170.66 80.208 170.528 80.508 170.36 80.772C169.856 81.492 169.016 82.128 167.84 82.656L168.38 83.328C169.64 82.704 170.54 81.972 171.08 81.12C171.224 80.88 171.356 80.592 171.476 80.268V82.128C171.476 82.8 171.788 83.136 172.424 83.136H174.212C174.572 83.136 174.848 83.04 175.016 82.872C175.208 82.668 175.34 82.092 175.412 81.144L174.704 80.904C174.656 81.624 174.584 82.068 174.488 82.212C174.416 82.332 174.272 82.392 174.068 82.392H172.652C172.376 82.392 172.244 82.248 172.244 81.96V79.86H174.404V77.016H172.436C172.748 76.692 173.072 76.296 173.396 75.84V75.252H170.84C171.032 74.976 171.212 74.676 171.404 74.364L170.612 74.184C169.808 75.492 168.788 76.548 167.54 77.352L168.044 77.976C168.26 77.832 168.476 77.664 168.704 77.484ZM170.288 75.948H172.424C172.088 76.356 171.764 76.704 171.428 77.016H169.256C169.616 76.68 169.964 76.332 170.288 75.948ZM173.6 79.14H171.764C171.836 78.708 171.896 78.24 171.944 77.712H173.6V79.14ZM170.972 79.14H169.484V77.712H171.176C171.128 78.228 171.068 78.708 170.972 79.14ZM173.072 80.28L172.616 80.724C173.072 81.108 173.444 81.468 173.708 81.816L174.188 81.324C173.888 80.976 173.516 80.628 173.072 80.28ZM165.512 74.388L164.924 74.952C165.8 75.624 166.484 76.248 166.988 76.836L167.6 76.248C167.036 75.624 166.34 75.012 165.512 74.388ZM172.58 84.984H175.256L175.472 84.12C175.16 84.144 174.716 84.156 174.152 84.168C173.576 84.18 173.012 84.192 172.46 84.192C171.512 84.192 170.72 84.18 170.084 84.168C169.376 84.144 168.836 84.048 168.452 83.88C168.116 83.724 167.804 83.472 167.516 83.124C167.408 83.004 167.312 82.92 167.216 82.848V78.36H164.648V79.152H166.412V82.8C165.92 82.992 165.344 83.604 164.684 84.636L165.332 85.224C166.016 84.12 166.496 83.568 166.784 83.568C166.94 83.568 167.096 83.664 167.264 83.868C167.624 84.3 168.056 84.6 168.536 84.744C169.016 84.876 169.652 84.948 170.432 84.96C171.2 84.972 171.92 84.984 172.58 84.984Z" fill="black" fill-opacity="0.3"/>
<path d="M315.522 13.537C313.908 10.8629 314.346 7.69991 316.578 6.39279C317.513 5.85748 318.569 5.56907 319.646 5.55465C324.848 5.44798 330.052 5.68128 335.225 6.25309C337.725 6.52249 340.205 6.6123 342.755 6.79191C343.975 6.97329 345.208 7.06004 346.441 7.05135C347.079 7.85956 346.8 8.80746 346.79 9.68552C346.708 12.1803 347.16 14.6637 348.115 16.9695C349.202 19.3198 350.839 21.3733 352.886 22.9563C353.812 23.7146 354.729 24.4929 355.735 25.1614C358.534 27.0273 359.669 29.6814 359.789 32.9841C359.828 36.1829 360.359 39.3565 361.363 42.3934C361.908 43.875 362.623 45.288 363.495 46.6041C365.985 50.4955 369.85 51.8226 374.143 52.3315C378.931 52.7822 383.76 52.5097 388.467 51.5232C388.683 51.4449 388.914 51.4203 389.142 51.4516C389.369 51.4829 389.585 51.5692 389.772 51.7029V61.182C383.741 61.2466 377.733 61.932 371.842 63.2274C367.748 64.2252 364.012 63.2275 360.397 61.3416C355.927 59.0224 351.647 56.3533 347.597 53.3592C345.415 51.7727 342.795 51.633 340.245 51.5332C336.938 51.4035 333.621 51.5332 330.284 51.4634C328.713 51.4672 327.151 51.2282 325.652 50.755C324.345 50.3338 323.2 49.5198 322.371 48.4237C321.543 47.3276 321.071 46.0025 321.02 44.6285C321.049 43.8184 321.266 43.0263 321.653 42.3146C322.041 41.6028 322.588 40.991 323.252 40.5275C323.989 39.9388 324.945 39.6295 325.503 38.8113C325.722 39.3102 326.11 39.1805 326.499 39.1505C328.123 39.0308 329.726 39.3002 331.34 39.3401C334.478 39.4299 337.625 39.3401 340.763 39.3401C335.603 38.8612 330.394 39.4998 325.234 38.7315C322.505 38.2407 319.923 37.1353 317.683 35.4986C315.143 33.503 315.113 30.5096 317.494 27.6758C317.753 27.3565 318.032 27.0472 318.301 26.7379C318.43 26.633 318.592 26.5765 318.759 26.5783C322.365 26.6581 325.981 26.4386 329.577 26.688C332.565 26.8976 335.554 26.7778 338.542 26.8577H340.534C332.804 26.5583 325.064 26.6182 317.345 26.2091C315.514 25.2194 314.074 23.6361 313.261 21.719C312.823 20.5686 312.782 19.305 313.142 18.1283C313.503 16.9516 314.246 15.9293 315.253 15.2233C315.571 14.9639 316.01 14.8442 316.07 14.3453C316.348 13.9362 316.777 13.9661 317.185 13.9761C324.477 14.1557 331.768 14.3852 339.1 14.4251C339.389 14.4251 339.667 14.5049 340.096 14.4849C337.894 14.2954 335.872 14.1657 333.84 14.1856C328.322 14.2355 322.823 13.8064 317.305 13.9062C316.687 13.956 316.069 13.8279 315.522 13.537V13.537Z" fill="#F8ABDA"/>
<path d="M389.772 51.6626C386.807 52.2153 383.814 52.6084 380.807 52.84C379.116 53.0063 377.412 52.9828 375.727 52.7701C374.312 52.5606 372.878 52.5207 371.444 52.2214C364.919 50.8843 362 46.2346 360.357 40.3775C359.5 37.3242 359.53 34.1712 359.171 31.068C359.032 30.0019 358.671 28.9772 358.109 28.0608C357.548 27.1444 356.8 26.3569 355.914 25.7497C353.958 24.3592 352.116 22.8143 350.406 21.1299C347.959 18.5127 346.543 15.0949 346.421 11.5112C346.332 10.0244 346.421 8.51773 346.421 7.03101C347.009 5.62411 347.089 4.03763 348.015 2.75047C349.4 0.814742 351.153 -0.0633249 353.185 0.345773C354.315 0.603587 355.352 1.1669 356.185 1.97441C357.017 2.78193 357.613 3.80272 357.906 4.92567C358.145 6.03323 358.006 7.16074 358.185 8.25832C358.614 10.9424 360.397 12.5389 362.748 13.5566C365.792 14.7172 368.951 15.55 372.171 16.0411C375.289 16.6698 378.426 17.1288 381.554 17.6177C384.274 18.0467 387.013 18.376 389.752 18.7452L389.772 51.6626Z" fill="#FBD3EA"/>
<path d="M238.841 10.9924C240.913 10.1044 243.164 11.7707 244.349 13.5468C245.877 15.9443 246.459 18.8252 245.983 21.629C245.804 22.9261 246.152 24.3031 245.405 25.5104C244.509 26.7776 243.951 28.2344 243.094 29.5016C240.731 33.1487 238.065 36.59 235.125 39.7889C234.249 40.8827 233.308 41.9224 232.306 42.9021C234.528 40.6271 236.619 38.2423 238.632 35.7778C240.623 33.2835 242.463 30.6712 244.14 27.955C244.558 27.2965 244.539 26.3685 245.355 25.9594C246.171 25.0455 246.843 24.0127 247.348 22.8962C248.241 21.1899 249.239 19.5404 250.336 17.9571C250.549 18.3139 250.868 18.5951 251.248 18.7614C251.629 18.9278 252.052 18.971 252.458 18.885C254.45 18.6156 256.343 18.1666 257.129 15.8916C257.531 14.984 258.022 14.1184 258.594 13.3073C259.102 12.4293 259.65 12.4392 260.178 13.3073C260.663 13.9786 261.045 14.7184 261.313 15.5025C261.316 15.0346 261.489 14.5838 261.801 14.2353C262.469 15.8717 261.951 17.528 261.682 19.1045C260.791 24.0741 259.141 28.8766 256.791 33.3432C256.602 33.7024 256.731 34.2013 256.293 34.4308C251.452 37.1647 246.332 39.4197 241.769 42.014C246.023 39.8089 250.525 37.4541 255.087 35.219C255.536 34.9995 255.765 34.4806 256.303 34.4208C256.422 35.0594 256.811 34.8698 257.239 34.78C259.432 34.3995 261.664 34.2922 263.883 34.4607C266.732 34.5605 268.465 36.5361 270.109 38.4519C270.765 39.0095 271.309 39.6867 271.713 40.4475C269.72 42.2236 269.85 44.3289 270.716 46.574C271.312 48.3454 272.28 49.9684 273.555 51.3335C273.641 51.4147 273.709 51.5133 273.755 51.6228C272.476 52.3171 270.989 52.5207 269.572 52.1956C268.154 51.8705 266.904 51.039 266.055 49.8567C262.668 45.5662 256.761 47.1627 253.892 51.2137C252.771 52.761 252.017 54.5434 251.686 56.4259C251.354 58.3085 251.455 60.2419 251.98 62.0798C252.497 63.8702 253.686 65.3902 255.298 66.3205C256.911 67.2509 258.82 67.5191 260.626 67.0688C262.404 66.8229 264.036 65.9489 265.228 64.6042C265.772 63.8209 266.051 62.8838 266.025 61.9301C266.164 59.1263 267.15 56.7615 269.79 55.3945C270.235 55.1463 270.735 55.0161 271.244 55.0161C271.753 55.0161 272.254 55.1463 272.699 55.3945C273.107 58.9766 272.988 62.8082 277.171 64.5343C277.321 67.6375 275.906 70.142 274.004 72.397C270.716 76.2585 267.031 79.6909 263.385 83.2531C259.739 86.8152 256.333 90.0381 252.786 93.3907C248.749 97.2156 244.705 101.021 240.654 104.806C238.472 106.801 236.251 108.797 234.109 110.902C233.412 111.581 232.974 111.481 232.376 110.842C231.539 109.924 230.633 109.066 229.746 108.188C224.248 102.77 218.789 97.2821 213.231 91.9539C209.366 88.262 205.62 84.4504 201.795 80.7187C201.235 80.1689 200.643 79.6525 200.022 79.1721C199.245 78.5634 199.225 78.0047 199.823 77.1765C203.09 72.7562 206.318 68.296 209.545 63.8459C213.858 57.9289 218.132 51.982 222.495 46.085C223.491 44.758 224.616 43.5606 224.925 41.8643C229.388 35.4385 233.342 28.7732 234.528 20.8407C234.545 20.5108 234.681 20.1983 234.909 19.9602C235.138 19.7221 235.444 19.5742 235.773 19.5436C238.193 19.0447 238.512 18.5957 238.831 16.0812C239.055 14.4813 239.095 12.8609 238.95 11.2519C238.908 11.1681 238.871 11.0814 238.841 10.9924V10.9924Z" fill="#D4C2EC"/>
<path d="M302.622 15.5225C302.711 16.3709 302.633 17.2285 302.393 18.047C301.895 17.8674 301.636 18.2964 301.327 18.5359C296.548 22.0917 291.034 24.5295 285.19 25.6702C284.743 25.7505 284.323 25.9388 283.965 26.2189C282.681 24.6382 281.873 22.7245 281.634 20.7011C281.099 17.4502 281.442 14.115 282.63 11.0424C282.796 10.5728 283.065 10.1466 283.417 9.79517C284.751 11.0286 286.195 12.1375 287.73 13.1078C291.807 15.2971 296.427 16.2636 301.038 15.8917C301.626 15.8618 302.054 15.4128 302.622 15.5225Z" fill="#F56E89"/>
<path d="M225.433 40.4374C225.861 37.5039 226.3 34.5803 226.708 31.6468C227.117 28.7133 227.515 25.6001 227.704 22.5568C227.749 22.3621 227.826 22.1764 227.933 22.008C228.239 22.0406 228.546 21.9557 228.792 21.7705C229.038 21.5853 229.204 21.3136 229.258 21.0102C229.768 19.4923 229.914 17.8757 229.687 16.2906C230.443 15.9606 231.29 15.9035 232.084 16.1291C232.878 16.3547 233.569 16.8491 234.04 17.5279C234.249 17.7874 234.348 18.3262 234.826 18.1665C235.305 18.0069 235.334 17.5878 235.434 17.1687C236.012 14.8239 236.859 12.6088 238.851 11.0422L238.93 11.122C239.293 13.489 239.099 15.9081 238.363 18.1865C238.16 18.7003 237.78 19.1246 237.293 19.3826C236.805 19.6407 236.241 19.7154 235.703 19.5934C234.926 19.4936 234.637 19.743 234.548 20.4415C233.671 27.4261 230.683 33.5825 226.688 39.28C226.35 39.689 226.26 40.4673 225.433 40.4374Z" fill="#D4C2EC"/>
<path d="M302.622 15.5223C302.462 15.7361 302.259 15.9133 302.025 16.0423C301.791 16.1713 301.533 16.2492 301.267 16.2707C296.931 16.6156 292.579 15.8283 288.637 13.9857C286.941 13.2115 285.398 12.1366 284.084 10.8127C283.815 10.5134 283.457 10.2639 283.457 9.81491C284.151 8.92349 285.116 8.28258 286.206 7.98896C290.413 6.54927 295.006 6.74512 299.076 8.53773C302.214 9.85483 302.702 12.5489 302.622 15.5223Z" fill="#F0445F"/>
<path d="M283.955 26.219C283.805 25.73 283.905 25.5604 284.483 25.4606C289.115 24.6084 293.566 22.9647 297.641 20.6013C299.06 19.7522 300.418 18.8053 301.706 17.7676C302.263 17.3385 302.353 17.4683 302.383 18.047C302.095 20.8041 300.932 23.3962 299.066 25.4432C297.2 27.4903 294.728 28.8847 292.013 29.4219C291.699 29.4967 291.39 29.5899 291.087 29.7013C290.685 29.846 290.244 29.846 289.842 29.7013C287.716 29.3521 285.769 28.298 284.313 26.7079C284.194 26.5582 284.084 26.3886 283.955 26.219Z" fill="#F04460"/>
<path d="M311.358 33.9619C311.587 34.381 311.169 34.5406 310.99 34.7302C306.527 39.38 301.427 43.0319 295.052 44.6184C292.397 45.3104 289.623 45.416 286.923 44.9277C286.585 44.2293 287.143 43.9299 287.571 43.6905C290.993 41.5176 294.6 39.6512 298.349 38.1128C301.805 36.646 305.322 35.3988 308.938 34.2712C309.707 33.9719 310.538 33.8657 311.358 33.9619Z" fill="#5A9A7F"/>
<path d="M311.358 33.9616C307.522 34.9591 303.756 36.2056 300.082 37.6934C295.72 39.4076 291.525 41.5219 287.551 44.0095C287.382 44.0895 287.236 44.2127 287.13 44.3669C287.023 44.521 286.959 44.7006 286.943 44.8875L286.216 44.9374C286.121 44.8544 286.06 44.739 286.046 44.6136C286.031 44.4882 286.063 44.3618 286.136 44.2589C286.754 43.1414 287.461 42.0837 288.129 40.9861C288.188 40.8764 288.338 40.8863 288.467 40.9263C289.194 40.9263 289.374 40.2578 289.742 39.8586C292.422 36.995 295.4 34.5603 299.365 33.8718C302.864 33.1966 306.448 33.0787 309.983 33.5226C310.476 33.5217 310.957 33.6752 311.358 33.9616V33.9616Z" fill="#71BA9B"/>
<path d="M288.447 40.9665C287.703 42.2969 286.96 43.6273 286.216 44.9577C283.35 48.9736 279.26 51.9497 274.561 53.439C269.298 55.2548 263.71 55.9349 258.165 55.4346H257.916C257.458 55.3747 256.92 55.3348 256.92 54.7161C256.92 54.0975 257.518 54.1474 257.916 54.1773C260.065 54.322 262.222 54.322 264.371 54.1773C269.353 53.9605 274.217 52.5947 278.586 50.1861C283.193 47.5274 286.611 43.2043 288.138 38.1028C288.987 35.3694 289.541 32.5528 289.792 29.7013C289.977 29.5798 290.193 29.5151 290.415 29.5151C290.636 29.5151 290.852 29.5798 291.037 29.7013C290.862 33.5825 289.985 37.3996 288.447 40.9665V40.9665Z" fill="#5C977F"/>
<path d="M271.922 40.7568C273.127 42.3522 274.158 44.0715 275 45.8855C275.488 46.8516 275.632 47.9554 275.41 49.0147C275.187 50.0741 274.61 51.0258 273.775 51.7127L273.675 51.6229C271.932 49.6809 270.748 47.3013 270.248 44.738C270.006 43.9836 270.041 43.1671 270.348 42.4366C270.655 41.7062 271.214 41.1102 271.922 40.7568V40.7568Z" fill="#D4C2EC"/>
<path d="M250.595 17.2786C251.89 15.3827 252.707 13.1477 254.44 11.5911C255.024 11.0441 255.737 10.6547 256.512 10.4592C257.288 10.2637 258.1 10.2687 258.873 10.4736C258.833 10.5931 258.772 10.7046 258.693 10.8028C258.071 11.6718 257.556 12.6133 257.159 13.6066C256.67 14.6094 256.08 15.5591 255.396 16.4404C255.139 16.8155 254.81 17.1353 254.428 17.3812C254.046 17.627 253.619 17.7939 253.172 17.872C252.724 17.9501 252.266 17.9378 251.824 17.8359C251.381 17.734 250.963 17.5445 250.595 17.2786V17.2786Z" fill="#D3C2EC"/>
<path d="M315.522 13.5369C317.369 13.3972 319.224 13.3972 321.07 13.5369C327.356 13.6466 333.651 13.8162 339.937 13.9559C340.186 13.9559 340.435 13.9559 340.684 14.0058C340.933 14.0557 341.172 14.1555 341.162 14.4648C341.161 14.5281 341.147 14.5906 341.121 14.6484C341.095 14.7061 341.057 14.758 341.011 14.8009C340.964 14.8438 340.91 14.8768 340.85 14.8979C340.79 14.9191 340.727 14.9278 340.664 14.9238C340.006 14.9238 339.339 14.9238 338.672 14.8639L316.08 14.3451C315.925 14.27 315.792 14.1561 315.695 14.0145C315.597 13.8729 315.537 13.7083 315.522 13.5369V13.5369Z" fill="#46348B"/>
<path d="M225.433 40.4374C230.165 33.9817 233.671 27.017 234.398 18.885C236.998 19.7231 238.124 19.0646 238.492 16.4004C238.731 14.6343 238.781 12.8483 238.911 11.0722C239.538 11.0123 239.419 11.4713 239.419 11.8206C239.459 13.6071 239.338 15.3937 239.06 17.1588C238.761 18.9548 237.845 19.763 235.912 19.9227C235.305 19.9726 234.916 20.0324 234.837 20.7708C233.9 27.5958 230.962 33.5925 227.147 39.2201L225.324 41.8942C225.224 42.0339 225.085 42.1237 224.915 41.9541L225.433 40.4374Z" fill="#3F378D"/>
<path d="M317.375 26.1988C317.733 25.7697 318.221 25.9393 318.65 25.9493L340.654 26.4183H341.152C341.481 26.4183 341.899 26.4183 341.909 26.8673C341.919 27.3163 341.471 27.3761 341.082 27.3662L327.415 27.0469C324.965 26.987 322.524 26.9571 320.074 26.9271C319.494 26.9545 318.915 26.8802 318.361 26.7076L317.375 26.1988Z" fill="#43318A"/>
<path d="M261.791 14.2653L261.473 16.5603C261.029 15.4816 260.499 14.4406 259.889 13.4472C259.54 12.6988 259.122 12.8285 258.893 13.4472C258.385 14.7543 257.239 15.7321 257.04 17.1789C257.023 17.3243 256.971 17.4632 256.887 17.5833C256.804 17.7034 256.692 17.801 256.562 17.8674C254.878 18.7255 253.215 19.6435 251.203 19.2943C250.416 19.1546 250.386 18.6058 250.326 18.0171C250.326 17.9173 250.376 17.8175 250.396 17.7277C250.571 17.6673 250.756 17.6423 250.941 17.6543C251.126 17.6663 251.306 17.715 251.472 17.7976C252.12 18.0252 252.823 18.0436 253.482 17.8503C254.142 17.657 254.724 17.2618 255.147 16.7199C256.198 15.4946 257.061 14.1192 257.707 12.6389C257.976 11.8972 258.345 11.1955 258.803 10.5535L258.873 10.4937C260.636 11.1223 261.254 12.6689 261.791 14.2653Z" fill="#D3C2EC"/>
<path d="M325.294 38.6915C326.628 38.2326 327.983 38.6018 329.328 38.6117C333.133 38.6716 336.948 38.7714 340.753 38.8512C341.082 38.8512 341.421 38.8512 341.749 38.931C341.801 38.9323 341.853 38.9439 341.9 38.9653C341.947 38.9867 341.99 39.0174 342.025 39.0555C342.06 39.0937 342.088 39.1385 342.105 39.1874C342.123 39.2362 342.131 39.2882 342.128 39.3401C342.119 39.4472 342.071 39.5473 341.995 39.6224C341.918 39.6974 341.817 39.7424 341.71 39.7492C341.338 39.7693 340.966 39.7693 340.594 39.7492C335.922 39.6494 331.24 39.5297 326.559 39.4598C325.941 39.4598 325.662 39.2403 325.563 38.7015L325.443 38.6516L325.294 38.6915Z" fill="#412F89"/>
<path d="M245.335 25.9994C243.632 30.1004 240.853 33.4929 238.133 36.9752C236.36 39.163 234.474 41.2578 232.485 43.2514C232.256 43.4909 231.968 44.0197 231.609 43.6306C231.25 43.2414 231.798 42.9919 232.017 42.7624C236.393 38.4046 240.244 33.5489 243.493 28.2944C244.04 27.3764 244.489 26.4085 245.037 25.4606C245.295 24.9717 245.325 25.3608 245.405 25.5604L245.335 25.9994Z" fill="#41398F"/>
<path d="M272.998 55.7039C275.421 57.8082 276.94 60.7673 277.241 63.9656C276.534 64.4146 275.966 64.0255 275.448 63.6264C274.743 63.043 274.213 62.2767 273.914 61.4113C273.418 59.9292 273.035 58.4115 272.768 56.8713C272.703 56.6735 272.689 56.4619 272.729 56.2574C272.77 56.0528 272.862 55.8621 272.998 55.7039V55.7039Z" fill="#D3C3ED"/>
<path d="M271.922 40.7569C269.93 42.5828 270.358 44.6882 271.185 46.8734C271.7 48.176 272.368 49.4121 273.177 50.5553C273.396 50.8845 273.814 51.124 273.665 51.6229C273.207 51.7925 273.008 51.4632 272.778 51.1639C271.33 49.2875 270.331 47.1026 269.86 44.778C269.441 42.6826 270.129 41.1959 271.693 40.5374L271.922 40.7569Z" fill="#483E92"/>
<path d="M258.803 10.5336C258.153 13.1413 256.795 15.5175 254.878 17.3984C253.514 18.6557 251.95 18.506 250.396 17.7077L250.595 17.2787C253.842 17.7975 254.639 17.4184 256.333 14.4449C256.91 13.4472 257.329 12.3695 257.887 11.3418C258.056 10.9526 258.155 10.4039 258.803 10.5336Z" fill="#473E92"/>
<path d="M272.998 55.7037C273.153 57.7591 273.624 59.7783 274.392 61.6905C274.581 62.3117 274.955 62.8601 275.464 63.2616C275.974 63.663 276.594 63.8983 277.241 63.9356V64.634C276.554 64.6391 275.88 64.4399 275.306 64.0616C274.731 63.6834 274.281 63.1429 274.014 62.5087C273.124 60.4609 272.543 58.2919 272.29 56.0729C272.221 55.6838 272.29 55.4044 272.768 55.4942L272.998 55.7037Z" fill="#494094"/>
<path d="M229.677 16.251C230.095 16.251 230.264 16.4206 230.224 16.8496C230.14 18.2953 229.93 19.7309 229.597 21.1402C229.509 21.4196 229.361 21.6761 229.163 21.8917C228.965 22.1072 228.722 22.2765 228.451 22.3874C228.063 22.577 227.933 22.3874 227.923 22.0083C228.83 20.8408 228.86 19.414 229.039 18.0171C229.022 17.4853 229.164 16.9605 229.447 16.5104L229.677 16.251Z" fill="#4A4195"/>
<path d="M229.447 16.5303C229.484 17.8508 229.361 19.171 229.079 20.4616C229.015 20.7888 228.878 21.0972 228.678 21.3635C228.478 21.6297 228.22 21.8468 227.923 21.9982C228.362 20.5813 227.923 19.0048 228.581 17.6478C228.79 17.1788 228.949 16.7398 229.447 16.5303Z" fill="#CDC2E9"/>
<path d="M256.293 34.4507C255.978 34.9832 255.509 35.4077 254.948 35.668C250.625 37.8532 246.312 40.0683 241.998 42.2734C241.89 42.3347 241.776 42.3881 241.66 42.4331C241.291 42.5328 240.813 43.0716 240.574 42.5827C240.335 42.0938 241.042 42.014 241.361 41.8444C246.142 39.3765 250.934 36.9185 255.735 34.4706C255.924 34.3708 256.094 34.2511 256.283 34.4706L256.293 34.4507Z" fill="#443A8F"/>
<path d="M286.425 10.1543C286.775 10.0775 287.137 10.0845 287.483 10.1747C287.83 10.2649 288.15 10.4357 288.418 10.6732C291.107 12.2307 294.107 13.1744 297.203 13.4371C298.029 13.4821 298.855 13.3773 299.644 13.1278C300.351 12.9482 300.64 12.4293 299.883 11.9404C298.136 10.7415 296.114 10.0068 294.006 9.80509C293.139 9.80509 292.233 9.19645 291.346 9.97473C291.974 10.773 292.97 10.6832 293.777 10.9725C294.583 11.2619 295.689 11.5113 296.645 11.7807C296.835 11.8306 297.064 11.9204 296.994 12.1898C296.924 12.4593 296.715 12.4593 296.496 12.4094C294.798 12.0927 293.131 11.6252 291.515 11.0125C291.007 10.773 290.39 10.4238 290.519 9.73527C290.649 9.04679 291.326 9.04678 291.934 9.00686C294.382 8.92573 296.811 9.47543 298.986 10.6033C299.5 10.8557 299.969 11.1931 300.371 11.6012C301.297 12.4992 301.068 13.3673 299.833 13.6965C298.024 14.1681 296.124 14.1681 294.315 13.6965C291.9 13.0899 289.576 12.1673 287.401 10.9526C287.052 10.7173 286.725 10.45 286.425 10.1543V10.1543Z" fill="#F56888"/>
<rect width="20" height="111" fill="#F3F4FB"/>
</svg>
