<svg width="390" height="112" viewBox="0 0 390 112" fill="none" xmlns="http://www.w3.org/2000/svg">
<rect width="16" height="111" fill="#F3F4FB"/>
<path d="M20.308 64.788V65.628H23.056V68.94H19.816V69.792H27.34V68.94H23.932V65.628H26.8V64.788H23.932V62.556H23.056V64.788H20.308ZM18.376 65.316V70.236H19.228V64.332C19.876 63.516 20.44 62.628 20.908 61.68H27.328V60.828H21.292C21.508 60.312 21.688 59.772 21.856 59.22L20.956 59.112C20.788 59.7 20.572 60.276 20.332 60.828H16.84V61.68H19.924C19.084 63.276 17.92 64.692 16.42 65.928L16.96 66.636C17.464 66.216 17.932 65.772 18.376 65.316ZM29.284 59.976V60.732H33.172C33.076 61.044 32.968 61.356 32.86 61.668H29.872V62.424H32.536C32.38 62.748 32.212 63.06 32.032 63.36H28.888V64.128H31.492C30.676 65.148 29.656 65.892 28.42 66.372L28.852 67.092C29.596 66.78 30.292 66.372 30.916 65.868V70.248H31.768V69.732H36.304V70.224H37.156V65.676C37.708 66.192 38.392 66.648 39.232 67.044L39.604 66.276C38.32 65.748 37.372 65.028 36.772 64.128H39.112V63.36H32.992C33.16 63.06 33.316 62.748 33.46 62.424H38.164V61.668H33.76C33.868 61.38 33.976 61.068 34.072 60.732H38.716V59.976H34.276C34.336 59.712 34.396 59.448 34.444 59.184L33.556 59.1L33.376 59.976H29.284ZM36.616 65.124H31.72C31.996 64.824 32.26 64.488 32.512 64.128H35.932C36.112 64.464 36.34 64.8 36.616 65.124ZM31.768 68.964V67.788H36.304V68.964H31.768ZM31.768 67.032V65.88H36.304V67.032H31.768ZM45.556 60.408V61.308H40.852V62.1H44.416C43.72 62.868 42.46 63.552 40.636 64.164L41.104 64.92C43.156 64.128 44.548 63.18 45.292 62.1H45.556V64.14H46.444V62.1H46.708C47.524 63.252 48.952 64.176 50.992 64.884L51.376 64.08C49.624 63.6 48.352 62.94 47.548 62.1H51.148V61.308H46.444V60.348C47.812 60.252 49 60.096 50.032 59.904L49.648 59.232C47.56 59.568 44.944 59.748 41.8 59.76L42.052 60.492C43.3 60.492 44.476 60.456 45.556 60.408ZM41.08 66.996V67.788H45.832V68.88C45.832 69.204 45.652 69.372 45.316 69.372C44.812 69.372 44.344 69.36 43.912 69.348L44.128 70.128H45.616C46.336 70.128 46.708 69.804 46.708 69.156V67.788H50.908V66.996H46.708V66.624C47.5 66.204 48.22 65.772 48.868 65.34V64.584H42.796V65.34H47.716C47.284 65.58 46.66 65.904 45.832 66.288V66.996H41.08ZM54.232 67.572C53.992 67.572 53.812 67.632 53.668 67.776C53.524 67.908 53.452 68.088 53.452 68.316C53.452 68.52 53.524 68.7 53.668 68.844C53.812 68.988 53.98 69.06 54.184 69.06C54.304 69.06 54.4 69.036 54.448 69.012C54.448 69.3 54.364 69.564 54.184 69.816C53.992 70.056 53.74 70.236 53.428 70.344V70.932C53.932 70.8 54.352 70.536 54.664 70.152C54.976 69.744 55.132 69.276 55.132 68.748C55.132 68.4 55.048 68.124 54.892 67.908C54.724 67.68 54.496 67.572 54.232 67.572ZM73.768 70.152C74.464 70.152 74.812 69.756 74.812 68.976V59.664H65.188V70.188H66.052V60.504H73.948V68.784C73.948 69.144 73.792 69.324 73.492 69.324L71.932 69.288L72.172 70.152H73.768ZM66.928 61.884V62.688H73.084V61.884H66.928ZM67.6 63.984V67.848H72.412V63.984H67.6ZM71.572 67.08H68.44V64.764H71.572V67.08ZM76.72 63.876V64.572H77.872V68.724L76.756 68.772L76.864 69.516C78.532 69.42 79.936 69.3 81.076 69.168V70.224H81.916V69.06C82.156 69.012 82.396 68.976 82.612 68.94V68.256C82.396 68.292 82.156 68.328 81.916 68.364V64.572H87.304V63.876H76.72ZM78.652 68.688V67.656H81.076V68.472C80.356 68.556 79.54 68.628 78.652 68.688ZM78.652 67.02V66.12H81.076V67.02H78.652ZM78.652 65.472V64.572H81.076V65.472H78.652ZM78.244 59.628V63.084H85.828V59.628H78.244ZM85 62.46H79.072V61.656H85V62.46ZM79.072 61.044V60.276H85V61.044H79.072ZM82.924 66.084C83.164 66.96 83.608 67.74 84.28 68.436C83.764 68.868 83.14 69.228 82.42 69.54L82.864 70.212C83.644 69.876 84.316 69.468 84.868 68.988C85.408 69.432 86.08 69.84 86.872 70.212L87.316 69.492C86.572 69.18 85.948 68.832 85.42 68.436C85.996 67.764 86.404 66.972 86.632 66.048V65.376H82.54V66.084H82.924ZM84.808 67.92C84.256 67.38 83.884 66.768 83.668 66.084H85.852C85.636 66.756 85.288 67.368 84.808 67.92ZM88.72 63.876V64.572H89.872V68.724L88.756 68.772L88.864 69.516C90.532 69.42 91.936 69.3 93.076 69.168V70.224H93.916V69.06C94.156 69.012 94.396 68.976 94.612 68.94V68.256C94.396 68.292 94.156 68.328 93.916 68.364V64.572H99.304V63.876H88.72ZM90.652 68.688V67.656H93.076V68.472C92.356 68.556 91.54 68.628 90.652 68.688ZM90.652 67.02V66.12H93.076V67.02H90.652ZM90.652 65.472V64.572H93.076V65.472H90.652ZM90.244 59.628V63.084H97.828V59.628H90.244ZM97 62.46H91.072V61.656H97V62.46ZM91.072 61.044V60.276H97V61.044H91.072ZM94.924 66.084C95.164 66.96 95.608 67.74 96.28 68.436C95.764 68.868 95.14 69.228 94.42 69.54L94.864 70.212C95.644 69.876 96.316 69.468 96.868 68.988C97.408 69.432 98.08 69.84 98.872 70.212L99.316 69.492C98.572 69.18 97.948 68.832 97.42 68.436C97.996 67.764 98.404 66.972 98.632 66.048V65.376H94.54V66.084H94.924ZM96.808 67.92C96.256 67.38 95.884 66.768 95.668 66.084H97.852C97.636 66.756 97.288 67.368 96.808 67.92ZM107.824 66.876L107.392 67.524C108.568 68.076 109.732 68.844 110.86 69.804L111.316 69.072C110.26 68.208 109.096 67.476 107.824 66.876ZM103.996 66.876C103.108 67.74 101.992 68.436 100.636 68.964L100.996 69.744C102.412 69.144 103.6 68.388 104.536 67.488L103.996 66.876ZM106.048 59.136L105.136 59.28C105.316 59.64 105.484 60.036 105.64 60.468H101.572V61.248H110.452V60.468H106.516C106.372 59.964 106.216 59.52 106.048 59.136ZM100.996 63.36V64.176H105.628V65.556H101.368V66.336H105.628V68.856C105.628 69.24 105.436 69.432 105.052 69.432C104.656 69.432 104.236 69.408 103.804 69.372L103.984 70.2H105.352C106.096 70.2 106.48 69.828 106.48 69.084V66.336H110.632V65.556H106.48V64.176H111.016V63.36H108.364C108.628 62.928 108.88 62.424 109.108 61.872L108.28 61.584C108.052 62.208 107.788 62.796 107.476 63.36H104.644C104.38 62.676 104.104 62.088 103.792 61.608L102.988 61.908C103.288 62.364 103.54 62.856 103.756 63.36H100.996ZM122.98 62.148H120.964C121.228 61.764 121.468 61.332 121.684 60.84L120.856 60.54C120.64 61.104 120.376 61.644 120.064 62.148H118.528C118.396 61.644 118.252 61.188 118.096 60.792L117.256 60.924C117.412 61.284 117.556 61.692 117.688 62.148H115.72C115.588 61.68 115.456 61.26 115.324 60.888L114.472 61.02C114.616 61.368 114.748 61.74 114.868 62.148H113.044V64.128H113.932V62.928H122.092V64.128H122.98V62.148ZM122.332 59.376C119.908 59.7 116.848 59.868 113.164 59.88L113.428 60.684C117.316 60.684 120.424 60.492 122.764 60.132L122.332 59.376ZM116.236 63.228C116.176 63.54 116.116 63.84 116.044 64.152H113.968V64.944H115.828C115.228 66.84 114.196 68.292 112.756 69.324L113.176 70.068C114.292 69.324 115.192 68.304 115.888 66.984C116.512 67.596 117.208 68.124 117.976 68.58C117.124 68.988 116.14 69.276 115.024 69.456L115.408 70.224C116.62 70.008 117.76 69.6 118.816 69.024C119.968 69.588 121.24 69.972 122.656 70.164L123.04 69.384C121.792 69.24 120.652 68.952 119.596 68.544C120.4 67.992 121.084 67.332 121.648 66.576V65.928H116.368C116.488 65.616 116.596 65.28 116.704 64.944H122.068V64.152H116.92C116.98 63.888 117.04 63.624 117.088 63.336L116.236 63.228ZM116.536 66.672H120.616C120.1 67.212 119.476 67.704 118.744 68.16C117.94 67.752 117.208 67.248 116.536 66.672ZM128.848 61.272H126.916C127.156 60.672 127.336 60.012 127.48 59.304L126.616 59.184C126.508 59.904 126.34 60.6 126.1 61.272H124.984V69.804H125.824V68.772H128.008V69.456H128.848V61.272ZM125.824 67.968V65.34H128.008V67.968H125.824ZM125.824 64.56V62.088H128.008V64.56H125.824ZM130.936 64.056L130.24 64.488C131.068 65.472 131.728 66.36 132.22 67.152L132.904 66.672C132.448 65.928 131.8 65.052 130.936 64.056ZM135.052 61.284H131.224C131.44 60.66 131.608 59.988 131.752 59.28L130.9 59.172C130.588 60.876 130.024 62.316 129.184 63.492L129.7 64.176C130.168 63.564 130.564 62.88 130.9 62.124H134.2C134.176 65.58 134.128 67.656 134.056 68.328C133.96 68.94 133.636 69.252 133.072 69.252C132.7 69.252 132.268 69.24 131.764 69.216L131.968 70.008C132.544 70.032 132.952 70.056 133.192 70.056C134.2 70.056 134.752 69.588 134.872 68.676C134.992 67.74 135.052 65.268 135.052 61.284ZM137.992 63.54V70.2H138.856V62.208C139.336 61.368 139.732 60.468 140.044 59.52L139.24 59.136C138.652 61.032 137.704 62.724 136.408 64.188L136.684 65.1C137.152 64.608 137.584 64.092 137.992 63.54ZM145.72 63.972L144.952 64.224C145.54 65.568 146.08 67.128 146.56 68.88L147.316 68.544C146.86 66.912 146.332 65.388 145.72 63.972ZM141.592 61.5H146.14C145.96 62.124 145.732 62.676 145.456 63.18L146.284 63.42C146.584 62.7 146.824 61.968 147.016 61.224V60.66H141.904C142.048 60.24 142.192 59.796 142.312 59.328L141.496 59.16C141.088 60.78 140.428 62.256 139.516 63.588L140.26 64.044C140.764 63.276 141.208 62.436 141.592 61.5ZM143.092 70.116C143.752 70.116 144.088 69.78 144.088 69.108V62.508H143.248V68.892C143.248 69.204 143.092 69.36 142.792 69.36C142.336 69.36 141.844 69.336 141.34 69.3L141.52 70.116H143.092ZM141.292 64.068C140.8 65.82 140.224 67.26 139.576 68.388L140.38 68.676C141.076 67.416 141.64 65.952 142.072 64.284L141.292 64.068ZM150.232 67.572C149.992 67.572 149.812 67.632 149.668 67.776C149.524 67.908 149.452 68.088 149.452 68.316C149.452 68.52 149.524 68.7 149.668 68.844C149.812 68.988 149.98 69.06 150.184 69.06C150.304 69.06 150.4 69.036 150.448 69.012C150.448 69.3 150.364 69.564 150.184 69.816C149.992 70.056 149.74 70.236 149.428 70.344V70.932C149.932 70.8 150.352 70.536 150.664 70.152C150.976 69.744 151.132 69.276 151.132 68.748C151.132 68.4 151.048 68.124 150.892 67.908C150.724 67.68 150.496 67.572 150.232 67.572ZM160.972 59.676V63.468H162.52V68.652C162.256 68.724 161.98 68.784 161.692 68.856V64.476H160.972V69.012L160.444 69.12L160.684 69.948C162.172 69.624 163.468 69.264 164.596 68.88V68.04C164.188 68.184 163.756 68.316 163.312 68.436V66.156H164.548V65.364H163.312V63.468H164.308V59.676H160.972ZM163.492 62.676H161.788V60.456H163.492V62.676ZM166.084 67.788H169.756V68.904H166.084V67.788ZM169.756 69.708V70.224H170.596V65.04H165.244V70.224H166.084V69.708H169.756ZM169.756 67.044H166.084V65.82H169.756V67.044ZM167.56 64.5C168.172 64.5 168.484 64.176 168.484 63.528V61.908C169.048 63.012 169.924 63.984 171.112 64.848L171.604 64.14C170.788 63.66 170.116 63.084 169.564 62.388C170.236 61.908 170.896 61.32 171.532 60.624L170.884 60.132C170.368 60.756 169.792 61.308 169.144 61.8C168.88 61.392 168.664 60.96 168.484 60.504V59.22H167.668V63.312C167.668 63.624 167.536 63.78 167.284 63.78C167.008 63.78 166.72 63.756 166.42 63.72L166.6 64.5H167.56ZM164.704 60.636V61.38H166.276C165.88 62.592 165.16 63.528 164.128 64.188L164.608 64.848C165.856 64.02 166.696 62.82 167.116 61.248V60.636H164.704ZM173.44 59.388L172.852 59.952C173.692 60.624 174.352 61.26 174.832 61.86L175.432 61.26C174.892 60.636 174.232 60.012 173.44 59.388ZM180.508 69.996H183.256L183.46 69.156C183.148 69.18 182.692 69.192 182.116 69.204C181.528 69.204 180.952 69.216 180.388 69.216C179.452 69.216 178.66 69.204 178.024 69.192C177.304 69.168 176.764 69.084 176.392 68.928C176.056 68.76 175.744 68.496 175.456 68.16C175.36 68.052 175.264 67.968 175.168 67.896V63.36H172.648V64.152H174.34V67.836C173.86 68.052 173.308 68.652 172.684 69.636L173.332 70.224C173.98 69.144 174.448 68.604 174.736 68.604C174.88 68.604 175.036 68.7 175.204 68.904C175.576 69.336 175.996 69.624 176.476 69.768C176.956 69.888 177.592 69.96 178.36 69.972C179.128 69.984 179.848 69.996 180.508 69.996ZM182.212 68.508C182.704 68.508 182.956 68.256 182.956 67.752V63.816H177.364V68.508H178.096V66.492H179.056V68.376H179.728V66.492H180.616V68.376H181.288V66.492H182.224V67.596C182.224 67.764 182.14 67.848 181.972 67.848L181.492 67.812L181.684 68.508H182.212ZM178.096 65.796V64.536H179.056V65.796H178.096ZM179.728 64.536H180.616V65.796H179.728V64.536ZM181.288 64.536H182.224V65.796H181.288V64.536ZM182.212 61.032V62.208H177.34V61.032H182.212ZM177.328 62.916H182.98V60.288H180.244C180.124 59.856 179.992 59.484 179.872 59.148L178.972 59.292C179.14 59.592 179.284 59.928 179.404 60.288H176.548V62.628C176.536 64.632 176.2 66.276 175.528 67.548L176.128 68.088C176.884 66.648 177.28 64.92 177.328 62.916ZM17.284 75.976V76.732H21.172C21.076 77.044 20.968 77.356 20.86 77.668H17.872V78.424H20.536C20.38 78.748 20.212 79.06 20.032 79.36H16.888V80.128H19.492C18.676 81.148 17.656 81.892 16.42 82.372L16.852 83.092C17.596 82.78 18.292 82.372 18.916 81.868V86.248H19.768V85.732H24.304V86.224H25.156V81.676C25.708 82.192 26.392 82.648 27.232 83.044L27.604 82.276C26.32 81.748 25.372 81.028 24.772 80.128H27.112V79.36H20.992C21.16 79.06 21.316 78.748 21.46 78.424H26.164V77.668H21.76C21.868 77.38 21.976 77.068 22.072 76.732H26.716V75.976H22.276C22.336 75.712 22.396 75.448 22.444 75.184L21.556 75.1L21.376 75.976H17.284ZM24.616 81.124H19.72C19.996 80.824 20.26 80.488 20.512 80.128H23.932C24.112 80.464 24.34 80.8 24.616 81.124ZM19.768 84.964V83.788H24.304V84.964H19.768ZM19.768 83.032V81.88H24.304V83.032H19.768ZM33.556 75.208V79.66H28.768V80.512H32.032V80.596C32.008 81.832 31.744 82.84 31.264 83.608C30.736 84.352 29.824 84.94 28.504 85.396L28.996 86.164C30.352 85.696 31.336 85.048 31.936 84.208C32.548 83.296 32.872 82.096 32.908 80.596V80.512H34.936V84.712C34.936 85.492 35.296 85.888 36.04 85.888H37.912C38.392 85.888 38.74 85.768 38.956 85.528C39.196 85.264 39.364 84.496 39.448 83.224L38.62 82.96C38.572 83.992 38.476 84.604 38.332 84.82C38.212 84.988 38.02 85.072 37.756 85.072H36.304C35.968 85.072 35.8 84.892 35.8 84.532V80.512H39.244V79.66H34.444V75.208H33.556ZM37.54 75.784C37.144 76.72 36.616 77.68 35.956 78.64L36.736 79.036C37.396 78.112 37.936 77.152 38.344 76.168L37.54 75.784ZM30.496 75.892L29.68 76.276C30.268 77.092 30.832 78.004 31.36 79.036L32.164 78.64C31.636 77.644 31.084 76.732 30.496 75.892ZM50.584 81.844C50.032 82.42 49.444 82.864 48.832 83.152C48.424 82.552 48.148 81.892 47.98 81.172H50.404V76.24H47.692C47.512 75.832 47.32 75.46 47.128 75.148L46.264 75.292C46.468 75.58 46.66 75.892 46.828 76.24H44.464V84.964C44.464 85.144 44.308 85.276 44.008 85.348L44.2 86.128C45.7 85.84 46.948 85.54 47.932 85.228L47.74 84.448C46.924 84.736 46.108 84.976 45.292 85.168V81.172H47.176C47.62 83.296 48.904 84.964 51.028 86.164L51.496 85.432C50.608 84.964 49.876 84.412 49.312 83.764C50.008 83.452 50.62 82.996 51.16 82.42L50.584 81.844ZM41.56 75.376L40.948 75.976C41.896 76.624 42.64 77.224 43.18 77.8L43.792 77.176C43.192 76.576 42.448 75.976 41.56 75.376ZM41.26 78.196L40.648 78.784C41.548 79.432 42.256 80.044 42.76 80.62L43.372 80.008C42.808 79.408 42.1 78.796 41.26 78.196ZM42.952 81.532C42.364 82.948 41.68 84.34 40.9 85.696L41.764 86.068C42.484 84.748 43.132 83.344 43.72 81.844L42.952 81.532ZM45.292 79.096H49.564V80.392H45.292V79.096ZM49.564 78.352H45.292V77.032H49.564V78.352ZM53.404 75.34L52.828 75.892C53.716 76.492 54.412 77.068 54.916 77.608L55.516 77.008C54.94 76.456 54.244 75.892 53.404 75.34ZM53.164 78.292L52.588 78.844C53.428 79.444 54.076 80.008 54.556 80.536L55.156 79.936C54.616 79.384 53.956 78.844 53.164 78.292ZM54.472 81.664C53.992 83.032 53.416 84.364 52.744 85.66L53.536 86.02C54.16 84.748 54.736 83.392 55.24 81.952L54.472 81.664ZM56.572 75.532V78.772H62.2V75.532H56.572ZM61.372 78.124H57.424V77.476H61.372V78.124ZM57.424 76.864V76.18H61.372V76.864H57.424ZM55.852 79.36V81.772H62.908V79.36H55.852ZM62.116 81.112H60.748V80.008H62.116V81.112ZM60.004 81.112H58.756V80.008H60.004V81.112ZM58.012 81.112H56.632V80.008H58.012V81.112ZM56.5 83.152C57.04 83.728 57.724 84.244 58.564 84.688C57.604 85.024 56.524 85.264 55.3 85.42L55.672 86.176C57.136 85.96 58.432 85.612 59.536 85.144C60.52 85.552 61.696 85.888 63.052 86.128L63.544 85.408C62.392 85.228 61.36 84.988 60.448 84.7C61.276 84.244 61.984 83.704 62.572 83.056V82.408H55.852V83.152H56.5ZM59.452 84.34C58.636 84.004 57.964 83.608 57.412 83.152H61.372C60.82 83.608 60.184 84.004 59.452 84.34ZM75.076 77.512L72.496 78.304V75.196H71.656V78.568L69.904 79.108V76.42H69.064V79.372L68.056 79.684V80.524L69.064 80.212V84.784C69.064 85.576 69.46 85.984 70.264 85.984H74.056C74.5 85.984 74.824 85.864 75.028 85.636C75.268 85.372 75.424 84.64 75.508 83.428L74.704 83.176C74.656 84.148 74.56 84.736 74.428 84.928C74.332 85.084 74.152 85.168 73.9 85.168H70.528C70.108 85.168 69.904 84.976 69.904 84.616V79.96L71.656 79.432V83.716H72.496V79.18L74.248 78.652C74.236 80.284 74.2 81.232 74.14 81.484C74.068 81.748 73.864 81.88 73.54 81.88C73.396 81.88 73.228 81.868 73.048 81.856L73.288 82.708H73.36C74.26 82.708 74.776 82.444 74.896 81.94C75.016 81.412 75.076 79.936 75.076 77.512ZM68.212 82.612C67.756 82.828 67.276 83.032 66.796 83.212V79.228H68.044V78.388H66.796V75.292H65.944V78.388H64.576V79.228H65.944V83.5C65.44 83.644 64.936 83.776 64.432 83.884L64.648 84.748C65.92 84.412 67.108 83.98 68.212 83.464V82.612ZM78.232 83.572C77.992 83.572 77.812 83.632 77.668 83.776C77.524 83.908 77.452 84.088 77.452 84.316C77.452 84.52 77.524 84.7 77.668 84.844C77.812 84.988 77.98 85.06 78.184 85.06C78.304 85.06 78.4 85.036 78.448 85.012C78.448 85.3 78.364 85.564 78.184 85.816C77.992 86.056 77.74 86.236 77.428 86.344V86.932C77.932 86.8 78.352 86.536 78.664 86.152C78.976 85.744 79.132 85.276 79.132 84.748C79.132 84.4 79.048 84.124 78.892 83.908C78.724 83.68 78.496 83.572 78.232 83.572ZM89.536 77.824L88.912 78.424C89.776 79.444 90.556 80.44 91.252 81.412C90.604 82.852 89.692 84.1 88.516 85.132L89.104 85.804C90.256 84.796 91.156 83.608 91.828 82.252C92.284 82.948 92.704 83.62 93.064 84.292L93.724 83.62C93.268 82.852 92.776 82.072 92.236 81.304C92.776 79.9 93.088 78.328 93.184 76.576V75.916H88.852V76.744H92.356C92.26 78.064 92.008 79.3 91.624 80.452C90.976 79.576 90.28 78.7 89.536 77.824ZM93.928 75.916V76.744H94.324C94.432 78.604 94.96 80.404 95.908 82.156C95.14 83.284 94.18 84.364 93.028 85.384L93.616 86.104C94.696 85.108 95.62 84.064 96.388 82.972C97.036 84.028 97.876 85.072 98.884 86.104L99.484 85.396C98.428 84.352 97.576 83.284 96.904 82.18C97.948 80.452 98.596 78.628 98.86 76.684V75.916H93.928ZM95.104 76.744H98.044C97.78 78.364 97.24 79.9 96.424 81.34C95.644 79.852 95.2 78.328 95.104 76.744ZM107.644 80.764C108.028 83.02 109.168 84.796 111.052 86.08L111.532 85.324C110.704 84.796 110.032 84.16 109.504 83.416C110.152 83.068 110.728 82.564 111.232 81.904L110.704 81.376C110.2 82.012 109.672 82.48 109.12 82.792C108.784 82.18 108.556 81.508 108.424 80.764H110.536V75.676H105.508V84.952C105.508 85.108 105.412 85.228 105.244 85.3L105.424 85.984C106.66 85.66 107.68 85.324 108.496 84.976L108.304 84.22C107.656 84.508 107.008 84.736 106.348 84.916V80.764H107.644ZM104.428 75.844H100.948V85.66H101.776V84.472H103.588V85.384H104.428V75.844ZM101.776 83.656V81.844H103.588V83.656H101.776ZM101.776 81.064V79.252H103.588V81.064H101.776ZM101.776 78.46V76.66H103.588V78.46H101.776ZM106.348 78.64H109.696V79.996H106.348V78.64ZM109.696 77.872H106.348V76.468H109.696V77.872ZM114.208 79.012C113.872 80.524 113.32 81.904 112.552 83.152L113.32 83.644C114.064 82.396 114.652 80.92 115.06 79.192L114.208 79.012ZM121.528 78.976L120.7 79.252C121.384 80.548 122.008 82.048 122.572 83.74L123.4 83.38C122.86 81.82 122.236 80.356 121.528 78.976ZM117.88 75.22L116.932 75.376C117.172 75.784 117.4 76.24 117.604 76.744H112.852V77.584H116.248V79.432C116.224 82.264 115.336 84.328 113.596 85.624L114.232 86.188C116.104 84.772 117.052 82.516 117.1 79.432V77.584H119.008V84.664C119.008 85.108 118.792 85.336 118.36 85.336C117.976 85.336 117.58 85.312 117.172 85.276L117.352 86.104H118.66C119.464 86.104 119.872 85.696 119.872 84.88V77.584H123.172V76.744H118.528C118.312 76.168 118.096 75.664 117.88 75.22ZM124.996 75.676V86.116H125.8V76.444H127.216C127.036 77.392 126.772 78.448 126.436 79.612C126.976 80.548 127.252 81.4 127.252 82.144C127.252 82.408 127.204 82.588 127.132 82.696C127.036 82.792 126.904 82.852 126.724 82.876C126.556 82.876 126.34 82.864 126.088 82.84L126.34 83.644C127.012 83.632 127.48 83.488 127.756 83.212C127.948 83.008 128.044 82.648 128.044 82.144C128.008 81.4 127.732 80.512 127.216 79.492C127.528 78.388 127.792 77.332 128.008 76.324V75.676H124.996ZM128.896 75.892L128.26 76.288C128.716 76.984 129.076 77.632 129.352 78.232L129.988 77.776C129.736 77.248 129.376 76.612 128.896 75.892ZM133.156 85.204C132.736 85.204 132.316 85.192 131.896 85.18C131.452 85.156 131.068 85.072 130.756 84.94C130.396 84.76 130.108 84.52 129.892 84.22C129.868 84.196 129.832 84.16 129.808 84.124V79.228H127.984V79.996H129.004V84.004C128.584 84.196 128.08 84.712 127.48 85.528L127.996 86.176C128.668 85.216 129.124 84.748 129.364 84.748C129.472 84.748 129.604 84.832 129.748 85.012C130.012 85.348 130.336 85.6 130.72 85.756C131.104 85.888 131.56 85.96 132.076 85.972C132.412 85.984 132.76 85.996 133.096 85.996H135.268L135.484 85.18C134.752 85.192 133.972 85.204 133.156 85.204ZM130.276 76.348V77.14H131.74C131.356 78.472 130.768 79.564 129.976 80.416L130.42 80.992C130.732 80.704 131.02 80.356 131.296 79.96V84.496H132.04V82.468H134.176V83.38C134.176 83.632 134.068 83.764 133.864 83.764C133.6 83.764 133.336 83.74 133.048 83.716L133.24 84.46H134.116C134.668 84.436 134.956 84.16 134.956 83.632V78.34H132.148C132.292 77.968 132.436 77.572 132.556 77.14H135.424V76.348H132.772C132.844 76.012 132.916 75.676 132.988 75.316L132.148 75.208C132.088 75.592 132.016 75.964 131.944 76.348H130.276ZM132.04 80.788H134.176V81.772H132.04V80.788ZM134.176 80.092H132.04V79.024H134.176V80.092ZM137.992 79.54V86.2H138.856V78.208C139.336 77.368 139.732 76.468 140.044 75.52L139.24 75.136C138.652 77.032 137.704 78.724 136.408 80.188L136.684 81.1C137.152 80.608 137.584 80.092 137.992 79.54ZM145.72 79.972L144.952 80.224C145.54 81.568 146.08 83.128 146.56 84.88L147.316 84.544C146.86 82.912 146.332 81.388 145.72 79.972ZM141.592 77.5H146.14C145.96 78.124 145.732 78.676 145.456 79.18L146.284 79.42C146.584 78.7 146.824 77.968 147.016 77.224V76.66H141.904C142.048 76.24 142.192 75.796 142.312 75.328L141.496 75.16C141.088 76.78 140.428 78.256 139.516 79.588L140.26 80.044C140.764 79.276 141.208 78.436 141.592 77.5ZM143.092 86.116C143.752 86.116 144.088 85.78 144.088 85.108V78.508H143.248V84.892C143.248 85.204 143.092 85.36 142.792 85.36C142.336 85.36 141.844 85.336 141.34 85.3L141.52 86.116H143.092ZM141.292 80.068C140.8 81.82 140.224 83.26 139.576 84.388L140.38 84.676C141.076 83.416 141.64 81.952 142.072 80.284L141.292 80.068ZM158.284 76.948C157.48 77.656 156.592 78.244 155.62 78.712C155.596 78.1 155.584 77.44 155.584 76.732V75.892H148.444V76.756H154.72C154.72 80.56 155.032 83.056 155.656 84.244C156.268 85.408 157.036 85.996 157.948 86.008C158.224 86.008 158.488 85.876 158.752 85.636C159.1 85.18 159.328 84.424 159.448 83.392L158.62 83.116C158.548 83.932 158.452 84.472 158.332 84.712C158.212 84.952 158.068 85.072 157.9 85.084C157.3 85.06 156.76 84.568 156.304 83.584C156.016 82.996 155.824 81.952 155.716 80.44C156.7 80.908 157.66 81.508 158.596 82.24L159.1 81.484C158.044 80.752 156.904 80.116 155.656 79.588V79.564C156.832 79.048 157.864 78.4 158.776 77.632L158.284 76.948ZM164.704 78.484V80.86H166.78C166.66 81.208 166.528 81.508 166.36 81.772C165.856 82.492 165.016 83.128 163.84 83.656L164.38 84.328C165.64 83.704 166.54 82.972 167.08 82.12C167.224 81.88 167.356 81.592 167.476 81.268V83.128C167.476 83.8 167.788 84.136 168.424 84.136H170.212C170.572 84.136 170.848 84.04 171.016 83.872C171.208 83.668 171.34 83.092 171.412 82.144L170.704 81.904C170.656 82.624 170.584 83.068 170.488 83.212C170.416 83.332 170.272 83.392 170.068 83.392H168.652C168.376 83.392 168.244 83.248 168.244 82.96V80.86H170.404V78.016H168.436C168.748 77.692 169.072 77.296 169.396 76.84V76.252H166.84C167.032 75.976 167.212 75.676 167.404 75.364L166.612 75.184C165.808 76.492 164.788 77.548 163.54 78.352L164.044 78.976C164.26 78.832 164.476 78.664 164.704 78.484ZM166.288 76.948H168.424C168.088 77.356 167.764 77.704 167.428 78.016H165.256C165.616 77.68 165.964 77.332 166.288 76.948ZM169.6 80.14H167.764C167.836 79.708 167.896 79.24 167.944 78.712H169.6V80.14ZM166.972 80.14H165.484V78.712H167.176C167.128 79.228 167.068 79.708 166.972 80.14ZM169.072 81.28L168.616 81.724C169.072 82.108 169.444 82.468 169.708 82.816L170.188 82.324C169.888 81.976 169.516 81.628 169.072 81.28ZM161.512 75.388L160.924 75.952C161.8 76.624 162.484 77.248 162.988 77.836L163.6 77.248C163.036 76.624 162.34 76.012 161.512 75.388ZM168.58 85.984H171.256L171.472 85.12C171.16 85.144 170.716 85.156 170.152 85.168C169.576 85.18 169.012 85.192 168.46 85.192C167.512 85.192 166.72 85.18 166.084 85.168C165.376 85.144 164.836 85.048 164.452 84.88C164.116 84.724 163.804 84.472 163.516 84.124C163.408 84.004 163.312 83.92 163.216 83.848V79.36H160.648V80.152H162.412V83.8C161.92 83.992 161.344 84.604 160.684 85.636L161.332 86.224C162.016 85.12 162.496 84.568 162.784 84.568C162.94 84.568 163.096 84.664 163.264 84.868C163.624 85.3 164.056 85.6 164.536 85.744C165.016 85.876 165.652 85.948 166.432 85.96C167.2 85.972 167.92 85.984 168.58 85.984Z" fill="black" fill-opacity="0.3"/>
<path d="M319.566 12.7339C318.04 10.2184 318.454 7.24304 320.564 6.01346C321.449 5.5099 322.447 5.2386 323.466 5.22503C328.386 5.1247 333.308 5.34415 338.199 5.88204C340.564 6.13546 342.909 6.21995 345.321 6.3889C346.475 6.55952 347.64 6.64112 348.806 6.63294C349.409 7.39322 349.145 8.28488 349.136 9.11085C349.059 11.4576 349.486 13.7938 350.389 15.9627C351.417 18.1736 352.965 20.1053 354.901 21.5944C355.777 22.3077 356.644 23.0398 357.595 23.6687C360.242 25.4239 361.316 27.9206 361.429 31.0274C361.467 34.0363 361.969 37.0217 362.918 39.8784C363.434 41.2721 364.11 42.6013 364.934 43.8394C367.289 47.4999 370.944 48.7483 375.004 49.227C379.532 49.651 384.099 49.3947 388.55 48.4667C388.754 48.393 388.973 48.3699 389.188 48.3993C389.403 48.4287 389.608 48.5099 389.784 48.6357V57.5524C384.081 57.6132 378.399 58.258 372.828 59.4766C368.956 60.4152 365.424 59.4766 362.004 57.7026C357.777 55.521 353.729 53.0102 349.899 50.1937C347.836 48.7014 345.358 48.5699 342.947 48.4761C339.819 48.3541 336.682 48.4761 333.527 48.4104C332.041 48.4139 330.563 48.1892 329.146 47.744C327.91 47.3478 326.827 46.5821 326.043 45.551C325.26 44.5199 324.814 43.2734 324.766 41.9809C324.793 41.2189 324.998 40.4738 325.365 39.8043C325.731 39.1348 326.248 38.5593 326.876 38.1232C327.573 37.5695 328.477 37.2785 329.005 36.5088C329.212 36.9781 329.58 36.8561 329.947 36.8279C331.482 36.7153 332.999 36.9687 334.525 37.0063C337.493 37.0908 340.469 37.0063 343.437 37.0063C338.557 36.5558 333.63 37.1565 328.751 36.4337C326.17 35.9721 323.728 34.9322 321.61 33.3926C319.208 31.5154 319.18 28.6996 321.431 26.034C321.676 25.7336 321.94 25.4426 322.194 25.1517C322.317 25.053 322.47 24.9999 322.627 25.0015C326.038 25.0766 329.457 24.8701 332.858 25.1047C335.684 25.3018 338.51 25.1892 341.336 25.2643H343.22C335.91 24.9827 328.59 25.039 321.29 24.6542C319.559 23.7232 318.197 22.2339 317.427 20.4305C317.014 19.3484 316.975 18.1597 317.316 17.0528C317.657 15.9459 318.359 14.9842 319.311 14.3201C319.613 14.0761 320.027 13.9635 320.084 13.4942C320.348 13.1093 320.753 13.1375 321.139 13.1469C328.035 13.3158 334.93 13.5317 341.864 13.5692C342.137 13.5692 342.4 13.6443 342.806 13.6256C340.724 13.4472 338.811 13.3252 336.89 13.344C331.671 13.3909 326.471 12.9873 321.252 13.0812C320.668 13.128 320.083 13.0075 319.566 12.7339V12.7339Z" fill="#F8ABDA"/>
<path d="M389.784 48.5979C386.98 49.1178 384.15 49.4876 381.306 49.7054C379.707 49.8619 378.096 49.8398 376.502 49.6397C375.164 49.4426 373.808 49.4051 372.451 49.1235C366.281 47.8658 363.521 43.4919 361.966 37.9822C361.156 35.1101 361.185 32.1441 360.845 29.225C360.714 28.2222 360.372 27.2582 359.841 26.3962C359.31 25.5341 358.603 24.7933 357.765 24.2222C355.915 22.9142 354.173 21.4609 352.556 19.8765C350.241 17.4145 348.902 14.1995 348.787 10.8283C348.703 9.42978 348.787 8.01247 348.787 6.61394C349.343 5.2905 349.419 3.79814 350.295 2.58733C351.604 0.766433 353.262 -0.0595456 355.184 0.325284C356.252 0.567804 357.234 1.0977 358.021 1.85731C358.808 2.61693 359.371 3.57716 359.649 4.63349C359.875 5.67535 359.743 6.73597 359.913 7.76844C360.318 10.2933 362.004 11.7951 364.227 12.7524C367.106 13.8441 370.094 14.6276 373.139 15.0896C376.087 15.6809 379.055 16.1127 382.013 16.5726C384.584 16.9762 387.175 17.2859 389.766 17.6332L389.784 48.5979Z" fill="#FBD3EA"/>
<path d="M247.049 10.3404C249.008 9.50499 251.137 11.0725 252.258 12.7432C253.702 14.9985 254.253 17.7085 253.803 20.3459C253.633 21.5661 253.963 22.8614 253.256 23.9971C252.409 25.1892 251.881 26.5595 251.071 27.7516C248.836 31.1823 246.315 34.4194 243.535 37.4286C242.706 38.4575 241.816 39.4355 240.869 40.357C242.97 38.217 244.948 35.9737 246.851 33.6554C248.734 31.3091 250.474 28.8517 252.06 26.2967C252.456 25.6772 252.437 24.8043 253.209 24.4195C253.981 23.5598 254.616 22.5882 255.093 21.538C255.939 19.9329 256.883 18.3812 257.92 16.8918C258.121 17.2275 258.423 17.492 258.782 17.6485C259.142 17.805 259.542 17.8456 259.926 17.7647C261.81 17.5113 263.6 17.0889 264.344 14.9489C264.724 14.0952 265.188 13.2809 265.729 12.5179C266.209 11.692 266.727 11.7013 267.227 12.5179C267.686 13.1493 268.047 13.8453 268.301 14.5829C268.303 14.1427 268.467 13.7187 268.762 13.3908C269.393 14.9301 268.904 16.4882 268.649 17.9712C267.807 22.646 266.247 27.1636 264.024 31.3652C263.845 31.7031 263.967 32.1724 263.553 32.3883C258.975 34.9601 254.133 37.0813 249.818 39.5217C253.841 37.4474 258.098 35.2322 262.413 33.1298C262.837 32.9233 263.054 32.4352 263.562 32.3789C263.675 32.9796 264.043 32.8012 264.448 32.7168C266.522 32.3588 268.632 32.258 270.731 32.4164C273.425 32.5103 275.064 34.3687 276.619 36.1709C277.239 36.6954 277.753 37.3324 278.135 38.0481C276.251 39.7188 276.374 41.6993 277.193 43.8111C277.757 45.4775 278.672 47.0042 279.878 48.2883C279.96 48.3647 280.024 48.4575 280.067 48.5605C278.858 49.2135 277.451 49.4051 276.111 49.0993C274.77 48.7935 273.588 48.0113 272.785 46.8991C269.582 42.8631 263.996 44.3649 261.283 48.1756C260.223 49.6311 259.509 51.3078 259.196 53.0787C258.882 54.8495 258.978 56.6682 259.474 58.3971C259.963 60.0813 261.088 61.5112 262.613 62.3863C264.137 63.2614 265.943 63.5137 267.651 63.0901C269.332 62.8589 270.876 62.0367 272.003 60.7718C272.517 60.0349 272.781 59.1534 272.756 58.2563C272.888 55.6188 273.821 53.3943 276.317 52.1084C276.738 51.875 277.211 51.7525 277.693 51.7525C278.174 51.7525 278.647 51.875 279.068 52.1084C279.454 55.478 279.341 59.0823 283.298 60.7061C283.439 63.6251 282.101 65.981 280.302 68.1023C277.193 71.7347 273.708 74.9635 270.26 78.3144C266.812 81.6652 263.591 84.6969 260.237 87.8506C256.419 91.4486 252.594 95.0278 248.763 98.5883C246.7 100.466 244.599 102.343 242.574 104.323C241.914 104.961 241.5 104.868 240.935 104.267C240.143 103.403 239.286 102.596 238.448 101.77C233.248 96.6735 228.086 91.5112 222.829 86.499C219.174 83.0262 215.632 79.4407 212.015 75.9303C211.485 75.4131 210.925 74.9274 210.338 74.4755C209.603 73.9029 209.584 73.3773 210.149 72.5982C213.239 68.4402 216.291 64.2446 219.344 60.0584C223.422 54.4925 227.464 48.8984 231.59 43.3512C232.532 42.1029 233.596 40.9765 233.888 39.3809C238.109 33.3363 241.849 27.0663 242.97 19.6044C242.986 19.2941 243.114 19.0002 243.331 18.7762C243.547 18.5522 243.837 18.4131 244.147 18.3842C246.436 17.9149 246.738 17.4926 247.039 15.1273C247.251 13.6223 247.289 12.098 247.152 10.5844C247.112 10.5056 247.077 10.424 247.049 10.3404V10.3404Z" fill="#D4C2EC"/>
<path d="M307.367 14.6017C307.451 15.3998 307.377 16.2065 307.15 16.9764C306.679 16.8074 306.434 17.211 306.142 17.4363C301.622 20.7812 296.407 23.0744 290.881 24.1474C290.458 24.2229 290.061 24.4001 289.722 24.6636C288.509 23.1766 287.744 21.3765 287.518 19.4731C287.012 16.415 287.337 13.2777 288.46 10.3874C288.617 9.94566 288.871 9.54468 289.204 9.21411C290.466 10.3744 291.831 11.4175 293.283 12.3303C297.139 14.3897 301.508 15.2989 305.869 14.949C306.425 14.9208 306.83 14.4985 307.367 14.6017Z" fill="#F56E89"/>
<path d="M234.369 38.0386C234.774 35.2791 235.188 32.529 235.575 29.7695C235.961 27.0099 236.338 24.0815 236.517 21.2187C236.559 21.0355 236.632 20.8609 236.733 20.7025C237.023 20.7331 237.313 20.6532 237.545 20.479C237.778 20.3049 237.935 20.0493 237.986 19.7639C238.468 18.336 238.607 16.8153 238.391 15.3243C239.107 15.0138 239.908 14.9601 240.659 15.1723C241.409 15.3846 242.063 15.8496 242.508 16.4882C242.706 16.7322 242.8 17.239 243.252 17.0889C243.704 16.9387 243.733 16.5445 243.827 16.1502C244.373 13.9445 245.174 11.8608 247.058 10.3872L247.133 10.4623C247.476 12.6888 247.292 14.9644 246.596 17.1076C246.405 17.591 246.046 17.9901 245.584 18.2328C245.123 18.4756 244.59 18.5458 244.081 18.4311C243.346 18.3372 243.073 18.5719 242.988 19.2289C242.159 25.7991 239.333 31.5904 235.556 36.9498C235.236 37.3346 235.151 38.0667 234.369 38.0386Z" fill="#D4C2EC"/>
<path d="M307.367 14.6016C307.215 14.8027 307.023 14.9694 306.802 15.0908C306.581 15.2121 306.337 15.2853 306.085 15.3056C301.984 15.63 297.869 14.8894 294.14 13.1561C292.537 12.4279 291.078 11.4167 289.835 10.1714C289.581 9.8898 289.242 9.65515 289.242 9.23278C289.899 8.39423 290.811 7.79135 291.842 7.51514C295.82 6.16085 300.164 6.34509 304.013 8.03136C306.98 9.27032 307.442 11.8046 307.367 14.6016Z" fill="#F0445F"/>
<path d="M289.713 24.6635C289.572 24.2036 289.666 24.044 290.212 23.9502C294.593 23.1484 298.802 21.6023 302.656 19.3791C303.998 18.5803 305.282 17.6896 306.5 16.7135C307.027 16.3099 307.112 16.4319 307.14 16.9763C306.868 19.5698 305.769 22.0082 304.004 23.9338C302.239 25.8594 299.902 27.1711 297.334 27.6764C297.037 27.7468 296.744 27.8345 296.458 27.9392C296.077 28.0754 295.661 28.0754 295.28 27.9392C293.27 27.6108 291.429 26.6192 290.052 25.1234C289.939 24.9826 289.835 24.8231 289.713 24.6635Z" fill="#F04460"/>
<path d="M315.628 31.9472C315.845 32.3414 315.449 32.4916 315.28 32.6699C311.059 37.0438 306.236 40.4791 300.207 41.9715C297.696 42.6225 295.073 42.7217 292.52 42.2625C292.2 41.6055 292.728 41.3239 293.133 41.0986C296.369 39.0546 299.78 37.2989 303.325 35.8518C306.594 34.472 309.92 33.2988 313.339 32.2382C314.067 31.9566 314.853 31.8567 315.628 31.9472Z" fill="#5A9A7F"/>
<path d="M315.628 31.9471C312.001 32.8853 308.439 34.058 304.964 35.4575C300.839 37.07 296.872 39.0589 293.114 41.3988C292.954 41.4741 292.816 41.5901 292.715 41.7351C292.614 41.8801 292.554 42.049 292.539 42.2248L291.851 42.2718C291.762 42.1936 291.704 42.0851 291.69 41.9671C291.676 41.8491 291.707 41.7302 291.776 41.6335C292.36 40.5822 293.029 39.5873 293.66 38.5549C293.717 38.4516 293.858 38.461 293.98 38.4985C294.668 38.4985 294.838 37.8697 295.186 37.4943C297.72 34.8004 300.537 32.5102 304.286 31.8626C307.595 31.2274 310.984 31.1165 314.328 31.5341C314.794 31.5332 315.249 31.6776 315.628 31.9471V31.9471Z" fill="#71BA9B"/>
<path d="M293.961 38.5362C293.258 39.7877 292.555 41.0391 291.851 42.2906C289.141 46.0683 285.273 48.8678 280.83 50.2688C275.852 51.9769 270.567 52.6166 265.324 52.146H265.088C264.655 52.0897 264.146 52.0521 264.146 51.4702C264.146 50.8883 264.711 50.9352 265.088 50.9633C267.121 51.0994 269.16 51.0994 271.193 50.9633C275.904 50.7594 280.504 49.4746 284.635 47.2089C288.992 44.7079 292.225 40.6413 293.669 35.8424C294.472 33.2711 294.996 30.6217 295.233 27.9393C295.408 27.825 295.613 27.7642 295.822 27.7642C296.031 27.7642 296.236 27.825 296.411 27.9393C296.245 31.5902 295.415 35.1809 293.961 38.5362V38.5362Z" fill="#5C977F"/>
<path d="M278.333 38.3391C279.473 39.8399 280.448 41.4571 281.244 43.1635C281.706 44.0723 281.842 45.1106 281.632 46.1071C281.421 47.1037 280.876 47.9989 280.086 48.645L279.991 48.5605C278.343 46.7337 277.223 44.4954 276.751 42.0841C276.521 41.3745 276.555 40.6064 276.845 39.9193C277.136 39.2321 277.664 38.6715 278.333 38.3391V38.3391Z" fill="#D4C2EC"/>
<path d="M258.165 16.2535C259.389 14.4701 260.162 12.3676 261.801 10.9034C262.353 10.3889 263.027 10.0225 263.761 9.83865C264.494 9.65478 265.262 9.65944 265.993 9.85217C265.955 9.96466 265.898 10.0695 265.823 10.1619C265.234 10.9793 264.747 11.8649 264.373 12.7994C263.91 13.7427 263.351 14.636 262.705 15.4651C262.462 15.8179 262.151 16.1188 261.79 16.35C261.428 16.5813 261.024 16.7382 260.601 16.8117C260.178 16.8852 259.745 16.8736 259.326 16.7778C258.908 16.6819 258.513 16.5036 258.165 16.2535V16.2535Z" fill="#D3C2EC"/>
<path d="M319.566 12.7338C321.312 12.6024 323.066 12.6024 324.813 12.7338C330.757 12.837 336.711 12.9966 342.655 13.128C342.891 13.128 343.126 13.128 343.362 13.1749C343.597 13.2218 343.823 13.3157 343.814 13.6067C343.813 13.6663 343.799 13.725 343.775 13.7793C343.75 13.8337 343.715 13.8825 343.671 13.9228C343.627 13.9632 343.575 13.9942 343.519 14.0141C343.462 14.034 343.402 14.0422 343.343 14.0384C342.721 14.0384 342.09 14.0384 341.459 13.9821L320.093 13.494C319.947 13.4234 319.822 13.3163 319.729 13.1831C319.637 13.0499 319.581 12.8951 319.566 12.7338V12.7338Z" fill="#46348B"/>
<path d="M234.369 38.0386C238.844 31.9658 242.16 25.4143 242.847 17.7647C245.306 18.5531 246.37 17.9336 246.719 15.4276C246.945 13.7662 246.992 12.0861 247.115 10.4154C247.708 10.3591 247.595 10.7908 247.595 11.1193C247.633 12.7999 247.519 14.4805 247.256 16.1409C246.973 17.8304 246.107 18.5907 244.279 18.7408C243.704 18.7878 243.337 18.8441 243.262 19.5387C242.376 25.9587 239.597 31.5998 235.989 36.8935L234.265 39.409C234.171 39.5404 234.039 39.6249 233.879 39.4653L234.369 38.0386Z" fill="#3F378D"/>
<path d="M321.318 24.6446C321.657 24.241 322.119 24.4006 322.524 24.41L343.333 24.8511H343.804C344.115 24.8511 344.511 24.8511 344.52 25.2735C344.529 25.6959 344.106 25.7522 343.738 25.7428L330.814 25.4424C328.496 25.3861 326.188 25.358 323.871 25.3298C323.323 25.3555 322.774 25.2856 322.25 25.1233L321.318 24.6446Z" fill="#43318A"/>
<path d="M268.753 13.419L268.451 15.5778C268.032 14.5632 267.531 13.5839 266.954 12.6494C266.624 11.9454 266.228 12.0675 266.012 12.6494C265.531 13.879 264.448 14.7988 264.259 16.1598C264.243 16.2965 264.194 16.4272 264.115 16.5401C264.036 16.6531 263.93 16.7449 263.807 16.8074C262.215 17.6146 260.642 18.4781 258.739 18.1496C257.995 18.0182 257.967 17.502 257.91 16.9482C257.91 16.8543 257.957 16.7605 257.976 16.676C258.142 16.6191 258.317 16.5957 258.491 16.6069C258.666 16.6182 258.837 16.664 258.994 16.7417C259.607 16.9558 260.272 16.9732 260.895 16.7914C261.518 16.6095 262.069 16.2377 262.47 15.728C263.464 14.5754 264.28 13.2815 264.891 11.8891C265.145 11.1913 265.494 10.5313 265.927 9.92741L265.993 9.87109C267.66 10.4624 268.244 11.9173 268.753 13.419Z" fill="#D3C2EC"/>
<path d="M328.807 36.3962C330.069 35.9644 331.351 36.3117 332.622 36.3211C336.221 36.3774 339.829 36.4713 343.427 36.5464C343.738 36.5464 344.059 36.5464 344.369 36.6214C344.418 36.6226 344.467 36.6336 344.512 36.6537C344.556 36.6738 344.597 36.7027 344.63 36.7386C344.663 36.7744 344.689 36.8166 344.706 36.8626C344.723 36.9086 344.73 36.9574 344.727 37.0063C344.719 37.107 344.674 37.2012 344.601 37.2718C344.529 37.3424 344.433 37.3847 344.332 37.3911C343.98 37.41 343.628 37.41 343.277 37.3911C338.859 37.2972 334.431 37.1846 330.003 37.1189C329.419 37.1189 329.156 36.9124 329.061 36.4056L328.948 36.3586L328.807 36.3962Z" fill="#412F89"/>
<path d="M253.191 24.4571C251.58 28.3148 248.951 31.506 246.38 34.7818C244.702 36.8397 242.919 38.8103 241.038 40.6856C240.822 40.9109 240.549 41.4084 240.209 41.0423C239.87 40.6763 240.388 40.4416 240.596 40.2257C244.733 36.1263 248.375 31.5587 251.448 26.6159C251.966 25.7524 252.39 24.8419 252.908 23.9502C253.153 23.4903 253.181 23.8564 253.256 24.0441L253.191 24.4571Z" fill="#41398F"/>
<path d="M279.351 52.3994C281.642 54.3789 283.079 57.1625 283.364 60.1711C282.695 60.5935 282.158 60.2274 281.668 59.852C281.002 59.3032 280.5 58.5823 280.217 57.7683C279.748 56.3741 279.386 54.9464 279.134 53.4976C279.072 53.3115 279.059 53.1125 279.097 52.9201C279.135 52.7276 279.222 52.5482 279.351 52.3994V52.3994Z" fill="#D3C3ED"/>
<path d="M278.333 38.3391C276.449 40.0567 276.854 42.0372 277.636 44.0927C278.123 45.318 278.756 46.4808 279.52 47.5562C279.728 47.8659 280.123 48.0912 279.982 48.5605C279.549 48.7201 279.36 48.4103 279.143 48.1287C277.774 46.3636 276.829 44.3083 276.383 42.1217C275.988 40.1506 276.638 38.752 278.117 38.1326L278.333 38.3391Z" fill="#483E92"/>
<path d="M265.927 9.90863C265.312 12.3616 264.028 14.5969 262.215 16.3663C260.925 17.5489 259.446 17.4081 257.976 16.6572L258.164 16.2536C261.235 16.7417 261.989 16.385 263.591 13.588C264.137 12.6494 264.533 11.6357 265.06 10.6689C265.22 10.3028 265.314 9.78662 265.927 9.90863Z" fill="#473E92"/>
<path d="M279.351 52.3993C279.498 54.3327 279.943 56.2322 280.67 58.0309C280.848 58.6153 281.202 59.1311 281.684 59.5088C282.165 59.8864 282.752 60.1077 283.364 60.1428V60.7998C282.714 60.8046 282.077 60.6172 281.533 60.2614C280.99 59.9055 280.565 59.3972 280.312 58.8006C279.47 56.8742 278.921 54.8339 278.682 52.7466C278.616 52.3805 278.682 52.1177 279.134 52.2022L279.351 52.3993Z" fill="#494094"/>
<path d="M238.382 15.2869C238.778 15.2869 238.938 15.4464 238.9 15.85C238.82 17.2099 238.621 18.5604 238.306 19.886C238.223 20.1488 238.083 20.3902 237.896 20.593C237.709 20.7957 237.479 20.9549 237.223 21.0593C236.856 21.2376 236.733 21.0593 236.724 20.7026C237.581 19.6045 237.609 18.2622 237.779 16.9482C237.763 16.4479 237.897 15.9543 238.165 15.5309L238.382 15.2869Z" fill="#4A4195"/>
<path d="M238.165 15.5496C238.2 16.7918 238.083 18.0337 237.817 19.2477C237.757 19.5555 237.627 19.8456 237.438 20.096C237.248 20.3465 237.004 20.5507 236.724 20.6931C237.138 19.3603 236.724 17.8773 237.346 16.6008C237.543 16.1597 237.694 15.7467 238.165 15.5496Z" fill="#CDC2E9"/>
<path d="M263.553 32.4069C263.255 32.9079 262.811 33.3071 262.281 33.552C258.193 35.6076 254.114 37.6913 250.035 39.7656C249.932 39.8233 249.825 39.8735 249.714 39.9158C249.366 40.0096 248.914 40.5165 248.688 40.0566C248.462 39.5966 249.13 39.5216 249.432 39.362C253.954 37.0405 258.485 34.7284 263.025 32.4257C263.204 32.3318 263.364 32.2192 263.543 32.4257L263.553 32.4069Z" fill="#443A8F"/>
<path d="M292.049 9.55186C292.38 9.47963 292.723 9.4862 293.05 9.57102C293.377 9.65584 293.68 9.81651 293.933 10.04C296.477 11.505 299.314 12.3928 302.242 12.6399C303.023 12.6822 303.805 12.5836 304.55 12.3489C305.219 12.18 305.492 11.6919 304.776 11.232C303.124 10.1042 301.212 9.41306 299.218 9.22334C298.399 9.22334 297.541 8.6508 296.703 9.38291C297.296 10.1338 298.238 10.0493 299.001 10.3215C299.764 10.5937 300.81 10.8284 301.714 11.0818C301.893 11.1287 302.11 11.2132 302.044 11.4666C301.978 11.7201 301.78 11.7201 301.573 11.6731C299.967 11.3752 298.391 10.9355 296.863 10.3591C296.383 10.1338 295.799 9.8053 295.921 9.15766C296.043 8.51002 296.684 8.51001 297.259 8.47246C299.574 8.39614 301.871 8.91323 303.928 9.97424C304.415 10.2117 304.857 10.529 305.238 10.9129C306.114 11.7576 305.897 12.5742 304.729 12.8839C303.018 13.3276 301.221 13.3276 299.51 12.8839C297.227 12.3133 295.029 11.4454 292.972 10.3028C292.642 10.0814 292.333 9.83003 292.049 9.55186V9.55186Z" fill="#F56888"/>
<path fill-rule="evenodd" clip-rule="evenodd" d="M209.895 72.8686C203.451 77.228 168.5 111.079 168.5 111.079C168.5 111.079 211.566 111.079 228.863 111.079H235.909C236.723 111.059 239.062 108.532 241.835 105.536C244.558 102.594 247.699 99.2 250.228 97.2809C255.344 93.3991 216.339 68.5091 209.895 72.8686Z" fill="#D5C3ED"/>
<path d="M16.84 4.432V13H18.148V6.88H18.196L20.824 13H21.952L24.58 6.88H24.628V13H25.936V4.432H24.388L21.412 11.296H21.376L18.388 4.432H16.84ZM30.8973 6.628C30.1293 6.628 29.5053 6.76 29.0493 7.048C28.5213 7.36 28.1853 7.864 28.0533 8.536L29.3133 8.644C29.3853 8.296 29.5653 8.044 29.8533 7.876C30.0933 7.732 30.4173 7.66 30.8133 7.66C31.7493 7.66 32.2173 8.092 32.2173 8.956V9.208L30.8253 9.244C29.9133 9.268 29.1933 9.448 28.6893 9.808C28.1373 10.18 27.8613 10.72 27.8613 11.416C27.8613 11.932 28.0533 12.352 28.4493 12.676C28.8093 13 29.3133 13.168 29.9613 13.168C30.5133 13.168 30.9933 13.06 31.4013 12.868C31.7613 12.688 32.0613 12.436 32.3013 12.124V13H33.4773V9.04C33.4773 8.284 33.2853 7.708 32.9133 7.312C32.4813 6.856 31.8093 6.628 30.8973 6.628ZM32.2173 10.132V10.492C32.2173 10.972 32.0133 11.38 31.6293 11.704C31.2453 12.028 30.7893 12.196 30.2493 12.196C29.9253 12.196 29.6613 12.112 29.4693 11.956C29.2653 11.8 29.1693 11.608 29.1693 11.368C29.1693 10.6 29.7453 10.192 30.9093 10.168L32.2173 10.132ZM37.4173 4.792L36.1453 5.32V6.796H34.9933V7.852H36.1453V11.452C36.1453 11.944 36.2533 12.316 36.4933 12.58C36.7333 12.856 37.1293 13 37.6573 13H38.6773V11.944H37.8613C37.7053 11.944 37.5973 11.896 37.5253 11.824C37.4533 11.74 37.4173 11.62 37.4173 11.452V7.852H38.8333V6.796H37.4173V4.792ZM43.2175 6.628C42.2575 6.628 41.5135 6.952 40.9735 7.6C40.4695 8.2 40.2175 8.968 40.2175 9.904C40.2175 10.864 40.4695 11.632 40.9855 12.232C41.5135 12.856 42.2455 13.168 43.1935 13.168C43.9855 13.168 44.6335 12.964 45.1135 12.568C45.5935 12.16 45.9175 11.536 46.0615 10.708H44.8015C44.6815 11.644 44.1535 12.124 43.2055 12.124C42.6535 12.124 42.2455 11.92 41.9695 11.536C41.6695 11.14 41.5255 10.588 41.5255 9.892C41.5255 9.196 41.6695 8.644 41.9815 8.26C42.2815 7.864 42.6895 7.672 43.2175 7.672C43.6495 7.672 43.9975 7.768 44.2615 7.972C44.5255 8.164 44.6935 8.476 44.7775 8.896H46.0375C45.9175 8.128 45.6055 7.552 45.1255 7.168C44.6455 6.808 44.0095 6.628 43.2175 6.628ZM47.7489 4.264V13H49.0209V9.52C49.0209 8.98 49.1529 8.536 49.4289 8.188C49.6929 7.84 50.0409 7.672 50.4729 7.672C50.9529 7.672 51.3249 7.816 51.5649 8.116C51.7809 8.404 51.9009 8.812 51.9009 9.364V13H53.1729V9.148C53.1729 8.332 52.9929 7.708 52.6329 7.288C52.2489 6.844 51.6849 6.628 50.9409 6.628C50.5449 6.628 50.1969 6.7 49.8849 6.868C49.5369 7.036 49.2489 7.312 49.0209 7.672V4.264H47.7489ZM55.3361 4.432V9.736C55.3361 10.852 55.6481 11.704 56.2721 12.304C56.8721 12.88 57.7361 13.168 58.8761 13.168C60.0041 13.168 60.8681 12.868 61.4801 12.292C62.0921 11.704 62.4041 10.852 62.4041 9.736V4.432H61.0961V9.76C61.0961 10.528 60.9161 11.092 60.5681 11.464C60.2081 11.836 59.6441 12.028 58.8761 12.028C58.0961 12.028 57.5321 11.836 57.1721 11.464C56.8121 11.092 56.6441 10.528 56.6441 9.76V4.432H55.3361ZM66.8743 6.628C66.1303 6.628 65.5183 6.784 65.0503 7.108C64.5823 7.42 64.3543 7.864 64.3543 8.428C64.3543 8.956 64.5943 9.376 65.0743 9.676C65.3623 9.868 65.8783 10.048 66.6103 10.216C67.2463 10.36 67.6663 10.48 67.8583 10.576C68.2183 10.744 68.4103 10.984 68.4103 11.284C68.4103 11.836 67.9063 12.124 66.9223 12.124C66.4423 12.124 66.1063 12.04 65.8903 11.884C65.6743 11.716 65.5183 11.416 65.4463 10.996H64.1983C64.3423 12.436 65.2543 13.168 66.9583 13.168C68.7943 13.168 69.7183 12.508 69.7183 11.2C69.7183 10.648 69.4663 10.216 68.9743 9.904C68.6383 9.688 68.1103 9.484 67.4023 9.316C66.7783 9.16 66.3703 9.04 66.1543 8.944C65.8183 8.788 65.6503 8.608 65.6503 8.392C65.6503 8.152 65.7583 7.96 65.9863 7.84C66.1783 7.72 66.4663 7.672 66.8503 7.672C67.2823 7.672 67.6183 7.744 67.8343 7.888C68.0383 8.02 68.1823 8.248 68.2783 8.584H69.5143C69.3703 7.276 68.4823 6.628 66.8743 6.628ZM76.2047 7.288V8.188H72.4847L71.9087 11.164H75.0527C74.3327 11.836 73.0847 12.46 71.3327 13.012L71.9687 14.044C73.9487 13.288 75.3647 12.4 76.2047 11.368V14.248H77.3087V11.164H80.5007C80.5007 11.644 80.4647 11.992 80.4167 12.208C80.3447 12.436 80.1407 12.556 79.8047 12.556C79.3127 12.556 78.7847 12.532 78.2207 12.508L78.4967 13.588C78.9767 13.6 79.4807 13.612 79.9847 13.612C80.7047 13.6 81.1607 13.396 81.3647 12.988C81.5567 12.592 81.6647 11.656 81.6647 10.192H77.3087V9.22H81.2327V6.244H72.2567V7.288H76.2047ZM76.2047 9.22V10.192H73.2527L73.4927 9.22H76.2047ZM77.3087 8.188V7.288H80.0687V8.188H77.3087ZM73.1327 4.924H73.7567C74.0447 5.308 74.3087 5.716 74.5367 6.124L75.5567 5.752C75.4007 5.488 75.2087 5.212 74.9807 4.924H76.6727V3.928H73.6847C73.7567 3.748 73.8407 3.556 73.9247 3.352L72.8207 3.112C72.5087 3.94 71.9807 4.708 71.2487 5.428L72.2447 6.04C72.5687 5.692 72.8687 5.32 73.1327 4.924ZM78.2327 4.876H78.9527C79.2647 5.272 79.5287 5.692 79.7447 6.124L80.7527 5.752C80.5967 5.476 80.3927 5.188 80.1527 4.876H82.0967V3.88H78.7127C78.7727 3.712 78.8327 3.532 78.9047 3.352L77.8127 3.112C77.5367 3.94 77.0807 4.72 76.4447 5.44L77.4287 6.052C77.7287 5.692 77.9927 5.296 78.2327 4.876ZM84.4127 4.432L83.9447 9.232H85.1687C85.3367 8.92 85.5647 8.692 85.8767 8.548C86.1647 8.404 86.4887 8.344 86.8727 8.344C87.4487 8.344 87.8807 8.512 88.1927 8.848C88.5047 9.184 88.6607 9.652 88.6607 10.252C88.6607 10.804 88.4807 11.236 88.1207 11.572C87.7607 11.896 87.3167 12.064 86.7887 12.064C86.3087 12.064 85.9247 11.956 85.6367 11.74C85.3127 11.5 85.1207 11.128 85.0727 10.648H83.7887C83.8487 11.44 84.1847 12.076 84.7967 12.532C85.3487 12.952 86.0087 13.168 86.7767 13.168C87.6287 13.168 88.3607 12.916 88.9727 12.412C89.6207 11.848 89.9567 11.128 89.9567 10.24C89.9567 9.316 89.6927 8.596 89.1887 8.068C88.6847 7.54 88.0247 7.276 87.2207 7.276C86.8367 7.276 86.4767 7.336 86.1647 7.468C85.8167 7.588 85.5167 7.78 85.2527 8.056H85.2167L85.4687 5.584H89.5727V4.432H84.4127ZM92.436 3.22V4.456H91.788V5.512H92.436V10.324H91.656V11.38H97.404V10.324H96.72V5.512H97.344V4.456H96.72V3.244H95.616V4.456H93.54V3.22H92.436ZM93.54 10.324V9.388H95.616V10.324H93.54ZM95.616 5.512V6.46H93.54V5.512H95.616ZM93.54 8.392V7.456H95.616V8.392H93.54ZM95.676 11.524L94.8 12.088C95.304 12.796 95.712 13.444 96.012 14.044L96.696 13.564L97.512 14.32C98.304 13.264 98.784 11.956 98.952 10.384H100.992V12.568C100.992 12.892 100.86 13.06 100.596 13.06C100.224 13.06 99.828 13.036 99.396 13.012L99.708 14.128H100.956C101.736 14.128 102.132 13.744 102.132 12.976V3.544H97.884V9.28C97.872 10.84 97.524 12.136 96.852 13.192C96.564 12.712 96.168 12.148 95.676 11.524ZM93.072 11.548C92.64 12.328 92.136 13 91.56 13.564L92.46 14.212C93.036 13.588 93.552 12.844 93.984 11.992L93.072 11.548ZM99.024 7.492H100.992V9.34H99.024V7.492ZM100.992 6.46H99.024V4.624H100.992V6.46ZM107.316 6.568V7.66H110.64V9.22H108.084V14.236H109.224V13.648H113.316V14.224H114.444V9.22H111.804V7.66H115.152V6.568H111.804V4.816C112.884 4.66 113.832 4.432 114.66 4.144L114.096 3.184C112.32 3.76 110.136 4.048 107.532 4.048L107.892 5.068C108.864 5.068 109.776 5.02 110.64 4.948V6.568H107.316ZM109.224 12.58V10.288H113.316V12.58H109.224ZM105.288 3.28L104.508 4.012C105.384 4.588 106.068 5.128 106.548 5.62L107.328 4.852C106.764 4.324 106.08 3.796 105.288 3.28ZM105.012 6.136L104.208 6.916C105.096 7.552 105.792 8.14 106.284 8.692L107.076 7.9C106.524 7.312 105.828 6.724 105.012 6.136ZM106.176 9.364C105.684 10.804 105.096 12.208 104.412 13.588L105.552 14.092C106.152 12.748 106.716 11.308 107.22 9.772L106.176 9.364ZM117.288 3.904V4.996H121.752V3.904H117.288ZM116.844 7.144V8.248H118.38C117.828 10.264 117.396 11.5 117.072 11.968C117.024 12.004 116.952 12.04 116.832 12.064L117.108 13.144C118.572 12.88 119.928 12.532 121.188 12.1L121.5 12.868L122.484 12.364C121.98 11.152 121.452 10.036 120.9 9.028L119.94 9.496C120.216 10.012 120.492 10.564 120.768 11.152C119.964 11.452 119.16 11.692 118.368 11.86C118.68 11.092 119.052 9.892 119.484 8.248H122.184V7.144H116.844ZM123.816 3.196V5.524H122.292V6.628H123.816V6.736C123.792 9.868 123.048 12.136 121.596 13.552L122.448 14.308C124.08 12.712 124.908 10.192 124.944 6.736V6.628H126.432C126.408 9.82 126.372 11.704 126.3 12.268C126.204 12.844 125.904 13.132 125.376 13.132C125.064 13.132 124.692 13.108 124.26 13.072L124.524 14.08C125.004 14.104 125.34 14.128 125.532 14.128C126.624 14.128 127.236 13.672 127.368 12.76C127.476 11.848 127.536 9.436 127.536 5.524H124.944V3.196H123.816Z" fill="#918AE3"/>
<path d="M22.952 30.66V33.014H37.032V30.66H22.952ZM23.722 26.216V28.526H36.284V26.216H23.722ZM28.386 27.338V30.836C28.386 32.882 27.924 35.698 22.952 37.502C23.568 37.964 24.382 38.866 24.712 39.416C29.948 37.15 31.026 33.674 31.026 30.88V27.338H28.386ZM31.422 32.332L29.2 32.794C30.278 36.116 32.17 38.382 35.426 39.46C35.778 38.778 36.504 37.766 37.076 37.238C34.172 36.49 32.302 34.774 31.422 32.332ZM22.094 30.902H16.946V33.344H19.52V38.998H22.094V30.902ZM22.094 37.854H19.674C18.662 38.646 17.474 39.416 16.484 40.032L17.782 42.782C18.97 41.814 19.96 40.978 20.928 40.12C22.358 41.836 24.184 42.474 26.89 42.584C29.53 42.694 33.974 42.65 36.636 42.518C36.746 41.726 37.186 40.45 37.472 39.834C34.502 40.076 29.508 40.142 26.934 40.032C24.646 39.944 22.974 39.306 22.094 37.854ZM16.99 24.412C18.288 25.402 19.872 26.876 20.532 27.91L22.644 26.172C21.896 25.138 20.268 23.752 18.948 22.828L16.99 24.412ZM32.918 22.3C32.522 23.378 31.73 24.83 31.092 25.798L33.248 26.568C33.952 25.71 34.81 24.412 35.624 23.136L32.918 22.3ZM24.294 23.268C25.064 24.346 25.834 25.798 26.076 26.744L28.474 25.71C28.166 24.742 27.352 23.356 26.538 22.366L24.294 23.268ZM49.022 22.388C48.274 25.446 46.932 28.482 45.26 30.374C45.854 30.77 46.91 31.628 47.372 32.09C49.132 29.912 50.694 26.458 51.618 22.982L49.022 22.388ZM48.406 32.178C47.9 34.62 46.954 37.128 45.722 38.668C46.338 38.998 47.46 39.68 47.966 40.098C49.198 38.316 50.342 35.5 50.958 32.706L48.406 32.178ZM49.506 26.26L48.516 28.702H58.526V26.26H49.506ZM52.036 27.338V40.01C52.036 40.296 51.926 40.362 51.64 40.362C51.332 40.362 50.408 40.384 49.484 40.34C49.858 41.066 50.254 42.232 50.386 43.002C51.794 43.002 52.872 42.892 53.642 42.474C54.434 42.034 54.654 41.308 54.654 40.032V27.338H52.036ZM55.424 32.75C56.502 35.016 57.426 38.052 57.668 40.032L60.198 39.152C59.89 37.15 58.944 34.224 57.8 31.958L55.424 32.75ZM57.822 26.26V26.612C57.668 28.152 57.426 30.11 57.228 31.298L59.494 31.694C59.78 30.374 60.176 28.328 60.44 26.524L58.592 26.194L58.174 26.26H57.822ZM44.314 22.41C43.192 25.556 41.278 28.68 39.276 30.682C39.738 31.32 40.442 32.772 40.684 33.41C43.082 30.902 45.37 26.942 46.8 23.18L44.314 22.41ZM42.18 28.482V42.958H44.71V25.996L44.688 25.974L42.18 28.482ZM63.036 30.99V33.872H83.408V30.99H63.036ZM92.032 23.114V25.49H100.04V23.114H92.032ZM90.734 23.114V25.952C90.734 27.822 90.25 29.692 86.224 30.968C86.664 31.408 87.5 32.596 87.764 33.19C92.362 31.606 93.374 28.68 93.374 26.04V23.114H90.734ZM98.786 23.114V28.306C98.786 30.704 99.424 31.43 101.602 31.43C102.02 31.43 103.252 31.43 103.714 31.43C105.606 31.43 106.266 30.55 106.486 27.184C105.804 27.008 104.682 26.568 104.154 26.15C104.088 28.658 103.978 29.054 103.45 29.054C103.164 29.054 102.284 29.054 102.042 29.054C101.514 29.054 101.448 28.966 101.448 28.262V23.114H98.786ZM86.4 33.828V36.16H106.2V33.828H86.4ZM94.936 31.386V42.958H97.598V31.386H94.936ZM94.166 35.06C92.45 37.238 89.128 39.262 85.96 40.23C86.51 40.758 87.28 41.726 87.676 42.364C90.888 41.11 94.144 38.668 96.08 35.852L94.166 35.06ZM98.368 34.994L96.432 35.83C98.412 38.58 101.69 41 104.924 42.232C105.32 41.572 106.112 40.56 106.706 40.054C103.472 39.086 100.106 37.15 98.368 34.994Z" fill="#918AE3"/>
<path d="M118.014 22.63V39.658C118.014 40.098 117.838 40.252 117.354 40.252C116.892 40.274 115.242 40.296 113.79 40.208C114.208 40.934 114.714 42.188 114.846 42.958C117.002 42.98 118.52 42.892 119.532 42.452C120.544 42.034 120.918 41.308 120.918 39.68V22.63H118.014ZM123.316 28.416C125.054 31.65 126.726 35.808 127.188 38.47L130.07 37.326C129.52 34.576 127.694 30.55 125.89 27.448L123.316 28.416ZM112.25 27.668C111.788 30.55 110.666 34.422 108.884 36.666C109.61 36.952 110.82 37.568 111.458 38.052C113.306 35.61 114.516 31.496 115.264 28.174L112.25 27.668ZM132.952 37.282C132.952 36.798 134.646 35.984 134.646 35.984V35.918C136.934 33.85 139.31 31.012 141.07 28.174L138.76 26.656C137.198 29.604 134.778 32.596 133.964 33.366C133.194 34.136 132.71 34.62 132.072 34.752C132.402 35.456 132.82 36.754 132.952 37.282ZM132.952 37.282C133.59 36.93 134.558 36.71 140.432 35.764C140.344 35.214 140.278 34.158 140.322 33.454L134.008 34.334L132.82 35.148L132.952 37.282ZM132.776 31.914C132.776 31.43 134.382 30.572 134.382 30.572V30.506C135.944 28.592 137.638 25.864 138.782 23.29L136.142 22.212C135.284 24.742 133.766 27.426 133.26 28.108C132.754 28.812 132.38 29.252 131.896 29.384C132.182 30.088 132.622 31.364 132.776 31.914ZM132.776 31.914C133.282 31.672 134.118 31.496 138.276 31.1C138.298 30.528 138.408 29.56 138.584 28.856L133.876 29.208L132.71 29.956L132.776 31.914ZM132.072 39.394L132.534 42.122C134.734 41.594 137.55 40.956 140.19 40.318L139.904 37.832C137.066 38.426 134.074 39.064 132.072 39.394ZM140.784 24.17V26.81H152.202V24.17H140.784ZM140.41 39.02V41.66H152.664V39.02H140.41ZM145.074 25.05V40.516H147.956V25.05H145.074ZM160.672 28.526C159.418 31.166 157.24 33.762 154.952 35.346C155.568 35.764 156.646 36.71 157.108 37.194C159.396 35.346 161.794 32.376 163.312 29.34L160.672 28.526ZM165.732 28.9V39.108C165.732 41.858 166.458 42.672 169.142 42.672C169.692 42.672 172.002 42.672 172.574 42.672C174.928 42.672 175.632 41.594 175.94 38.008C175.236 37.854 174.136 37.414 173.564 36.974C173.432 39.702 173.256 40.23 172.354 40.23C171.826 40.23 169.912 40.23 169.472 40.23C168.504 40.23 168.35 40.098 168.35 39.108V28.9H165.732ZM173.168 30.418C171.562 31.65 169.032 33.058 166.678 34.004C167.03 34.532 167.448 35.412 167.602 35.962C170.11 35.016 172.97 33.784 175.148 32.442L173.168 30.418ZM155.788 24.192V26.722H175.368V24.192H155.788ZM160.694 22.322V28.768H163.29V22.322H160.694ZM167.954 22.322V28.812H170.594V22.322H167.954ZM159.066 33.146V42.98H161.662V30.55V30.528L159.066 33.146Z" fill="#F3ACDB"/>
</svg>
