<svg width="390" height="112" viewBox="0 0 390 112" fill="none" xmlns="http://www.w3.org/2000/svg">
<rect width="32" height="111" fill="#F3F4FB"/>
<path d="M36.308 64.788V65.628H39.056V68.94H35.816V69.792H43.34V68.94H39.932V65.628H42.8V64.788H39.932V62.556H39.056V64.788H36.308ZM34.376 65.316V70.236H35.228V64.332C35.876 63.516 36.44 62.628 36.908 61.68H43.328V60.828H37.292C37.508 60.312 37.688 59.772 37.856 59.22L36.956 59.112C36.788 59.7 36.572 60.276 36.332 60.828H32.84V61.68H35.924C35.084 63.276 33.92 64.692 32.42 65.928L32.96 66.636C33.464 66.216 33.932 65.772 34.376 65.316ZM45.284 59.976V60.732H49.172C49.076 61.044 48.968 61.356 48.86 61.668H45.872V62.424H48.536C48.38 62.748 48.212 63.06 48.032 63.36H44.888V64.128H47.492C46.676 65.148 45.656 65.892 44.42 66.372L44.852 67.092C45.596 66.78 46.292 66.372 46.916 65.868V70.248H47.768V69.732H52.304V70.224H53.156V65.676C53.708 66.192 54.392 66.648 55.232 67.044L55.604 66.276C54.32 65.748 53.372 65.028 52.772 64.128H55.112V63.36H48.992C49.16 63.06 49.316 62.748 49.46 62.424H54.164V61.668H49.76C49.868 61.38 49.976 61.068 50.072 60.732H54.716V59.976H50.276C50.336 59.712 50.396 59.448 50.444 59.184L49.556 59.1L49.376 59.976H45.284ZM52.616 65.124H47.72C47.996 64.824 48.26 64.488 48.512 64.128H51.932C52.112 64.464 52.34 64.8 52.616 65.124ZM47.768 68.964V67.788H52.304V68.964H47.768ZM47.768 67.032V65.88H52.304V67.032H47.768ZM61.556 60.408V61.308H56.852V62.1H60.416C59.72 62.868 58.46 63.552 56.636 64.164L57.104 64.92C59.156 64.128 60.548 63.18 61.292 62.1H61.556V64.14H62.444V62.1H62.708C63.524 63.252 64.952 64.176 66.992 64.884L67.376 64.08C65.624 63.6 64.352 62.94 63.548 62.1H67.148V61.308H62.444V60.348C63.812 60.252 65 60.096 66.032 59.904L65.648 59.232C63.56 59.568 60.944 59.748 57.8 59.76L58.052 60.492C59.3 60.492 60.476 60.456 61.556 60.408ZM57.08 66.996V67.788H61.832V68.88C61.832 69.204 61.652 69.372 61.316 69.372C60.812 69.372 60.344 69.36 59.912 69.348L60.128 70.128H61.616C62.336 70.128 62.708 69.804 62.708 69.156V67.788H66.908V66.996H62.708V66.624C63.5 66.204 64.22 65.772 64.868 65.34V64.584H58.796V65.34H63.716C63.284 65.58 62.66 65.904 61.832 66.288V66.996H57.08ZM70.232 67.572C69.992 67.572 69.812 67.632 69.668 67.776C69.524 67.908 69.452 68.088 69.452 68.316C69.452 68.52 69.524 68.7 69.668 68.844C69.812 68.988 69.98 69.06 70.184 69.06C70.304 69.06 70.4 69.036 70.448 69.012C70.448 69.3 70.364 69.564 70.184 69.816C69.992 70.056 69.74 70.236 69.428 70.344V70.932C69.932 70.8 70.352 70.536 70.664 70.152C70.976 69.744 71.132 69.276 71.132 68.748C71.132 68.4 71.048 68.124 70.892 67.908C70.724 67.68 70.496 67.572 70.232 67.572ZM89.768 70.152C90.464 70.152 90.812 69.756 90.812 68.976V59.664H81.188V70.188H82.052V60.504H89.948V68.784C89.948 69.144 89.792 69.324 89.492 69.324L87.932 69.288L88.172 70.152H89.768ZM82.928 61.884V62.688H89.084V61.884H82.928ZM83.6 63.984V67.848H88.412V63.984H83.6ZM87.572 67.08H84.44V64.764H87.572V67.08ZM92.72 63.876V64.572H93.872V68.724L92.756 68.772L92.864 69.516C94.532 69.42 95.936 69.3 97.076 69.168V70.224H97.916V69.06C98.156 69.012 98.396 68.976 98.612 68.94V68.256C98.396 68.292 98.156 68.328 97.916 68.364V64.572H103.304V63.876H92.72ZM94.652 68.688V67.656H97.076V68.472C96.356 68.556 95.54 68.628 94.652 68.688ZM94.652 67.02V66.12H97.076V67.02H94.652ZM94.652 65.472V64.572H97.076V65.472H94.652ZM94.244 59.628V63.084H101.828V59.628H94.244ZM101 62.46H95.072V61.656H101V62.46ZM95.072 61.044V60.276H101V61.044H95.072ZM98.924 66.084C99.164 66.96 99.608 67.74 100.28 68.436C99.764 68.868 99.14 69.228 98.42 69.54L98.864 70.212C99.644 69.876 100.316 69.468 100.868 68.988C101.408 69.432 102.08 69.84 102.872 70.212L103.316 69.492C102.572 69.18 101.948 68.832 101.42 68.436C101.996 67.764 102.404 66.972 102.632 66.048V65.376H98.54V66.084H98.924ZM100.808 67.92C100.256 67.38 99.884 66.768 99.668 66.084H101.852C101.636 66.756 101.288 67.368 100.808 67.92ZM104.72 63.876V64.572H105.872V68.724L104.756 68.772L104.864 69.516C106.532 69.42 107.936 69.3 109.076 69.168V70.224H109.916V69.06C110.156 69.012 110.396 68.976 110.612 68.94V68.256C110.396 68.292 110.156 68.328 109.916 68.364V64.572H115.304V63.876H104.72ZM106.652 68.688V67.656H109.076V68.472C108.356 68.556 107.54 68.628 106.652 68.688ZM106.652 67.02V66.12H109.076V67.02H106.652ZM106.652 65.472V64.572H109.076V65.472H106.652ZM106.244 59.628V63.084H113.828V59.628H106.244ZM113 62.46H107.072V61.656H113V62.46ZM107.072 61.044V60.276H113V61.044H107.072ZM110.924 66.084C111.164 66.96 111.608 67.74 112.28 68.436C111.764 68.868 111.14 69.228 110.42 69.54L110.864 70.212C111.644 69.876 112.316 69.468 112.868 68.988C113.408 69.432 114.08 69.84 114.872 70.212L115.316 69.492C114.572 69.18 113.948 68.832 113.42 68.436C113.996 67.764 114.404 66.972 114.632 66.048V65.376H110.54V66.084H110.924ZM112.808 67.92C112.256 67.38 111.884 66.768 111.668 66.084H113.852C113.636 66.756 113.288 67.368 112.808 67.92ZM123.824 66.876L123.392 67.524C124.568 68.076 125.732 68.844 126.86 69.804L127.316 69.072C126.26 68.208 125.096 67.476 123.824 66.876ZM119.996 66.876C119.108 67.74 117.992 68.436 116.636 68.964L116.996 69.744C118.412 69.144 119.6 68.388 120.536 67.488L119.996 66.876ZM122.048 59.136L121.136 59.28C121.316 59.64 121.484 60.036 121.64 60.468H117.572V61.248H126.452V60.468H122.516C122.372 59.964 122.216 59.52 122.048 59.136ZM116.996 63.36V64.176H121.628V65.556H117.368V66.336H121.628V68.856C121.628 69.24 121.436 69.432 121.052 69.432C120.656 69.432 120.236 69.408 119.804 69.372L119.984 70.2H121.352C122.096 70.2 122.48 69.828 122.48 69.084V66.336H126.632V65.556H122.48V64.176H127.016V63.36H124.364C124.628 62.928 124.88 62.424 125.108 61.872L124.28 61.584C124.052 62.208 123.788 62.796 123.476 63.36H120.644C120.38 62.676 120.104 62.088 119.792 61.608L118.988 61.908C119.288 62.364 119.54 62.856 119.756 63.36H116.996ZM138.98 62.148H136.964C137.228 61.764 137.468 61.332 137.684 60.84L136.856 60.54C136.64 61.104 136.376 61.644 136.064 62.148H134.528C134.396 61.644 134.252 61.188 134.096 60.792L133.256 60.924C133.412 61.284 133.556 61.692 133.688 62.148H131.72C131.588 61.68 131.456 61.26 131.324 60.888L130.472 61.02C130.616 61.368 130.748 61.74 130.868 62.148H129.044V64.128H129.932V62.928H138.092V64.128H138.98V62.148ZM138.332 59.376C135.908 59.7 132.848 59.868 129.164 59.88L129.428 60.684C133.316 60.684 136.424 60.492 138.764 60.132L138.332 59.376ZM132.236 63.228C132.176 63.54 132.116 63.84 132.044 64.152H129.968V64.944H131.828C131.228 66.84 130.196 68.292 128.756 69.324L129.176 70.068C130.292 69.324 131.192 68.304 131.888 66.984C132.512 67.596 133.208 68.124 133.976 68.58C133.124 68.988 132.14 69.276 131.024 69.456L131.408 70.224C132.62 70.008 133.76 69.6 134.816 69.024C135.968 69.588 137.24 69.972 138.656 70.164L139.04 69.384C137.792 69.24 136.652 68.952 135.596 68.544C136.4 67.992 137.084 67.332 137.648 66.576V65.928H132.368C132.488 65.616 132.596 65.28 132.704 64.944H138.068V64.152H132.92C132.98 63.888 133.04 63.624 133.088 63.336L132.236 63.228ZM132.536 66.672H136.616C136.1 67.212 135.476 67.704 134.744 68.16C133.94 67.752 133.208 67.248 132.536 66.672ZM144.848 61.272H142.916C143.156 60.672 143.336 60.012 143.48 59.304L142.616 59.184C142.508 59.904 142.34 60.6 142.1 61.272H140.984V69.804H141.824V68.772H144.008V69.456H144.848V61.272ZM141.824 67.968V65.34H144.008V67.968H141.824ZM141.824 64.56V62.088H144.008V64.56H141.824ZM146.936 64.056L146.24 64.488C147.068 65.472 147.728 66.36 148.22 67.152L148.904 66.672C148.448 65.928 147.8 65.052 146.936 64.056ZM151.052 61.284H147.224C147.44 60.66 147.608 59.988 147.752 59.28L146.9 59.172C146.588 60.876 146.024 62.316 145.184 63.492L145.7 64.176C146.168 63.564 146.564 62.88 146.9 62.124H150.2C150.176 65.58 150.128 67.656 150.056 68.328C149.96 68.94 149.636 69.252 149.072 69.252C148.7 69.252 148.268 69.24 147.764 69.216L147.968 70.008C148.544 70.032 148.952 70.056 149.192 70.056C150.2 70.056 150.752 69.588 150.872 68.676C150.992 67.74 151.052 65.268 151.052 61.284ZM153.992 63.54V70.2H154.856V62.208C155.336 61.368 155.732 60.468 156.044 59.52L155.24 59.136C154.652 61.032 153.704 62.724 152.408 64.188L152.684 65.1C153.152 64.608 153.584 64.092 153.992 63.54ZM161.72 63.972L160.952 64.224C161.54 65.568 162.08 67.128 162.56 68.88L163.316 68.544C162.86 66.912 162.332 65.388 161.72 63.972ZM157.592 61.5H162.14C161.96 62.124 161.732 62.676 161.456 63.18L162.284 63.42C162.584 62.7 162.824 61.968 163.016 61.224V60.66H157.904C158.048 60.24 158.192 59.796 158.312 59.328L157.496 59.16C157.088 60.78 156.428 62.256 155.516 63.588L156.26 64.044C156.764 63.276 157.208 62.436 157.592 61.5ZM159.092 70.116C159.752 70.116 160.088 69.78 160.088 69.108V62.508H159.248V68.892C159.248 69.204 159.092 69.36 158.792 69.36C158.336 69.36 157.844 69.336 157.34 69.3L157.52 70.116H159.092ZM157.292 64.068C156.8 65.82 156.224 67.26 155.576 68.388L156.38 68.676C157.076 67.416 157.64 65.952 158.072 64.284L157.292 64.068ZM166.232 67.572C165.992 67.572 165.812 67.632 165.668 67.776C165.524 67.908 165.452 68.088 165.452 68.316C165.452 68.52 165.524 68.7 165.668 68.844C165.812 68.988 165.98 69.06 166.184 69.06C166.304 69.06 166.4 69.036 166.448 69.012C166.448 69.3 166.364 69.564 166.184 69.816C165.992 70.056 165.74 70.236 165.428 70.344V70.932C165.932 70.8 166.352 70.536 166.664 70.152C166.976 69.744 167.132 69.276 167.132 68.748C167.132 68.4 167.048 68.124 166.892 67.908C166.724 67.68 166.496 67.572 166.232 67.572ZM176.972 59.676V63.468H178.52V68.652C178.256 68.724 177.98 68.784 177.692 68.856V64.476H176.972V69.012L176.444 69.12L176.684 69.948C178.172 69.624 179.468 69.264 180.596 68.88V68.04C180.188 68.184 179.756 68.316 179.312 68.436V66.156H180.548V65.364H179.312V63.468H180.308V59.676H176.972ZM179.492 62.676H177.788V60.456H179.492V62.676ZM182.084 67.788H185.756V68.904H182.084V67.788ZM185.756 69.708V70.224H186.596V65.04H181.244V70.224H182.084V69.708H185.756ZM185.756 67.044H182.084V65.82H185.756V67.044ZM183.56 64.5C184.172 64.5 184.484 64.176 184.484 63.528V61.908C185.048 63.012 185.924 63.984 187.112 64.848L187.604 64.14C186.788 63.66 186.116 63.084 185.564 62.388C186.236 61.908 186.896 61.32 187.532 60.624L186.884 60.132C186.368 60.756 185.792 61.308 185.144 61.8C184.88 61.392 184.664 60.96 184.484 60.504V59.22H183.668V63.312C183.668 63.624 183.536 63.78 183.284 63.78C183.008 63.78 182.72 63.756 182.42 63.72L182.6 64.5H183.56ZM180.704 60.636V61.38H182.276C181.88 62.592 181.16 63.528 180.128 64.188L180.608 64.848C181.856 64.02 182.696 62.82 183.116 61.248V60.636H180.704ZM189.44 59.388L188.852 59.952C189.692 60.624 190.352 61.26 190.832 61.86L191.432 61.26C190.892 60.636 190.232 60.012 189.44 59.388ZM196.508 69.996H199.256L199.46 69.156C199.148 69.18 198.692 69.192 198.116 69.204C197.528 69.204 196.952 69.216 196.388 69.216C195.452 69.216 194.66 69.204 194.024 69.192C193.304 69.168 192.764 69.084 192.392 68.928C192.056 68.76 191.744 68.496 191.456 68.16C191.36 68.052 191.264 67.968 191.168 67.896V63.36H188.648V64.152H190.34V67.836C189.86 68.052 189.308 68.652 188.684 69.636L189.332 70.224C189.98 69.144 190.448 68.604 190.736 68.604C190.88 68.604 191.036 68.7 191.204 68.904C191.576 69.336 191.996 69.624 192.476 69.768C192.956 69.888 193.592 69.96 194.36 69.972C195.128 69.984 195.848 69.996 196.508 69.996ZM198.212 68.508C198.704 68.508 198.956 68.256 198.956 67.752V63.816H193.364V68.508H194.096V66.492H195.056V68.376H195.728V66.492H196.616V68.376H197.288V66.492H198.224V67.596C198.224 67.764 198.14 67.848 197.972 67.848L197.492 67.812L197.684 68.508H198.212ZM194.096 65.796V64.536H195.056V65.796H194.096ZM195.728 64.536H196.616V65.796H195.728V64.536ZM197.288 64.536H198.224V65.796H197.288V64.536ZM198.212 61.032V62.208H193.34V61.032H198.212ZM193.328 62.916H198.98V60.288H196.244C196.124 59.856 195.992 59.484 195.872 59.148L194.972 59.292C195.14 59.592 195.284 59.928 195.404 60.288H192.548V62.628C192.536 64.632 192.2 66.276 191.528 67.548L192.128 68.088C192.884 66.648 193.28 64.92 193.328 62.916ZM33.284 75.976V76.732H37.172C37.076 77.044 36.968 77.356 36.86 77.668H33.872V78.424H36.536C36.38 78.748 36.212 79.06 36.032 79.36H32.888V80.128H35.492C34.676 81.148 33.656 81.892 32.42 82.372L32.852 83.092C33.596 82.78 34.292 82.372 34.916 81.868V86.248H35.768V85.732H40.304V86.224H41.156V81.676C41.708 82.192 42.392 82.648 43.232 83.044L43.604 82.276C42.32 81.748 41.372 81.028 40.772 80.128H43.112V79.36H36.992C37.16 79.06 37.316 78.748 37.46 78.424H42.164V77.668H37.76C37.868 77.38 37.976 77.068 38.072 76.732H42.716V75.976H38.276C38.336 75.712 38.396 75.448 38.444 75.184L37.556 75.1L37.376 75.976H33.284ZM40.616 81.124H35.72C35.996 80.824 36.26 80.488 36.512 80.128H39.932C40.112 80.464 40.34 80.8 40.616 81.124ZM35.768 84.964V83.788H40.304V84.964H35.768ZM35.768 83.032V81.88H40.304V83.032H35.768ZM49.556 75.208V79.66H44.768V80.512H48.032V80.596C48.008 81.832 47.744 82.84 47.264 83.608C46.736 84.352 45.824 84.94 44.504 85.396L44.996 86.164C46.352 85.696 47.336 85.048 47.936 84.208C48.548 83.296 48.872 82.096 48.908 80.596V80.512H50.936V84.712C50.936 85.492 51.296 85.888 52.04 85.888H53.912C54.392 85.888 54.74 85.768 54.956 85.528C55.196 85.264 55.364 84.496 55.448 83.224L54.62 82.96C54.572 83.992 54.476 84.604 54.332 84.82C54.212 84.988 54.02 85.072 53.756 85.072H52.304C51.968 85.072 51.8 84.892 51.8 84.532V80.512H55.244V79.66H50.444V75.208H49.556ZM53.54 75.784C53.144 76.72 52.616 77.68 51.956 78.64L52.736 79.036C53.396 78.112 53.936 77.152 54.344 76.168L53.54 75.784ZM46.496 75.892L45.68 76.276C46.268 77.092 46.832 78.004 47.36 79.036L48.164 78.64C47.636 77.644 47.084 76.732 46.496 75.892ZM66.584 81.844C66.032 82.42 65.444 82.864 64.832 83.152C64.424 82.552 64.148 81.892 63.98 81.172H66.404V76.24H63.692C63.512 75.832 63.32 75.46 63.128 75.148L62.264 75.292C62.468 75.58 62.66 75.892 62.828 76.24H60.464V84.964C60.464 85.144 60.308 85.276 60.008 85.348L60.2 86.128C61.7 85.84 62.948 85.54 63.932 85.228L63.74 84.448C62.924 84.736 62.108 84.976 61.292 85.168V81.172H63.176C63.62 83.296 64.904 84.964 67.028 86.164L67.496 85.432C66.608 84.964 65.876 84.412 65.312 83.764C66.008 83.452 66.62 82.996 67.16 82.42L66.584 81.844ZM57.56 75.376L56.948 75.976C57.896 76.624 58.64 77.224 59.18 77.8L59.792 77.176C59.192 76.576 58.448 75.976 57.56 75.376ZM57.26 78.196L56.648 78.784C57.548 79.432 58.256 80.044 58.76 80.62L59.372 80.008C58.808 79.408 58.1 78.796 57.26 78.196ZM58.952 81.532C58.364 82.948 57.68 84.34 56.9 85.696L57.764 86.068C58.484 84.748 59.132 83.344 59.72 81.844L58.952 81.532ZM61.292 79.096H65.564V80.392H61.292V79.096ZM65.564 78.352H61.292V77.032H65.564V78.352ZM69.404 75.34L68.828 75.892C69.716 76.492 70.412 77.068 70.916 77.608L71.516 77.008C70.94 76.456 70.244 75.892 69.404 75.34ZM69.164 78.292L68.588 78.844C69.428 79.444 70.076 80.008 70.556 80.536L71.156 79.936C70.616 79.384 69.956 78.844 69.164 78.292ZM70.472 81.664C69.992 83.032 69.416 84.364 68.744 85.66L69.536 86.02C70.16 84.748 70.736 83.392 71.24 81.952L70.472 81.664ZM72.572 75.532V78.772H78.2V75.532H72.572ZM77.372 78.124H73.424V77.476H77.372V78.124ZM73.424 76.864V76.18H77.372V76.864H73.424ZM71.852 79.36V81.772H78.908V79.36H71.852ZM78.116 81.112H76.748V80.008H78.116V81.112ZM76.004 81.112H74.756V80.008H76.004V81.112ZM74.012 81.112H72.632V80.008H74.012V81.112ZM72.5 83.152C73.04 83.728 73.724 84.244 74.564 84.688C73.604 85.024 72.524 85.264 71.3 85.42L71.672 86.176C73.136 85.96 74.432 85.612 75.536 85.144C76.52 85.552 77.696 85.888 79.052 86.128L79.544 85.408C78.392 85.228 77.36 84.988 76.448 84.7C77.276 84.244 77.984 83.704 78.572 83.056V82.408H71.852V83.152H72.5ZM75.452 84.34C74.636 84.004 73.964 83.608 73.412 83.152H77.372C76.82 83.608 76.184 84.004 75.452 84.34ZM91.076 77.512L88.496 78.304V75.196H87.656V78.568L85.904 79.108V76.42H85.064V79.372L84.056 79.684V80.524L85.064 80.212V84.784C85.064 85.576 85.46 85.984 86.264 85.984H90.056C90.5 85.984 90.824 85.864 91.028 85.636C91.268 85.372 91.424 84.64 91.508 83.428L90.704 83.176C90.656 84.148 90.56 84.736 90.428 84.928C90.332 85.084 90.152 85.168 89.9 85.168H86.528C86.108 85.168 85.904 84.976 85.904 84.616V79.96L87.656 79.432V83.716H88.496V79.18L90.248 78.652C90.236 80.284 90.2 81.232 90.14 81.484C90.068 81.748 89.864 81.88 89.54 81.88C89.396 81.88 89.228 81.868 89.048 81.856L89.288 82.708H89.36C90.26 82.708 90.776 82.444 90.896 81.94C91.016 81.412 91.076 79.936 91.076 77.512ZM84.212 82.612C83.756 82.828 83.276 83.032 82.796 83.212V79.228H84.044V78.388H82.796V75.292H81.944V78.388H80.576V79.228H81.944V83.5C81.44 83.644 80.936 83.776 80.432 83.884L80.648 84.748C81.92 84.412 83.108 83.98 84.212 83.464V82.612ZM94.232 83.572C93.992 83.572 93.812 83.632 93.668 83.776C93.524 83.908 93.452 84.088 93.452 84.316C93.452 84.52 93.524 84.7 93.668 84.844C93.812 84.988 93.98 85.06 94.184 85.06C94.304 85.06 94.4 85.036 94.448 85.012C94.448 85.3 94.364 85.564 94.184 85.816C93.992 86.056 93.74 86.236 93.428 86.344V86.932C93.932 86.8 94.352 86.536 94.664 86.152C94.976 85.744 95.132 85.276 95.132 84.748C95.132 84.4 95.048 84.124 94.892 83.908C94.724 83.68 94.496 83.572 94.232 83.572ZM105.536 77.824L104.912 78.424C105.776 79.444 106.556 80.44 107.252 81.412C106.604 82.852 105.692 84.1 104.516 85.132L105.104 85.804C106.256 84.796 107.156 83.608 107.828 82.252C108.284 82.948 108.704 83.62 109.064 84.292L109.724 83.62C109.268 82.852 108.776 82.072 108.236 81.304C108.776 79.9 109.088 78.328 109.184 76.576V75.916H104.852V76.744H108.356C108.26 78.064 108.008 79.3 107.624 80.452C106.976 79.576 106.28 78.7 105.536 77.824ZM109.928 75.916V76.744H110.324C110.432 78.604 110.96 80.404 111.908 82.156C111.14 83.284 110.18 84.364 109.028 85.384L109.616 86.104C110.696 85.108 111.62 84.064 112.388 82.972C113.036 84.028 113.876 85.072 114.884 86.104L115.484 85.396C114.428 84.352 113.576 83.284 112.904 82.18C113.948 80.452 114.596 78.628 114.86 76.684V75.916H109.928ZM111.104 76.744H114.044C113.78 78.364 113.24 79.9 112.424 81.34C111.644 79.852 111.2 78.328 111.104 76.744ZM123.644 80.764C124.028 83.02 125.168 84.796 127.052 86.08L127.532 85.324C126.704 84.796 126.032 84.16 125.504 83.416C126.152 83.068 126.728 82.564 127.232 81.904L126.704 81.376C126.2 82.012 125.672 82.48 125.12 82.792C124.784 82.18 124.556 81.508 124.424 80.764H126.536V75.676H121.508V84.952C121.508 85.108 121.412 85.228 121.244 85.3L121.424 85.984C122.66 85.66 123.68 85.324 124.496 84.976L124.304 84.22C123.656 84.508 123.008 84.736 122.348 84.916V80.764H123.644ZM120.428 75.844H116.948V85.66H117.776V84.472H119.588V85.384H120.428V75.844ZM117.776 83.656V81.844H119.588V83.656H117.776ZM117.776 81.064V79.252H119.588V81.064H117.776ZM117.776 78.46V76.66H119.588V78.46H117.776ZM122.348 78.64H125.696V79.996H122.348V78.64ZM125.696 77.872H122.348V76.468H125.696V77.872ZM130.208 79.012C129.872 80.524 129.32 81.904 128.552 83.152L129.32 83.644C130.064 82.396 130.652 80.92 131.06 79.192L130.208 79.012ZM137.528 78.976L136.7 79.252C137.384 80.548 138.008 82.048 138.572 83.74L139.4 83.38C138.86 81.82 138.236 80.356 137.528 78.976ZM133.88 75.22L132.932 75.376C133.172 75.784 133.4 76.24 133.604 76.744H128.852V77.584H132.248V79.432C132.224 82.264 131.336 84.328 129.596 85.624L130.232 86.188C132.104 84.772 133.052 82.516 133.1 79.432V77.584H135.008V84.664C135.008 85.108 134.792 85.336 134.36 85.336C133.976 85.336 133.58 85.312 133.172 85.276L133.352 86.104H134.66C135.464 86.104 135.872 85.696 135.872 84.88V77.584H139.172V76.744H134.528C134.312 76.168 134.096 75.664 133.88 75.22ZM140.996 75.676V86.116H141.8V76.444H143.216C143.036 77.392 142.772 78.448 142.436 79.612C142.976 80.548 143.252 81.4 143.252 82.144C143.252 82.408 143.204 82.588 143.132 82.696C143.036 82.792 142.904 82.852 142.724 82.876C142.556 82.876 142.34 82.864 142.088 82.84L142.34 83.644C143.012 83.632 143.48 83.488 143.756 83.212C143.948 83.008 144.044 82.648 144.044 82.144C144.008 81.4 143.732 80.512 143.216 79.492C143.528 78.388 143.792 77.332 144.008 76.324V75.676H140.996ZM144.896 75.892L144.26 76.288C144.716 76.984 145.076 77.632 145.352 78.232L145.988 77.776C145.736 77.248 145.376 76.612 144.896 75.892ZM149.156 85.204C148.736 85.204 148.316 85.192 147.896 85.18C147.452 85.156 147.068 85.072 146.756 84.94C146.396 84.76 146.108 84.52 145.892 84.22C145.868 84.196 145.832 84.16 145.808 84.124V79.228H143.984V79.996H145.004V84.004C144.584 84.196 144.08 84.712 143.48 85.528L143.996 86.176C144.668 85.216 145.124 84.748 145.364 84.748C145.472 84.748 145.604 84.832 145.748 85.012C146.012 85.348 146.336 85.6 146.72 85.756C147.104 85.888 147.56 85.96 148.076 85.972C148.412 85.984 148.76 85.996 149.096 85.996H151.268L151.484 85.18C150.752 85.192 149.972 85.204 149.156 85.204ZM146.276 76.348V77.14H147.74C147.356 78.472 146.768 79.564 145.976 80.416L146.42 80.992C146.732 80.704 147.02 80.356 147.296 79.96V84.496H148.04V82.468H150.176V83.38C150.176 83.632 150.068 83.764 149.864 83.764C149.6 83.764 149.336 83.74 149.048 83.716L149.24 84.46H150.116C150.668 84.436 150.956 84.16 150.956 83.632V78.34H148.148C148.292 77.968 148.436 77.572 148.556 77.14H151.424V76.348H148.772C148.844 76.012 148.916 75.676 148.988 75.316L148.148 75.208C148.088 75.592 148.016 75.964 147.944 76.348H146.276ZM148.04 80.788H150.176V81.772H148.04V80.788ZM150.176 80.092H148.04V79.024H150.176V80.092ZM153.992 79.54V86.2H154.856V78.208C155.336 77.368 155.732 76.468 156.044 75.52L155.24 75.136C154.652 77.032 153.704 78.724 152.408 80.188L152.684 81.1C153.152 80.608 153.584 80.092 153.992 79.54ZM161.72 79.972L160.952 80.224C161.54 81.568 162.08 83.128 162.56 84.88L163.316 84.544C162.86 82.912 162.332 81.388 161.72 79.972ZM157.592 77.5H162.14C161.96 78.124 161.732 78.676 161.456 79.18L162.284 79.42C162.584 78.7 162.824 77.968 163.016 77.224V76.66H157.904C158.048 76.24 158.192 75.796 158.312 75.328L157.496 75.16C157.088 76.78 156.428 78.256 155.516 79.588L156.26 80.044C156.764 79.276 157.208 78.436 157.592 77.5ZM159.092 86.116C159.752 86.116 160.088 85.78 160.088 85.108V78.508H159.248V84.892C159.248 85.204 159.092 85.36 158.792 85.36C158.336 85.36 157.844 85.336 157.34 85.3L157.52 86.116H159.092ZM157.292 80.068C156.8 81.82 156.224 83.26 155.576 84.388L156.38 84.676C157.076 83.416 157.64 81.952 158.072 80.284L157.292 80.068ZM174.284 76.948C173.48 77.656 172.592 78.244 171.62 78.712C171.596 78.1 171.584 77.44 171.584 76.732V75.892H164.444V76.756H170.72C170.72 80.56 171.032 83.056 171.656 84.244C172.268 85.408 173.036 85.996 173.948 86.008C174.224 86.008 174.488 85.876 174.752 85.636C175.1 85.18 175.328 84.424 175.448 83.392L174.62 83.116C174.548 83.932 174.452 84.472 174.332 84.712C174.212 84.952 174.068 85.072 173.9 85.084C173.3 85.06 172.76 84.568 172.304 83.584C172.016 82.996 171.824 81.952 171.716 80.44C172.7 80.908 173.66 81.508 174.596 82.24L175.1 81.484C174.044 80.752 172.904 80.116 171.656 79.588V79.564C172.832 79.048 173.864 78.4 174.776 77.632L174.284 76.948ZM180.704 78.484V80.86H182.78C182.66 81.208 182.528 81.508 182.36 81.772C181.856 82.492 181.016 83.128 179.84 83.656L180.38 84.328C181.64 83.704 182.54 82.972 183.08 82.12C183.224 81.88 183.356 81.592 183.476 81.268V83.128C183.476 83.8 183.788 84.136 184.424 84.136H186.212C186.572 84.136 186.848 84.04 187.016 83.872C187.208 83.668 187.34 83.092 187.412 82.144L186.704 81.904C186.656 82.624 186.584 83.068 186.488 83.212C186.416 83.332 186.272 83.392 186.068 83.392H184.652C184.376 83.392 184.244 83.248 184.244 82.96V80.86H186.404V78.016H184.436C184.748 77.692 185.072 77.296 185.396 76.84V76.252H182.84C183.032 75.976 183.212 75.676 183.404 75.364L182.612 75.184C181.808 76.492 180.788 77.548 179.54 78.352L180.044 78.976C180.26 78.832 180.476 78.664 180.704 78.484ZM182.288 76.948H184.424C184.088 77.356 183.764 77.704 183.428 78.016H181.256C181.616 77.68 181.964 77.332 182.288 76.948ZM185.6 80.14H183.764C183.836 79.708 183.896 79.24 183.944 78.712H185.6V80.14ZM182.972 80.14H181.484V78.712H183.176C183.128 79.228 183.068 79.708 182.972 80.14ZM185.072 81.28L184.616 81.724C185.072 82.108 185.444 82.468 185.708 82.816L186.188 82.324C185.888 81.976 185.516 81.628 185.072 81.28ZM177.512 75.388L176.924 75.952C177.8 76.624 178.484 77.248 178.988 77.836L179.6 77.248C179.036 76.624 178.34 76.012 177.512 75.388ZM184.58 85.984H187.256L187.472 85.12C187.16 85.144 186.716 85.156 186.152 85.168C185.576 85.18 185.012 85.192 184.46 85.192C183.512 85.192 182.72 85.18 182.084 85.168C181.376 85.144 180.836 85.048 180.452 84.88C180.116 84.724 179.804 84.472 179.516 84.124C179.408 84.004 179.312 83.92 179.216 83.848V79.36H176.648V80.152H178.412V83.8C177.92 83.992 177.344 84.604 176.684 85.636L177.332 86.224C178.016 85.12 178.496 84.568 178.784 84.568C178.94 84.568 179.096 84.664 179.264 84.868C179.624 85.3 180.056 85.6 180.536 85.744C181.016 85.876 181.652 85.948 182.432 85.96C183.2 85.972 183.92 85.984 184.58 85.984Z" fill="black" fill-opacity="0.3"/>
<path d="M319.566 12.7339C318.04 10.2184 318.454 7.24304 320.564 6.01346C321.449 5.5099 322.447 5.2386 323.466 5.22503C328.386 5.1247 333.308 5.34415 338.199 5.88204C340.564 6.13546 342.909 6.21995 345.321 6.3889C346.475 6.55952 347.64 6.64112 348.806 6.63294C349.409 7.39322 349.145 8.28488 349.136 9.11085C349.059 11.4576 349.486 13.7938 350.389 15.9627C351.417 18.1736 352.965 20.1053 354.901 21.5944C355.777 22.3077 356.644 23.0398 357.595 23.6687C360.242 25.4239 361.316 27.9206 361.429 31.0274C361.467 34.0363 361.969 37.0217 362.918 39.8784C363.434 41.2721 364.11 42.6013 364.934 43.8394C367.289 47.4999 370.944 48.7483 375.004 49.227C379.532 49.651 384.099 49.3947 388.55 48.4667C388.754 48.393 388.973 48.3699 389.188 48.3993C389.403 48.4287 389.608 48.5099 389.784 48.6357V57.5524C384.081 57.6132 378.399 58.258 372.828 59.4766C368.956 60.4152 365.424 59.4766 362.004 57.7026C357.777 55.521 353.729 53.0102 349.899 50.1937C347.836 48.7014 345.358 48.5699 342.947 48.4761C339.819 48.3541 336.682 48.4761 333.527 48.4104C332.041 48.4139 330.563 48.1892 329.146 47.744C327.91 47.3478 326.827 46.5821 326.043 45.551C325.26 44.5199 324.814 43.2734 324.766 41.9809C324.793 41.2189 324.998 40.4738 325.365 39.8043C325.731 39.1348 326.248 38.5593 326.876 38.1232C327.573 37.5695 328.477 37.2785 329.005 36.5088C329.212 36.9781 329.58 36.8561 329.947 36.8279C331.482 36.7153 332.999 36.9687 334.525 37.0063C337.493 37.0908 340.469 37.0063 343.437 37.0063C338.557 36.5558 333.63 37.1565 328.751 36.4337C326.17 35.9721 323.728 34.9322 321.61 33.3926C319.208 31.5154 319.18 28.6996 321.431 26.034C321.676 25.7336 321.94 25.4426 322.194 25.1517C322.317 25.053 322.47 24.9999 322.627 25.0015C326.038 25.0766 329.457 24.8701 332.858 25.1047C335.684 25.3018 338.51 25.1892 341.336 25.2643H343.22C335.91 24.9827 328.59 25.039 321.29 24.6542C319.559 23.7232 318.197 22.2339 317.427 20.4305C317.014 19.3484 316.975 18.1597 317.316 17.0528C317.657 15.9459 318.359 14.9842 319.311 14.3201C319.613 14.0761 320.027 13.9635 320.084 13.4942C320.348 13.1093 320.753 13.1375 321.139 13.1469C328.035 13.3158 334.93 13.5317 341.864 13.5692C342.137 13.5692 342.4 13.6443 342.806 13.6256C340.724 13.4472 338.811 13.3252 336.89 13.344C331.671 13.3909 326.471 12.9873 321.252 13.0812C320.668 13.128 320.083 13.0075 319.566 12.7339V12.7339Z" fill="#F8ABDA"/>
<path d="M389.784 48.5979C386.98 49.1178 384.15 49.4876 381.306 49.7054C379.707 49.8619 378.096 49.8398 376.502 49.6397C375.164 49.4426 373.808 49.4051 372.451 49.1235C366.281 47.8658 363.521 43.4919 361.966 37.9822C361.156 35.1101 361.185 32.1441 360.845 29.225C360.714 28.2222 360.372 27.2582 359.841 26.3962C359.31 25.5341 358.603 24.7933 357.765 24.2222C355.915 22.9142 354.173 21.4609 352.556 19.8765C350.241 17.4145 348.902 14.1995 348.787 10.8283C348.703 9.42978 348.787 8.01247 348.787 6.61394C349.343 5.2905 349.419 3.79814 350.295 2.58733C351.604 0.766433 353.262 -0.0595456 355.184 0.325284C356.252 0.567804 357.234 1.0977 358.021 1.85731C358.808 2.61693 359.371 3.57716 359.649 4.63349C359.875 5.67535 359.743 6.73597 359.913 7.76844C360.318 10.2933 362.004 11.7951 364.227 12.7524C367.106 13.8441 370.094 14.6276 373.139 15.0896C376.087 15.6809 379.055 16.1127 382.013 16.5726C384.584 16.9762 387.175 17.2859 389.766 17.6332L389.784 48.5979Z" fill="#FBD3EA"/>
<path d="M247.049 10.3404C249.008 9.50499 251.137 11.0725 252.258 12.7432C253.702 14.9985 254.253 17.7085 253.803 20.3459C253.633 21.5661 253.963 22.8614 253.256 23.9971C252.409 25.1892 251.881 26.5595 251.071 27.7516C248.836 31.1823 246.315 34.4194 243.535 37.4286C242.706 38.4575 241.816 39.4355 240.869 40.357C242.97 38.217 244.948 35.9737 246.851 33.6554C248.734 31.3091 250.474 28.8517 252.06 26.2967C252.456 25.6772 252.437 24.8043 253.209 24.4195C253.981 23.5598 254.616 22.5882 255.093 21.538C255.939 19.9329 256.883 18.3812 257.92 16.8918C258.121 17.2275 258.423 17.492 258.782 17.6485C259.142 17.805 259.542 17.8456 259.926 17.7647C261.81 17.5113 263.6 17.0889 264.344 14.9489C264.724 14.0952 265.188 13.2809 265.729 12.5179C266.209 11.692 266.727 11.7013 267.227 12.5179C267.686 13.1493 268.047 13.8453 268.301 14.5829C268.303 14.1427 268.467 13.7187 268.762 13.3908C269.393 14.9301 268.904 16.4882 268.649 17.9712C267.807 22.646 266.247 27.1636 264.024 31.3652C263.845 31.7031 263.967 32.1724 263.553 32.3883C258.975 34.9601 254.133 37.0813 249.818 39.5217C253.841 37.4474 258.098 35.2322 262.413 33.1298C262.837 32.9233 263.054 32.4352 263.562 32.3789C263.675 32.9796 264.043 32.8012 264.448 32.7168C266.522 32.3588 268.632 32.258 270.731 32.4164C273.425 32.5103 275.064 34.3687 276.619 36.1709C277.239 36.6954 277.753 37.3324 278.135 38.0481C276.251 39.7188 276.374 41.6993 277.193 43.8111C277.757 45.4775 278.672 47.0042 279.878 48.2883C279.96 48.3647 280.024 48.4575 280.067 48.5605C278.858 49.2135 277.451 49.4051 276.111 49.0993C274.77 48.7935 273.588 48.0113 272.785 46.8991C269.582 42.8631 263.996 44.3649 261.283 48.1756C260.223 49.6311 259.509 51.3078 259.196 53.0787C258.882 54.8495 258.978 56.6682 259.474 58.3971C259.963 60.0813 261.088 61.5112 262.613 62.3863C264.137 63.2614 265.943 63.5137 267.651 63.0901C269.332 62.8589 270.876 62.0367 272.003 60.7718C272.517 60.0349 272.781 59.1534 272.756 58.2563C272.888 55.6188 273.821 53.3943 276.317 52.1084C276.738 51.875 277.211 51.7525 277.693 51.7525C278.174 51.7525 278.647 51.875 279.068 52.1084C279.454 55.478 279.341 59.0823 283.298 60.7061C283.439 63.6251 282.101 65.981 280.302 68.1023C277.193 71.7347 273.708 74.9635 270.26 78.3144C266.812 81.6652 263.591 84.6969 260.237 87.8506C256.419 91.4486 252.594 95.0278 248.763 98.5883C246.7 100.466 244.599 102.343 242.574 104.323C241.914 104.961 241.5 104.868 240.935 104.267C240.143 103.403 239.286 102.596 238.448 101.77C233.248 96.6735 228.086 91.5112 222.829 86.499C219.174 83.0262 215.632 79.4407 212.015 75.9303C211.485 75.4131 210.925 74.9274 210.338 74.4755C209.603 73.9029 209.584 73.3773 210.149 72.5982C213.239 68.4402 216.291 64.2446 219.344 60.0584C223.422 54.4925 227.464 48.8984 231.59 43.3512C232.532 42.1029 233.596 40.9765 233.888 39.3809C238.109 33.3363 241.849 27.0663 242.97 19.6044C242.986 19.2941 243.114 19.0002 243.331 18.7762C243.547 18.5522 243.837 18.4131 244.147 18.3842C246.436 17.9149 246.738 17.4926 247.039 15.1273C247.251 13.6223 247.289 12.098 247.152 10.5844C247.112 10.5056 247.077 10.424 247.049 10.3404V10.3404Z" fill="#D4C2EC"/>
<path d="M307.367 14.6017C307.451 15.3998 307.377 16.2065 307.15 16.9764C306.679 16.8074 306.434 17.211 306.142 17.4363C301.622 20.7812 296.407 23.0744 290.881 24.1474C290.458 24.2229 290.061 24.4001 289.722 24.6636C288.509 23.1766 287.744 21.3765 287.518 19.4731C287.012 16.415 287.337 13.2777 288.46 10.3874C288.617 9.94566 288.871 9.54468 289.204 9.21411C290.466 10.3744 291.831 11.4175 293.283 12.3303C297.139 14.3897 301.508 15.2989 305.869 14.949C306.425 14.9208 306.83 14.4985 307.367 14.6017Z" fill="#F56E89"/>
<path d="M234.369 38.0386C234.774 35.2791 235.188 32.529 235.575 29.7695C235.961 27.0099 236.338 24.0815 236.517 21.2187C236.559 21.0355 236.632 20.8609 236.733 20.7025C237.023 20.7331 237.313 20.6532 237.545 20.479C237.778 20.3049 237.935 20.0493 237.986 19.7639C238.468 18.336 238.607 16.8153 238.391 15.3243C239.107 15.0138 239.908 14.9601 240.659 15.1723C241.409 15.3846 242.063 15.8496 242.508 16.4882C242.706 16.7322 242.8 17.239 243.252 17.0889C243.704 16.9387 243.733 16.5445 243.827 16.1502C244.373 13.9445 245.174 11.8608 247.058 10.3872L247.133 10.4623C247.476 12.6888 247.292 14.9644 246.596 17.1076C246.405 17.591 246.046 17.9901 245.584 18.2328C245.123 18.4756 244.59 18.5458 244.081 18.4311C243.346 18.3372 243.073 18.5719 242.988 19.2289C242.159 25.7991 239.333 31.5904 235.556 36.9498C235.236 37.3346 235.151 38.0667 234.369 38.0386Z" fill="#D4C2EC"/>
<path d="M307.367 14.6016C307.215 14.8027 307.023 14.9694 306.802 15.0908C306.581 15.2121 306.337 15.2853 306.085 15.3056C301.984 15.63 297.869 14.8894 294.14 13.1561C292.537 12.4279 291.078 11.4167 289.835 10.1714C289.581 9.8898 289.242 9.65515 289.242 9.23278C289.899 8.39423 290.811 7.79135 291.842 7.51514C295.82 6.16085 300.164 6.34509 304.013 8.03136C306.98 9.27032 307.442 11.8046 307.367 14.6016Z" fill="#F0445F"/>
<path d="M289.713 24.6635C289.572 24.2036 289.666 24.044 290.212 23.9502C294.593 23.1484 298.802 21.6023 302.656 19.3791C303.998 18.5803 305.282 17.6896 306.5 16.7135C307.027 16.3099 307.112 16.4319 307.14 16.9763C306.868 19.5698 305.769 22.0082 304.004 23.9338C302.239 25.8594 299.902 27.1711 297.334 27.6764C297.037 27.7468 296.744 27.8345 296.458 27.9392C296.077 28.0754 295.661 28.0754 295.28 27.9392C293.27 27.6108 291.429 26.6192 290.052 25.1234C289.939 24.9826 289.835 24.8231 289.713 24.6635Z" fill="#F04460"/>
<path d="M315.628 31.9472C315.845 32.3414 315.449 32.4916 315.28 32.6699C311.059 37.0438 306.236 40.4791 300.207 41.9715C297.696 42.6225 295.073 42.7217 292.52 42.2625C292.2 41.6055 292.728 41.3239 293.133 41.0986C296.369 39.0546 299.78 37.2989 303.325 35.8518C306.594 34.472 309.92 33.2988 313.339 32.2382C314.067 31.9566 314.853 31.8567 315.628 31.9472Z" fill="#5A9A7F"/>
<path d="M315.628 31.9471C312.001 32.8853 308.439 34.058 304.964 35.4575C300.839 37.07 296.872 39.0589 293.114 41.3988C292.954 41.4741 292.816 41.5901 292.715 41.7351C292.614 41.8801 292.554 42.049 292.539 42.2248L291.851 42.2718C291.762 42.1936 291.704 42.0851 291.69 41.9671C291.676 41.8491 291.707 41.7302 291.776 41.6335C292.36 40.5822 293.029 39.5873 293.66 38.5549C293.717 38.4516 293.858 38.461 293.98 38.4985C294.668 38.4985 294.838 37.8697 295.186 37.4943C297.72 34.8004 300.537 32.5102 304.286 31.8626C307.595 31.2274 310.984 31.1165 314.328 31.5341C314.794 31.5332 315.249 31.6776 315.628 31.9471V31.9471Z" fill="#71BA9B"/>
<path d="M293.961 38.5362C293.258 39.7877 292.555 41.0391 291.851 42.2906C289.141 46.0683 285.273 48.8678 280.83 50.2688C275.852 51.9769 270.567 52.6166 265.324 52.146H265.088C264.655 52.0897 264.146 52.0521 264.146 51.4702C264.146 50.8883 264.711 50.9352 265.088 50.9633C267.121 51.0994 269.16 51.0994 271.193 50.9633C275.904 50.7594 280.504 49.4746 284.635 47.2089C288.992 44.7079 292.225 40.6413 293.669 35.8424C294.472 33.2711 294.996 30.6217 295.233 27.9393C295.408 27.825 295.613 27.7642 295.822 27.7642C296.031 27.7642 296.236 27.825 296.411 27.9393C296.245 31.5902 295.415 35.1809 293.961 38.5362V38.5362Z" fill="#5C977F"/>
<path d="M278.333 38.3391C279.473 39.8399 280.448 41.4571 281.244 43.1635C281.706 44.0723 281.842 45.1106 281.632 46.1071C281.421 47.1037 280.876 47.9989 280.086 48.645L279.991 48.5605C278.343 46.7337 277.223 44.4954 276.751 42.0841C276.521 41.3745 276.555 40.6064 276.845 39.9193C277.136 39.2321 277.664 38.6715 278.333 38.3391V38.3391Z" fill="#D4C2EC"/>
<path d="M258.165 16.2535C259.389 14.4701 260.162 12.3676 261.801 10.9034C262.353 10.3889 263.027 10.0225 263.761 9.83865C264.494 9.65478 265.262 9.65944 265.993 9.85217C265.955 9.96466 265.898 10.0695 265.823 10.1619C265.234 10.9793 264.747 11.8649 264.373 12.7994C263.91 13.7427 263.351 14.636 262.705 15.4651C262.462 15.8179 262.151 16.1188 261.79 16.35C261.428 16.5813 261.024 16.7382 260.601 16.8117C260.178 16.8852 259.745 16.8736 259.326 16.7778C258.908 16.6819 258.513 16.5036 258.165 16.2535V16.2535Z" fill="#D3C2EC"/>
<path d="M319.566 12.7338C321.312 12.6024 323.066 12.6024 324.813 12.7338C330.757 12.837 336.711 12.9966 342.655 13.128C342.891 13.128 343.126 13.128 343.362 13.1749C343.597 13.2218 343.823 13.3157 343.814 13.6067C343.813 13.6663 343.799 13.725 343.775 13.7793C343.75 13.8337 343.715 13.8825 343.671 13.9228C343.627 13.9632 343.575 13.9942 343.519 14.0141C343.462 14.034 343.402 14.0422 343.343 14.0384C342.721 14.0384 342.09 14.0384 341.459 13.9821L320.093 13.494C319.947 13.4234 319.822 13.3163 319.729 13.1831C319.637 13.0499 319.581 12.8951 319.566 12.7338V12.7338Z" fill="#46348B"/>
<path d="M234.369 38.0386C238.844 31.9658 242.16 25.4143 242.847 17.7647C245.306 18.5531 246.37 17.9336 246.719 15.4276C246.945 13.7662 246.992 12.0861 247.115 10.4154C247.708 10.3591 247.595 10.7908 247.595 11.1193C247.633 12.7999 247.519 14.4805 247.256 16.1409C246.973 17.8304 246.107 18.5907 244.279 18.7408C243.704 18.7878 243.337 18.8441 243.262 19.5387C242.376 25.9587 239.597 31.5998 235.989 36.8935L234.265 39.409C234.171 39.5404 234.039 39.6249 233.879 39.4653L234.369 38.0386Z" fill="#3F378D"/>
<path d="M321.318 24.6446C321.657 24.241 322.119 24.4006 322.524 24.41L343.333 24.8511H343.804C344.115 24.8511 344.511 24.8511 344.52 25.2735C344.529 25.6959 344.106 25.7522 343.738 25.7428L330.814 25.4424C328.496 25.3861 326.188 25.358 323.871 25.3298C323.323 25.3555 322.774 25.2856 322.25 25.1233L321.318 24.6446Z" fill="#43318A"/>
<path d="M268.753 13.419L268.451 15.5778C268.032 14.5632 267.531 13.5839 266.954 12.6494C266.624 11.9454 266.228 12.0675 266.012 12.6494C265.531 13.879 264.448 14.7988 264.259 16.1598C264.243 16.2965 264.194 16.4272 264.115 16.5401C264.036 16.6531 263.93 16.7449 263.807 16.8074C262.215 17.6146 260.642 18.4781 258.739 18.1496C257.995 18.0182 257.967 17.502 257.91 16.9482C257.91 16.8543 257.957 16.7605 257.976 16.676C258.142 16.6191 258.317 16.5957 258.491 16.6069C258.666 16.6182 258.837 16.664 258.994 16.7417C259.607 16.9558 260.272 16.9732 260.895 16.7914C261.518 16.6095 262.069 16.2377 262.47 15.728C263.464 14.5754 264.28 13.2815 264.891 11.8891C265.145 11.1913 265.494 10.5313 265.927 9.92741L265.993 9.87109C267.66 10.4624 268.244 11.9173 268.753 13.419Z" fill="#D3C2EC"/>
<path d="M328.807 36.3962C330.069 35.9644 331.351 36.3117 332.622 36.3211C336.221 36.3774 339.829 36.4713 343.427 36.5464C343.738 36.5464 344.059 36.5464 344.369 36.6214C344.418 36.6226 344.467 36.6336 344.512 36.6537C344.556 36.6738 344.597 36.7027 344.63 36.7386C344.663 36.7744 344.689 36.8166 344.706 36.8626C344.723 36.9086 344.73 36.9574 344.727 37.0063C344.719 37.107 344.674 37.2012 344.601 37.2718C344.529 37.3424 344.433 37.3847 344.332 37.3911C343.98 37.41 343.628 37.41 343.277 37.3911C338.859 37.2972 334.431 37.1846 330.003 37.1189C329.419 37.1189 329.156 36.9124 329.061 36.4056L328.948 36.3586L328.807 36.3962Z" fill="#412F89"/>
<path d="M253.191 24.4571C251.58 28.3148 248.951 31.506 246.38 34.7818C244.702 36.8397 242.919 38.8103 241.038 40.6856C240.822 40.9109 240.549 41.4084 240.209 41.0423C239.87 40.6763 240.388 40.4416 240.596 40.2257C244.733 36.1263 248.375 31.5587 251.448 26.6159C251.966 25.7524 252.39 24.8419 252.908 23.9502C253.153 23.4903 253.181 23.8564 253.256 24.0441L253.191 24.4571Z" fill="#41398F"/>
<path d="M279.351 52.3994C281.642 54.3789 283.079 57.1625 283.364 60.1711C282.695 60.5935 282.158 60.2274 281.668 59.852C281.002 59.3032 280.5 58.5823 280.217 57.7683C279.748 56.3741 279.386 54.9464 279.134 53.4976C279.072 53.3115 279.059 53.1125 279.097 52.9201C279.135 52.7276 279.222 52.5482 279.351 52.3994V52.3994Z" fill="#D3C3ED"/>
<path d="M278.333 38.3391C276.449 40.0567 276.854 42.0372 277.636 44.0927C278.123 45.318 278.756 46.4808 279.52 47.5562C279.728 47.8659 280.123 48.0912 279.982 48.5605C279.549 48.7201 279.36 48.4103 279.143 48.1287C277.774 46.3636 276.829 44.3083 276.383 42.1217C275.988 40.1506 276.638 38.752 278.117 38.1326L278.333 38.3391Z" fill="#483E92"/>
<path d="M265.927 9.90863C265.312 12.3616 264.028 14.5969 262.215 16.3663C260.925 17.5489 259.446 17.4081 257.976 16.6572L258.164 16.2536C261.235 16.7417 261.989 16.385 263.591 13.588C264.137 12.6494 264.533 11.6357 265.06 10.6689C265.22 10.3028 265.314 9.78662 265.927 9.90863Z" fill="#473E92"/>
<path d="M279.351 52.3993C279.498 54.3327 279.943 56.2322 280.67 58.0309C280.848 58.6153 281.202 59.1311 281.684 59.5088C282.165 59.8864 282.752 60.1077 283.364 60.1428V60.7998C282.714 60.8046 282.077 60.6172 281.533 60.2614C280.99 59.9055 280.565 59.3972 280.312 58.8006C279.47 56.8742 278.921 54.8339 278.682 52.7466C278.616 52.3805 278.682 52.1177 279.134 52.2022L279.351 52.3993Z" fill="#494094"/>
<path d="M238.382 15.2869C238.778 15.2869 238.938 15.4464 238.9 15.85C238.82 17.2099 238.621 18.5604 238.306 19.886C238.223 20.1488 238.083 20.3902 237.896 20.593C237.709 20.7957 237.479 20.9549 237.223 21.0593C236.856 21.2376 236.733 21.0593 236.724 20.7026C237.581 19.6045 237.609 18.2622 237.779 16.9482C237.763 16.4479 237.897 15.9543 238.165 15.5309L238.382 15.2869Z" fill="#4A4195"/>
<path d="M238.165 15.5496C238.2 16.7918 238.083 18.0337 237.817 19.2477C237.757 19.5555 237.627 19.8456 237.438 20.096C237.248 20.3465 237.004 20.5507 236.724 20.6931C237.138 19.3603 236.724 17.8773 237.346 16.6008C237.543 16.1597 237.694 15.7467 238.165 15.5496Z" fill="#CDC2E9"/>
<path d="M263.553 32.4069C263.255 32.9079 262.811 33.3071 262.281 33.552C258.193 35.6076 254.114 37.6913 250.035 39.7656C249.932 39.8233 249.825 39.8735 249.714 39.9158C249.366 40.0096 248.914 40.5165 248.688 40.0566C248.462 39.5966 249.13 39.5216 249.432 39.362C253.954 37.0405 258.485 34.7284 263.025 32.4257C263.204 32.3318 263.364 32.2192 263.543 32.4257L263.553 32.4069Z" fill="#443A8F"/>
<path d="M292.049 9.55186C292.38 9.47963 292.723 9.4862 293.05 9.57102C293.377 9.65584 293.68 9.81651 293.933 10.04C296.477 11.505 299.314 12.3928 302.242 12.6399C303.023 12.6822 303.805 12.5836 304.55 12.3489C305.219 12.18 305.492 11.6919 304.776 11.232C303.124 10.1042 301.212 9.41306 299.218 9.22334C298.399 9.22334 297.541 8.6508 296.703 9.38291C297.296 10.1338 298.238 10.0493 299.001 10.3215C299.764 10.5937 300.81 10.8284 301.714 11.0818C301.893 11.1287 302.11 11.2132 302.044 11.4666C301.978 11.7201 301.78 11.7201 301.573 11.6731C299.967 11.3752 298.391 10.9355 296.863 10.3591C296.383 10.1338 295.799 9.8053 295.921 9.15766C296.043 8.51002 296.684 8.51001 297.259 8.47246C299.574 8.39614 301.871 8.91323 303.928 9.97424C304.415 10.2117 304.857 10.529 305.238 10.9129C306.114 11.7576 305.897 12.5742 304.729 12.8839C303.018 13.3276 301.221 13.3276 299.51 12.8839C297.227 12.3133 295.029 11.4454 292.972 10.3028C292.642 10.0814 292.333 9.83003 292.049 9.55186V9.55186Z" fill="#F56888"/>
<path fill-rule="evenodd" clip-rule="evenodd" d="M209.895 72.8686C203.451 77.228 168.5 111.079 168.5 111.079C168.5 111.079 211.566 111.079 228.863 111.079H235.909C236.723 111.059 239.062 108.532 241.835 105.536C244.558 102.594 247.699 99.2 250.228 97.2809C255.344 93.3991 216.339 68.5091 209.895 72.8686Z" fill="#D5C3ED"/>
<path d="M32.84 4.432V13H34.148V6.88H34.196L36.824 13H37.952L40.58 6.88H40.628V13H41.936V4.432H40.388L37.412 11.296H37.376L34.388 4.432H32.84ZM46.8973 6.628C46.1293 6.628 45.5053 6.76 45.0493 7.048C44.5213 7.36 44.1853 7.864 44.0533 8.536L45.3133 8.644C45.3853 8.296 45.5653 8.044 45.8533 7.876C46.0933 7.732 46.4173 7.66 46.8133 7.66C47.7493 7.66 48.2173 8.092 48.2173 8.956V9.208L46.8253 9.244C45.9133 9.268 45.1933 9.448 44.6893 9.808C44.1373 10.18 43.8613 10.72 43.8613 11.416C43.8613 11.932 44.0533 12.352 44.4493 12.676C44.8093 13 45.3133 13.168 45.9613 13.168C46.5133 13.168 46.9933 13.06 47.4013 12.868C47.7613 12.688 48.0613 12.436 48.3013 12.124V13H49.4773V9.04C49.4773 8.284 49.2853 7.708 48.9133 7.312C48.4813 6.856 47.8093 6.628 46.8973 6.628ZM48.2173 10.132V10.492C48.2173 10.972 48.0133 11.38 47.6293 11.704C47.2453 12.028 46.7893 12.196 46.2493 12.196C45.9253 12.196 45.6613 12.112 45.4693 11.956C45.2653 11.8 45.1693 11.608 45.1693 11.368C45.1693 10.6 45.7453 10.192 46.9093 10.168L48.2173 10.132ZM53.4173 4.792L52.1453 5.32V6.796H50.9933V7.852H52.1453V11.452C52.1453 11.944 52.2533 12.316 52.4933 12.58C52.7333 12.856 53.1293 13 53.6573 13H54.6773V11.944H53.8613C53.7053 11.944 53.5973 11.896 53.5253 11.824C53.4533 11.74 53.4173 11.62 53.4173 11.452V7.852H54.8333V6.796H53.4173V4.792ZM59.2175 6.628C58.2575 6.628 57.5135 6.952 56.9735 7.6C56.4695 8.2 56.2175 8.968 56.2175 9.904C56.2175 10.864 56.4695 11.632 56.9855 12.232C57.5135 12.856 58.2455 13.168 59.1935 13.168C59.9855 13.168 60.6335 12.964 61.1135 12.568C61.5935 12.16 61.9175 11.536 62.0615 10.708H60.8015C60.6815 11.644 60.1535 12.124 59.2055 12.124C58.6535 12.124 58.2455 11.92 57.9695 11.536C57.6695 11.14 57.5255 10.588 57.5255 9.892C57.5255 9.196 57.6695 8.644 57.9815 8.26C58.2815 7.864 58.6895 7.672 59.2175 7.672C59.6495 7.672 59.9975 7.768 60.2615 7.972C60.5255 8.164 60.6935 8.476 60.7775 8.896H62.0375C61.9175 8.128 61.6055 7.552 61.1255 7.168C60.6455 6.808 60.0095 6.628 59.2175 6.628ZM63.7489 4.264V13H65.0209V9.52C65.0209 8.98 65.1529 8.536 65.4289 8.188C65.6929 7.84 66.0409 7.672 66.4729 7.672C66.9529 7.672 67.3249 7.816 67.5649 8.116C67.7809 8.404 67.9009 8.812 67.9009 9.364V13H69.1729V9.148C69.1729 8.332 68.9929 7.708 68.6329 7.288C68.2489 6.844 67.6849 6.628 66.9409 6.628C66.5449 6.628 66.1969 6.7 65.8849 6.868C65.5369 7.036 65.2489 7.312 65.0209 7.672V4.264H63.7489ZM71.3361 4.432V9.736C71.3361 10.852 71.6481 11.704 72.2721 12.304C72.8721 12.88 73.7361 13.168 74.8761 13.168C76.0041 13.168 76.8681 12.868 77.4801 12.292C78.0921 11.704 78.4041 10.852 78.4041 9.736V4.432H77.0961V9.76C77.0961 10.528 76.9161 11.092 76.5681 11.464C76.2081 11.836 75.6441 12.028 74.8761 12.028C74.0961 12.028 73.5321 11.836 73.1721 11.464C72.8121 11.092 72.6441 10.528 72.6441 9.76V4.432H71.3361ZM82.8743 6.628C82.1303 6.628 81.5183 6.784 81.0503 7.108C80.5823 7.42 80.3543 7.864 80.3543 8.428C80.3543 8.956 80.5943 9.376 81.0743 9.676C81.3623 9.868 81.8783 10.048 82.6103 10.216C83.2463 10.36 83.6663 10.48 83.8583 10.576C84.2183 10.744 84.4103 10.984 84.4103 11.284C84.4103 11.836 83.9063 12.124 82.9223 12.124C82.4423 12.124 82.1063 12.04 81.8903 11.884C81.6743 11.716 81.5183 11.416 81.4463 10.996H80.1983C80.3423 12.436 81.2543 13.168 82.9583 13.168C84.7943 13.168 85.7183 12.508 85.7183 11.2C85.7183 10.648 85.4663 10.216 84.9743 9.904C84.6383 9.688 84.1103 9.484 83.4023 9.316C82.7783 9.16 82.3703 9.04 82.1543 8.944C81.8183 8.788 81.6503 8.608 81.6503 8.392C81.6503 8.152 81.7583 7.96 81.9863 7.84C82.1783 7.72 82.4663 7.672 82.8503 7.672C83.2823 7.672 83.6183 7.744 83.8343 7.888C84.0383 8.02 84.1823 8.248 84.2783 8.584H85.5143C85.3703 7.276 84.4823 6.628 82.8743 6.628ZM92.2047 7.288V8.188H88.4847L87.9087 11.164H91.0527C90.3327 11.836 89.0847 12.46 87.3327 13.012L87.9687 14.044C89.9487 13.288 91.3647 12.4 92.2047 11.368V14.248H93.3087V11.164H96.5007C96.5007 11.644 96.4647 11.992 96.4167 12.208C96.3447 12.436 96.1407 12.556 95.8047 12.556C95.3127 12.556 94.7847 12.532 94.2207 12.508L94.4967 13.588C94.9767 13.6 95.4807 13.612 95.9847 13.612C96.7047 13.6 97.1607 13.396 97.3647 12.988C97.5567 12.592 97.6647 11.656 97.6647 10.192H93.3087V9.22H97.2327V6.244H88.2567V7.288H92.2047ZM92.2047 9.22V10.192H89.2527L89.4927 9.22H92.2047ZM93.3087 8.188V7.288H96.0687V8.188H93.3087ZM89.1327 4.924H89.7567C90.0447 5.308 90.3087 5.716 90.5367 6.124L91.5567 5.752C91.4007 5.488 91.2087 5.212 90.9807 4.924H92.6727V3.928H89.6847C89.7567 3.748 89.8407 3.556 89.9247 3.352L88.8207 3.112C88.5087 3.94 87.9807 4.708 87.2487 5.428L88.2447 6.04C88.5687 5.692 88.8687 5.32 89.1327 4.924ZM94.2327 4.876H94.9527C95.2647 5.272 95.5287 5.692 95.7447 6.124L96.7527 5.752C96.5967 5.476 96.3927 5.188 96.1527 4.876H98.0967V3.88H94.7127C94.7727 3.712 94.8327 3.532 94.9047 3.352L93.8127 3.112C93.5367 3.94 93.0807 4.72 92.4447 5.44L93.4287 6.052C93.7287 5.692 93.9927 5.296 94.2327 4.876ZM100.413 4.432L99.9447 9.232H101.169C101.337 8.92 101.565 8.692 101.877 8.548C102.165 8.404 102.489 8.344 102.873 8.344C103.449 8.344 103.881 8.512 104.193 8.848C104.505 9.184 104.661 9.652 104.661 10.252C104.661 10.804 104.481 11.236 104.121 11.572C103.761 11.896 103.317 12.064 102.789 12.064C102.309 12.064 101.925 11.956 101.637 11.74C101.313 11.5 101.121 11.128 101.073 10.648H99.7887C99.8487 11.44 100.185 12.076 100.797 12.532C101.349 12.952 102.009 13.168 102.777 13.168C103.629 13.168 104.361 12.916 104.973 12.412C105.621 11.848 105.957 11.128 105.957 10.24C105.957 9.316 105.693 8.596 105.189 8.068C104.685 7.54 104.025 7.276 103.221 7.276C102.837 7.276 102.477 7.336 102.165 7.468C101.817 7.588 101.517 7.78 101.253 8.056H101.217L101.469 5.584H105.573V4.432H100.413ZM108.436 3.22V4.456H107.788V5.512H108.436V10.324H107.656V11.38H113.404V10.324H112.72V5.512H113.344V4.456H112.72V3.244H111.616V4.456H109.54V3.22H108.436ZM109.54 10.324V9.388H111.616V10.324H109.54ZM111.616 5.512V6.46H109.54V5.512H111.616ZM109.54 8.392V7.456H111.616V8.392H109.54ZM111.676 11.524L110.8 12.088C111.304 12.796 111.712 13.444 112.012 14.044L112.696 13.564L113.512 14.32C114.304 13.264 114.784 11.956 114.952 10.384H116.992V12.568C116.992 12.892 116.86 13.06 116.596 13.06C116.224 13.06 115.828 13.036 115.396 13.012L115.708 14.128H116.956C117.736 14.128 118.132 13.744 118.132 12.976V3.544H113.884V9.28C113.872 10.84 113.524 12.136 112.852 13.192C112.564 12.712 112.168 12.148 111.676 11.524ZM109.072 11.548C108.64 12.328 108.136 13 107.56 13.564L108.46 14.212C109.036 13.588 109.552 12.844 109.984 11.992L109.072 11.548ZM115.024 7.492H116.992V9.34H115.024V7.492ZM116.992 6.46H115.024V4.624H116.992V6.46ZM123.316 6.568V7.66H126.64V9.22H124.084V14.236H125.224V13.648H129.316V14.224H130.444V9.22H127.804V7.66H131.152V6.568H127.804V4.816C128.884 4.66 129.832 4.432 130.66 4.144L130.096 3.184C128.32 3.76 126.136 4.048 123.532 4.048L123.892 5.068C124.864 5.068 125.776 5.02 126.64 4.948V6.568H123.316ZM125.224 12.58V10.288H129.316V12.58H125.224ZM121.288 3.28L120.508 4.012C121.384 4.588 122.068 5.128 122.548 5.62L123.328 4.852C122.764 4.324 122.08 3.796 121.288 3.28ZM121.012 6.136L120.208 6.916C121.096 7.552 121.792 8.14 122.284 8.692L123.076 7.9C122.524 7.312 121.828 6.724 121.012 6.136ZM122.176 9.364C121.684 10.804 121.096 12.208 120.412 13.588L121.552 14.092C122.152 12.748 122.716 11.308 123.22 9.772L122.176 9.364ZM133.288 3.904V4.996H137.752V3.904H133.288ZM132.844 7.144V8.248H134.38C133.828 10.264 133.396 11.5 133.072 11.968C133.024 12.004 132.952 12.04 132.832 12.064L133.108 13.144C134.572 12.88 135.928 12.532 137.188 12.1L137.5 12.868L138.484 12.364C137.98 11.152 137.452 10.036 136.9 9.028L135.94 9.496C136.216 10.012 136.492 10.564 136.768 11.152C135.964 11.452 135.16 11.692 134.368 11.86C134.68 11.092 135.052 9.892 135.484 8.248H138.184V7.144H132.844ZM139.816 3.196V5.524H138.292V6.628H139.816V6.736C139.792 9.868 139.048 12.136 137.596 13.552L138.448 14.308C140.08 12.712 140.908 10.192 140.944 6.736V6.628H142.432C142.408 9.82 142.372 11.704 142.3 12.268C142.204 12.844 141.904 13.132 141.376 13.132C141.064 13.132 140.692 13.108 140.26 13.072L140.524 14.08C141.004 14.104 141.34 14.128 141.532 14.128C142.624 14.128 143.236 13.672 143.368 12.76C143.476 11.848 143.536 9.436 143.536 5.524H140.944V3.196H139.816Z" fill="#918AE3"/>
<path d="M38.952 30.66V33.014H53.032V30.66H38.952ZM39.722 26.216V28.526H52.284V26.216H39.722ZM44.386 27.338V30.836C44.386 32.882 43.924 35.698 38.952 37.502C39.568 37.964 40.382 38.866 40.712 39.416C45.948 37.15 47.026 33.674 47.026 30.88V27.338H44.386ZM47.422 32.332L45.2 32.794C46.278 36.116 48.17 38.382 51.426 39.46C51.778 38.778 52.504 37.766 53.076 37.238C50.172 36.49 48.302 34.774 47.422 32.332ZM38.094 30.902H32.946V33.344H35.52V38.998H38.094V30.902ZM38.094 37.854H35.674C34.662 38.646 33.474 39.416 32.484 40.032L33.782 42.782C34.97 41.814 35.96 40.978 36.928 40.12C38.358 41.836 40.184 42.474 42.89 42.584C45.53 42.694 49.974 42.65 52.636 42.518C52.746 41.726 53.186 40.45 53.472 39.834C50.502 40.076 45.508 40.142 42.934 40.032C40.646 39.944 38.974 39.306 38.094 37.854ZM32.99 24.412C34.288 25.402 35.872 26.876 36.532 27.91L38.644 26.172C37.896 25.138 36.268 23.752 34.948 22.828L32.99 24.412ZM48.918 22.3C48.522 23.378 47.73 24.83 47.092 25.798L49.248 26.568C49.952 25.71 50.81 24.412 51.624 23.136L48.918 22.3ZM40.294 23.268C41.064 24.346 41.834 25.798 42.076 26.744L44.474 25.71C44.166 24.742 43.352 23.356 42.538 22.366L40.294 23.268ZM65.022 22.388C64.274 25.446 62.932 28.482 61.26 30.374C61.854 30.77 62.91 31.628 63.372 32.09C65.132 29.912 66.694 26.458 67.618 22.982L65.022 22.388ZM64.406 32.178C63.9 34.62 62.954 37.128 61.722 38.668C62.338 38.998 63.46 39.68 63.966 40.098C65.198 38.316 66.342 35.5 66.958 32.706L64.406 32.178ZM65.506 26.26L64.516 28.702H74.526V26.26H65.506ZM68.036 27.338V40.01C68.036 40.296 67.926 40.362 67.64 40.362C67.332 40.362 66.408 40.384 65.484 40.34C65.858 41.066 66.254 42.232 66.386 43.002C67.794 43.002 68.872 42.892 69.642 42.474C70.434 42.034 70.654 41.308 70.654 40.032V27.338H68.036ZM71.424 32.75C72.502 35.016 73.426 38.052 73.668 40.032L76.198 39.152C75.89 37.15 74.944 34.224 73.8 31.958L71.424 32.75ZM73.822 26.26V26.612C73.668 28.152 73.426 30.11 73.228 31.298L75.494 31.694C75.78 30.374 76.176 28.328 76.44 26.524L74.592 26.194L74.174 26.26H73.822ZM60.314 22.41C59.192 25.556 57.278 28.68 55.276 30.682C55.738 31.32 56.442 32.772 56.684 33.41C59.082 30.902 61.37 26.942 62.8 23.18L60.314 22.41ZM58.18 28.482V42.958H60.71V25.996L60.688 25.974L58.18 28.482ZM79.036 30.99V33.872H99.408V30.99H79.036ZM108.032 23.114V25.49H116.04V23.114H108.032ZM106.734 23.114V25.952C106.734 27.822 106.25 29.692 102.224 30.968C102.664 31.408 103.5 32.596 103.764 33.19C108.362 31.606 109.374 28.68 109.374 26.04V23.114H106.734ZM114.786 23.114V28.306C114.786 30.704 115.424 31.43 117.602 31.43C118.02 31.43 119.252 31.43 119.714 31.43C121.606 31.43 122.266 30.55 122.486 27.184C121.804 27.008 120.682 26.568 120.154 26.15C120.088 28.658 119.978 29.054 119.45 29.054C119.164 29.054 118.284 29.054 118.042 29.054C117.514 29.054 117.448 28.966 117.448 28.262V23.114H114.786ZM102.4 33.828V36.16H122.2V33.828H102.4ZM110.936 31.386V42.958H113.598V31.386H110.936ZM110.166 35.06C108.45 37.238 105.128 39.262 101.96 40.23C102.51 40.758 103.28 41.726 103.676 42.364C106.888 41.11 110.144 38.668 112.08 35.852L110.166 35.06ZM114.368 34.994L112.432 35.83C114.412 38.58 117.69 41 120.924 42.232C121.32 41.572 122.112 40.56 122.706 40.054C119.472 39.086 116.106 37.15 114.368 34.994Z" fill="#918AE3"/>
<path d="M134.014 22.63V39.658C134.014 40.098 133.838 40.252 133.354 40.252C132.892 40.274 131.242 40.296 129.79 40.208C130.208 40.934 130.714 42.188 130.846 42.958C133.002 42.98 134.52 42.892 135.532 42.452C136.544 42.034 136.918 41.308 136.918 39.68V22.63H134.014ZM139.316 28.416C141.054 31.65 142.726 35.808 143.188 38.47L146.07 37.326C145.52 34.576 143.694 30.55 141.89 27.448L139.316 28.416ZM128.25 27.668C127.788 30.55 126.666 34.422 124.884 36.666C125.61 36.952 126.82 37.568 127.458 38.052C129.306 35.61 130.516 31.496 131.264 28.174L128.25 27.668ZM148.952 37.282C148.952 36.798 150.646 35.984 150.646 35.984V35.918C152.934 33.85 155.31 31.012 157.07 28.174L154.76 26.656C153.198 29.604 150.778 32.596 149.964 33.366C149.194 34.136 148.71 34.62 148.072 34.752C148.402 35.456 148.82 36.754 148.952 37.282ZM148.952 37.282C149.59 36.93 150.558 36.71 156.432 35.764C156.344 35.214 156.278 34.158 156.322 33.454L150.008 34.334L148.82 35.148L148.952 37.282ZM148.776 31.914C148.776 31.43 150.382 30.572 150.382 30.572V30.506C151.944 28.592 153.638 25.864 154.782 23.29L152.142 22.212C151.284 24.742 149.766 27.426 149.26 28.108C148.754 28.812 148.38 29.252 147.896 29.384C148.182 30.088 148.622 31.364 148.776 31.914ZM148.776 31.914C149.282 31.672 150.118 31.496 154.276 31.1C154.298 30.528 154.408 29.56 154.584 28.856L149.876 29.208L148.71 29.956L148.776 31.914ZM148.072 39.394L148.534 42.122C150.734 41.594 153.55 40.956 156.19 40.318L155.904 37.832C153.066 38.426 150.074 39.064 148.072 39.394ZM156.784 24.17V26.81H168.202V24.17H156.784ZM156.41 39.02V41.66H168.664V39.02H156.41ZM161.074 25.05V40.516H163.956V25.05H161.074ZM176.672 28.526C175.418 31.166 173.24 33.762 170.952 35.346C171.568 35.764 172.646 36.71 173.108 37.194C175.396 35.346 177.794 32.376 179.312 29.34L176.672 28.526ZM181.732 28.9V39.108C181.732 41.858 182.458 42.672 185.142 42.672C185.692 42.672 188.002 42.672 188.574 42.672C190.928 42.672 191.632 41.594 191.94 38.008C191.236 37.854 190.136 37.414 189.564 36.974C189.432 39.702 189.256 40.23 188.354 40.23C187.826 40.23 185.912 40.23 185.472 40.23C184.504 40.23 184.35 40.098 184.35 39.108V28.9H181.732ZM189.168 30.418C187.562 31.65 185.032 33.058 182.678 34.004C183.03 34.532 183.448 35.412 183.602 35.962C186.11 35.016 188.97 33.784 191.148 32.442L189.168 30.418ZM171.788 24.192V26.722H191.368V24.192H171.788ZM176.694 22.322V28.768H179.29V22.322H176.694ZM183.954 22.322V28.812H186.594V22.322H183.954ZM175.066 33.146V42.98H177.662V30.55V30.528L175.066 33.146Z" fill="#F3ACDB"/>
</svg>
