<svg width="390" height="631" viewBox="0 0 390 631" fill="none" xmlns="http://www.w3.org/2000/svg">
<path d="M194.697 -0.999756L68.52 470.323L320.874 470.323L194.697 -0.999756Z" fill="url(#paint0_linear_2221_3421)" fill-opacity="0.2"/>
<path d="M0.1532 -0.656319L313.045 373.729L84.1492 479.979L0.1532 -0.656319Z" fill="url(#paint1_linear_2221_3421)" fill-opacity="0.2"/>
<path d="M389.745 -0.656319L76.8532 373.729L305.749 479.979L389.745 -0.656319Z" fill="url(#paint2_linear_2221_3421)" fill-opacity="0.2"/>
<path d="M100.431 151.432L106.412 149.439L99.1375 127.604L99.5822 127.455L115.084 146.55L119.287 145.15L120.239 120.573L120.684 120.425L127.959 142.261L133.94 140.268L123.251 108.182L115.557 110.745L114.53 137.174L114.13 137.308L97.4346 116.782L89.741 119.346L100.431 151.432Z" fill="white"/>
<path d="M100.431 151.432L99.4819 151.748L99.798 152.697L100.747 152.381L100.431 151.432ZM106.412 149.439L106.728 150.388L107.677 150.072L107.361 149.123L106.412 149.439ZM99.1375 127.604L98.8215 126.655L97.8727 126.971L98.1888 127.92L99.1375 127.604ZM99.5822 127.455L100.359 126.825L99.9225 126.288L99.2662 126.507L99.5822 127.455ZM115.084 146.55L114.308 147.18L114.744 147.718L115.4 147.499L115.084 146.55ZM119.287 145.15L119.603 146.099L120.259 145.88L120.286 145.189L119.287 145.15ZM120.239 120.573L119.923 119.625L119.267 119.843L119.24 120.535L120.239 120.573ZM120.684 120.425L121.633 120.109L121.317 119.16L120.368 119.477L120.684 120.425ZM127.959 142.261L127.01 142.577L127.326 143.526L128.275 143.21L127.959 142.261ZM133.94 140.268L134.256 141.217L135.205 140.901L134.889 139.952L133.94 140.268ZM123.251 108.182L124.199 107.866L123.883 106.917L122.935 107.233L123.251 108.182ZM115.557 110.745L115.241 109.796L114.585 110.015L114.558 110.706L115.557 110.745ZM114.53 137.174L114.846 138.123L115.502 137.905L115.529 137.213L114.53 137.174ZM114.13 137.308L113.354 137.939L113.79 138.475L114.446 138.257L114.13 137.308ZM97.4346 116.782L98.2104 116.151L97.7743 115.615L97.1185 115.834L97.4346 116.782ZM89.741 119.346L89.4249 118.397L88.4762 118.713L88.7922 119.662L89.741 119.346ZM100.747 152.381L106.728 150.388L106.096 148.491L100.115 150.483L100.747 152.381ZM107.361 149.123L100.086 127.288L98.1888 127.92L105.463 149.755L107.361 149.123ZM99.4536 128.552L99.8983 128.404L99.2662 126.507L98.8215 126.655L99.4536 128.552ZM98.8059 128.086L114.308 147.18L115.861 145.92L100.359 126.825L98.8059 128.086ZM115.4 147.499L119.603 146.099L118.971 144.201L114.768 145.601L115.4 147.499ZM120.286 145.189L121.239 120.612L119.24 120.535L118.288 145.111L120.286 145.189ZM120.556 121.522L121 121.374L120.368 119.477L119.923 119.625L120.556 121.522ZM119.735 120.741L127.01 142.577L128.908 141.945L121.633 120.109L119.735 120.741ZM128.275 143.21L134.256 141.217L133.624 139.32L127.643 141.312L128.275 143.21ZM134.889 139.952L124.199 107.866L122.302 108.498L132.992 140.584L134.889 139.952ZM122.935 107.233L115.241 109.796L115.873 111.694L123.567 109.13L122.935 107.233ZM114.558 110.706L113.531 137.136L115.529 137.213L116.556 110.784L114.558 110.706ZM114.214 136.226L113.814 136.359L114.446 138.257L114.846 138.123L114.214 136.226ZM114.905 136.677L98.2104 116.151L96.6588 117.413L113.354 137.939L114.905 136.677ZM97.1185 115.834L89.4249 118.397L90.057 120.294L97.7507 117.731L97.1185 115.834ZM88.7922 119.662L99.4819 151.748L101.379 151.116L90.6897 119.029L88.7922 119.662Z" fill="white" fill-opacity="0.9"/>
<path d="M146.439 138.365C149.757 137.746 152.167 135.842 153.019 133.252L153.434 133.174L154.061 136.538L160.697 135.301L157.466 117.975C156.457 112.56 152.062 110.089 145.335 111.344C138.952 112.534 135.309 116.265 135.608 120.81L135.624 121.022L141.845 119.862L141.873 119.761C142.124 118.165 143.509 117.025 145.928 116.574C148.693 116.058 150.423 117.023 150.831 119.212L151.222 121.309L145.162 122.82C138.917 124.366 135.89 127.696 136.741 132.258L136.75 132.304C137.609 136.912 141.6 139.267 146.439 138.365ZM143.239 130.665L143.23 130.619C142.887 128.775 144.09 127.43 146.936 126.709L151.991 125.433L152.339 127.299C152.837 129.972 150.892 132.456 147.782 133.036C145.455 133.47 143.6 132.6 143.239 130.665Z" fill="white"/>
<path d="M153.019 133.252L152.836 132.269L152.254 132.377L152.069 132.939L153.019 133.252ZM153.434 133.174L154.417 132.991L154.234 132.008L153.251 132.191L153.434 133.174ZM154.061 136.538L153.078 136.722L153.262 137.705L154.245 137.521L154.061 136.538ZM160.697 135.301L160.88 136.284L161.863 136.101L161.68 135.118L160.697 135.301ZM135.608 120.81L134.61 120.876L134.611 120.884L135.608 120.81ZM135.624 121.022L134.626 121.096L134.709 122.21L135.807 122.005L135.624 121.022ZM141.845 119.862L142.028 120.845L142.635 120.732L142.806 120.138L141.845 119.862ZM141.873 119.761L142.835 120.037L142.852 119.978L142.861 119.917L141.873 119.761ZM151.222 121.309L151.464 122.279L152.377 122.051L152.205 121.125L151.222 121.309ZM145.162 122.82L145.402 123.791L145.404 123.79L145.162 122.82ZM146.936 126.709L146.691 125.739L146.69 125.74L146.936 126.709ZM151.991 125.433L152.974 125.249L152.779 124.202L151.746 124.463L151.991 125.433ZM146.622 139.348C150.209 138.679 152.977 136.58 153.969 133.564L152.069 132.939C151.357 135.105 149.304 136.813 146.256 137.382L146.622 139.348ZM153.203 134.235L153.617 134.157L153.251 132.191L152.836 132.269L153.203 134.235ZM152.451 133.358L153.078 136.722L155.044 136.355L154.417 132.991L152.451 133.358ZM154.245 137.521L160.88 136.284L160.514 134.318L153.878 135.555L154.245 137.521ZM161.68 135.118L158.449 117.791L156.483 118.158L159.714 135.484L161.68 135.118ZM158.449 117.791C157.898 114.836 156.393 112.586 154.027 111.282C151.692 109.997 148.655 109.707 145.151 110.361L145.518 112.327C148.742 111.726 151.266 112.045 153.062 113.034C154.828 114.006 156.025 115.699 156.483 118.158L158.449 117.791ZM145.151 110.361C138.518 111.598 134.264 115.609 134.61 120.876L136.606 120.745C136.354 116.921 139.387 113.47 145.518 112.327L145.151 110.361ZM134.611 120.884L134.626 121.096L136.621 120.948L136.605 120.737L134.611 120.884ZM135.807 122.005L142.028 120.845L141.661 118.879L135.44 120.039L135.807 122.005ZM142.806 120.138L142.835 120.037L140.912 119.486L140.883 119.586L142.806 120.138ZM142.861 119.917C143.017 118.925 143.886 117.972 146.111 117.557L145.745 115.591C143.132 116.078 141.231 117.405 140.886 119.606L142.861 119.917ZM146.111 117.557C147.364 117.323 148.23 117.455 148.786 117.757C149.305 118.039 149.689 118.542 149.848 119.395L151.814 119.029C151.565 117.692 150.879 116.619 149.741 116C148.638 115.401 147.257 115.309 145.745 115.591L146.111 117.557ZM149.848 119.395L150.239 121.492L152.205 121.125L151.814 119.029L149.848 119.395ZM150.98 120.338L144.92 121.85L145.404 123.79L151.464 122.279L150.98 120.338ZM144.921 121.849C141.693 122.648 139.161 123.939 137.546 125.74C135.896 127.58 135.279 129.872 135.758 132.441L137.724 132.074C137.353 130.081 137.823 128.427 139.035 127.075C140.283 125.684 142.386 124.537 145.402 123.791L144.921 121.849ZM135.758 132.441L135.767 132.487L137.733 132.12L137.724 132.074L135.758 132.441ZM135.767 132.487C136.244 135.05 137.611 137.042 139.578 138.252C141.534 139.456 144.002 139.836 146.622 139.348L146.256 137.382C144.037 137.795 142.09 137.45 140.626 136.549C139.173 135.655 138.114 134.166 137.733 132.12L135.767 132.487ZM144.222 130.481L144.213 130.435L142.247 130.802L142.256 130.848L144.222 130.481ZM144.213 130.435C144.095 129.803 144.237 129.334 144.618 128.926C145.045 128.469 145.845 128.017 147.182 127.678L146.69 125.74C145.181 126.122 143.957 126.704 143.156 127.56C142.31 128.466 142.021 129.591 142.247 130.802L144.213 130.435ZM147.181 127.679L152.235 126.402L151.746 124.463L146.691 125.739L147.181 127.679ZM151.008 125.616L151.356 127.482L153.322 127.116L152.974 125.249L151.008 125.616ZM151.356 127.482C151.73 129.49 150.296 131.55 147.598 132.053L147.965 134.019C151.488 133.362 153.944 130.453 153.322 127.116L151.356 127.482ZM147.598 132.053C146.589 132.241 145.779 132.127 145.225 131.847C144.7 131.581 144.345 131.14 144.222 130.481L142.256 130.848C142.494 132.124 143.246 133.086 144.321 133.631C145.367 134.161 146.648 134.265 147.965 134.019L147.598 132.053Z" fill="white" fill-opacity="0.9"/>
<path d="M176.934 133.828C178.242 133.709 179.489 133.455 180.315 133.215L179.856 128.15C179.209 128.279 178.746 128.368 177.859 128.449C175.548 128.658 174.475 127.72 174.266 125.409L173.172 113.341L178.471 112.861L178.006 107.726L172.707 108.206L172.151 102.067L165.265 102.691L165.821 108.83L161.853 109.189L162.318 114.325L166.286 113.965L167.521 127.597C167.974 132.592 170.679 134.394 176.934 133.828Z" fill="white"/>
<path d="M180.315 133.215L180.594 134.176L181.385 133.946L181.311 133.125L180.315 133.215ZM179.856 128.15L180.852 128.06L180.751 126.952L179.66 127.169L179.856 128.15ZM173.172 113.341L173.082 112.345L172.086 112.436L172.176 113.431L173.172 113.341ZM178.471 112.861L178.561 113.857L179.557 113.767L179.467 112.771L178.471 112.861ZM178.006 107.726L179.001 107.636L178.911 106.64L177.915 106.73L178.006 107.726ZM172.707 108.206L171.711 108.296L171.801 109.292L172.797 109.202L172.707 108.206ZM172.151 102.067L173.147 101.977L173.056 100.981L172.06 101.071L172.151 102.067ZM165.265 102.691L165.175 101.695L164.179 101.785L164.269 102.781L165.265 102.691ZM165.821 108.83L165.911 109.826L166.907 109.736L166.817 108.74L165.821 108.83ZM161.853 109.189L161.763 108.193L160.767 108.284L160.857 109.28L161.853 109.189ZM162.318 114.325L161.322 114.415L161.413 115.411L162.408 115.321L162.318 114.325ZM166.286 113.965L167.282 113.875L167.192 112.879L166.196 112.969L166.286 113.965ZM177.025 134.823C178.394 134.699 179.705 134.434 180.594 134.176L180.036 132.255C179.274 132.476 178.089 132.719 176.844 132.832L177.025 134.823ZM181.311 133.125L180.852 128.06L178.86 128.24L179.319 133.306L181.311 133.125ZM179.66 127.169C179.029 127.295 178.606 127.377 177.769 127.453L177.949 129.445C178.887 129.36 179.388 129.263 180.052 129.131L179.66 127.169ZM177.769 127.453C176.737 127.546 176.213 127.36 175.923 127.113C175.628 126.862 175.356 126.361 175.261 125.319L173.27 125.499C173.385 126.768 173.754 127.892 174.626 128.635C175.503 129.382 176.67 129.56 177.949 129.445L177.769 127.453ZM175.261 125.319L174.168 113.251L172.176 113.431L173.27 125.499L175.261 125.319ZM173.262 114.337L178.561 113.857L178.381 111.865L173.082 112.345L173.262 114.337ZM179.467 112.771L179.001 107.636L177.01 107.816L177.475 112.951L179.467 112.771ZM177.915 106.73L172.617 107.21L172.797 109.202L178.096 108.722L177.915 106.73ZM173.703 108.116L173.147 101.977L171.155 102.157L171.711 108.296L173.703 108.116ZM172.06 101.071L165.175 101.695L165.355 103.687L172.241 103.063L172.06 101.071ZM164.269 102.781L164.825 108.92L166.817 108.74L166.261 102.601L164.269 102.781ZM165.731 107.834L161.763 108.193L161.943 110.185L165.911 109.826L165.731 107.834ZM160.857 109.28L161.322 114.415L163.314 114.234L162.849 109.099L160.857 109.28ZM162.408 115.321L166.377 114.961L166.196 112.969L162.228 113.329L162.408 115.321ZM165.29 114.055L166.525 127.687L168.517 127.507L167.282 113.875L165.29 114.055ZM166.525 127.687C166.766 130.343 167.632 132.393 169.499 133.631C171.306 134.829 173.834 135.113 177.025 134.823L176.844 132.832C173.779 133.109 171.827 132.775 170.604 131.964C169.442 131.194 168.729 129.846 168.517 127.507L166.525 127.687Z" fill="white" fill-opacity="0.9"/>
<path d="M196.898 133.655C203.624 133.709 207.684 130.131 208.431 124.512L208.456 124.372L202.128 124.322L202.08 124.415C201.451 126.988 199.776 128.311 196.964 128.288C193.307 128.259 191.291 125.361 191.333 120.134L191.333 120.087C191.374 114.931 193.412 112.088 197.092 112.117C200.022 112.14 201.719 113.795 202.145 116.306L202.168 116.353L208.543 116.403L208.543 116.333C207.98 110.563 203.955 106.804 197.111 106.75C189.026 106.686 184.44 111.548 184.373 120.032L184.372 120.079C184.304 128.657 188.835 133.591 196.898 133.655Z" fill="white"/>
<path d="M208.431 124.512L207.446 124.34L207.443 124.36L207.44 124.38L208.431 124.512ZM208.456 124.372L209.441 124.544L209.644 123.381L208.464 123.372L208.456 124.372ZM202.128 124.322L202.136 123.322L201.518 123.317L201.237 123.867L202.128 124.322ZM202.08 124.415L201.19 123.961L201.137 124.064L201.109 124.177L202.08 124.415ZM202.145 116.306L201.159 116.473L201.183 116.616L201.247 116.746L202.145 116.306ZM202.168 116.353L201.27 116.793L201.542 117.348L202.16 117.353L202.168 116.353ZM208.543 116.403L208.535 117.403L209.535 117.411L209.543 116.411L208.543 116.403ZM208.543 116.333L209.543 116.341L209.544 116.288L209.539 116.236L208.543 116.333ZM196.89 134.655C200.431 134.683 203.37 133.755 205.539 131.986C207.713 130.212 209.02 127.668 209.423 124.644L207.44 124.38C207.095 126.975 205.999 129.029 204.274 130.436C202.544 131.847 200.091 132.681 196.905 132.655L196.89 134.655ZM209.416 124.684L209.441 124.544L207.471 124.2L207.446 124.34L209.416 124.684ZM208.464 123.372L202.136 123.322L202.12 125.322L208.448 125.372L208.464 123.372ZM201.237 123.867L201.19 123.961L202.971 124.869L203.019 124.776L201.237 123.867ZM201.109 124.177C200.834 125.302 200.357 126.053 199.733 126.531C199.106 127.01 198.221 127.298 196.972 127.288L196.956 129.288C198.519 129.301 199.877 128.939 200.948 128.119C202.022 127.298 202.697 126.101 203.052 124.653L201.109 124.177ZM196.972 127.288C195.444 127.276 194.341 126.686 193.584 125.591C192.791 124.446 192.313 122.648 192.333 120.142L190.333 120.126C190.311 122.846 190.82 125.112 191.939 126.729C193.094 128.398 194.827 129.272 196.956 129.288L196.972 127.288ZM192.333 120.142L192.333 120.095L190.333 120.079L190.333 120.126L192.333 120.142ZM192.333 120.095C192.353 117.624 192.854 115.86 193.659 114.743C194.428 113.676 195.54 113.105 197.084 113.117L197.1 111.117C194.964 111.1 193.217 111.936 192.037 113.573C190.893 115.159 190.355 117.394 190.333 120.079L192.333 120.095ZM197.084 113.117C198.357 113.127 199.271 113.487 199.903 114.035C200.538 114.584 200.977 115.398 201.159 116.473L203.131 116.139C202.887 114.702 202.265 113.433 201.212 112.522C200.156 111.609 198.756 111.13 197.1 111.117L197.084 113.117ZM201.247 116.746L201.27 116.793L203.066 115.913L203.043 115.866L201.247 116.746ZM202.16 117.353L208.535 117.403L208.551 115.404L202.176 115.353L202.16 117.353ZM209.543 116.411L209.543 116.341L207.543 116.325L207.543 116.396L209.543 116.411ZM209.539 116.236C209.236 113.136 207.991 110.501 205.836 108.641C203.685 106.785 200.722 105.779 197.119 105.75L197.103 107.75C200.344 107.776 202.815 108.676 204.529 110.155C206.238 111.63 207.287 113.76 207.548 116.43L209.539 116.236ZM197.119 105.75C192.871 105.716 189.412 106.981 187.012 109.495C184.62 111.999 183.408 115.611 183.373 120.024L185.372 120.04C185.405 115.969 186.519 112.907 188.458 110.876C190.389 108.854 193.265 107.719 197.103 107.75L197.119 105.75ZM183.373 120.024L183.372 120.071L185.372 120.087L185.372 120.04L183.373 120.024ZM183.372 120.071C183.337 124.53 184.497 128.183 186.851 130.737C189.213 133.301 192.653 134.622 196.89 134.655L196.905 132.655C193.08 132.625 190.223 131.446 188.321 129.382C186.411 127.309 185.339 124.206 185.372 120.087L183.372 120.071Z" fill="white" fill-opacity="0.9"/>
<path d="M212.108 133.427L218.901 134.259L220.717 119.44C221.142 115.974 223.326 113.951 226.467 114.336C229.677 114.73 230.932 116.82 230.49 120.426L228.648 135.454L235.441 136.286L237.471 119.723C238.221 113.605 235.578 109.739 229.879 109.04C226.226 108.593 223.477 110.027 221.974 112.652L221.556 112.601L223.241 98.8523L216.448 98.0197L212.108 133.427Z" fill="white"/>
<path d="M212.108 133.427L211.116 133.305L210.994 134.298L211.986 134.419L212.108 133.427ZM218.901 134.259L218.779 135.252L219.772 135.373L219.894 134.381L218.901 134.259ZM228.648 135.454L227.656 135.332L227.534 136.325L228.527 136.446L228.648 135.454ZM235.441 136.286L235.32 137.279L236.312 137.401L236.434 136.408L235.441 136.286ZM221.974 112.652L221.853 113.645L222.512 113.726L222.842 113.149L221.974 112.652ZM221.556 112.601L220.563 112.479L220.441 113.472L221.434 113.594L221.556 112.601ZM223.241 98.8523L224.233 98.9739L224.355 97.9814L223.362 97.8597L223.241 98.8523ZM216.448 98.0197L216.569 97.0271L215.577 96.9055L215.455 97.898L216.448 98.0197ZM211.986 134.419L218.779 135.252L219.023 133.267L212.23 132.434L211.986 134.419ZM219.894 134.381L221.71 119.562L219.725 119.319L217.908 134.138L219.894 134.381ZM221.71 119.562C221.901 118.004 222.473 116.879 223.242 116.188C223.995 115.512 225.029 115.168 226.345 115.329L226.589 113.344C224.765 113.12 223.136 113.595 221.905 114.7C220.691 115.791 219.959 117.411 219.725 119.319L221.71 119.562ZM226.345 115.329C227.748 115.501 228.553 116.014 229.008 116.719C229.488 117.462 229.705 118.613 229.498 120.304L231.483 120.547C231.718 118.633 231.528 116.936 230.688 115.634C229.824 114.294 228.396 113.565 226.589 113.344L226.345 115.329ZM229.498 120.304L227.656 135.332L229.641 135.576L231.483 120.547L229.498 120.304ZM228.527 136.446L235.32 137.279L235.563 135.294L228.77 134.461L228.527 136.446ZM236.434 136.408L238.464 119.845L236.479 119.601L234.449 136.165L236.434 136.408ZM238.464 119.845C238.858 116.631 238.379 113.86 236.912 111.774C235.431 109.67 233.058 108.422 230 108.048L229.757 110.033C232.399 110.357 234.197 111.391 235.276 112.925C236.367 114.476 236.835 116.696 236.479 119.601L238.464 119.845ZM230 108.048C225.984 107.555 222.826 109.15 221.106 112.156L222.842 113.149C224.127 110.903 226.468 109.63 229.757 110.033L230 108.048ZM222.096 111.66L221.677 111.608L221.434 113.594L221.853 113.645L222.096 111.66ZM222.548 112.723L224.233 98.9739L222.248 98.7306L220.563 112.479L222.548 112.723ZM223.362 97.8597L216.569 97.0271L216.326 99.0123L223.119 99.8449L223.362 97.8597ZM215.455 97.898L211.116 133.305L213.101 133.548L217.44 98.1414L215.455 97.898Z" fill="white" fill-opacity="0.9"/>
<path d="M254.633 141.473C263.083 143.622 269.595 140.079 271.443 132.811L276.903 111.346L270.043 109.601L264.74 130.453C263.659 134.7 260.519 136.779 256.112 135.658C251.706 134.538 249.917 131.205 250.998 126.957L256.301 106.106L249.441 104.361L243.982 125.826C242.127 133.117 246.229 139.336 254.633 141.473Z" fill="white"/>
<path d="M276.903 111.346L277.872 111.592L278.119 110.623L277.149 110.376L276.903 111.346ZM270.043 109.601L270.29 108.632L269.321 108.385L269.074 109.354L270.043 109.601ZM256.301 106.106L257.27 106.352L257.517 105.383L256.547 105.136L256.301 106.106ZM249.441 104.361L249.688 103.392L248.719 103.145L248.472 104.114L249.441 104.361ZM254.387 142.442C258.795 143.564 262.798 143.224 265.977 141.56C269.169 139.889 271.425 136.938 272.413 133.057L270.474 132.564C269.613 135.951 267.689 138.406 265.05 139.788C262.399 141.175 258.921 141.532 254.88 140.504L254.387 142.442ZM272.413 133.057L277.872 111.592L275.934 111.099L270.474 132.564L272.413 133.057ZM277.149 110.376L270.29 108.632L269.797 110.57L276.656 112.315L277.149 110.376ZM269.074 109.354L263.771 130.206L265.709 130.699L271.012 109.847L269.074 109.354ZM263.771 130.206C263.277 132.146 262.345 133.477 261.147 134.218C259.956 134.956 258.36 135.198 256.359 134.689L255.866 136.628C258.271 137.239 260.449 137.003 262.2 135.919C263.944 134.839 265.122 133.006 265.709 130.699L263.771 130.206ZM256.359 134.689C254.357 134.18 253.065 133.203 252.365 131.983C251.661 130.757 251.474 129.142 251.967 127.204L250.028 126.711C249.441 129.02 249.607 131.195 250.63 132.978C251.656 134.766 253.461 136.016 255.866 136.628L256.359 134.689ZM251.967 127.204L257.27 106.352L255.332 105.859L250.028 126.711L251.967 127.204ZM256.547 105.136L249.688 103.392L249.195 105.33L256.055 107.075L256.547 105.136ZM248.472 104.114L243.013 125.579L244.951 126.072L250.41 104.607L248.472 104.114ZM243.013 125.579C242.022 129.475 242.613 133.15 244.631 136.142C246.641 139.121 250.001 141.327 254.387 142.442L254.88 140.504C250.861 139.482 247.968 137.51 246.289 135.023C244.619 132.548 244.087 129.468 244.951 126.072L243.013 125.579Z" fill="white" fill-opacity="0.9"/>
<path d="M283.834 150.351C290.005 152.718 295.595 151.299 297.426 146.529L297.434 146.507C298.803 142.94 297.321 140.062 292.902 137.186L289.225 134.796C286.94 133.292 286.329 132.204 286.824 130.913L286.833 130.891C287.454 129.272 289.424 128.848 291.634 129.696C294.019 130.611 294.98 132.36 294.835 133.786L294.814 133.904L300.744 136.179L300.778 136.092C302.002 132.118 299.71 127.623 293.386 125.197C287.368 122.888 282.183 124.362 280.445 128.892L280.437 128.914C279.051 132.524 280.462 135.651 284.68 138.399L288.378 140.798C290.619 142.285 291.271 143.464 290.776 144.755L290.759 144.799C290.146 146.396 288.08 146.809 285.629 145.868C283.113 144.903 282.058 143.268 282.126 141.587L282.116 141.482L275.836 139.073L275.824 139.169C274.697 143.481 277.291 147.84 283.834 150.351Z" fill="white"/>
<path d="M292.902 137.186L293.447 136.348L293.447 136.348L292.902 137.186ZM289.225 134.796L288.675 135.632L288.68 135.635L289.225 134.796ZM294.835 133.786L295.82 133.954L295.826 133.921L295.829 133.887L294.835 133.786ZM294.814 133.904L293.829 133.735L293.691 134.544L294.456 134.837L294.814 133.904ZM300.744 136.179L300.386 137.113L301.32 137.471L301.678 136.537L300.744 136.179ZM300.778 136.092L301.712 136.45L301.724 136.418L301.734 136.386L300.778 136.092ZM284.68 138.399L284.134 139.237L284.136 139.238L284.68 138.399ZM288.378 140.798L288.931 139.965L288.922 139.959L288.378 140.798ZM282.126 141.587L283.125 141.627L283.128 141.558L283.121 141.49L282.126 141.587ZM282.116 141.482L283.111 141.385L283.051 140.77L282.474 140.549L282.116 141.482ZM275.836 139.073L276.194 138.139L274.998 137.68L274.843 138.952L275.836 139.073ZM275.824 139.169L276.792 139.422L276.809 139.357L276.817 139.29L275.824 139.169ZM283.476 151.284C286.707 152.524 289.869 152.806 292.521 152.081C295.2 151.349 297.321 149.593 298.359 146.887L296.492 146.17C295.7 148.234 294.11 149.574 291.994 150.152C289.85 150.738 287.132 150.545 284.192 149.417L283.476 151.284ZM298.359 146.887L298.368 146.865L296.501 146.149L296.492 146.17L298.359 146.887ZM298.368 146.865C299.138 144.859 299.127 142.954 298.236 141.145C297.369 139.388 295.723 137.829 293.447 136.348L292.357 138.025C294.501 139.42 295.805 140.738 296.442 142.03C297.053 143.27 297.099 144.588 296.501 146.149L298.368 146.865ZM293.447 136.348L289.77 133.958L288.68 135.635L292.357 138.025L293.447 136.348ZM289.775 133.961C288.662 133.229 288.094 132.681 287.837 132.257C287.631 131.916 287.614 131.647 287.758 131.271L285.891 130.555C285.539 131.47 285.58 132.391 286.127 133.293C286.623 134.112 287.503 134.86 288.675 135.632L289.775 133.961ZM287.758 131.271L287.766 131.249L285.899 130.533L285.891 130.555L287.758 131.271ZM287.766 131.249C287.944 130.785 288.303 130.476 288.87 130.341C289.468 130.198 290.302 130.256 291.276 130.63L291.992 128.762C290.756 128.288 289.5 128.134 288.405 128.396C287.279 128.665 286.342 129.378 285.899 130.533L287.766 131.249ZM291.276 130.63C293.35 131.426 293.928 132.816 293.84 133.684L295.829 133.887C296.031 131.905 294.688 129.797 291.992 128.762L291.276 130.63ZM293.849 133.618L293.829 133.735L295.8 134.072L295.82 133.954L293.849 133.618ZM294.456 134.837L300.386 137.113L301.103 135.245L295.173 132.97L294.456 134.837ZM301.678 136.537L301.712 136.45L299.844 135.733L299.811 135.821L301.678 136.537ZM301.734 136.386C302.434 134.111 302.119 131.693 300.758 129.531C299.406 127.382 297.055 125.534 293.744 124.263L293.027 126.13C296.04 127.286 297.997 128.898 299.066 130.596C300.126 132.282 300.345 134.098 299.822 135.797L301.734 136.386ZM293.744 124.263C290.589 123.053 287.562 122.798 285.036 123.518C282.483 124.247 280.499 125.961 279.511 128.534L281.379 129.25C282.13 127.293 283.607 126.006 285.585 125.442C287.591 124.869 290.164 125.032 293.027 126.13L293.744 124.263ZM279.511 128.534L279.503 128.556L281.37 129.272L281.379 129.25L279.511 128.534ZM279.503 128.556C278.728 130.577 278.716 132.54 279.545 134.389C280.358 136.205 281.935 137.805 284.134 139.237L285.225 137.562C283.207 136.246 281.969 134.909 281.37 133.571C280.785 132.267 280.76 130.862 281.37 129.272L279.503 128.556ZM284.136 139.238L287.834 141.637L288.922 139.959L285.224 137.56L284.136 139.238ZM287.825 141.631C288.906 142.348 289.478 142.914 289.743 143.361C289.968 143.739 289.981 144.036 289.842 144.397L291.71 145.114C292.066 144.184 292.001 143.246 291.463 142.34C290.966 141.502 290.092 140.735 288.931 139.965L287.825 141.631ZM289.842 144.397L289.826 144.441L291.693 145.157L291.71 145.114L289.842 144.397ZM289.826 144.441C289.662 144.866 289.31 145.177 288.682 145.306C288.024 145.441 287.094 145.359 285.988 144.935L285.271 146.802C286.615 147.318 287.944 147.5 289.085 147.265C290.256 147.024 291.243 146.33 291.693 145.157L289.826 144.441ZM285.988 144.935C283.752 144.077 283.079 142.764 283.125 141.627L281.127 141.547C281.037 143.772 282.474 145.729 285.271 146.802L285.988 144.935ZM283.121 141.49L283.111 141.385L281.121 141.58L281.131 141.684L283.121 141.49ZM282.474 140.549L276.194 138.139L275.478 140.006L281.758 142.416L282.474 140.549ZM274.843 138.952L274.831 139.048L276.817 139.29L276.828 139.194L274.843 138.952ZM274.857 138.916C274.218 141.357 274.641 143.822 276.127 145.999C277.598 148.156 280.074 149.979 283.476 151.284L284.192 149.417C281.051 148.212 278.958 146.6 277.779 144.872C276.613 143.163 276.302 141.292 276.792 139.422L274.857 138.916Z" fill="white" fill-opacity="0.9"/>
<path d="M98.4307 151.432L104.412 149.439L97.1375 127.604L97.5822 127.455L113.084 146.55L117.287 145.15L118.239 120.573L118.684 120.425L125.959 142.261L131.94 140.268L121.251 108.182L113.557 110.745L112.53 137.174L112.13 137.308L95.4346 116.782L87.741 119.346L98.4307 151.432Z" fill="#918AE3"/>
<path d="M98.4307 151.432L97.4819 151.748L97.798 152.697L98.7468 152.381L98.4307 151.432ZM104.412 149.439L104.728 150.388L105.677 150.072L105.361 149.123L104.412 149.439ZM97.1375 127.604L96.8215 126.655L95.8727 126.971L96.1888 127.92L97.1375 127.604ZM97.5822 127.455L98.3586 126.825L97.9225 126.288L97.2662 126.507L97.5822 127.455ZM113.084 146.55L112.308 147.18L112.744 147.718L113.4 147.499L113.084 146.55ZM117.287 145.15L117.603 146.099L118.259 145.88L118.286 145.189L117.287 145.15ZM118.239 120.573L117.923 119.625L117.267 119.843L117.24 120.535L118.239 120.573ZM118.684 120.425L119.633 120.109L119.317 119.16L118.368 119.477L118.684 120.425ZM125.959 142.261L125.01 142.577L125.326 143.526L126.275 143.21L125.959 142.261ZM131.94 140.268L132.256 141.217L133.205 140.901L132.889 139.952L131.94 140.268ZM121.251 108.182L122.199 107.866L121.883 106.917L120.935 107.233L121.251 108.182ZM113.557 110.745L113.241 109.796L112.585 110.015L112.558 110.706L113.557 110.745ZM112.53 137.174L112.846 138.123L113.502 137.905L113.529 137.213L112.53 137.174ZM112.13 137.308L111.354 137.939L111.79 138.475L112.446 138.257L112.13 137.308ZM95.4346 116.782L96.2104 116.151L95.7743 115.615L95.1185 115.834L95.4346 116.782ZM87.741 119.346L87.4249 118.397L86.4762 118.713L86.7922 119.662L87.741 119.346ZM98.7468 152.381L104.728 150.388L104.096 148.491L98.1146 150.483L98.7468 152.381ZM105.361 149.123L98.0863 127.288L96.1888 127.92L103.463 149.755L105.361 149.123ZM97.4536 128.552L97.8983 128.404L97.2662 126.507L96.8215 126.655L97.4536 128.552ZM96.8059 128.086L112.308 147.18L113.861 145.92L98.3586 126.825L96.8059 128.086ZM113.4 147.499L117.603 146.099L116.971 144.201L112.768 145.601L113.4 147.499ZM118.286 145.189L119.239 120.612L117.24 120.535L116.288 145.111L118.286 145.189ZM118.556 121.522L119 121.374L118.368 119.477L117.923 119.625L118.556 121.522ZM117.735 120.741L125.01 142.577L126.908 141.945L119.633 120.109L117.735 120.741ZM126.275 143.21L132.256 141.217L131.624 139.32L125.643 141.312L126.275 143.21ZM132.889 139.952L122.199 107.866L120.302 108.498L130.992 140.584L132.889 139.952ZM120.935 107.233L113.241 109.796L113.873 111.694L121.567 109.13L120.935 107.233ZM112.558 110.706L111.531 137.136L113.529 137.213L114.556 110.784L112.558 110.706ZM112.214 136.226L111.814 136.359L112.446 138.257L112.846 138.123L112.214 136.226ZM112.905 136.677L96.2104 116.151L94.6588 117.413L111.354 137.939L112.905 136.677ZM95.1185 115.834L87.4249 118.397L88.057 120.294L95.7507 117.731L95.1185 115.834ZM86.7922 119.662L97.4819 151.748L99.3794 151.116L88.6897 119.029L86.7922 119.662Z" fill="white" fill-opacity="0.9"/>
<path d="M144.439 138.365C147.757 137.746 150.167 135.842 151.019 133.252L151.434 133.174L152.061 136.538L158.697 135.301L155.466 117.975C154.457 112.56 150.062 110.089 143.335 111.344C136.952 112.534 133.309 116.265 133.608 120.81L133.624 121.022L139.845 119.862L139.873 119.761C140.124 118.165 141.509 117.025 143.928 116.574C146.693 116.058 148.423 117.023 148.831 119.212L149.222 121.309L143.162 122.82C136.917 124.366 133.89 127.696 134.741 132.258L134.75 132.304C135.609 136.912 139.6 139.267 144.439 138.365ZM141.239 130.665L141.23 130.619C140.887 128.775 142.09 127.43 144.936 126.709L149.991 125.433L150.339 127.299C150.837 129.972 148.892 132.456 145.782 133.036C143.455 133.47 141.6 132.6 141.239 130.665Z" fill="#918AE3"/>
<path d="M151.019 133.252L150.836 132.269L150.254 132.377L150.069 132.939L151.019 133.252ZM151.434 133.174L152.417 132.991L152.234 132.008L151.251 132.191L151.434 133.174ZM152.061 136.538L151.078 136.722L151.262 137.705L152.245 137.521L152.061 136.538ZM158.697 135.301L158.88 136.284L159.863 136.101L159.68 135.118L158.697 135.301ZM133.608 120.81L132.61 120.876L132.611 120.884L133.608 120.81ZM133.624 121.022L132.626 121.096L132.709 122.21L133.807 122.005L133.624 121.022ZM139.845 119.862L140.028 120.845L140.635 120.732L140.806 120.138L139.845 119.862ZM139.873 119.761L140.835 120.037L140.852 119.978L140.861 119.917L139.873 119.761ZM149.222 121.309L149.464 122.279L150.377 122.051L150.205 121.125L149.222 121.309ZM143.162 122.82L143.402 123.791L143.404 123.79L143.162 122.82ZM144.936 126.709L144.691 125.739L144.69 125.74L144.936 126.709ZM149.991 125.433L150.974 125.249L150.779 124.202L149.746 124.463L149.991 125.433ZM144.622 139.348C148.209 138.679 150.977 136.58 151.969 133.564L150.069 132.939C149.357 135.105 147.304 136.813 144.256 137.382L144.622 139.348ZM151.203 134.235L151.617 134.157L151.251 132.191L150.836 132.269L151.203 134.235ZM150.451 133.358L151.078 136.722L153.044 136.355L152.417 132.991L150.451 133.358ZM152.245 137.521L158.88 136.284L158.514 134.318L151.878 135.555L152.245 137.521ZM159.68 135.118L156.449 117.791L154.483 118.158L157.714 135.484L159.68 135.118ZM156.449 117.791C155.898 114.836 154.393 112.586 152.027 111.282C149.692 109.997 146.655 109.707 143.151 110.361L143.518 112.327C146.742 111.726 149.266 112.045 151.062 113.034C152.828 114.006 154.025 115.699 154.483 118.158L156.449 117.791ZM143.151 110.361C136.518 111.598 132.264 115.609 132.61 120.876L134.606 120.745C134.354 116.921 137.387 113.47 143.518 112.327L143.151 110.361ZM132.611 120.884L132.626 121.096L134.621 120.948L134.605 120.737L132.611 120.884ZM133.807 122.005L140.028 120.845L139.661 118.879L133.44 120.039L133.807 122.005ZM140.806 120.138L140.835 120.037L138.912 119.486L138.883 119.586L140.806 120.138ZM140.861 119.917C141.017 118.925 141.886 117.972 144.111 117.557L143.745 115.591C141.132 116.078 139.231 117.405 138.886 119.606L140.861 119.917ZM144.111 117.557C145.364 117.323 146.23 117.455 146.786 117.757C147.305 118.039 147.689 118.542 147.848 119.395L149.814 119.029C149.565 117.692 148.879 116.619 147.741 116C146.638 115.401 145.257 115.309 143.745 115.591L144.111 117.557ZM147.848 119.395L148.239 121.492L150.205 121.125L149.814 119.029L147.848 119.395ZM148.98 120.338L142.92 121.85L143.404 123.79L149.464 122.279L148.98 120.338ZM142.921 121.849C139.693 122.648 137.161 123.939 135.546 125.74C133.896 127.58 133.279 129.872 133.758 132.441L135.724 132.074C135.353 130.081 135.823 128.427 137.035 127.075C138.283 125.684 140.386 124.537 143.402 123.791L142.921 121.849ZM133.758 132.441L133.767 132.487L135.733 132.12L135.724 132.074L133.758 132.441ZM133.767 132.487C134.244 135.05 135.611 137.042 137.578 138.252C139.534 139.456 142.002 139.836 144.622 139.348L144.256 137.382C142.037 137.795 140.09 137.45 138.626 136.549C137.173 135.655 136.114 134.166 135.733 132.12L133.767 132.487ZM142.222 130.481L142.213 130.435L140.247 130.802L140.256 130.848L142.222 130.481ZM142.213 130.435C142.095 129.803 142.237 129.334 142.618 128.926C143.045 128.469 143.845 128.017 145.182 127.678L144.69 125.74C143.181 126.122 141.957 126.704 141.156 127.56C140.31 128.466 140.021 129.591 140.247 130.802L142.213 130.435ZM145.181 127.679L150.235 126.402L149.746 124.463L144.691 125.739L145.181 127.679ZM149.008 125.616L149.356 127.482L151.322 127.116L150.974 125.249L149.008 125.616ZM149.356 127.482C149.73 129.49 148.296 131.55 145.598 132.053L145.965 134.019C149.488 133.362 151.944 130.453 151.322 127.116L149.356 127.482ZM145.598 132.053C144.589 132.241 143.779 132.127 143.225 131.847C142.7 131.581 142.345 131.14 142.222 130.481L140.256 130.848C140.494 132.124 141.246 133.086 142.321 133.631C143.367 134.161 144.648 134.265 145.965 134.019L145.598 132.053Z" fill="white" fill-opacity="0.9"/>
<path d="M174.934 133.828C176.242 133.709 177.489 133.455 178.315 133.215L177.856 128.15C177.209 128.279 176.746 128.368 175.859 128.449C173.548 128.658 172.475 127.72 172.266 125.409L171.172 113.341L176.471 112.861L176.006 107.726L170.707 108.206L170.151 102.067L163.265 102.691L163.821 108.83L159.853 109.189L160.318 114.325L164.286 113.965L165.521 127.597C165.974 132.592 168.679 134.394 174.934 133.828Z" fill="#918AE3"/>
<path d="M178.315 133.215L178.594 134.176L179.385 133.946L179.311 133.125L178.315 133.215ZM177.856 128.15L178.852 128.06L178.751 126.952L177.66 127.169L177.856 128.15ZM171.172 113.341L171.082 112.345L170.086 112.436L170.176 113.431L171.172 113.341ZM176.471 112.861L176.561 113.857L177.557 113.767L177.467 112.771L176.471 112.861ZM176.006 107.726L177.001 107.636L176.911 106.64L175.915 106.73L176.006 107.726ZM170.707 108.206L169.711 108.296L169.801 109.292L170.797 109.202L170.707 108.206ZM170.151 102.067L171.147 101.977L171.056 100.981L170.06 101.071L170.151 102.067ZM163.265 102.691L163.175 101.695L162.179 101.785L162.269 102.781L163.265 102.691ZM163.821 108.83L163.911 109.826L164.907 109.736L164.817 108.74L163.821 108.83ZM159.853 109.189L159.763 108.193L158.767 108.284L158.857 109.28L159.853 109.189ZM160.318 114.325L159.322 114.415L159.413 115.411L160.408 115.321L160.318 114.325ZM164.286 113.965L165.282 113.875L165.192 112.879L164.196 112.969L164.286 113.965ZM175.025 134.823C176.394 134.699 177.705 134.434 178.594 134.176L178.036 132.255C177.274 132.476 176.089 132.719 174.844 132.832L175.025 134.823ZM179.311 133.125L178.852 128.06L176.86 128.24L177.319 133.306L179.311 133.125ZM177.66 127.169C177.029 127.295 176.606 127.377 175.769 127.453L175.949 129.445C176.887 129.36 177.388 129.263 178.052 129.131L177.66 127.169ZM175.769 127.453C174.737 127.546 174.213 127.36 173.923 127.113C173.628 126.862 173.356 126.361 173.261 125.319L171.27 125.499C171.385 126.768 171.754 127.892 172.626 128.635C173.503 129.382 174.67 129.56 175.949 129.445L175.769 127.453ZM173.261 125.319L172.168 113.251L170.176 113.431L171.27 125.499L173.261 125.319ZM171.262 114.337L176.561 113.857L176.381 111.865L171.082 112.345L171.262 114.337ZM177.467 112.771L177.001 107.636L175.01 107.816L175.475 112.951L177.467 112.771ZM175.915 106.73L170.617 107.21L170.797 109.202L176.096 108.722L175.915 106.73ZM171.703 108.116L171.147 101.977L169.155 102.157L169.711 108.296L171.703 108.116ZM170.06 101.071L163.175 101.695L163.355 103.687L170.241 103.063L170.06 101.071ZM162.269 102.781L162.825 108.92L164.817 108.74L164.261 102.601L162.269 102.781ZM163.731 107.834L159.763 108.193L159.943 110.185L163.911 109.826L163.731 107.834ZM158.857 109.28L159.322 114.415L161.314 114.234L160.849 109.099L158.857 109.28ZM160.408 115.321L164.377 114.961L164.196 112.969L160.228 113.329L160.408 115.321ZM163.29 114.055L164.525 127.687L166.517 127.507L165.282 113.875L163.29 114.055ZM164.525 127.687C164.766 130.343 165.632 132.393 167.499 133.631C169.306 134.829 171.834 135.113 175.025 134.823L174.844 132.832C171.779 133.109 169.827 132.775 168.604 131.964C167.442 131.194 166.729 129.846 166.517 127.507L164.525 127.687Z" fill="white" fill-opacity="0.9"/>
<path d="M194.898 133.655C201.624 133.709 205.684 130.131 206.431 124.512L206.456 124.372L200.128 124.322L200.08 124.415C199.451 126.988 197.776 128.311 194.964 128.288C191.307 128.259 189.291 125.361 189.333 120.134L189.333 120.087C189.374 114.931 191.412 112.088 195.092 112.117C198.022 112.14 199.719 113.795 200.145 116.306L200.168 116.353L206.543 116.403L206.543 116.333C205.98 110.563 201.955 106.804 195.111 106.75C187.026 106.686 182.44 111.548 182.373 120.032L182.372 120.079C182.304 128.657 186.835 133.591 194.898 133.655Z" fill="#918AE3"/>
<path d="M206.431 124.512L205.446 124.34L205.443 124.36L205.44 124.38L206.431 124.512ZM206.456 124.372L207.441 124.544L207.644 123.381L206.464 123.372L206.456 124.372ZM200.128 124.322L200.136 123.322L199.518 123.317L199.237 123.867L200.128 124.322ZM200.08 124.415L199.19 123.961L199.137 124.064L199.109 124.177L200.08 124.415ZM200.145 116.306L199.159 116.473L199.183 116.616L199.247 116.746L200.145 116.306ZM200.168 116.353L199.27 116.793L199.542 117.348L200.16 117.353L200.168 116.353ZM206.543 116.403L206.535 117.403L207.535 117.411L207.543 116.411L206.543 116.403ZM206.543 116.333L207.543 116.341L207.544 116.288L207.539 116.236L206.543 116.333ZM194.89 134.655C198.431 134.683 201.37 133.755 203.539 131.986C205.713 130.212 207.02 127.668 207.423 124.644L205.44 124.38C205.095 126.975 203.999 129.029 202.274 130.436C200.544 131.847 198.091 132.681 194.905 132.655L194.89 134.655ZM207.416 124.684L207.441 124.544L205.471 124.2L205.446 124.34L207.416 124.684ZM206.464 123.372L200.136 123.322L200.12 125.322L206.448 125.372L206.464 123.372ZM199.237 123.867L199.19 123.961L200.971 124.869L201.019 124.776L199.237 123.867ZM199.109 124.177C198.834 125.302 198.357 126.053 197.733 126.531C197.106 127.01 196.221 127.298 194.972 127.288L194.956 129.288C196.519 129.301 197.877 128.939 198.948 128.119C200.022 127.298 200.697 126.101 201.052 124.653L199.109 124.177ZM194.972 127.288C193.444 127.276 192.341 126.686 191.584 125.591C190.791 124.446 190.313 122.648 190.333 120.142L188.333 120.126C188.311 122.846 188.82 125.112 189.939 126.729C191.094 128.398 192.827 129.272 194.956 129.288L194.972 127.288ZM190.333 120.142L190.333 120.095L188.333 120.079L188.333 120.126L190.333 120.142ZM190.333 120.095C190.353 117.624 190.854 115.86 191.659 114.743C192.428 113.676 193.54 113.105 195.084 113.117L195.1 111.117C192.964 111.1 191.217 111.936 190.037 113.573C188.893 115.159 188.355 117.394 188.333 120.079L190.333 120.095ZM195.084 113.117C196.357 113.127 197.271 113.487 197.903 114.035C198.538 114.584 198.977 115.398 199.159 116.473L201.131 116.139C200.887 114.702 200.265 113.433 199.212 112.522C198.156 111.609 196.756 111.13 195.1 111.117L195.084 113.117ZM199.247 116.746L199.27 116.793L201.066 115.913L201.043 115.866L199.247 116.746ZM200.16 117.353L206.535 117.403L206.551 115.404L200.176 115.353L200.16 117.353ZM207.543 116.411L207.543 116.341L205.543 116.325L205.543 116.396L207.543 116.411ZM207.539 116.236C207.236 113.136 205.991 110.501 203.836 108.641C201.685 106.785 198.722 105.779 195.119 105.75L195.103 107.75C198.344 107.776 200.815 108.676 202.529 110.155C204.238 111.63 205.287 113.76 205.548 116.43L207.539 116.236ZM195.119 105.75C190.871 105.716 187.412 106.981 185.012 109.495C182.62 111.999 181.408 115.611 181.373 120.024L183.372 120.04C183.405 115.969 184.519 112.907 186.458 110.876C188.389 108.854 191.265 107.719 195.103 107.75L195.119 105.75ZM181.373 120.024L181.372 120.071L183.372 120.087L183.372 120.04L181.373 120.024ZM181.372 120.071C181.337 124.53 182.497 128.183 184.851 130.737C187.213 133.301 190.653 134.622 194.89 134.655L194.905 132.655C191.08 132.625 188.223 131.446 186.321 129.382C184.411 127.309 183.339 124.206 183.372 120.087L181.372 120.071Z" fill="white" fill-opacity="0.9"/>
<path d="M210.108 133.427L216.901 134.259L218.717 119.44C219.142 115.974 221.326 113.951 224.467 114.336C227.677 114.73 228.932 116.82 228.49 120.426L226.648 135.454L233.441 136.286L235.471 119.723C236.221 113.605 233.578 109.739 227.879 109.04C224.226 108.593 221.477 110.027 219.974 112.652L219.556 112.601L221.241 98.8523L214.448 98.0197L210.108 133.427Z" fill="#918AE3"/>
<path d="M210.108 133.427L209.116 133.305L208.994 134.298L209.986 134.419L210.108 133.427ZM216.901 134.259L216.779 135.252L217.772 135.373L217.894 134.381L216.901 134.259ZM226.648 135.454L225.656 135.332L225.534 136.325L226.527 136.446L226.648 135.454ZM233.441 136.286L233.32 137.279L234.312 137.401L234.434 136.408L233.441 136.286ZM219.974 112.652L219.853 113.645L220.512 113.726L220.842 113.149L219.974 112.652ZM219.556 112.601L218.563 112.479L218.441 113.472L219.434 113.594L219.556 112.601ZM221.241 98.8523L222.233 98.9739L222.355 97.9814L221.362 97.8597L221.241 98.8523ZM214.448 98.0197L214.569 97.0271L213.577 96.9055L213.455 97.898L214.448 98.0197ZM209.986 134.419L216.779 135.252L217.023 133.267L210.23 132.434L209.986 134.419ZM217.894 134.381L219.71 119.562L217.725 119.319L215.908 134.138L217.894 134.381ZM219.71 119.562C219.901 118.004 220.473 116.879 221.242 116.188C221.995 115.512 223.029 115.168 224.345 115.329L224.589 113.344C222.765 113.12 221.136 113.595 219.905 114.7C218.691 115.791 217.959 117.411 217.725 119.319L219.71 119.562ZM224.345 115.329C225.748 115.501 226.553 116.014 227.008 116.719C227.488 117.462 227.705 118.613 227.498 120.304L229.483 120.547C229.718 118.633 229.528 116.936 228.688 115.634C227.824 114.294 226.396 113.565 224.589 113.344L224.345 115.329ZM227.498 120.304L225.656 135.332L227.641 135.576L229.483 120.547L227.498 120.304ZM226.527 136.446L233.32 137.279L233.563 135.294L226.77 134.461L226.527 136.446ZM234.434 136.408L236.464 119.845L234.479 119.601L232.449 136.165L234.434 136.408ZM236.464 119.845C236.858 116.631 236.379 113.86 234.912 111.774C233.431 109.67 231.058 108.422 228 108.048L227.757 110.033C230.399 110.357 232.197 111.391 233.276 112.925C234.367 114.476 234.835 116.696 234.479 119.601L236.464 119.845ZM228 108.048C223.984 107.555 220.826 109.15 219.106 112.156L220.842 113.149C222.127 110.903 224.468 109.63 227.757 110.033L228 108.048ZM220.096 111.66L219.677 111.608L219.434 113.594L219.853 113.645L220.096 111.66ZM220.548 112.723L222.233 98.9739L220.248 98.7306L218.563 112.479L220.548 112.723ZM221.362 97.8597L214.569 97.0271L214.326 99.0123L221.119 99.8449L221.362 97.8597ZM213.455 97.898L209.116 133.305L211.101 133.548L215.44 98.1414L213.455 97.898Z" fill="white" fill-opacity="0.9"/>
<path d="M252.633 141.473C261.083 143.622 267.595 140.079 269.443 132.811L274.903 111.346L268.043 109.601L262.74 130.453C261.659 134.7 258.519 136.779 254.112 135.658C249.706 134.538 247.917 131.205 248.998 126.957L254.301 106.106L247.441 104.361L241.982 125.826C240.127 133.117 244.229 139.336 252.633 141.473Z" fill="#918AE3"/>
<path d="M274.903 111.346L275.872 111.592L276.119 110.623L275.149 110.376L274.903 111.346ZM268.043 109.601L268.29 108.632L267.321 108.385L267.074 109.354L268.043 109.601ZM254.301 106.106L255.27 106.352L255.517 105.383L254.547 105.136L254.301 106.106ZM247.441 104.361L247.688 103.392L246.719 103.145L246.472 104.114L247.441 104.361ZM252.387 142.442C256.795 143.564 260.798 143.224 263.977 141.56C267.169 139.889 269.425 136.938 270.413 133.057L268.474 132.564C267.613 135.951 265.689 138.406 263.05 139.788C260.399 141.175 256.921 141.532 252.88 140.504L252.387 142.442ZM270.413 133.057L275.872 111.592L273.934 111.099L268.474 132.564L270.413 133.057ZM275.149 110.376L268.29 108.632L267.797 110.57L274.656 112.315L275.149 110.376ZM267.074 109.354L261.771 130.206L263.709 130.699L269.012 109.847L267.074 109.354ZM261.771 130.206C261.277 132.146 260.345 133.477 259.147 134.218C257.956 134.956 256.36 135.198 254.359 134.689L253.866 136.628C256.271 137.239 258.449 137.003 260.2 135.919C261.944 134.839 263.122 133.006 263.709 130.699L261.771 130.206ZM254.359 134.689C252.357 134.18 251.065 133.203 250.365 131.983C249.661 130.757 249.474 129.142 249.967 127.204L248.028 126.711C247.441 129.02 247.607 131.195 248.63 132.978C249.656 134.766 251.461 136.016 253.866 136.628L254.359 134.689ZM249.967 127.204L255.27 106.352L253.332 105.859L248.028 126.711L249.967 127.204ZM254.547 105.136L247.688 103.392L247.195 105.33L254.055 107.075L254.547 105.136ZM246.472 104.114L241.013 125.579L242.951 126.072L248.41 104.607L246.472 104.114ZM241.013 125.579C240.022 129.475 240.613 133.15 242.631 136.142C244.641 139.121 248.001 141.327 252.387 142.442L252.88 140.504C248.861 139.482 245.968 137.51 244.289 135.023C242.619 132.548 242.087 129.468 242.951 126.072L241.013 125.579Z" fill="white" fill-opacity="0.9"/>
<path d="M281.834 150.351C288.005 152.718 293.595 151.299 295.426 146.529L295.434 146.507C296.803 142.94 295.321 140.062 290.902 137.186L287.225 134.796C284.94 133.292 284.329 132.204 284.824 130.913L284.833 130.891C285.454 129.272 287.424 128.848 289.634 129.696C292.019 130.611 292.98 132.36 292.835 133.786L292.814 133.904L298.744 136.179L298.778 136.092C300.002 132.118 297.71 127.623 291.386 125.197C285.368 122.888 280.183 124.362 278.445 128.892L278.437 128.914C277.051 132.524 278.462 135.651 282.68 138.399L286.378 140.798C288.619 142.285 289.271 143.464 288.776 144.755L288.759 144.799C288.146 146.396 286.08 146.809 283.629 145.868C281.113 144.903 280.058 143.268 280.126 141.587L280.116 141.482L273.836 139.073L273.824 139.169C272.697 143.481 275.291 147.84 281.834 150.351Z" fill="#918AE3"/>
<path d="M290.902 137.186L291.447 136.348L291.447 136.348L290.902 137.186ZM287.225 134.796L286.675 135.632L286.68 135.635L287.225 134.796ZM292.835 133.786L293.82 133.954L293.826 133.921L293.829 133.887L292.835 133.786ZM292.814 133.904L291.829 133.735L291.691 134.544L292.456 134.837L292.814 133.904ZM298.744 136.179L298.386 137.113L299.32 137.471L299.678 136.537L298.744 136.179ZM298.778 136.092L299.712 136.45L299.724 136.418L299.734 136.386L298.778 136.092ZM282.68 138.399L282.134 139.237L282.136 139.238L282.68 138.399ZM286.378 140.798L286.931 139.965L286.922 139.959L286.378 140.798ZM280.126 141.587L281.125 141.627L281.128 141.558L281.121 141.49L280.126 141.587ZM280.116 141.482L281.111 141.385L281.051 140.77L280.474 140.549L280.116 141.482ZM273.836 139.073L274.194 138.139L272.998 137.68L272.843 138.952L273.836 139.073ZM273.824 139.169L274.792 139.422L274.809 139.357L274.817 139.29L273.824 139.169ZM281.476 151.284C284.707 152.524 287.869 152.806 290.521 152.081C293.2 151.349 295.321 149.593 296.359 146.887L294.492 146.17C293.7 148.234 292.11 149.574 289.994 150.152C287.85 150.738 285.132 150.545 282.192 149.417L281.476 151.284ZM296.359 146.887L296.368 146.865L294.501 146.149L294.492 146.17L296.359 146.887ZM296.368 146.865C297.138 144.859 297.127 142.954 296.236 141.145C295.369 139.388 293.723 137.829 291.447 136.348L290.357 138.025C292.501 139.42 293.805 140.738 294.442 142.03C295.053 143.27 295.099 144.588 294.501 146.149L296.368 146.865ZM291.447 136.348L287.77 133.958L286.68 135.635L290.357 138.025L291.447 136.348ZM287.775 133.961C286.662 133.229 286.094 132.681 285.837 132.257C285.631 131.916 285.614 131.647 285.758 131.271L283.891 130.555C283.539 131.47 283.58 132.391 284.127 133.293C284.623 134.112 285.503 134.86 286.675 135.632L287.775 133.961ZM285.758 131.271L285.766 131.249L283.899 130.533L283.891 130.555L285.758 131.271ZM285.766 131.249C285.944 130.785 286.303 130.476 286.87 130.341C287.468 130.198 288.302 130.256 289.276 130.63L289.992 128.762C288.756 128.288 287.5 128.134 286.405 128.396C285.279 128.665 284.342 129.378 283.899 130.533L285.766 131.249ZM289.276 130.63C291.35 131.426 291.928 132.816 291.84 133.684L293.829 133.887C294.031 131.905 292.688 129.797 289.992 128.762L289.276 130.63ZM291.849 133.618L291.829 133.735L293.8 134.072L293.82 133.954L291.849 133.618ZM292.456 134.837L298.386 137.113L299.103 135.245L293.173 132.97L292.456 134.837ZM299.678 136.537L299.712 136.45L297.844 135.733L297.811 135.821L299.678 136.537ZM299.734 136.386C300.434 134.111 300.119 131.693 298.758 129.531C297.406 127.382 295.055 125.534 291.744 124.263L291.027 126.13C294.04 127.286 295.997 128.898 297.066 130.596C298.126 132.282 298.345 134.098 297.822 135.797L299.734 136.386ZM291.744 124.263C288.589 123.053 285.562 122.798 283.036 123.518C280.483 124.247 278.499 125.961 277.511 128.534L279.379 129.25C280.13 127.293 281.607 126.006 283.585 125.442C285.591 124.869 288.164 125.032 291.027 126.13L291.744 124.263ZM277.511 128.534L277.503 128.556L279.37 129.272L279.379 129.25L277.511 128.534ZM277.503 128.556C276.728 130.577 276.716 132.54 277.545 134.389C278.358 136.205 279.935 137.805 282.134 139.237L283.225 137.562C281.207 136.246 279.969 134.909 279.37 133.571C278.785 132.267 278.76 130.862 279.37 129.272L277.503 128.556ZM282.136 139.238L285.834 141.637L286.922 139.959L283.224 137.56L282.136 139.238ZM285.825 141.631C286.906 142.348 287.478 142.914 287.743 143.361C287.968 143.739 287.981 144.036 287.842 144.397L289.71 145.114C290.066 144.184 290.001 143.246 289.463 142.34C288.966 141.502 288.092 140.735 286.931 139.965L285.825 141.631ZM287.842 144.397L287.826 144.441L289.693 145.157L289.71 145.114L287.842 144.397ZM287.826 144.441C287.662 144.866 287.31 145.177 286.682 145.306C286.024 145.441 285.094 145.359 283.988 144.935L283.271 146.802C284.615 147.318 285.944 147.5 287.085 147.265C288.256 147.024 289.243 146.33 289.693 145.157L287.826 144.441ZM283.988 144.935C281.752 144.077 281.079 142.764 281.125 141.627L279.127 141.547C279.037 143.772 280.474 145.729 283.271 146.802L283.988 144.935ZM281.121 141.49L281.111 141.385L279.121 141.58L279.131 141.684L281.121 141.49ZM280.474 140.549L274.194 138.139L273.478 140.006L279.758 142.416L280.474 140.549ZM272.843 138.952L272.831 139.048L274.817 139.29L274.828 139.194L272.843 138.952ZM272.857 138.916C272.218 141.357 272.641 143.822 274.127 145.999C275.598 148.156 278.074 149.979 281.476 151.284L282.192 149.417C279.051 148.212 276.958 146.6 275.779 144.872C274.613 143.163 274.302 141.292 274.792 139.422L272.857 138.916Z" fill="white" fill-opacity="0.9"/>
<defs>
<linearGradient id="paint0_linear_2221_3421" x1="194.697" y1="-0.999756" x2="194.697" y2="627.431" gradientUnits="userSpaceOnUse">
<stop stop-color="white"/>
<stop offset="1" stop-color="#918AE3" stop-opacity="0"/>
</linearGradient>
<linearGradient id="paint1_linear_2221_3421" x1="0.1532" y1="-0.656319" x2="264.745" y2="569.358" gradientUnits="userSpaceOnUse">
<stop stop-color="white"/>
<stop offset="1" stop-color="#918AE3" stop-opacity="0"/>
</linearGradient>
<linearGradient id="paint2_linear_2221_3421" x1="389.745" y1="-0.656319" x2="125.153" y2="569.358" gradientUnits="userSpaceOnUse">
<stop stop-color="white"/>
<stop offset="1" stop-color="#918AE3" stop-opacity="0"/>
</linearGradient>
</defs>
</svg>
